G04 EAGLE Gerber X2 export*
%TF.Part,Single*%
%TF.FileFunction,Other,Cream frame SOL*%
%TF.FilePolarity,Positive*%
%TF.GenerationSoftware,Autodesk,EAGLE,9.0.0*%
%TF.CreationDate,2018-06-13T06:25:04Z*%
G75*
%MOMM*%
%FSLAX34Y34*%
%LPD*%
%AMOC8*
5,1,8,0,0,1.08239X$1,22.5*%
G01*

G36*
X221950Y486496D02*
X221950Y486496D01*
X223023Y486601D01*
X223024Y486602D01*
X224056Y486915D01*
X224057Y486915D01*
X225008Y487423D01*
X225008Y487424D01*
X225842Y488108D01*
X226526Y488942D01*
X226527Y488942D01*
X227035Y489893D01*
X227035Y489894D01*
X227348Y490926D01*
X227349Y490927D01*
X227349Y490928D01*
X227349Y490932D01*
X227350Y490936D01*
X227350Y490937D01*
X227350Y490945D01*
X227351Y490949D01*
X227351Y490953D01*
X227351Y490954D01*
X227352Y490958D01*
X227352Y490962D01*
X227352Y490966D01*
X227353Y490970D01*
X227353Y490971D01*
X227353Y490975D01*
X227354Y490979D01*
X227354Y490983D01*
X227355Y490987D01*
X227355Y490988D01*
X227355Y490992D01*
X227355Y490996D01*
X227356Y491000D01*
X227356Y491004D01*
X227356Y491005D01*
X227357Y491009D01*
X227357Y491013D01*
X227357Y491017D01*
X227358Y491017D01*
X227357Y491017D01*
X227358Y491021D01*
X227358Y491022D01*
X227358Y491026D01*
X227359Y491030D01*
X227359Y491034D01*
X227360Y491038D01*
X227360Y491039D01*
X227360Y491043D01*
X227360Y491047D01*
X227361Y491051D01*
X227361Y491055D01*
X227361Y491056D01*
X227362Y491064D01*
X227362Y491068D01*
X227363Y491068D01*
X227362Y491068D01*
X227363Y491072D01*
X227363Y491073D01*
X227363Y491077D01*
X227364Y491085D01*
X227365Y491089D01*
X227365Y491090D01*
X227365Y491094D01*
X227365Y491098D01*
X227366Y491106D01*
X227366Y491107D01*
X227367Y491111D01*
X227367Y491115D01*
X227368Y491119D01*
X227368Y491128D01*
X227369Y491132D01*
X227369Y491136D01*
X227370Y491140D01*
X227370Y491141D01*
X227370Y491149D01*
X227371Y491153D01*
X227371Y491157D01*
X227371Y491158D01*
X227372Y491162D01*
X227372Y491166D01*
X227373Y491170D01*
X227373Y491174D01*
X227373Y491175D01*
X227373Y491179D01*
X227374Y491183D01*
X227374Y491187D01*
X227375Y491191D01*
X227375Y491192D01*
X227375Y491196D01*
X227375Y491200D01*
X227376Y491200D01*
X227375Y491200D01*
X227376Y491204D01*
X227376Y491208D01*
X227376Y491209D01*
X227377Y491213D01*
X227377Y491217D01*
X227378Y491221D01*
X227378Y491225D01*
X227378Y491226D01*
X227378Y491230D01*
X227379Y491234D01*
X227379Y491238D01*
X227380Y491242D01*
X227380Y491243D01*
X227380Y491247D01*
X227380Y491251D01*
X227381Y491251D01*
X227380Y491251D01*
X227381Y491255D01*
X227381Y491259D01*
X227381Y491260D01*
X227382Y491268D01*
X227383Y491272D01*
X227383Y491276D01*
X227383Y491277D01*
X227383Y491281D01*
X227384Y491289D01*
X227385Y491293D01*
X227385Y491294D01*
X227385Y491298D01*
X227386Y491302D01*
X227386Y491310D01*
X227386Y491311D01*
X227387Y491315D01*
X227387Y491319D01*
X227388Y491323D01*
X227388Y491332D01*
X227389Y491336D01*
X227389Y491340D01*
X227390Y491344D01*
X227390Y491345D01*
X227391Y491353D01*
X227391Y491357D01*
X227391Y491361D01*
X227391Y491362D01*
X227392Y491366D01*
X227392Y491370D01*
X227393Y491374D01*
X227393Y491378D01*
X227393Y491379D01*
X227393Y491383D01*
X227394Y491383D01*
X227393Y491383D01*
X227394Y491387D01*
X227394Y491391D01*
X227395Y491395D01*
X227395Y491396D01*
X227395Y491400D01*
X227396Y491404D01*
X227396Y491408D01*
X227396Y491412D01*
X227396Y491413D01*
X227397Y491417D01*
X227397Y491421D01*
X227398Y491425D01*
X227398Y491429D01*
X227398Y491430D01*
X227398Y491434D01*
X227399Y491434D01*
X227398Y491434D01*
X227399Y491438D01*
X227399Y491442D01*
X227400Y491451D01*
X227401Y491455D01*
X227401Y491459D01*
X227401Y491463D01*
X227401Y491464D01*
X227402Y491472D01*
X227403Y491476D01*
X227403Y491480D01*
X227403Y491481D01*
X227404Y491485D01*
X227404Y491493D01*
X227405Y491497D01*
X227405Y491498D01*
X227405Y491502D01*
X227406Y491506D01*
X227406Y491514D01*
X227406Y491515D01*
X227407Y491519D01*
X227407Y491523D01*
X227408Y491527D01*
X227409Y491536D01*
X227409Y491540D01*
X227409Y491544D01*
X227410Y491548D01*
X227410Y491549D01*
X227410Y491553D01*
X227411Y491557D01*
X227411Y491561D01*
X227411Y491565D01*
X227412Y491565D01*
X227411Y491566D01*
X227412Y491570D01*
X227412Y491574D01*
X227413Y491578D01*
X227413Y491582D01*
X227413Y491583D01*
X227414Y491587D01*
X227414Y491591D01*
X227414Y491595D01*
X227415Y491599D01*
X227415Y491600D01*
X227415Y491604D01*
X227416Y491608D01*
X227416Y491612D01*
X227416Y491616D01*
X227417Y491616D01*
X227416Y491617D01*
X227417Y491621D01*
X227417Y491625D01*
X227418Y491629D01*
X227418Y491633D01*
X227418Y491634D01*
X227419Y491638D01*
X227419Y491642D01*
X227419Y491646D01*
X227420Y491655D01*
X227421Y491659D01*
X227421Y491663D01*
X227422Y491667D01*
X227422Y491668D01*
X227422Y491676D01*
X227423Y491680D01*
X227423Y491684D01*
X227423Y491685D01*
X227424Y491689D01*
X227424Y491697D01*
X227425Y491701D01*
X227425Y491702D01*
X227425Y491706D01*
X227426Y491710D01*
X227427Y491718D01*
X227427Y491719D01*
X227427Y491723D01*
X227427Y491727D01*
X227428Y491731D01*
X227429Y491740D01*
X227429Y491744D01*
X227429Y491748D01*
X227430Y491748D01*
X227429Y491748D01*
X227430Y491752D01*
X227430Y491753D01*
X227430Y491757D01*
X227431Y491761D01*
X227431Y491765D01*
X227432Y491769D01*
X227432Y491770D01*
X227432Y491774D01*
X227432Y491778D01*
X227433Y491782D01*
X227433Y491786D01*
X227433Y491787D01*
X227434Y491791D01*
X227434Y491795D01*
X227434Y491799D01*
X227435Y491799D01*
X227434Y491799D01*
X227435Y491803D01*
X227435Y491804D01*
X227435Y491808D01*
X227436Y491812D01*
X227436Y491816D01*
X227437Y491820D01*
X227437Y491821D01*
X227437Y491825D01*
X227437Y491829D01*
X227438Y491837D01*
X227438Y491838D01*
X227439Y491842D01*
X227439Y491846D01*
X227440Y491850D01*
X227440Y491859D01*
X227441Y491863D01*
X227441Y491867D01*
X227442Y491871D01*
X227442Y491872D01*
X227442Y491880D01*
X227443Y491884D01*
X227443Y491888D01*
X227443Y491889D01*
X227444Y491893D01*
X227445Y491901D01*
X227445Y491905D01*
X227445Y491906D01*
X227445Y491910D01*
X227446Y491914D01*
X227447Y491922D01*
X227447Y491923D01*
X227447Y491927D01*
X227447Y491931D01*
X227448Y491931D01*
X227447Y491931D01*
X227448Y491935D01*
X227448Y491939D01*
X227448Y491940D01*
X227449Y491944D01*
X227449Y491948D01*
X227450Y491952D01*
X227450Y491956D01*
X227450Y491957D01*
X227450Y491961D01*
X227451Y491965D01*
X227451Y491969D01*
X227452Y491973D01*
X227452Y491974D01*
X227452Y491978D01*
X227452Y491982D01*
X227453Y491982D01*
X227453Y491986D01*
X227453Y491990D01*
X227453Y491991D01*
X227454Y491995D01*
X227454Y491999D01*
X227454Y492000D01*
X227349Y493073D01*
X227348Y493074D01*
X227035Y494106D01*
X227035Y494107D01*
X226527Y495058D01*
X226526Y495058D01*
X225842Y495892D01*
X225008Y496576D01*
X225008Y496577D01*
X224057Y497085D01*
X224056Y497085D01*
X223024Y497398D01*
X223023Y497399D01*
X221950Y497504D01*
X220450Y497504D01*
X220134Y497563D01*
X219763Y497670D01*
X219420Y497847D01*
X218720Y498401D01*
X218322Y498902D01*
X218074Y499493D01*
X218072Y499494D01*
X218069Y499495D01*
X218035Y499606D01*
X218035Y499607D01*
X217527Y500558D01*
X217526Y500558D01*
X216842Y501392D01*
X216008Y502076D01*
X216008Y502077D01*
X215057Y502585D01*
X215056Y502585D01*
X214024Y502898D01*
X214023Y502899D01*
X212951Y503004D01*
X212950Y503004D01*
X211877Y502899D01*
X211876Y502898D01*
X210844Y502585D01*
X210843Y502585D01*
X209892Y502077D01*
X209892Y502076D01*
X209058Y501392D01*
X208374Y500558D01*
X208373Y500558D01*
X207865Y499607D01*
X207865Y499606D01*
X207552Y498574D01*
X207551Y498573D01*
X207551Y498571D01*
X207551Y498566D01*
X207550Y498562D01*
X207550Y498558D01*
X207550Y498554D01*
X207549Y498554D01*
X207550Y498554D01*
X207549Y498549D01*
X207549Y498545D01*
X207548Y498541D01*
X207548Y498537D01*
X207547Y498532D01*
X207547Y498528D01*
X207547Y498524D01*
X207546Y498520D01*
X207546Y498515D01*
X207545Y498507D01*
X207545Y498503D01*
X207544Y498503D01*
X207545Y498503D01*
X207544Y498498D01*
X207544Y498494D01*
X207543Y498486D01*
X207542Y498481D01*
X207542Y498477D01*
X207542Y498473D01*
X207541Y498464D01*
X207540Y498460D01*
X207540Y498456D01*
X207539Y498452D01*
X207539Y498443D01*
X207538Y498439D01*
X207538Y498435D01*
X207537Y498430D01*
X207537Y498422D01*
X207536Y498418D01*
X207536Y498413D01*
X207535Y498409D01*
X207535Y498405D01*
X207534Y498401D01*
X207534Y498396D01*
X207534Y498392D01*
X207533Y498388D01*
X207533Y498384D01*
X207532Y498379D01*
X207532Y498375D01*
X207532Y498371D01*
X207531Y498371D01*
X207532Y498371D01*
X207531Y498367D01*
X207531Y498362D01*
X207530Y498358D01*
X207530Y498354D01*
X207529Y498350D01*
X207529Y498345D01*
X207529Y498341D01*
X207528Y498337D01*
X207528Y498333D01*
X207527Y498328D01*
X207527Y498324D01*
X207527Y498320D01*
X207526Y498320D01*
X207527Y498320D01*
X207526Y498316D01*
X207526Y498311D01*
X207525Y498303D01*
X207524Y498299D01*
X207524Y498294D01*
X207524Y498290D01*
X207523Y498282D01*
X207522Y498277D01*
X207522Y498273D01*
X207521Y498269D01*
X207521Y498260D01*
X207520Y498256D01*
X207520Y498252D01*
X207519Y498248D01*
X207519Y498239D01*
X207518Y498235D01*
X207518Y498231D01*
X207517Y498226D01*
X207516Y498218D01*
X207516Y498214D01*
X207516Y498209D01*
X207515Y498205D01*
X207515Y498201D01*
X207514Y498197D01*
X207514Y498192D01*
X207514Y498188D01*
X207513Y498188D01*
X207514Y498188D01*
X207513Y498184D01*
X207513Y498180D01*
X207512Y498175D01*
X207512Y498171D01*
X207511Y498167D01*
X207511Y498163D01*
X207511Y498158D01*
X207510Y498154D01*
X207510Y498150D01*
X207509Y498146D01*
X207509Y498141D01*
X207509Y498137D01*
X207508Y498137D01*
X207509Y498137D01*
X207508Y498133D01*
X207508Y498129D01*
X207507Y498120D01*
X207506Y498116D01*
X207506Y498112D01*
X207506Y498107D01*
X207505Y498099D01*
X207504Y498095D01*
X207504Y498090D01*
X207503Y498086D01*
X207503Y498078D01*
X207502Y498073D01*
X207502Y498069D01*
X207501Y498065D01*
X207501Y498056D01*
X207500Y498052D01*
X207500Y498048D01*
X207499Y498044D01*
X207498Y498035D01*
X207498Y498031D01*
X207498Y498027D01*
X207497Y498022D01*
X207497Y498018D01*
X207496Y498014D01*
X207496Y498010D01*
X207496Y498005D01*
X207495Y498005D01*
X207496Y498005D01*
X207495Y498001D01*
X207495Y497997D01*
X207494Y497993D01*
X207494Y497988D01*
X207493Y497984D01*
X207493Y497980D01*
X207493Y497976D01*
X207492Y497971D01*
X207492Y497967D01*
X207491Y497963D01*
X207491Y497959D01*
X207491Y497954D01*
X207490Y497954D01*
X207491Y497954D01*
X207490Y497950D01*
X207490Y497946D01*
X207489Y497942D01*
X207489Y497937D01*
X207488Y497933D01*
X207488Y497929D01*
X207488Y497925D01*
X207487Y497916D01*
X207486Y497912D01*
X207486Y497908D01*
X207485Y497903D01*
X207485Y497895D01*
X207484Y497891D01*
X207484Y497886D01*
X207483Y497882D01*
X207483Y497874D01*
X207482Y497869D01*
X207482Y497865D01*
X207481Y497861D01*
X207480Y497852D01*
X207480Y497848D01*
X207480Y497844D01*
X207479Y497840D01*
X207478Y497831D01*
X207478Y497827D01*
X207478Y497823D01*
X207477Y497823D01*
X207478Y497823D01*
X207477Y497818D01*
X207477Y497814D01*
X207476Y497810D01*
X207476Y497806D01*
X207475Y497801D01*
X207475Y497797D01*
X207475Y497793D01*
X207474Y497789D01*
X207474Y497784D01*
X207473Y497780D01*
X207473Y497776D01*
X207473Y497772D01*
X207472Y497772D01*
X207473Y497772D01*
X207472Y497767D01*
X207472Y497763D01*
X207471Y497759D01*
X207471Y497755D01*
X207470Y497750D01*
X207470Y497746D01*
X207470Y497742D01*
X207469Y497733D01*
X207468Y497729D01*
X207468Y497725D01*
X207467Y497721D01*
X207467Y497712D01*
X207466Y497708D01*
X207466Y497704D01*
X207465Y497699D01*
X207465Y497691D01*
X207464Y497687D01*
X207464Y497682D01*
X207463Y497678D01*
X207462Y497670D01*
X207462Y497665D01*
X207462Y497661D01*
X207461Y497657D01*
X207460Y497648D01*
X207460Y497644D01*
X207460Y497640D01*
X207459Y497640D01*
X207460Y497640D01*
X207459Y497636D01*
X207459Y497631D01*
X207458Y497627D01*
X207458Y497623D01*
X207457Y497619D01*
X207457Y497614D01*
X207457Y497610D01*
X207456Y497606D01*
X207456Y497602D01*
X207455Y497597D01*
X207455Y497593D01*
X207455Y497589D01*
X207454Y497589D01*
X207454Y497585D01*
X207454Y497580D01*
X207453Y497576D01*
X207453Y497572D01*
X207452Y497568D01*
X207452Y497563D01*
X207452Y497559D01*
X207451Y497555D01*
X207451Y497551D01*
X207450Y497546D01*
X207450Y497542D01*
X207449Y497538D01*
X207449Y497529D01*
X207448Y497525D01*
X207448Y497521D01*
X207447Y497517D01*
X207447Y497508D01*
X207446Y497504D01*
X207446Y497500D01*
X207446Y491250D01*
X207565Y490193D01*
X207565Y490192D01*
X207916Y489188D01*
X207917Y489187D01*
X208483Y488286D01*
X208483Y488285D01*
X209235Y487533D01*
X209236Y487533D01*
X210137Y486967D01*
X210138Y486966D01*
X211142Y486615D01*
X211143Y486615D01*
X212200Y486496D01*
X221950Y486496D01*
X221950Y486496D01*
G37*
G36*
X212950Y571996D02*
X212950Y571996D01*
X214023Y572101D01*
X214024Y572102D01*
X215056Y572415D01*
X215057Y572415D01*
X216008Y572923D01*
X216008Y572924D01*
X216842Y573608D01*
X217526Y574442D01*
X217527Y574442D01*
X218035Y575393D01*
X218035Y575394D01*
X218069Y575506D01*
X218071Y575506D01*
X218074Y575507D01*
X218322Y576098D01*
X218720Y576599D01*
X219420Y577153D01*
X219763Y577330D01*
X220134Y577437D01*
X220450Y577496D01*
X221950Y577496D01*
X223023Y577601D01*
X223024Y577602D01*
X224056Y577915D01*
X224057Y577915D01*
X225008Y578423D01*
X225008Y578424D01*
X225842Y579108D01*
X226526Y579942D01*
X226527Y579942D01*
X227035Y580893D01*
X227035Y580894D01*
X227348Y581926D01*
X227349Y581927D01*
X227454Y583000D01*
X227349Y584073D01*
X227348Y584074D01*
X227035Y585106D01*
X227035Y585107D01*
X226527Y586058D01*
X226526Y586058D01*
X225842Y586892D01*
X225008Y587576D01*
X225008Y587577D01*
X224057Y588085D01*
X224056Y588085D01*
X223024Y588398D01*
X223023Y588399D01*
X221950Y588504D01*
X212200Y588504D01*
X211143Y588385D01*
X211142Y588385D01*
X210138Y588034D01*
X210137Y588033D01*
X209236Y587467D01*
X209235Y587467D01*
X208483Y586715D01*
X208483Y586714D01*
X207917Y585813D01*
X207916Y585812D01*
X207565Y584808D01*
X207565Y584807D01*
X207446Y583750D01*
X207446Y577500D01*
X207551Y576427D01*
X207552Y576426D01*
X207865Y575394D01*
X207865Y575393D01*
X208373Y574442D01*
X208374Y574442D01*
X209058Y573608D01*
X209892Y572924D01*
X209892Y572923D01*
X210843Y572415D01*
X210844Y572415D01*
X211876Y572102D01*
X211877Y572101D01*
X212949Y571996D01*
X212950Y571996D01*
X212950Y571996D01*
G37*
G36*
X180500Y591696D02*
X180500Y591696D01*
X181724Y591834D01*
X181725Y591834D01*
X182888Y592241D01*
X182889Y592241D01*
X183931Y592896D01*
X183932Y592897D01*
X184803Y593768D01*
X184804Y593769D01*
X185459Y594811D01*
X185459Y594812D01*
X185866Y595975D01*
X185866Y595976D01*
X186004Y597200D01*
X185866Y598424D01*
X185866Y598425D01*
X185459Y599588D01*
X185459Y599589D01*
X184804Y600631D01*
X184803Y600632D01*
X183932Y601503D01*
X183931Y601504D01*
X182889Y602159D01*
X182888Y602159D01*
X181725Y602566D01*
X181724Y602566D01*
X180500Y602704D01*
X169500Y602704D01*
X168276Y602566D01*
X168275Y602566D01*
X167112Y602159D01*
X167111Y602159D01*
X166069Y601504D01*
X166068Y601503D01*
X165197Y600632D01*
X165196Y600631D01*
X164541Y599589D01*
X164541Y599588D01*
X164134Y598425D01*
X164134Y598424D01*
X163996Y597200D01*
X164101Y596127D01*
X164102Y596126D01*
X164415Y595094D01*
X164415Y595093D01*
X164923Y594142D01*
X164924Y594142D01*
X165608Y593308D01*
X166442Y592624D01*
X166442Y592623D01*
X167393Y592115D01*
X167394Y592115D01*
X168426Y591802D01*
X168427Y591801D01*
X169500Y591696D01*
X180500Y591696D01*
X180500Y591696D01*
G37*
G36*
X180500Y472296D02*
X180500Y472296D01*
X181724Y472434D01*
X181725Y472434D01*
X182888Y472841D01*
X182889Y472841D01*
X183931Y473496D01*
X183932Y473497D01*
X184803Y474368D01*
X184804Y474369D01*
X185459Y475411D01*
X185459Y475412D01*
X185866Y476575D01*
X185866Y476576D01*
X186004Y477800D01*
X185866Y479024D01*
X185866Y479025D01*
X185459Y480188D01*
X185459Y480189D01*
X184804Y481231D01*
X184803Y481232D01*
X183932Y482103D01*
X183931Y482104D01*
X182889Y482759D01*
X182888Y482759D01*
X181725Y483166D01*
X181724Y483166D01*
X180500Y483304D01*
X169500Y483304D01*
X168276Y483166D01*
X168275Y483166D01*
X167112Y482759D01*
X167111Y482759D01*
X166069Y482104D01*
X166068Y482103D01*
X165197Y481232D01*
X165196Y481231D01*
X164541Y480189D01*
X164541Y480188D01*
X164134Y479025D01*
X164134Y479024D01*
X163996Y477800D01*
X164101Y476727D01*
X164102Y476726D01*
X164415Y475694D01*
X164415Y475693D01*
X164923Y474742D01*
X164924Y474742D01*
X165608Y473908D01*
X166442Y473224D01*
X166442Y473223D01*
X167393Y472715D01*
X167394Y472715D01*
X168426Y472402D01*
X168427Y472401D01*
X169500Y472296D01*
X180500Y472296D01*
X180500Y472296D01*
G37*
%LPC*%
G36*
X212450Y489504D02*
X212450Y489504D01*
X211804Y489589D01*
X211202Y489839D01*
X210685Y490235D01*
X210289Y490752D01*
X210039Y491354D01*
X209954Y492000D01*
X209954Y497500D01*
X209955Y497503D01*
X209955Y497507D01*
X209956Y497511D01*
X209956Y497515D01*
X209956Y497516D01*
X209957Y497520D01*
X209957Y497524D01*
X209957Y497528D01*
X209958Y497537D01*
X209959Y497541D01*
X209960Y497549D01*
X209960Y497550D01*
X209960Y497554D01*
X209961Y497562D01*
X209962Y497566D01*
X209962Y497567D01*
X209963Y497575D01*
X209963Y497579D01*
X209964Y497588D01*
X209965Y497592D01*
X209966Y497600D01*
X209966Y497601D01*
X209966Y497605D01*
X209967Y497613D01*
X209968Y497617D01*
X209968Y497618D01*
X209968Y497626D01*
X209969Y497626D01*
X209968Y497626D01*
X209969Y497630D01*
X209970Y497639D01*
X209970Y497643D01*
X209971Y497651D01*
X209971Y497652D01*
X209972Y497656D01*
X209972Y497660D01*
X209973Y497664D01*
X209973Y497668D01*
X209973Y497669D01*
X209974Y497673D01*
X209974Y497677D01*
X209975Y497681D01*
X209975Y497685D01*
X209975Y497686D01*
X209976Y497694D01*
X209977Y497698D01*
X209978Y497707D01*
X209978Y497711D01*
X209979Y497719D01*
X209979Y497720D01*
X209979Y497724D01*
X209980Y497724D01*
X209979Y497724D01*
X209980Y497732D01*
X209981Y497736D01*
X209981Y497737D01*
X209982Y497745D01*
X209982Y497749D01*
X209983Y497758D01*
X209984Y497762D01*
X209985Y497770D01*
X209985Y497771D01*
X209985Y497775D01*
X209986Y497783D01*
X209987Y497787D01*
X209987Y497788D01*
X209988Y497796D01*
X209988Y497800D01*
X209989Y497804D01*
X209989Y497805D01*
X209989Y497809D01*
X209990Y497813D01*
X209990Y497817D01*
X209991Y497821D01*
X209991Y497822D01*
X209991Y497826D01*
X209991Y497830D01*
X209992Y497838D01*
X209992Y497839D01*
X209993Y497843D01*
X209994Y497851D01*
X209994Y497855D01*
X209994Y497856D01*
X209995Y497864D01*
X209996Y497868D01*
X209997Y497877D01*
X209997Y497881D01*
X209998Y497889D01*
X209998Y497890D01*
X209999Y497894D01*
X210000Y497902D01*
X210000Y497906D01*
X210000Y497907D01*
X210001Y497915D01*
X210002Y497919D01*
X210002Y497928D01*
X210003Y497928D01*
X210002Y497928D01*
X210003Y497932D01*
X210004Y497940D01*
X210004Y497941D01*
X210004Y497945D01*
X210005Y497953D01*
X210006Y497957D01*
X210006Y497958D01*
X210006Y497962D01*
X210007Y497966D01*
X210007Y497970D01*
X210008Y497974D01*
X210008Y497975D01*
X210008Y497979D01*
X210009Y497983D01*
X210009Y497987D01*
X210010Y497996D01*
X210011Y498000D01*
X210012Y498008D01*
X210012Y498009D01*
X210012Y498013D01*
X210013Y498021D01*
X210013Y498025D01*
X210014Y498025D01*
X210013Y498026D01*
X210014Y498034D01*
X210015Y498038D01*
X210016Y498047D01*
X210016Y498051D01*
X210017Y498059D01*
X210017Y498060D01*
X210018Y498064D01*
X210019Y498072D01*
X210019Y498076D01*
X210019Y498077D01*
X210020Y498085D01*
X210021Y498089D01*
X210022Y498098D01*
X210022Y498102D01*
X210023Y498110D01*
X210023Y498111D01*
X210024Y498115D01*
X210024Y498119D01*
X210025Y498123D01*
X210025Y498127D01*
X210025Y498128D01*
X210025Y498132D01*
X210026Y498140D01*
X210027Y498144D01*
X210027Y498145D01*
X210028Y498153D01*
X210028Y498157D01*
X210029Y498166D01*
X210029Y498167D01*
X210251Y498800D01*
X210608Y499368D01*
X211082Y499842D01*
X211650Y500199D01*
X212283Y500421D01*
X212950Y500496D01*
X213617Y500421D01*
X214250Y500199D01*
X214818Y499842D01*
X215292Y499368D01*
X215649Y498800D01*
X215871Y498167D01*
X215946Y497500D01*
X215946Y496000D01*
X215946Y495999D01*
X215997Y495611D01*
X215997Y495610D01*
X216147Y495248D01*
X216148Y495248D01*
X216148Y495247D01*
X216386Y494937D01*
X216387Y494937D01*
X216387Y494936D01*
X216697Y494698D01*
X216698Y494698D01*
X216698Y494697D01*
X217060Y494547D01*
X217061Y494547D01*
X217449Y494496D01*
X217450Y494496D01*
X221950Y494496D01*
X222596Y494411D01*
X223198Y494161D01*
X223715Y493765D01*
X224111Y493248D01*
X224361Y492646D01*
X224446Y492000D01*
X224445Y491996D01*
X224441Y491966D01*
X224441Y491962D01*
X224440Y491958D01*
X224440Y491953D01*
X224435Y491919D01*
X224435Y491915D01*
X224434Y491911D01*
X224433Y491907D01*
X224430Y491877D01*
X224429Y491877D01*
X224429Y491873D01*
X224428Y491868D01*
X224428Y491864D01*
X224423Y491830D01*
X224423Y491826D01*
X224422Y491822D01*
X224422Y491817D01*
X224418Y491788D01*
X224417Y491783D01*
X224417Y491779D01*
X224416Y491775D01*
X224412Y491741D01*
X224411Y491737D01*
X224410Y491732D01*
X224410Y491728D01*
X224406Y491698D01*
X224405Y491694D01*
X224405Y491690D01*
X224404Y491686D01*
X224400Y491652D01*
X224399Y491647D01*
X224399Y491643D01*
X224398Y491639D01*
X224394Y491609D01*
X224394Y491605D01*
X224393Y491601D01*
X224393Y491596D01*
X224388Y491562D01*
X224388Y491558D01*
X224387Y491554D01*
X224386Y491550D01*
X224383Y491520D01*
X224382Y491520D01*
X224382Y491516D01*
X224381Y491511D01*
X224381Y491507D01*
X224376Y491473D01*
X224376Y491469D01*
X224375Y491465D01*
X224375Y491460D01*
X224371Y491431D01*
X224370Y491426D01*
X224370Y491422D01*
X224369Y491418D01*
X224365Y491384D01*
X224364Y491380D01*
X224363Y491375D01*
X224363Y491371D01*
X224361Y491354D01*
X224111Y490752D01*
X223715Y490235D01*
X223198Y489839D01*
X222596Y489589D01*
X221950Y489504D01*
X212450Y489504D01*
G37*
%LPD*%
%LPC*%
G36*
X212283Y574579D02*
X212283Y574579D01*
X211650Y574801D01*
X211082Y575158D01*
X210608Y575632D01*
X210251Y576200D01*
X210029Y576833D01*
X209954Y577500D01*
X209954Y583000D01*
X210039Y583646D01*
X210289Y584248D01*
X210685Y584765D01*
X211202Y585161D01*
X211804Y585411D01*
X212450Y585496D01*
X221950Y585496D01*
X222596Y585411D01*
X223198Y585161D01*
X223715Y584765D01*
X224111Y584248D01*
X224361Y583646D01*
X224446Y583000D01*
X224361Y582354D01*
X224111Y581752D01*
X223715Y581235D01*
X223198Y580839D01*
X222596Y580589D01*
X221950Y580504D01*
X217450Y580504D01*
X217449Y580504D01*
X217061Y580453D01*
X217060Y580453D01*
X216698Y580303D01*
X216698Y580302D01*
X216697Y580302D01*
X216387Y580064D01*
X216387Y580063D01*
X216386Y580063D01*
X216148Y579753D01*
X216148Y579752D01*
X216147Y579752D01*
X215997Y579390D01*
X215997Y579389D01*
X215946Y579001D01*
X215946Y579000D01*
X215946Y577500D01*
X215871Y576833D01*
X215649Y576200D01*
X215292Y575632D01*
X214818Y575158D01*
X214250Y574801D01*
X213617Y574579D01*
X212950Y574504D01*
X212283Y574579D01*
G37*
%LPD*%
%LPC*%
G36*
X169500Y594704D02*
X169500Y594704D01*
X168854Y594789D01*
X168252Y595039D01*
X167735Y595435D01*
X167339Y595952D01*
X167089Y596554D01*
X167004Y597200D01*
X167089Y597846D01*
X167339Y598448D01*
X167735Y598965D01*
X168252Y599361D01*
X168854Y599611D01*
X169500Y599696D01*
X180500Y599696D01*
X181146Y599611D01*
X181748Y599361D01*
X182265Y598965D01*
X182661Y598448D01*
X182911Y597846D01*
X182996Y597200D01*
X182911Y596554D01*
X182661Y595952D01*
X182265Y595435D01*
X181748Y595039D01*
X181146Y594789D01*
X180500Y594704D01*
X169500Y594704D01*
G37*
%LPD*%
%LPC*%
G36*
X169500Y475304D02*
X169500Y475304D01*
X168854Y475389D01*
X168252Y475639D01*
X167735Y476035D01*
X167339Y476552D01*
X167089Y477154D01*
X167004Y477800D01*
X167089Y478446D01*
X167339Y479048D01*
X167735Y479565D01*
X168252Y479961D01*
X168854Y480211D01*
X169500Y480296D01*
X180500Y480296D01*
X181146Y480211D01*
X181748Y479961D01*
X182265Y479565D01*
X182661Y479048D01*
X182911Y478446D01*
X182996Y477800D01*
X182911Y477154D01*
X182661Y476552D01*
X182265Y476035D01*
X181748Y475639D01*
X181146Y475389D01*
X180500Y475304D01*
X169500Y475304D01*
G37*
%LPD*%
M02*
