G04 EAGLE Gerber X2 export*
%TF.Part,Single*%
%TF.FileFunction,Other,Solder stop mask SOL*%
%TF.FilePolarity,Positive*%
%TF.GenerationSoftware,Autodesk,EAGLE,9.0.0*%
%TF.CreationDate,2018-06-13T06:25:04Z*%
G75*
%MOMM*%
%FSLAX34Y34*%
%LPD*%
%AMOC8*
5,1,8,0,0,1.08239X$1,22.5*%
G01*
%ADD10C,4.703200*%
%ADD11P,4.343848X8X22.500000*%
%ADD12C,2.153200*%
%ADD13R,2.235200X2.235200*%
%ADD14C,2.235200*%
%ADD15C,2.082800*%
%ADD16C,1.103200*%
%ADD17C,2.743200*%
%ADD18C,2.453200*%
%ADD19C,1.703200*%
%ADD20C,1.928200*%
%ADD21C,4.946200*%
%ADD22P,1.704548X8X22.500000*%
%ADD23C,1.879600*%
%ADD24C,1.574800*%
%ADD25R,2.402719X1.314969*%
%ADD26R,2.402250X1.290031*%
%ADD27R,2.194241X1.309519*%
%ADD28R,1.243709X0.557791*%
%ADD29R,2.195481X1.294400*%
%ADD30R,1.289031X0.538331*%
%ADD31C,0.703200*%
%ADD32C,0.803200*%
%ADD33C,2.593200*%
%ADD34C,1.016000*%
%ADD35R,1.016000X1.016000*%


D10*
X228600Y76200D03*
X2768600Y50800D03*
X2463800Y1016000D03*
X228600Y1016000D03*
D11*
X448200Y1035400D03*
X389700Y1035400D03*
D12*
X666600Y950700D03*
X666600Y1008700D03*
X618600Y980700D03*
D13*
X1803800Y38100D03*
D14*
X1853800Y38100D03*
D13*
X733400Y38100D03*
D14*
X783400Y38100D03*
D13*
X1089000Y38100D03*
D14*
X1139000Y38100D03*
D15*
X1706600Y957770D03*
X1706600Y929830D03*
X1681200Y957770D03*
X1681200Y929830D03*
X1655800Y957770D03*
X1655800Y929830D03*
X1630400Y957770D03*
X1630400Y929830D03*
X1605000Y957770D03*
X1605000Y929830D03*
D13*
X2163100Y38100D03*
D14*
X2213100Y38100D03*
D13*
X2518700Y38100D03*
D14*
X2568700Y38100D03*
D13*
X1448200Y38100D03*
D14*
X1498200Y38100D03*
D16*
X869800Y1043500D02*
X869800Y1052500D01*
X882300Y1052500D02*
X882300Y1043500D01*
X894800Y1043500D02*
X894800Y1052500D01*
X907300Y1052500D02*
X907300Y1043500D01*
X919800Y1043500D02*
X919800Y1052500D01*
X933300Y1052500D02*
X933300Y1043500D01*
X945800Y1043500D02*
X945800Y1052500D01*
X958300Y1052500D02*
X958300Y1043500D01*
X970800Y1043500D02*
X970800Y1052500D01*
X983300Y1052500D02*
X983300Y1043500D01*
X996800Y1043500D02*
X996800Y1052500D01*
X1009300Y1052500D02*
X1009300Y1043500D01*
X1021800Y1043500D02*
X1021800Y1052500D01*
X1034300Y1052500D02*
X1034300Y1043500D01*
X1046800Y1043500D02*
X1046800Y1052500D01*
X1060300Y1052500D02*
X1060300Y1043500D01*
X1072800Y1043500D02*
X1072800Y1052500D01*
X1085300Y1052500D02*
X1085300Y1043500D01*
X1097800Y1043500D02*
X1097800Y1052500D01*
X1110300Y1052500D02*
X1110300Y1043500D01*
D17*
X172200Y890900D03*
D18*
X222200Y914900D03*
X222200Y866900D03*
X222200Y839900D03*
X222200Y941900D03*
D19*
X172200Y940900D03*
X172200Y840900D03*
X222200Y890900D03*
D20*
X1344300Y911500D03*
X1369300Y911500D03*
X1394300Y911500D03*
X1344300Y1061500D03*
X1394300Y1061500D03*
D21*
X1322800Y986500D03*
X1415800Y986500D03*
D22*
X2388000Y905400D03*
X2464200Y905400D03*
D23*
X2474800Y800800D03*
X2373200Y800800D03*
X2474800Y843000D03*
X2373200Y843000D03*
D24*
X1380100Y798658D02*
X1380100Y784942D01*
X1354700Y784942D02*
X1354700Y798658D01*
D25*
X174986Y597075D03*
D26*
X174989Y477950D03*
D27*
X217529Y583048D03*
D28*
X212781Y573789D03*
D29*
X217523Y491972D03*
D30*
X213055Y501192D03*
D31*
X221950Y583000D03*
D32*
X212950Y577500D03*
D31*
X221950Y492000D03*
D32*
X212950Y497500D03*
D31*
X175000Y597200D03*
X175000Y477800D03*
D33*
X2632500Y1037500D03*
X2657900Y1062900D03*
X2657900Y1012100D03*
X2607100Y1012100D03*
X2607100Y1062900D03*
D15*
X2692500Y405000D03*
X2667100Y405000D03*
X2641700Y405000D03*
X2616300Y405000D03*
X2590900Y405000D03*
X2692500Y357500D03*
X2667100Y357500D03*
X2641700Y357500D03*
X2616300Y357500D03*
X2590900Y357500D03*
X2692500Y305000D03*
X2667100Y305000D03*
X2641700Y305000D03*
X2616300Y305000D03*
X2590900Y305000D03*
D34*
X1612500Y442500D03*
X1710000Y442500D03*
X2332500Y442500D03*
X2427152Y436934D03*
X195000Y572500D03*
X195000Y492500D03*
X260000Y455000D03*
X2390000Y310000D03*
X955000Y307500D03*
X1315000Y305000D03*
X1672500Y307500D03*
X600000Y307500D03*
X1680000Y395000D03*
X1670000Y385000D03*
X1640000Y380000D03*
X272500Y512500D03*
X307500Y690000D03*
X340000Y730000D03*
X325689Y940000D03*
X325000Y907500D03*
X537500Y432500D03*
X297500Y635000D03*
X322500Y635000D03*
X350000Y635000D03*
X472500Y542500D03*
X532500Y552500D03*
X415000Y505000D03*
X307500Y430000D03*
X272500Y340000D03*
X322500Y340000D03*
X437500Y457500D03*
X430000Y740000D03*
X462500Y740000D03*
X500000Y737500D03*
X537500Y737500D03*
X502500Y605000D03*
X317500Y462500D03*
X277500Y625000D03*
X255000Y667500D03*
X607500Y572500D03*
X645000Y608662D03*
X426162Y327500D03*
X657500Y771162D03*
X467500Y577500D03*
X694951Y607451D03*
X417500Y665896D03*
X635000Y755000D03*
X677500Y727500D03*
X707500Y772146D03*
X727500Y637500D03*
X790250Y598750D03*
X410000Y365000D03*
X462500Y255000D03*
X435000Y255000D03*
X380000Y310000D03*
X433750Y212500D03*
X392500Y1005000D03*
X690000Y827500D03*
X380000Y577500D03*
X375000Y275000D03*
X1595000Y740000D03*
X1462500Y772500D03*
X1470000Y825000D03*
X1405000Y652500D03*
X1400000Y677500D03*
X1250000Y650000D03*
X1547500Y582500D03*
X1855000Y155000D03*
X945000Y382500D03*
X2352500Y377500D03*
X2387500Y382500D03*
X2397500Y392500D03*
X955000Y397500D03*
X905000Y377500D03*
X867500Y335000D03*
X2545000Y887500D03*
X2542500Y832500D03*
X2542500Y845000D03*
X2542500Y812500D03*
X2542500Y800000D03*
X2542500Y787500D03*
X2627500Y665000D03*
X2677500Y685000D03*
X2732500Y722500D03*
X2645000Y747500D03*
X2762500Y540000D03*
X2745000Y577500D03*
X2755000Y582500D03*
X2720000Y632500D03*
X2622500Y645000D03*
X2722500Y440000D03*
X2561000Y539000D03*
X2582500Y620000D03*
X2437500Y512500D03*
X2377500Y645000D03*
X2402500Y645000D03*
X2570100Y709900D03*
X1448500Y723000D03*
X1458500Y723000D03*
X1468500Y723000D03*
X1478500Y723000D03*
X1488500Y723000D03*
X1498500Y723000D03*
X1508500Y723000D03*
X1518500Y723000D03*
X1528500Y723000D03*
X1538500Y723000D03*
X1548500Y723000D03*
X1558500Y723000D03*
X1448500Y733000D03*
X1458500Y733000D03*
X1468500Y733000D03*
X1478500Y733000D03*
X1488500Y733000D03*
X1498500Y733000D03*
X1508500Y733000D03*
X1518500Y733000D03*
X1528500Y733000D03*
X1538500Y733000D03*
X1548500Y733000D03*
X1558500Y733000D03*
X1448500Y713000D03*
X1458500Y713000D03*
X1468500Y713000D03*
X1478500Y713000D03*
X1488500Y713000D03*
X1498500Y713000D03*
X1508500Y713000D03*
X1518500Y713000D03*
X1528500Y713000D03*
X1538500Y713000D03*
X1548500Y713000D03*
X1558500Y713000D03*
X1448500Y703000D03*
X1458500Y703000D03*
X1468500Y703000D03*
X1478500Y703000D03*
X1488500Y703000D03*
X1498500Y703000D03*
X1508500Y703000D03*
X1518500Y703000D03*
X1528500Y703000D03*
X1538500Y703000D03*
X1548500Y703000D03*
X1558500Y703000D03*
X1448500Y693000D03*
X1458500Y693000D03*
X1468500Y693000D03*
X1478500Y693000D03*
X1488500Y693000D03*
X1498500Y693000D03*
X1508500Y693000D03*
X1518500Y693000D03*
X1528500Y693000D03*
X1538500Y693000D03*
X1548500Y693000D03*
X1558500Y693000D03*
X1448500Y683000D03*
X1458500Y683000D03*
X1468500Y683000D03*
X1478500Y683000D03*
X1488500Y683000D03*
X1498500Y683000D03*
X1508500Y683000D03*
X1518500Y683000D03*
X1528500Y683000D03*
X1538500Y683000D03*
X1548500Y683000D03*
X1558500Y683000D03*
X1448500Y623000D03*
X1458500Y623000D03*
X1468500Y623000D03*
X1478500Y623000D03*
X1488500Y623000D03*
X1498500Y623000D03*
X1508500Y623000D03*
X1518500Y623000D03*
X1528500Y623000D03*
X1538500Y623000D03*
X1548500Y623000D03*
X1558500Y623000D03*
X1448500Y633000D03*
X1458500Y633000D03*
X1468500Y633000D03*
X1478500Y633000D03*
X1488500Y633000D03*
X1498500Y633000D03*
X1508500Y633000D03*
X1518500Y633000D03*
X1528500Y633000D03*
X1538500Y633000D03*
X1548500Y633000D03*
X1558500Y633000D03*
X1448500Y643000D03*
X1458500Y643000D03*
X1468500Y643000D03*
X1478500Y643000D03*
X1488500Y643000D03*
X1498500Y643000D03*
X1508500Y643000D03*
X1518500Y643000D03*
X1528500Y643000D03*
X1538500Y643000D03*
X1548500Y643000D03*
X1558500Y643000D03*
X1448500Y653000D03*
X1458500Y653000D03*
X1468500Y653000D03*
X1478500Y653000D03*
X1488500Y653000D03*
X1498500Y653000D03*
X1508500Y653000D03*
X1518500Y653000D03*
X1528500Y653000D03*
X1538500Y653000D03*
X1548500Y653000D03*
X1558500Y653000D03*
X1448500Y663000D03*
X1458500Y663000D03*
X1468500Y663000D03*
X1478500Y663000D03*
X1488500Y663000D03*
X1498500Y663000D03*
X1508500Y663000D03*
X1518500Y663000D03*
X1528500Y663000D03*
X1538500Y663000D03*
X1548500Y663000D03*
X1558500Y663000D03*
X1448500Y673000D03*
X1458500Y673000D03*
X1468500Y673000D03*
X1478500Y673000D03*
X1488500Y673000D03*
X1498500Y673000D03*
X1508500Y673000D03*
X1518500Y673000D03*
X1528500Y673000D03*
X1538500Y673000D03*
X1548500Y673000D03*
X1558500Y673000D03*
X2598500Y583000D03*
X2608500Y583000D03*
X2618500Y583000D03*
X2628500Y583000D03*
X2638500Y583000D03*
X2648500Y583000D03*
X2658500Y583000D03*
X2668500Y583000D03*
X2678500Y583000D03*
X2688500Y583000D03*
X2698500Y583000D03*
X2708500Y583000D03*
X2598500Y593000D03*
X2608500Y593000D03*
X2618500Y593000D03*
X2628500Y593000D03*
X2638500Y593000D03*
X2648500Y593000D03*
X2658500Y593000D03*
X2668500Y593000D03*
X2678500Y593000D03*
X2688500Y593000D03*
X2698500Y593000D03*
X2708500Y593000D03*
X2598500Y573000D03*
X2608500Y573000D03*
X2618500Y573000D03*
X2628500Y573000D03*
X2638500Y573000D03*
X2648500Y573000D03*
X2658500Y573000D03*
X2668500Y573000D03*
X2678500Y573000D03*
X2688500Y573000D03*
X2698500Y573000D03*
X2708500Y573000D03*
X2598500Y563000D03*
X2608500Y563000D03*
X2618500Y563000D03*
X2628500Y563000D03*
X2638500Y563000D03*
X2648500Y563000D03*
X2658500Y563000D03*
X2668500Y563000D03*
X2678500Y563000D03*
X2688500Y563000D03*
X2698500Y563000D03*
X2708500Y563000D03*
X2598500Y553000D03*
X2608500Y553000D03*
X2618500Y553000D03*
X2628500Y553000D03*
X2638500Y553000D03*
X2658500Y553000D03*
X2668500Y553000D03*
X2678500Y553000D03*
X2688500Y553000D03*
X2698500Y553000D03*
X2708500Y553000D03*
X2598500Y543000D03*
X2608500Y543000D03*
X2618500Y543000D03*
X2628500Y543000D03*
X2638500Y543000D03*
X2648500Y543000D03*
X2658500Y543000D03*
X2668500Y543000D03*
X2678500Y543000D03*
X2688500Y543000D03*
X2698500Y543000D03*
X2708500Y543000D03*
X2598500Y483000D03*
X2608500Y483000D03*
X2618500Y483000D03*
X2628500Y483000D03*
X2638500Y483000D03*
X2648500Y483000D03*
X2658500Y483000D03*
X2668500Y483000D03*
X2678500Y483000D03*
X2688500Y483000D03*
X2698500Y483000D03*
X2708500Y483000D03*
X2598500Y493000D03*
X2608500Y493000D03*
X2618500Y493000D03*
X2628500Y493000D03*
X2638500Y493000D03*
X2648500Y493000D03*
X2658500Y493000D03*
X2668500Y493000D03*
X2678500Y493000D03*
X2688500Y493000D03*
X2698500Y493000D03*
X2708500Y493000D03*
X2598500Y503000D03*
X2608500Y503000D03*
X2618500Y503000D03*
X2628500Y503000D03*
X2638500Y503000D03*
X2648500Y503000D03*
X2658500Y503000D03*
X2668500Y503000D03*
X2678500Y503000D03*
X2688500Y503000D03*
X2698500Y503000D03*
X2708500Y503000D03*
X2598500Y513000D03*
X2608500Y513000D03*
X2618500Y513000D03*
X2628500Y513000D03*
X2638500Y513000D03*
X2648500Y513000D03*
X2658500Y513000D03*
X2668500Y513000D03*
X2678500Y513000D03*
X2688500Y513000D03*
X2698500Y513000D03*
X2708500Y513000D03*
X2598500Y523000D03*
X2608500Y523000D03*
X2618500Y523000D03*
X2628500Y523000D03*
X2638500Y523000D03*
X2648500Y523000D03*
X2658500Y523000D03*
X2668500Y523000D03*
X2678500Y523000D03*
X2688500Y523000D03*
X2698500Y523000D03*
X2708500Y523000D03*
X2598500Y533000D03*
X2608500Y533000D03*
X2618500Y533000D03*
X2628500Y533000D03*
X2638500Y533000D03*
X2648500Y533000D03*
X2658500Y533000D03*
X2668500Y533000D03*
X2678500Y533000D03*
X2688500Y533000D03*
X2698500Y533000D03*
X2708500Y533000D03*
X1745000Y832500D03*
X1765000Y847500D03*
X1702500Y802500D03*
X1702500Y825000D03*
X1762500Y857500D03*
X1677500Y730000D03*
X1735000Y752500D03*
X1735000Y722500D03*
X1627500Y335000D03*
X2580000Y452500D03*
X1530000Y952500D03*
X1742500Y637500D03*
X1712500Y645000D03*
X1682500Y645000D03*
X1652500Y647500D03*
X1265000Y680000D03*
X1142500Y567500D03*
X1025000Y567500D03*
X1107500Y650000D03*
X1770000Y637500D03*
X742500Y820000D03*
X793250Y776750D03*
X374670Y630330D03*
X432500Y617500D03*
X305000Y517500D03*
X305000Y660000D03*
X307500Y275000D03*
X2370000Y382500D03*
X1655000Y370000D03*
X925000Y382500D03*
X2507500Y907500D03*
X2502500Y822500D03*
X2653904Y655000D03*
X2682500Y637500D03*
X2702500Y640000D03*
X2595000Y637500D03*
X2742500Y477500D03*
X2755000Y477500D03*
X2747500Y550000D03*
X2740000Y607500D03*
X2640000Y627500D03*
X2682500Y442500D03*
X2702500Y442500D03*
X2550000Y557500D03*
X2770000Y625000D03*
X2410286Y502786D03*
X2420000Y497500D03*
X2420000Y647500D03*
X1745000Y800000D03*
X1745000Y815000D03*
X1750000Y877500D03*
X1762500Y785000D03*
X1652500Y682500D03*
X1682500Y682500D03*
X1712500Y682500D03*
X1742500Y682500D03*
X1767500Y682500D03*
X1460000Y585000D03*
X1577500Y557500D03*
X2360000Y565000D03*
X2355000Y610000D03*
X1469652Y581604D03*
X1572500Y546044D03*
X1479304Y581604D03*
X1479652Y539440D03*
X2345000Y557500D03*
X2340000Y610000D03*
X1488956Y582500D03*
X1489304Y539440D03*
X1307500Y575000D03*
X1307500Y565348D03*
X1017500Y1017500D03*
X1307500Y555696D03*
X1307500Y546044D03*
X1555004Y775348D03*
X1742500Y775000D03*
X1552500Y785000D03*
X1785000Y790000D03*
X1552500Y795000D03*
X1774652Y790000D03*
X625000Y870896D03*
X685000Y870896D03*
X787500Y927500D03*
X2400000Y588486D03*
X2399104Y557500D03*
X1230000Y705000D03*
X1307500Y535000D03*
X321050Y523290D03*
X384398Y488219D03*
X375000Y457500D03*
X327643Y657643D03*
X360000Y730000D03*
X637500Y890708D03*
X2007500Y685000D03*
X1517500Y1027300D03*
X316661Y595661D03*
X317500Y647500D03*
X1602500Y697848D03*
X2520000Y772783D03*
X2520000Y782500D03*
X1602500Y707500D03*
X625000Y884104D03*
X665000Y884104D03*
X1497500Y867500D03*
X1525000Y817500D03*
X637500Y904104D03*
X675000Y905000D03*
X1497500Y857500D03*
X1517500Y807500D03*
X625000Y897500D03*
X665000Y897500D03*
X1495000Y847500D03*
X1507500Y817500D03*
X637500Y877500D03*
X675000Y877500D03*
X1506796Y795000D03*
X1495000Y834292D03*
X625000Y910708D03*
X665000Y910708D03*
X1315000Y697500D03*
X1315000Y865000D03*
X637500Y920000D03*
X675000Y920000D03*
X1325000Y872500D03*
X1337500Y685474D03*
X2475000Y557500D03*
X2457500Y607500D03*
X2462500Y557500D03*
X2442500Y607500D03*
X2430000Y607500D03*
X2450000Y557500D03*
X1630000Y452500D03*
X1685000Y450000D03*
X905000Y455000D03*
X957500Y450000D03*
X2350000Y452500D03*
X2426500Y449236D03*
X2393227Y512719D03*
X2392500Y597500D03*
X2617500Y627500D03*
X2545000Y540000D03*
X2658904Y445000D03*
X2662500Y432500D03*
X2750000Y527500D03*
X2498469Y701853D03*
X2375000Y475000D03*
X2396500Y475000D03*
X957500Y468412D03*
X920944Y472500D03*
X1647444Y470000D03*
X1685000Y468412D03*
X2367500Y467500D03*
X2405500Y465912D03*
X915000Y462500D03*
X967500Y459324D03*
X1640000Y462500D03*
X1695000Y459324D03*
X2360000Y460000D03*
X2415000Y456824D03*
X2755000Y490000D03*
X2362500Y487500D03*
X2475000Y487500D03*
X1522500Y127500D03*
X1517500Y132500D03*
X1527500Y122500D03*
X1527500Y132500D03*
X1517500Y122500D03*
X1782500Y127500D03*
X1777500Y122500D03*
X1787500Y132500D03*
X1787500Y122500D03*
X1777500Y132500D03*
X1170000Y127500D03*
X1075000Y125000D03*
X810000Y125000D03*
X1427500Y127500D03*
X1882500Y125000D03*
X2142500Y125000D03*
X2237500Y125000D03*
D35*
X2492500Y125000D03*
X2587500Y125000D03*
X2737500Y125000D03*
D34*
X625000Y552500D03*
X607500Y650000D03*
X575000Y705000D03*
X575000Y822500D03*
X695000Y172500D03*
X2270000Y267500D03*
X547500Y337500D03*
X830000Y372500D03*
X1587500Y342500D03*
X2531000Y267700D03*
X2517500Y105000D03*
X2521944Y279400D03*
X2486344Y177800D03*
X2539264Y279400D03*
X2505600Y228600D03*
X2561400Y279400D03*
X2510600Y203200D03*
X2412500Y438856D03*
X2380000Y347500D03*
X2172000Y269800D03*
X2157000Y224800D03*
X2194444Y278400D03*
X2137300Y228600D03*
X2185080Y288064D03*
X2213500Y228600D03*
X2251600Y266700D03*
X2251600Y190500D03*
X2202000Y267300D03*
X2169500Y104800D03*
X1655000Y477500D03*
X1695000Y477500D03*
X1832500Y272500D03*
X1827500Y107500D03*
X1807500Y305000D03*
X1807500Y185000D03*
X1840364Y285364D03*
X1820000Y220000D03*
X1857500Y297500D03*
X1812500Y205000D03*
X1470910Y263090D03*
X1447500Y105000D03*
X1482500Y262500D03*
X1542500Y180000D03*
X1545000Y227500D03*
X1464000Y281008D03*
X1471500Y273952D03*
X1431556Y227500D03*
X1456500Y288564D03*
X1522500Y282500D03*
X1447500Y280000D03*
X1422500Y205000D03*
X1695000Y439056D03*
X1665000Y347500D03*
X930000Y477500D03*
X967500Y477500D03*
X762500Y262500D03*
X725000Y225000D03*
X755000Y275000D03*
X796614Y256614D03*
X770000Y250000D03*
X732500Y105000D03*
X777500Y240000D03*
X777500Y165000D03*
X740000Y280000D03*
X715000Y205000D03*
X749088Y285000D03*
X797500Y275000D03*
X967500Y439056D03*
X940000Y347500D03*
X1132500Y290000D03*
X1075000Y207500D03*
X1130000Y260000D03*
X1105000Y105000D03*
X1117500Y247500D03*
X1117500Y150000D03*
X1107500Y282500D03*
X1083556Y230000D03*
X1517500Y1000000D03*
X1660000Y822500D03*
X1635000Y768744D03*
X1643944Y714104D03*
X1547500Y897500D03*
X1650000Y822500D03*
X1624388Y768100D03*
X1625000Y714104D03*
X1530000Y1050000D03*
X1670000Y822500D03*
X1647500Y768744D03*
X1647500Y742500D03*
X422654Y574979D03*
X500000Y675000D03*
X1135000Y525000D03*
X1592500Y755000D03*
X1442500Y772500D03*
X1410000Y715000D03*
X1405000Y630000D03*
X1395000Y665000D03*
X1445000Y585000D03*
X1572500Y587500D03*
X1660000Y765000D03*
X309444Y534896D03*
X267500Y590819D03*
X245000Y565000D03*
X261500Y562500D03*
X270500Y573000D03*
X195000Y532500D03*
X280000Y562500D03*
X195000Y542500D03*
X290063Y562438D03*
X332500Y592500D03*
X388577Y502500D03*
X422908Y565327D03*
X252500Y625000D03*
X305000Y490000D03*
X345000Y490000D03*
X460000Y523290D03*
X467500Y427500D03*
X670000Y615000D03*
X670000Y597500D03*
X448750Y303897D03*
X425000Y307500D03*
X680000Y772146D03*
X680088Y797999D03*
X675000Y624646D03*
X777500Y620000D03*
X750000Y790000D03*
X777500Y790000D03*
X338075Y613075D03*
X462500Y677500D03*
X378925Y501425D03*
X362500Y487500D03*
X257500Y510000D03*
X250000Y532848D03*
X239585Y514585D03*
X195712Y522062D03*
X240348Y532860D03*
X189425Y550575D03*
X230888Y557500D03*
X230888Y521189D03*
X1552500Y805000D03*
X1800000Y800348D03*
X1552500Y815000D03*
X1800000Y810000D03*
X2613500Y1045500D03*
X2613500Y1031000D03*
X2620500Y1023500D03*
X2619000Y999000D03*
X2619000Y981000D03*
X2646000Y981000D03*
X2646000Y999000D03*
X2644500Y1023500D03*
X2652000Y1031000D03*
X2651500Y1045500D03*
X2632500Y1058000D03*
M02*
