M48
;GenerationSoftware,Autodesk,EAGLE,9.0.0*%
;CreationDate,2018-06-13T06:30:13Z*%
FMAT,2
ICI,OFF
METRIC,TZ,000.000
T14C0.406
T13C0.500
T12C0.600
T11C0.914
T10C1.016
T9C1.118
T8C1.150
T7C1.168
T6C1.300
T5C1.500
T4C1.590
T3C3.162
T2C4.500
%
G90
M71
T2
X22860Y7620
X276860Y5080
X246380Y101600
X22860Y101600
T3
X141580Y98650
X132280Y98650
T4
X260710Y106290
X260710Y101210
X265790Y101210
X265790Y106290
X263250Y103750
T5
X17220Y89090
X22220Y91490
X22220Y86690
X22220Y83990
X22220Y94190
X17220Y94090
X22220Y89090
X17220Y84090
T6
X61860Y98070
X66660Y100870
X66660Y95070
T7
X216310Y3810
X221310Y3810
X251870Y3810
X256870Y3810
X144820Y3810
X149820Y3810
X113900Y3810
X73340Y3810
X185380Y3810
X180380Y3810
X108900Y3810
X78340Y3810
T8
X139430Y106150
X134430Y106150
X139430Y91150
X136930Y91150
X134430Y91150
T9
X237320Y84300
X38970Y103540
X44820Y103540
X247480Y84300
X237320Y80080
X247480Y80080
T10
X170660Y95777
X259090Y30500
X160500Y92983
X160500Y95777
X163040Y92983
X163040Y95777
X165580Y92983
X165580Y95777
X168120Y92983
X168120Y95777
X170660Y92983
X264170Y30500
X269250Y40500
X266710Y40500
X264170Y40500
X261630Y40500
X259090Y40500
X269250Y35750
X266710Y35750
X264170Y35750
X261630Y35750
X259090Y35750
X269250Y30500
X266710Y30500
X261630Y30500
T11
X135470Y79180
X138010Y79180
X246420Y90540
X238800Y90540
T12
X91980Y104800
X21295Y49750
X21295Y57750
X109780Y104800
X90730Y104800
X89480Y104800
X88230Y104800
X86980Y104800
X93330Y104800
X94580Y104800
X95830Y104800
X97080Y104800
X98330Y104800
X99680Y104800
X100930Y104800
X102180Y104800
X103430Y104800
X104680Y104800
X106030Y104800
X107280Y104800
X108530Y104800
X111030Y104800
T13
X22195Y58300
X22195Y49200
X17500Y59720
X17500Y47780
T14
X133750Y68547
X266250Y43250
X247500Y55750
X245750Y60750
X246250Y55750
X244250Y60750
X243000Y60750
X245000Y55750
X163000Y45250
X168500Y45000
X90500Y45500
X95750Y45000
X235000Y45250
X242650Y44924
X239323Y51272
X239250Y59750
X261750Y62750
X254500Y54000
X265890Y44500
X152500Y81750
X67500Y87750
X63750Y90410
X67500Y90500
X149750Y85750
X151750Y80750
X62500Y89750
X66500Y89750
X149500Y84750
X150750Y81750
X63750Y87750
X132500Y87250
X150680Y79500
X149500Y83429
X62500Y91071
X66500Y91071
X131500Y69750
X131500Y86500
X63750Y92000
X67500Y92000
X117000Y12750
X151750Y13250
X152750Y12250
X152750Y13250
X151750Y12250
X178250Y12750
X177750Y12250
X178750Y13250
X178750Y12250
X177750Y13250
X152250Y12750
X107500Y12500
X81000Y12500
X142750Y12750
X188250Y12500
X214250Y12500
X223750Y12500
X249250Y12500
X237000Y38250
X258750Y12500
X91500Y46250
X249847Y70185
X237500Y47500
X239650Y47500
X95750Y46841
X92094Y47250
X164744Y47000
X168500Y46841
X236750Y46750
X240550Y46591
X275000Y52750
X96750Y45932
X164000Y46250
X169500Y45932
X236000Y46000
X241500Y45682
X275500Y49000
X236250Y48750
X247500Y48750
X174250Y68250
X242000Y49750
X242000Y64750
X174500Y80000
X174500Y81500
X175000Y87750
X176250Y78500
X165250Y68250
X168250Y68250
X171250Y68250
X241029Y50279
X176750Y68250
X146000Y58500
X157750Y55750
X236000Y56500
X235500Y61000
X146965Y58160
X157250Y54604
X147930Y58160
X147965Y53944
X274250Y47750
X30750Y27500
X165500Y37000
X92500Y38250
X250750Y90750
X250250Y82250
X265390Y65500
X268250Y63750
X270250Y64000
X259500Y63750
X234500Y55750
X275500Y47750
X274750Y55000
X274000Y60750
X264000Y62750
X268250Y44250
X270250Y44250
X255000Y55750
X277000Y62500
X151750Y102730
X123000Y70500
X130750Y53500
X32105Y52329
X38440Y48822
X37500Y45750
X32764Y65764
X36000Y73000
X63750Y89071
X200750Y68500
X239910Y55750
X31666Y59566
X31750Y64750
X160250Y69785
X252000Y77278
X252000Y78250
X160250Y70750
X62500Y88410
X66500Y88410
X174250Y77500
X234000Y61000
X148896Y58250
X148930Y53944
X130750Y57500
X130750Y56535
X101750Y101750
X130750Y55570
X130750Y54604
X155500Y77535
X149750Y86750
X155250Y78500
X178500Y79000
X155250Y79500
X177465Y79000
X62500Y87090
X68500Y87090
X78750Y92750
X240000Y58849
X19500Y53250
X139500Y66500
X144500Y58500
X157250Y58750
X166000Y76500
X30944Y53490
X26750Y59082
X24500Y56500
X26150Y56250
X27050Y57300
X140500Y63000
X28000Y56250
X19500Y54250
X29006Y56244
X33250Y59250
X38858Y50250
X42291Y56533
X25250Y62500
X30500Y49000
X34500Y49000
X167000Y82250
X151750Y100000
X166000Y82250
X163500Y76874
X164394Y71410
X154750Y89750
X165000Y82250
X162439Y76810
X162500Y71410
X153000Y105000
X46000Y52329
X164750Y76874
X164750Y74250
X42265Y57498
X50000Y67500
X113500Y52500
X159250Y75500
X144250Y77250
X141000Y71500
X261350Y103100
X24035Y53286
X18943Y55057
X23089Y55750
X23089Y52119
X155250Y80500
X180000Y80035
X155250Y81500
X180000Y81000
X261350Y104550
X19571Y52206
X262050Y102350
X261900Y99900
X261900Y98100
X264600Y98100
X264600Y99900
X264450Y102350
X265200Y103100
X265150Y104550
X263250Y105800
X75000Y79000
X46750Y42750
X67000Y61500
X67000Y59750
X44875Y30390
X42500Y30750
X68000Y77215
X68009Y79800
X67500Y62465
X77750Y62000
X108356Y23000
X77750Y79000
X33808Y61307
X46250Y67750
X37892Y50142
X36250Y48750
X25750Y51000
X25000Y53285
X23958Y51458
X216950Y10480
X217200Y26980
X215700Y22480
X219444Y27840
X213730Y22860
X218508Y28806
X221350Y22860
X225160Y26670
X225160Y19050
X220200Y26730
X238000Y34750
X165500Y47750
X169500Y47750
X183250Y27250
X182750Y10750
X180750Y30500
X180750Y18500
X184036Y28536
X182000Y22000
X185750Y29750
X253100Y26770
X62500Y55250
X60750Y65000
X57500Y70500
X57500Y82250
X69500Y17250
X227000Y26750
X54750Y33750
X83000Y37250
X158750Y34250
X181250Y20500
X251750Y10500
X252194Y27940
X248634Y17780
X253926Y27940
X250560Y22860
X256140Y27940
X251060Y20320
X241250Y43886
X96750Y43906
X79661Y25661
X77000Y25000
X73250Y10500
X77750Y24000
X77750Y16500
X74000Y28000
X71500Y20500
X74909Y28500
X79750Y27500
X75500Y27500
X94000Y34750
X113250Y29000
X107500Y20750
X113000Y26000
X110500Y10500
X111750Y24750
X111750Y15000
X110750Y28250
X152250Y28250
X147091Y26309
X144750Y10500
X148250Y26250
X154250Y18000
X154500Y22750
X146400Y28101
X147150Y27395
X143156Y22750
X145650Y28856
X273750Y12500
X144750Y28000
X142250Y20500
X169500Y43906
X166500Y34750
X93000Y47750
X96750Y47750
X76250Y26250
X72500Y22500
X152850Y70300
X152850Y71300
X153850Y71300
X154850Y71300
X155850Y71300
X144850Y70300
X145850Y70300
X146850Y70300
X147850Y70300
X148850Y70300
X149850Y70300
X150850Y70300
X151850Y70300
X151850Y71300
X153850Y70300
X154850Y70300
X155850Y70300
X144850Y69300
X145850Y69300
X146850Y69300
X147850Y69300
X148850Y69300
X149850Y69300
X150850Y69300
X151850Y69300
X152850Y69300
X150850Y73300
X150850Y72300
X151850Y72300
X152850Y72300
X153850Y72300
X154850Y72300
X155850Y72300
X144850Y73300
X145850Y73300
X146850Y73300
X147850Y73300
X148850Y73300
X149850Y73300
X153850Y69300
X151850Y73300
X152850Y73300
X153850Y73300
X154850Y73300
X155850Y73300
X144850Y71300
X145850Y71300
X146850Y71300
X147850Y71300
X148850Y71300
X149850Y71300
X150850Y71300
X155850Y63300
X155850Y62300
X144850Y63300
X145850Y63300
X146850Y63300
X147850Y63300
X148850Y63300
X149850Y63300
X150850Y63300
X151850Y63300
X152850Y63300
X153850Y63300
X154850Y63300
X154850Y62300
X144850Y64300
X145850Y64300
X146850Y64300
X147850Y64300
X148850Y64300
X149850Y64300
X150850Y64300
X151850Y64300
X152850Y64300
X153850Y64300
X154850Y64300
X155850Y64300
X154850Y68300
X154850Y69300
X155850Y69300
X144850Y68300
X145850Y68300
X146850Y68300
X147850Y68300
X148850Y68300
X149850Y68300
X150850Y68300
X151850Y68300
X152850Y68300
X153850Y68300
X149850Y72300
X155850Y68300
X144850Y62300
X145850Y62300
X146850Y62300
X147850Y62300
X148850Y62300
X149850Y62300
X150850Y62300
X151850Y62300
X152850Y62300
X153850Y62300
X25500Y66750
X41500Y50500
X30750Y43000
X27250Y34000
X32250Y34000
X43750Y45750
X43000Y74000
X46250Y74000
X50000Y73750
X53750Y73750
X50250Y60500
X31750Y46250
X27750Y62500
X53250Y55250
X60750Y57250
X64500Y60866
X42616Y32750
X65750Y77116
X46750Y57750
X69495Y60745
X41750Y66590
X63500Y75500
X67750Y72750
X70750Y77215
X72750Y63750
X79025Y59875
X167000Y38500
X171000Y44250
X233250Y44250
X242715Y43693
X19500Y57250
X19500Y49250
X26000Y45500
X239000Y31000
X95500Y30750
X131500Y30500
X167250Y30750
X60000Y30750
X168000Y39500
X41000Y36500
X164000Y38000
X27250Y51250
X30750Y69000
X34000Y73000
X32569Y94000
X32500Y90750
X53750Y43250
X29750Y63500
X32250Y63500
X35000Y63500
X47250Y54250
X262250Y64500
X254250Y84500
X254250Y81250
X254250Y80000
X254250Y78750
X262750Y66500
X267750Y68500
X273250Y72250
X264500Y74750
X276250Y54000
X274500Y57750
X275500Y58250
X272000Y63250
X254250Y83250
X272250Y44000
X256100Y53900
X258250Y62000
X243750Y51250
X237750Y64500
X240250Y64500
X257010Y70990
X144850Y72300
X145850Y72300
X146850Y72300
X147850Y72300
X148850Y72300
X140000Y67750
X46250Y25500
X43500Y25500
X38000Y31000
X43375Y21250
X39250Y100500
X69000Y82750
X38000Y57750
X37500Y27500
X159500Y74000
X146250Y77250
X147000Y82500
X140500Y65250
X144850Y65300
X125000Y65000
X154750Y58250
X185500Y15500
X94500Y38250
X235250Y37750
X238750Y38250
X239750Y39250
X95500Y39750
X90500Y37750
X86750Y33500
X254500Y88750
X269850Y50300
X269850Y49300
X270850Y49300
X259850Y50300
X260850Y50300
X261850Y50300
X262850Y50300
X263850Y50300
X264850Y50300
X265850Y50300
X266850Y50300
X267850Y50300
X268850Y50300
X268850Y49300
X270850Y50300
X259850Y51300
X260850Y51300
X261850Y51300
X262850Y51300
X263850Y51300
X264850Y51300
X265850Y51300
X266850Y51300
X267850Y51300
X268850Y51300
X269850Y51300
X267850Y48300
X267850Y54300
X268850Y54300
X269850Y54300
X270850Y54300
X259850Y48300
X260850Y48300
X261850Y48300
X262850Y48300
X263850Y48300
X264850Y48300
X265850Y48300
X266850Y48300
X270850Y51300
X268850Y48300
X269850Y48300
X270850Y48300
X259850Y49300
X260850Y49300
X261850Y49300
X262850Y49300
X263850Y49300
X264850Y49300
X265850Y49300
X266850Y49300
X267850Y49300
X168250Y64500
X176500Y84750
X170250Y80250
X170250Y82500
X176250Y85750
X167750Y73000
X173500Y75250
X173500Y72250
X162750Y33500
X258000Y45250
X153000Y95250
X174250Y63750
X171250Y64500
X174500Y83250
X165250Y64750
X126500Y68000
X114250Y56750
X102500Y56750
X110750Y65000
X177000Y63750
X74250Y82000
X79325Y77675
X37467Y63033
X43250Y61750
X30500Y51750
X30500Y66000
X259850Y53300
X259850Y52300
X260850Y52300
X261850Y52300
X262850Y52300
X263850Y52300
X264850Y52300
X265850Y52300
X266850Y52300
X267850Y52300
X268850Y52300
X269850Y52300
X270850Y52300
X266850Y54300
X260850Y53300
X261850Y53300
X262850Y53300
X263850Y53300
X264850Y53300
X265850Y53300
X266850Y53300
X267850Y53300
X268850Y53300
X269850Y53300
X270850Y53300
X261850Y58300
X146850Y67300
X147850Y67300
X148850Y67300
X149850Y67300
X150850Y67300
X151850Y67300
X152850Y67300
X153850Y67300
X154850Y67300
X155850Y67300
X259850Y58300
X260850Y58300
X145850Y67300
X262850Y58300
X263850Y58300
X264850Y58300
X265850Y58300
X266850Y58300
X267850Y58300
X268850Y58300
X269850Y58300
X270850Y58300
X259850Y59300
X260850Y59300
X261850Y59300
X145850Y66300
X145850Y65300
X146850Y65300
X147850Y65300
X148850Y65300
X149850Y65300
X150850Y65300
X151850Y65300
X152850Y65300
X153850Y65300
X154850Y65300
X155850Y65300
X144850Y66300
X262850Y59300
X146850Y66300
X147850Y66300
X148850Y66300
X149850Y66300
X150850Y66300
X151850Y66300
X152850Y66300
X153850Y66300
X154850Y66300
X155850Y66300
X144850Y67300
X265850Y55300
X264850Y56300
X265850Y56300
X266850Y56300
X267850Y56300
X268850Y56300
X269850Y56300
X270850Y56300
X259850Y55300
X260850Y55300
X261850Y55300
X262850Y55300
X263850Y55300
X263850Y56300
X266850Y55300
X267850Y55300
X268850Y55300
X269850Y55300
X270850Y55300
X259850Y54300
X260850Y54300
X261850Y54300
X262850Y54300
X263850Y54300
X264850Y54300
X265850Y54300
X263850Y57300
X263850Y59300
X264850Y59300
X265850Y59300
X266850Y59300
X267850Y59300
X268850Y59300
X269850Y59300
X270850Y59300
X259850Y57300
X260850Y57300
X261850Y57300
X262850Y57300
X161250Y44250
X264850Y57300
X265850Y57300
X266850Y57300
X267850Y57300
X268850Y57300
X269850Y57300
X270850Y57300
X259850Y56300
X260850Y56300
X261850Y56300
X262850Y56300
M30