G04 EAGLE Gerber X2 export*
%TF.Part,Single*%
%TF.FileFunction,Other,Solder stop mask CMP*%
%TF.FilePolarity,Positive*%
%TF.GenerationSoftware,Autodesk,EAGLE,9.0.0*%
%TF.CreationDate,2018-06-13T06:26:53Z*%
G75*
%MOMM*%
%FSLAX34Y34*%
%LPD*%
%AMOC8*
5,1,8,0,0,1.08239X$1,22.5*%
G01*
%ADD10C,4.703200*%
%ADD11P,4.343848X8X22.500000*%
%ADD12R,1.303200X1.203200*%
%ADD13R,1.103200X1.053200*%
%ADD14R,1.203200X1.303200*%
%ADD15R,1.553200X0.753200*%
%ADD16C,0.120800*%
%ADD17R,0.703200X0.457200*%
%ADD18R,0.457200X0.703200*%
%ADD19R,3.603200X3.603200*%
%ADD20R,0.503200X1.543200*%
%ADD21R,1.543200X0.503200*%
%ADD22R,0.833200X2.003200*%
%ADD23C,2.153200*%
%ADD24R,2.235200X2.235200*%
%ADD25C,2.235200*%
%ADD26C,2.082800*%
%ADD27R,1.803200X2.003200*%
%ADD28R,1.473200X2.263200*%
%ADD29C,1.103200*%
%ADD30R,6.403200X5.603200*%
%ADD31R,1.803200X1.203200*%
%ADD32R,0.603200X1.703200*%
%ADD33R,0.558800X1.676400*%
%ADD34C,2.743200*%
%ADD35C,2.453200*%
%ADD36C,1.703200*%
%ADD37R,1.403200X2.203200*%
%ADD38C,1.928200*%
%ADD39C,4.946200*%
%ADD40R,1.703200X2.203200*%
%ADD41R,4.003200X2.203200*%
%ADD42R,1.803200X1.503200*%
%ADD43P,1.704548X8X22.500000*%
%ADD44R,3.103200X2.703200*%
%ADD45C,1.879600*%
%ADD46R,1.903200X1.203200*%
%ADD47C,1.574800*%
%ADD48R,2.402731X1.315041*%
%ADD49R,2.404050X1.282109*%
%ADD50R,2.191369X1.314250*%
%ADD51R,1.244819X0.556409*%
%ADD52R,2.189900X1.287491*%
%ADD53R,1.290800X0.540209*%
%ADD54C,0.703200*%
%ADD55C,0.803200*%
%ADD56R,1.003200X0.503200*%
%ADD57R,1.003200X1.403200*%
%ADD58R,0.643200X0.953200*%
%ADD59R,2.753200X2.703200*%
%ADD60R,2.003200X1.803200*%
%ADD61R,3.003200X4.003200*%
%ADD62R,0.803200X0.443200*%
%ADD63R,1.853200X2.603200*%
%ADD64R,0.443200X0.803200*%
%ADD65R,2.603200X1.853200*%
%ADD66R,2.263200X1.473200*%
%ADD67R,1.053200X1.103200*%
%ADD68C,0.304800*%
%ADD69R,0.903200X1.103200*%
%ADD70R,1.103200X0.903200*%
%ADD71R,1.003300X0.508000*%
%ADD72R,0.508000X1.003300*%
%ADD73R,6.451600X6.451600*%
%ADD74R,0.803200X0.403200*%
%ADD75R,0.403200X0.803200*%
%ADD76R,1.903200X1.903200*%
%ADD77R,1.703200X1.503200*%
%ADD78R,1.703200X0.903200*%
%ADD79R,0.903200X1.703200*%
%ADD80R,2.503200X2.203200*%
%ADD81R,0.607588X0.374431*%
%ADD82R,0.375250X0.608922*%
%ADD83R,0.617059X0.377800*%
%ADD84R,0.365581X0.608825*%
%ADD85R,0.607747X0.373081*%
%ADD86R,0.606372X0.373272*%
%ADD87R,0.607097X0.371262*%
%ADD88R,0.606144X0.368072*%
%ADD89R,0.606925X0.369900*%
%ADD90R,0.606888X0.365531*%
%ADD91R,0.606841X0.366944*%
%ADD92R,0.365269X0.610331*%
%ADD93R,0.366950X0.611237*%
%ADD94R,0.365241X0.613538*%
%ADD95R,0.374591X0.610250*%
%ADD96R,0.374919X0.611541*%
%ADD97R,0.376019X0.613444*%
%ADD98R,0.614781X0.373931*%
%ADD99R,0.612169X0.371172*%
%ADD100R,0.613050X0.370797*%
%ADD101R,0.612741X0.369175*%
%ADD102R,0.611941X0.369963*%
%ADD103R,0.611581X0.368641*%
%ADD104R,0.613969X0.367694*%
%ADD105C,2.593200*%
%ADD106C,1.016000*%
%ADD107R,1.016000X1.016000*%

G36*
X1562564Y616510D02*
X1562564Y616510D01*
X1562628Y616509D01*
X1562703Y616530D01*
X1562779Y616541D01*
X1562838Y616567D01*
X1562900Y616584D01*
X1562966Y616625D01*
X1563036Y616657D01*
X1563085Y616699D01*
X1563140Y616732D01*
X1563192Y616790D01*
X1563250Y616840D01*
X1563286Y616894D01*
X1563329Y616942D01*
X1563362Y617011D01*
X1563405Y617076D01*
X1563424Y617138D01*
X1563452Y617195D01*
X1563463Y617265D01*
X1563487Y617346D01*
X1563488Y617431D01*
X1563499Y617500D01*
X1563499Y737500D01*
X1563490Y737564D01*
X1563491Y737628D01*
X1563470Y737703D01*
X1563459Y737779D01*
X1563433Y737838D01*
X1563416Y737900D01*
X1563375Y737966D01*
X1563343Y738036D01*
X1563301Y738085D01*
X1563268Y738140D01*
X1563210Y738192D01*
X1563160Y738250D01*
X1563106Y738286D01*
X1563058Y738329D01*
X1562989Y738362D01*
X1562924Y738405D01*
X1562862Y738424D01*
X1562805Y738452D01*
X1562735Y738463D01*
X1562654Y738487D01*
X1562569Y738488D01*
X1562500Y738499D01*
X1442500Y738499D01*
X1442436Y738490D01*
X1442372Y738491D01*
X1442297Y738470D01*
X1442221Y738459D01*
X1442162Y738433D01*
X1442100Y738416D01*
X1442034Y738375D01*
X1441964Y738343D01*
X1441915Y738301D01*
X1441860Y738268D01*
X1441808Y738210D01*
X1441750Y738160D01*
X1441714Y738106D01*
X1441671Y738058D01*
X1441638Y737989D01*
X1441595Y737924D01*
X1441576Y737862D01*
X1441548Y737805D01*
X1441537Y737735D01*
X1441513Y737654D01*
X1441512Y737569D01*
X1441501Y737500D01*
X1441501Y617500D01*
X1441510Y617436D01*
X1441509Y617372D01*
X1441530Y617297D01*
X1441541Y617221D01*
X1441567Y617162D01*
X1441584Y617100D01*
X1441625Y617034D01*
X1441657Y616964D01*
X1441699Y616915D01*
X1441732Y616860D01*
X1441790Y616808D01*
X1441840Y616750D01*
X1441894Y616714D01*
X1441942Y616671D01*
X1442011Y616638D01*
X1442076Y616595D01*
X1442138Y616576D01*
X1442195Y616548D01*
X1442265Y616537D01*
X1442346Y616513D01*
X1442431Y616512D01*
X1442500Y616501D01*
X1562500Y616501D01*
X1562564Y616510D01*
G37*
G36*
X2712564Y476510D02*
X2712564Y476510D01*
X2712628Y476509D01*
X2712703Y476530D01*
X2712779Y476541D01*
X2712838Y476567D01*
X2712900Y476584D01*
X2712966Y476625D01*
X2713036Y476657D01*
X2713085Y476699D01*
X2713140Y476732D01*
X2713192Y476790D01*
X2713250Y476840D01*
X2713286Y476894D01*
X2713329Y476942D01*
X2713362Y477011D01*
X2713405Y477076D01*
X2713424Y477138D01*
X2713452Y477195D01*
X2713463Y477265D01*
X2713487Y477346D01*
X2713488Y477431D01*
X2713499Y477500D01*
X2713499Y597500D01*
X2713490Y597564D01*
X2713491Y597628D01*
X2713470Y597703D01*
X2713459Y597779D01*
X2713433Y597838D01*
X2713416Y597900D01*
X2713375Y597966D01*
X2713343Y598036D01*
X2713301Y598085D01*
X2713268Y598140D01*
X2713210Y598192D01*
X2713160Y598250D01*
X2713106Y598286D01*
X2713058Y598329D01*
X2712989Y598362D01*
X2712924Y598405D01*
X2712862Y598424D01*
X2712805Y598452D01*
X2712735Y598463D01*
X2712654Y598487D01*
X2712569Y598488D01*
X2712500Y598499D01*
X2592500Y598499D01*
X2592436Y598490D01*
X2592372Y598491D01*
X2592297Y598470D01*
X2592221Y598459D01*
X2592162Y598433D01*
X2592100Y598416D01*
X2592034Y598375D01*
X2591964Y598343D01*
X2591915Y598301D01*
X2591860Y598268D01*
X2591808Y598210D01*
X2591750Y598160D01*
X2591714Y598106D01*
X2591671Y598058D01*
X2591638Y597989D01*
X2591595Y597924D01*
X2591576Y597862D01*
X2591548Y597805D01*
X2591537Y597735D01*
X2591513Y597654D01*
X2591512Y597569D01*
X2591501Y597500D01*
X2591501Y477500D01*
X2591510Y477436D01*
X2591509Y477372D01*
X2591530Y477297D01*
X2591541Y477221D01*
X2591567Y477162D01*
X2591584Y477100D01*
X2591625Y477034D01*
X2591657Y476964D01*
X2591699Y476915D01*
X2591732Y476860D01*
X2591790Y476808D01*
X2591840Y476750D01*
X2591894Y476714D01*
X2591942Y476671D01*
X2592011Y476638D01*
X2592076Y476595D01*
X2592138Y476576D01*
X2592195Y476548D01*
X2592265Y476537D01*
X2592346Y476513D01*
X2592431Y476512D01*
X2592500Y476501D01*
X2712500Y476501D01*
X2712564Y476510D01*
G37*
G36*
X493963Y488126D02*
X493963Y488126D01*
X493969Y488124D01*
X494066Y488134D01*
X494076Y488140D01*
X494090Y488139D01*
X494182Y488167D01*
X494192Y488175D01*
X494205Y488176D01*
X494290Y488222D01*
X494298Y488231D01*
X494311Y488236D01*
X494386Y488297D01*
X494391Y488308D01*
X494403Y488314D01*
X494465Y488389D01*
X494468Y488401D01*
X494478Y488410D01*
X494524Y488495D01*
X494525Y488507D01*
X494533Y488518D01*
X494561Y488610D01*
X494560Y488622D01*
X494566Y488634D01*
X494576Y488731D01*
X494574Y488737D01*
X494576Y488743D01*
X494576Y490224D01*
X497424Y490224D01*
X497424Y488743D01*
X497426Y488737D01*
X497424Y488731D01*
X497434Y488634D01*
X497439Y488625D01*
X497440Y488623D01*
X497439Y488610D01*
X497467Y488518D01*
X497475Y488508D01*
X497476Y488495D01*
X497522Y488410D01*
X497531Y488402D01*
X497536Y488389D01*
X497597Y488314D01*
X497608Y488309D01*
X497614Y488297D01*
X497689Y488236D01*
X497701Y488232D01*
X497710Y488222D01*
X497795Y488176D01*
X497807Y488175D01*
X497818Y488167D01*
X497910Y488139D01*
X497922Y488140D01*
X497934Y488134D01*
X498031Y488124D01*
X498037Y488126D01*
X498043Y488124D01*
X500457Y488124D01*
X500463Y488126D01*
X500469Y488124D01*
X500566Y488134D01*
X500576Y488140D01*
X500590Y488139D01*
X500682Y488167D01*
X500692Y488175D01*
X500705Y488176D01*
X500790Y488222D01*
X500798Y488231D01*
X500811Y488236D01*
X500886Y488297D01*
X500891Y488308D01*
X500903Y488314D01*
X500965Y488389D01*
X500968Y488401D01*
X500978Y488410D01*
X501024Y488495D01*
X501025Y488507D01*
X501033Y488518D01*
X501061Y488610D01*
X501060Y488622D01*
X501066Y488634D01*
X501076Y488731D01*
X501074Y488737D01*
X501076Y488743D01*
X501076Y490224D01*
X503924Y490224D01*
X503924Y488743D01*
X503926Y488737D01*
X503924Y488731D01*
X503934Y488634D01*
X503939Y488625D01*
X503940Y488623D01*
X503939Y488610D01*
X503967Y488518D01*
X503975Y488508D01*
X503976Y488495D01*
X504022Y488410D01*
X504031Y488402D01*
X504035Y488389D01*
X504097Y488314D01*
X504108Y488309D01*
X504114Y488297D01*
X504189Y488236D01*
X504201Y488232D01*
X504210Y488222D01*
X504295Y488176D01*
X504307Y488175D01*
X504318Y488167D01*
X504410Y488139D01*
X504422Y488140D01*
X504434Y488134D01*
X504531Y488124D01*
X504537Y488126D01*
X504543Y488124D01*
X506957Y488124D01*
X506963Y488126D01*
X506969Y488124D01*
X507066Y488134D01*
X507076Y488140D01*
X507090Y488139D01*
X507182Y488167D01*
X507192Y488175D01*
X507205Y488176D01*
X507290Y488222D01*
X507298Y488231D01*
X507311Y488236D01*
X507386Y488297D01*
X507391Y488308D01*
X507403Y488314D01*
X507465Y488389D01*
X507468Y488401D01*
X507478Y488410D01*
X507524Y488495D01*
X507525Y488507D01*
X507533Y488518D01*
X507561Y488610D01*
X507560Y488622D01*
X507566Y488634D01*
X507576Y488731D01*
X507574Y488737D01*
X507576Y488743D01*
X507576Y490224D01*
X510424Y490224D01*
X510424Y488743D01*
X510426Y488737D01*
X510424Y488731D01*
X510434Y488634D01*
X510439Y488625D01*
X510440Y488623D01*
X510439Y488610D01*
X510467Y488518D01*
X510475Y488508D01*
X510476Y488495D01*
X510522Y488410D01*
X510531Y488402D01*
X510536Y488389D01*
X510597Y488314D01*
X510608Y488309D01*
X510614Y488297D01*
X510689Y488236D01*
X510701Y488232D01*
X510710Y488222D01*
X510795Y488176D01*
X510807Y488175D01*
X510818Y488167D01*
X510910Y488139D01*
X510922Y488140D01*
X510934Y488134D01*
X511031Y488124D01*
X511037Y488126D01*
X511043Y488124D01*
X513457Y488124D01*
X513463Y488126D01*
X513469Y488124D01*
X513566Y488134D01*
X513576Y488140D01*
X513590Y488139D01*
X513682Y488167D01*
X513692Y488175D01*
X513705Y488176D01*
X513790Y488222D01*
X513798Y488231D01*
X513811Y488236D01*
X513886Y488297D01*
X513891Y488308D01*
X513903Y488314D01*
X513965Y488389D01*
X513968Y488401D01*
X513978Y488410D01*
X514024Y488495D01*
X514025Y488507D01*
X514033Y488518D01*
X514061Y488610D01*
X514060Y488622D01*
X514066Y488634D01*
X514076Y488731D01*
X514074Y488737D01*
X514076Y488743D01*
X514076Y490224D01*
X514218Y490224D01*
X514223Y490226D01*
X514230Y490224D01*
X514334Y490235D01*
X514345Y490240D01*
X514358Y490239D01*
X514458Y490270D01*
X514467Y490278D01*
X514481Y490279D01*
X514573Y490328D01*
X514581Y490338D01*
X514593Y490342D01*
X514674Y490408D01*
X514680Y490419D01*
X514692Y490426D01*
X514758Y490507D01*
X514761Y490518D01*
X514772Y490527D01*
X514821Y490619D01*
X514822Y490631D01*
X514830Y490642D01*
X514861Y490742D01*
X514859Y490754D01*
X514865Y490766D01*
X514876Y490870D01*
X514874Y490876D01*
X514876Y490883D01*
X514876Y507568D01*
X514874Y507573D01*
X514876Y507580D01*
X514865Y507684D01*
X514860Y507695D01*
X514861Y507708D01*
X514830Y507808D01*
X514822Y507817D01*
X514821Y507831D01*
X514772Y507923D01*
X514762Y507931D01*
X514758Y507943D01*
X514692Y508024D01*
X514681Y508030D01*
X514674Y508042D01*
X514593Y508108D01*
X514582Y508111D01*
X514573Y508122D01*
X514481Y508171D01*
X514469Y508172D01*
X514458Y508180D01*
X514358Y508211D01*
X514346Y508209D01*
X514334Y508215D01*
X514230Y508226D01*
X514224Y508224D01*
X514218Y508226D01*
X490783Y508226D01*
X490777Y508224D01*
X490770Y508226D01*
X490666Y508215D01*
X490656Y508210D01*
X490642Y508211D01*
X490542Y508180D01*
X490533Y508172D01*
X490519Y508171D01*
X490427Y508122D01*
X490419Y508112D01*
X490407Y508108D01*
X490326Y508042D01*
X490320Y508031D01*
X490308Y508024D01*
X490242Y507943D01*
X490239Y507932D01*
X490228Y507923D01*
X490179Y507831D01*
X490178Y507819D01*
X490170Y507808D01*
X490139Y507708D01*
X490141Y507696D01*
X490135Y507684D01*
X490124Y507580D01*
X490126Y507574D01*
X490124Y507568D01*
X490124Y490883D01*
X490126Y490877D01*
X490124Y490870D01*
X490135Y490766D01*
X490140Y490756D01*
X490139Y490742D01*
X490170Y490642D01*
X490178Y490633D01*
X490179Y490619D01*
X490228Y490527D01*
X490238Y490519D01*
X490242Y490507D01*
X490308Y490426D01*
X490319Y490420D01*
X490326Y490408D01*
X490407Y490342D01*
X490418Y490339D01*
X490427Y490328D01*
X490519Y490279D01*
X490531Y490278D01*
X490542Y490270D01*
X490642Y490239D01*
X490654Y490241D01*
X490666Y490235D01*
X490770Y490224D01*
X490776Y490226D01*
X490783Y490224D01*
X490924Y490224D01*
X490924Y488743D01*
X490926Y488737D01*
X490924Y488731D01*
X490934Y488634D01*
X490939Y488625D01*
X490940Y488623D01*
X490939Y488610D01*
X490967Y488518D01*
X490975Y488508D01*
X490976Y488495D01*
X491022Y488410D01*
X491031Y488402D01*
X491036Y488389D01*
X491097Y488314D01*
X491108Y488309D01*
X491114Y488297D01*
X491189Y488236D01*
X491201Y488232D01*
X491210Y488222D01*
X491295Y488176D01*
X491307Y488175D01*
X491318Y488167D01*
X491410Y488139D01*
X491422Y488140D01*
X491434Y488134D01*
X491531Y488124D01*
X491537Y488126D01*
X491543Y488124D01*
X493957Y488124D01*
X493963Y488126D01*
G37*
G36*
X538963Y488126D02*
X538963Y488126D01*
X538969Y488124D01*
X539066Y488134D01*
X539076Y488140D01*
X539090Y488139D01*
X539182Y488167D01*
X539192Y488175D01*
X539205Y488176D01*
X539290Y488222D01*
X539298Y488231D01*
X539311Y488236D01*
X539386Y488297D01*
X539391Y488308D01*
X539403Y488314D01*
X539465Y488389D01*
X539468Y488401D01*
X539478Y488410D01*
X539524Y488495D01*
X539525Y488507D01*
X539533Y488518D01*
X539561Y488610D01*
X539560Y488622D01*
X539566Y488634D01*
X539576Y488731D01*
X539574Y488737D01*
X539576Y488743D01*
X539576Y490224D01*
X542424Y490224D01*
X542424Y488743D01*
X542426Y488737D01*
X542424Y488731D01*
X542434Y488634D01*
X542439Y488625D01*
X542440Y488623D01*
X542439Y488610D01*
X542467Y488518D01*
X542475Y488508D01*
X542476Y488495D01*
X542522Y488410D01*
X542531Y488402D01*
X542536Y488389D01*
X542597Y488314D01*
X542608Y488309D01*
X542614Y488297D01*
X542689Y488236D01*
X542701Y488232D01*
X542710Y488222D01*
X542795Y488176D01*
X542807Y488175D01*
X542818Y488167D01*
X542910Y488139D01*
X542922Y488140D01*
X542934Y488134D01*
X543031Y488124D01*
X543037Y488126D01*
X543043Y488124D01*
X545457Y488124D01*
X545463Y488126D01*
X545469Y488124D01*
X545566Y488134D01*
X545576Y488140D01*
X545590Y488139D01*
X545682Y488167D01*
X545692Y488175D01*
X545705Y488176D01*
X545790Y488222D01*
X545798Y488231D01*
X545811Y488236D01*
X545886Y488297D01*
X545891Y488308D01*
X545903Y488314D01*
X545965Y488389D01*
X545968Y488401D01*
X545978Y488410D01*
X546024Y488495D01*
X546025Y488507D01*
X546033Y488518D01*
X546061Y488610D01*
X546060Y488622D01*
X546066Y488634D01*
X546076Y488731D01*
X546074Y488737D01*
X546076Y488743D01*
X546076Y490224D01*
X548924Y490224D01*
X548924Y488743D01*
X548926Y488737D01*
X548924Y488731D01*
X548934Y488634D01*
X548939Y488625D01*
X548940Y488623D01*
X548939Y488610D01*
X548967Y488518D01*
X548975Y488508D01*
X548976Y488495D01*
X549022Y488410D01*
X549031Y488402D01*
X549035Y488389D01*
X549097Y488314D01*
X549108Y488309D01*
X549114Y488297D01*
X549189Y488236D01*
X549201Y488232D01*
X549210Y488222D01*
X549295Y488176D01*
X549307Y488175D01*
X549318Y488167D01*
X549410Y488139D01*
X549422Y488140D01*
X549434Y488134D01*
X549531Y488124D01*
X549537Y488126D01*
X549543Y488124D01*
X551957Y488124D01*
X551963Y488126D01*
X551969Y488124D01*
X552066Y488134D01*
X552076Y488140D01*
X552090Y488139D01*
X552182Y488167D01*
X552192Y488175D01*
X552205Y488176D01*
X552290Y488222D01*
X552298Y488231D01*
X552311Y488236D01*
X552386Y488297D01*
X552391Y488308D01*
X552403Y488314D01*
X552465Y488389D01*
X552468Y488401D01*
X552478Y488410D01*
X552524Y488495D01*
X552525Y488507D01*
X552533Y488518D01*
X552561Y488610D01*
X552560Y488622D01*
X552566Y488634D01*
X552576Y488731D01*
X552574Y488737D01*
X552576Y488743D01*
X552576Y490224D01*
X555424Y490224D01*
X555424Y488743D01*
X555426Y488737D01*
X555424Y488731D01*
X555434Y488634D01*
X555439Y488625D01*
X555440Y488623D01*
X555439Y488610D01*
X555467Y488518D01*
X555475Y488508D01*
X555476Y488495D01*
X555522Y488410D01*
X555531Y488402D01*
X555536Y488389D01*
X555597Y488314D01*
X555608Y488309D01*
X555614Y488297D01*
X555689Y488236D01*
X555701Y488232D01*
X555710Y488222D01*
X555795Y488176D01*
X555807Y488175D01*
X555818Y488167D01*
X555910Y488139D01*
X555922Y488140D01*
X555934Y488134D01*
X556031Y488124D01*
X556037Y488126D01*
X556043Y488124D01*
X558457Y488124D01*
X558463Y488126D01*
X558469Y488124D01*
X558566Y488134D01*
X558576Y488140D01*
X558590Y488139D01*
X558682Y488167D01*
X558692Y488175D01*
X558705Y488176D01*
X558790Y488222D01*
X558798Y488231D01*
X558811Y488236D01*
X558886Y488297D01*
X558891Y488308D01*
X558903Y488314D01*
X558965Y488389D01*
X558968Y488401D01*
X558978Y488410D01*
X559024Y488495D01*
X559025Y488507D01*
X559033Y488518D01*
X559061Y488610D01*
X559060Y488622D01*
X559066Y488634D01*
X559076Y488731D01*
X559074Y488737D01*
X559076Y488743D01*
X559076Y490224D01*
X559218Y490224D01*
X559223Y490226D01*
X559230Y490224D01*
X559334Y490235D01*
X559345Y490240D01*
X559358Y490239D01*
X559458Y490270D01*
X559467Y490278D01*
X559481Y490279D01*
X559573Y490328D01*
X559581Y490338D01*
X559593Y490342D01*
X559674Y490408D01*
X559680Y490419D01*
X559692Y490426D01*
X559758Y490507D01*
X559761Y490518D01*
X559772Y490527D01*
X559821Y490619D01*
X559822Y490631D01*
X559830Y490642D01*
X559861Y490742D01*
X559859Y490754D01*
X559865Y490766D01*
X559876Y490870D01*
X559874Y490876D01*
X559876Y490883D01*
X559876Y507568D01*
X559874Y507573D01*
X559876Y507580D01*
X559865Y507684D01*
X559860Y507695D01*
X559861Y507708D01*
X559830Y507808D01*
X559822Y507817D01*
X559821Y507831D01*
X559772Y507923D01*
X559762Y507931D01*
X559758Y507943D01*
X559692Y508024D01*
X559681Y508030D01*
X559674Y508042D01*
X559593Y508108D01*
X559582Y508111D01*
X559573Y508122D01*
X559481Y508171D01*
X559469Y508172D01*
X559458Y508180D01*
X559358Y508211D01*
X559346Y508209D01*
X559334Y508215D01*
X559230Y508226D01*
X559224Y508224D01*
X559218Y508226D01*
X535783Y508226D01*
X535777Y508224D01*
X535770Y508226D01*
X535666Y508215D01*
X535656Y508210D01*
X535642Y508211D01*
X535542Y508180D01*
X535533Y508172D01*
X535519Y508171D01*
X535427Y508122D01*
X535419Y508112D01*
X535407Y508108D01*
X535326Y508042D01*
X535320Y508031D01*
X535308Y508024D01*
X535242Y507943D01*
X535239Y507932D01*
X535228Y507923D01*
X535179Y507831D01*
X535178Y507819D01*
X535170Y507808D01*
X535139Y507708D01*
X535141Y507696D01*
X535135Y507684D01*
X535124Y507580D01*
X535126Y507574D01*
X535124Y507568D01*
X535124Y490883D01*
X535126Y490877D01*
X535124Y490870D01*
X535135Y490766D01*
X535140Y490756D01*
X535139Y490742D01*
X535170Y490642D01*
X535178Y490633D01*
X535179Y490619D01*
X535228Y490527D01*
X535238Y490519D01*
X535242Y490507D01*
X535308Y490426D01*
X535319Y490420D01*
X535326Y490408D01*
X535407Y490342D01*
X535418Y490339D01*
X535427Y490328D01*
X535519Y490279D01*
X535531Y490278D01*
X535542Y490270D01*
X535642Y490239D01*
X535654Y490241D01*
X535666Y490235D01*
X535770Y490224D01*
X535776Y490226D01*
X535783Y490224D01*
X535924Y490224D01*
X535924Y488743D01*
X535926Y488737D01*
X535924Y488731D01*
X535934Y488634D01*
X535939Y488625D01*
X535940Y488623D01*
X535939Y488610D01*
X535967Y488518D01*
X535975Y488508D01*
X535976Y488495D01*
X536022Y488410D01*
X536031Y488402D01*
X536036Y488389D01*
X536097Y488314D01*
X536108Y488309D01*
X536114Y488297D01*
X536189Y488236D01*
X536201Y488232D01*
X536210Y488222D01*
X536295Y488176D01*
X536307Y488175D01*
X536318Y488167D01*
X536410Y488139D01*
X536422Y488140D01*
X536434Y488134D01*
X536531Y488124D01*
X536537Y488126D01*
X536543Y488124D01*
X538957Y488124D01*
X538963Y488126D01*
G37*
G36*
X937765Y419377D02*
X937765Y419377D01*
X937831Y419379D01*
X937874Y419397D01*
X937921Y419405D01*
X937978Y419439D01*
X938038Y419464D01*
X938073Y419495D01*
X938114Y419520D01*
X938156Y419571D01*
X938204Y419615D01*
X938226Y419657D01*
X938255Y419694D01*
X938276Y419756D01*
X938307Y419815D01*
X938315Y419869D01*
X938327Y419906D01*
X938326Y419946D01*
X938334Y420000D01*
X938334Y432700D01*
X938323Y432765D01*
X938321Y432831D01*
X938303Y432874D01*
X938295Y432921D01*
X938261Y432978D01*
X938236Y433038D01*
X938205Y433073D01*
X938180Y433114D01*
X938129Y433156D01*
X938085Y433204D01*
X938043Y433226D01*
X938006Y433255D01*
X937944Y433276D01*
X937885Y433307D01*
X937831Y433315D01*
X937794Y433327D01*
X937754Y433326D01*
X937700Y433334D01*
X925000Y433334D01*
X924935Y433323D01*
X924869Y433321D01*
X924826Y433303D01*
X924779Y433295D01*
X924722Y433261D01*
X924662Y433236D01*
X924627Y433205D01*
X924586Y433180D01*
X924545Y433129D01*
X924496Y433085D01*
X924474Y433043D01*
X924445Y433006D01*
X924424Y432944D01*
X924393Y432885D01*
X924385Y432831D01*
X924373Y432794D01*
X924373Y432780D01*
X924373Y432779D01*
X924374Y432752D01*
X924366Y432700D01*
X924366Y420000D01*
X924377Y419935D01*
X924379Y419869D01*
X924397Y419826D01*
X924405Y419779D01*
X924439Y419722D01*
X924464Y419662D01*
X924495Y419627D01*
X924520Y419586D01*
X924571Y419545D01*
X924615Y419496D01*
X924657Y419474D01*
X924694Y419445D01*
X924756Y419424D01*
X924815Y419393D01*
X924869Y419385D01*
X924906Y419373D01*
X924946Y419374D01*
X925000Y419366D01*
X937700Y419366D01*
X937765Y419377D01*
G37*
G36*
X920065Y419377D02*
X920065Y419377D01*
X920131Y419379D01*
X920174Y419397D01*
X920221Y419405D01*
X920278Y419439D01*
X920338Y419464D01*
X920373Y419495D01*
X920414Y419520D01*
X920456Y419571D01*
X920504Y419615D01*
X920526Y419657D01*
X920555Y419694D01*
X920576Y419756D01*
X920607Y419815D01*
X920615Y419869D01*
X920627Y419906D01*
X920626Y419946D01*
X920634Y420000D01*
X920634Y432700D01*
X920623Y432765D01*
X920621Y432831D01*
X920603Y432874D01*
X920595Y432921D01*
X920561Y432978D01*
X920536Y433038D01*
X920505Y433073D01*
X920480Y433114D01*
X920429Y433156D01*
X920385Y433204D01*
X920343Y433226D01*
X920306Y433255D01*
X920244Y433276D01*
X920185Y433307D01*
X920131Y433315D01*
X920094Y433327D01*
X920054Y433326D01*
X920000Y433334D01*
X907300Y433334D01*
X907235Y433323D01*
X907169Y433321D01*
X907126Y433303D01*
X907079Y433295D01*
X907022Y433261D01*
X906962Y433236D01*
X906927Y433205D01*
X906886Y433180D01*
X906845Y433129D01*
X906796Y433085D01*
X906774Y433043D01*
X906745Y433006D01*
X906724Y432944D01*
X906693Y432885D01*
X906685Y432831D01*
X906673Y432794D01*
X906673Y432780D01*
X906673Y432779D01*
X906674Y432752D01*
X906666Y432700D01*
X906666Y420000D01*
X906677Y419935D01*
X906679Y419869D01*
X906697Y419826D01*
X906705Y419779D01*
X906739Y419722D01*
X906764Y419662D01*
X906795Y419627D01*
X906820Y419586D01*
X906871Y419545D01*
X906915Y419496D01*
X906957Y419474D01*
X906994Y419445D01*
X907056Y419424D01*
X907115Y419393D01*
X907169Y419385D01*
X907206Y419373D01*
X907246Y419374D01*
X907300Y419366D01*
X920000Y419366D01*
X920065Y419377D01*
G37*
G36*
X1645065Y419377D02*
X1645065Y419377D01*
X1645131Y419379D01*
X1645174Y419397D01*
X1645221Y419405D01*
X1645278Y419439D01*
X1645338Y419464D01*
X1645373Y419495D01*
X1645414Y419520D01*
X1645456Y419571D01*
X1645504Y419615D01*
X1645526Y419657D01*
X1645555Y419694D01*
X1645576Y419756D01*
X1645607Y419815D01*
X1645615Y419869D01*
X1645627Y419906D01*
X1645626Y419946D01*
X1645634Y420000D01*
X1645634Y432700D01*
X1645623Y432765D01*
X1645621Y432831D01*
X1645603Y432874D01*
X1645595Y432921D01*
X1645561Y432978D01*
X1645536Y433038D01*
X1645505Y433073D01*
X1645480Y433114D01*
X1645429Y433156D01*
X1645385Y433204D01*
X1645343Y433226D01*
X1645306Y433255D01*
X1645244Y433276D01*
X1645185Y433307D01*
X1645131Y433315D01*
X1645094Y433327D01*
X1645054Y433326D01*
X1645000Y433334D01*
X1632300Y433334D01*
X1632235Y433323D01*
X1632169Y433321D01*
X1632126Y433303D01*
X1632079Y433295D01*
X1632022Y433261D01*
X1631962Y433236D01*
X1631927Y433205D01*
X1631886Y433180D01*
X1631845Y433129D01*
X1631796Y433085D01*
X1631774Y433043D01*
X1631745Y433006D01*
X1631724Y432944D01*
X1631693Y432885D01*
X1631685Y432831D01*
X1631673Y432794D01*
X1631673Y432780D01*
X1631673Y432779D01*
X1631674Y432752D01*
X1631666Y432700D01*
X1631666Y420000D01*
X1631677Y419935D01*
X1631679Y419869D01*
X1631697Y419826D01*
X1631705Y419779D01*
X1631739Y419722D01*
X1631764Y419662D01*
X1631795Y419627D01*
X1631820Y419586D01*
X1631871Y419545D01*
X1631915Y419496D01*
X1631957Y419474D01*
X1631994Y419445D01*
X1632056Y419424D01*
X1632115Y419393D01*
X1632169Y419385D01*
X1632206Y419373D01*
X1632246Y419374D01*
X1632300Y419366D01*
X1645000Y419366D01*
X1645065Y419377D01*
G37*
G36*
X1662765Y419377D02*
X1662765Y419377D01*
X1662831Y419379D01*
X1662874Y419397D01*
X1662921Y419405D01*
X1662978Y419439D01*
X1663038Y419464D01*
X1663073Y419495D01*
X1663114Y419520D01*
X1663156Y419571D01*
X1663204Y419615D01*
X1663226Y419657D01*
X1663255Y419694D01*
X1663276Y419756D01*
X1663307Y419815D01*
X1663315Y419869D01*
X1663327Y419906D01*
X1663326Y419946D01*
X1663334Y420000D01*
X1663334Y432700D01*
X1663323Y432765D01*
X1663321Y432831D01*
X1663303Y432874D01*
X1663295Y432921D01*
X1663261Y432978D01*
X1663236Y433038D01*
X1663205Y433073D01*
X1663180Y433114D01*
X1663129Y433156D01*
X1663085Y433204D01*
X1663043Y433226D01*
X1663006Y433255D01*
X1662944Y433276D01*
X1662885Y433307D01*
X1662831Y433315D01*
X1662794Y433327D01*
X1662754Y433326D01*
X1662700Y433334D01*
X1650000Y433334D01*
X1649935Y433323D01*
X1649869Y433321D01*
X1649826Y433303D01*
X1649779Y433295D01*
X1649722Y433261D01*
X1649662Y433236D01*
X1649627Y433205D01*
X1649586Y433180D01*
X1649545Y433129D01*
X1649496Y433085D01*
X1649474Y433043D01*
X1649445Y433006D01*
X1649424Y432944D01*
X1649393Y432885D01*
X1649385Y432831D01*
X1649373Y432794D01*
X1649373Y432780D01*
X1649373Y432779D01*
X1649374Y432752D01*
X1649366Y432700D01*
X1649366Y420000D01*
X1649377Y419935D01*
X1649379Y419869D01*
X1649397Y419826D01*
X1649405Y419779D01*
X1649439Y419722D01*
X1649464Y419662D01*
X1649495Y419627D01*
X1649520Y419586D01*
X1649571Y419545D01*
X1649615Y419496D01*
X1649657Y419474D01*
X1649694Y419445D01*
X1649756Y419424D01*
X1649815Y419393D01*
X1649869Y419385D01*
X1649906Y419373D01*
X1649946Y419374D01*
X1650000Y419366D01*
X1662700Y419366D01*
X1662765Y419377D01*
G37*
G36*
X2364565Y419177D02*
X2364565Y419177D01*
X2364631Y419179D01*
X2364674Y419197D01*
X2364721Y419205D01*
X2364778Y419239D01*
X2364838Y419264D01*
X2364873Y419295D01*
X2364914Y419320D01*
X2364956Y419371D01*
X2365004Y419415D01*
X2365026Y419457D01*
X2365055Y419494D01*
X2365076Y419556D01*
X2365107Y419615D01*
X2365115Y419669D01*
X2365127Y419706D01*
X2365126Y419746D01*
X2365134Y419800D01*
X2365134Y432500D01*
X2365123Y432565D01*
X2365121Y432631D01*
X2365103Y432674D01*
X2365095Y432721D01*
X2365061Y432778D01*
X2365036Y432838D01*
X2365005Y432873D01*
X2364980Y432914D01*
X2364929Y432956D01*
X2364885Y433004D01*
X2364843Y433026D01*
X2364806Y433055D01*
X2364744Y433076D01*
X2364685Y433107D01*
X2364631Y433115D01*
X2364594Y433127D01*
X2364554Y433126D01*
X2364500Y433134D01*
X2351800Y433134D01*
X2351735Y433123D01*
X2351669Y433121D01*
X2351626Y433103D01*
X2351579Y433095D01*
X2351522Y433061D01*
X2351462Y433036D01*
X2351427Y433005D01*
X2351386Y432980D01*
X2351345Y432929D01*
X2351296Y432885D01*
X2351274Y432843D01*
X2351245Y432806D01*
X2351224Y432744D01*
X2351193Y432685D01*
X2351185Y432631D01*
X2351173Y432594D01*
X2351173Y432580D01*
X2351173Y432579D01*
X2351174Y432552D01*
X2351166Y432500D01*
X2351166Y419800D01*
X2351177Y419735D01*
X2351179Y419669D01*
X2351197Y419626D01*
X2351205Y419579D01*
X2351239Y419522D01*
X2351264Y419462D01*
X2351295Y419427D01*
X2351320Y419386D01*
X2351371Y419345D01*
X2351415Y419296D01*
X2351457Y419274D01*
X2351494Y419245D01*
X2351556Y419224D01*
X2351615Y419193D01*
X2351669Y419185D01*
X2351706Y419173D01*
X2351746Y419174D01*
X2351800Y419166D01*
X2364500Y419166D01*
X2364565Y419177D01*
G37*
G36*
X2382265Y419177D02*
X2382265Y419177D01*
X2382331Y419179D01*
X2382374Y419197D01*
X2382421Y419205D01*
X2382478Y419239D01*
X2382538Y419264D01*
X2382573Y419295D01*
X2382614Y419320D01*
X2382656Y419371D01*
X2382704Y419415D01*
X2382726Y419457D01*
X2382755Y419494D01*
X2382776Y419556D01*
X2382807Y419615D01*
X2382815Y419669D01*
X2382827Y419706D01*
X2382826Y419746D01*
X2382834Y419800D01*
X2382834Y432500D01*
X2382823Y432565D01*
X2382821Y432631D01*
X2382803Y432674D01*
X2382795Y432721D01*
X2382761Y432778D01*
X2382736Y432838D01*
X2382705Y432873D01*
X2382680Y432914D01*
X2382629Y432956D01*
X2382585Y433004D01*
X2382543Y433026D01*
X2382506Y433055D01*
X2382444Y433076D01*
X2382385Y433107D01*
X2382331Y433115D01*
X2382294Y433127D01*
X2382254Y433126D01*
X2382200Y433134D01*
X2369500Y433134D01*
X2369435Y433123D01*
X2369369Y433121D01*
X2369326Y433103D01*
X2369279Y433095D01*
X2369222Y433061D01*
X2369162Y433036D01*
X2369127Y433005D01*
X2369086Y432980D01*
X2369045Y432929D01*
X2368996Y432885D01*
X2368974Y432843D01*
X2368945Y432806D01*
X2368924Y432744D01*
X2368893Y432685D01*
X2368885Y432631D01*
X2368873Y432594D01*
X2368873Y432580D01*
X2368873Y432579D01*
X2368874Y432552D01*
X2368866Y432500D01*
X2368866Y419800D01*
X2368877Y419735D01*
X2368879Y419669D01*
X2368897Y419626D01*
X2368905Y419579D01*
X2368939Y419522D01*
X2368964Y419462D01*
X2368995Y419427D01*
X2369020Y419386D01*
X2369071Y419345D01*
X2369115Y419296D01*
X2369157Y419274D01*
X2369194Y419245D01*
X2369256Y419224D01*
X2369315Y419193D01*
X2369369Y419185D01*
X2369406Y419173D01*
X2369446Y419174D01*
X2369500Y419166D01*
X2382200Y419166D01*
X2382265Y419177D01*
G37*
G36*
X1662765Y401677D02*
X1662765Y401677D01*
X1662831Y401679D01*
X1662874Y401697D01*
X1662921Y401705D01*
X1662978Y401739D01*
X1663038Y401764D01*
X1663073Y401795D01*
X1663114Y401820D01*
X1663156Y401871D01*
X1663204Y401915D01*
X1663226Y401957D01*
X1663255Y401994D01*
X1663276Y402056D01*
X1663307Y402115D01*
X1663315Y402169D01*
X1663327Y402206D01*
X1663326Y402246D01*
X1663334Y402300D01*
X1663334Y415000D01*
X1663323Y415065D01*
X1663321Y415131D01*
X1663303Y415174D01*
X1663295Y415221D01*
X1663261Y415278D01*
X1663236Y415338D01*
X1663205Y415373D01*
X1663180Y415414D01*
X1663129Y415456D01*
X1663085Y415504D01*
X1663043Y415526D01*
X1663006Y415555D01*
X1662944Y415576D01*
X1662885Y415607D01*
X1662831Y415615D01*
X1662794Y415627D01*
X1662754Y415626D01*
X1662700Y415634D01*
X1650000Y415634D01*
X1649935Y415623D01*
X1649869Y415621D01*
X1649826Y415603D01*
X1649779Y415595D01*
X1649722Y415561D01*
X1649662Y415536D01*
X1649627Y415505D01*
X1649586Y415480D01*
X1649545Y415429D01*
X1649496Y415385D01*
X1649474Y415343D01*
X1649445Y415306D01*
X1649424Y415244D01*
X1649393Y415185D01*
X1649385Y415131D01*
X1649373Y415094D01*
X1649373Y415080D01*
X1649373Y415079D01*
X1649374Y415052D01*
X1649366Y415000D01*
X1649366Y402300D01*
X1649377Y402235D01*
X1649379Y402169D01*
X1649397Y402126D01*
X1649405Y402079D01*
X1649439Y402022D01*
X1649464Y401962D01*
X1649495Y401927D01*
X1649520Y401886D01*
X1649571Y401845D01*
X1649615Y401796D01*
X1649657Y401774D01*
X1649694Y401745D01*
X1649756Y401724D01*
X1649815Y401693D01*
X1649869Y401685D01*
X1649906Y401673D01*
X1649946Y401674D01*
X1650000Y401666D01*
X1662700Y401666D01*
X1662765Y401677D01*
G37*
G36*
X920065Y401677D02*
X920065Y401677D01*
X920131Y401679D01*
X920174Y401697D01*
X920221Y401705D01*
X920278Y401739D01*
X920338Y401764D01*
X920373Y401795D01*
X920414Y401820D01*
X920456Y401871D01*
X920504Y401915D01*
X920526Y401957D01*
X920555Y401994D01*
X920576Y402056D01*
X920607Y402115D01*
X920615Y402169D01*
X920627Y402206D01*
X920626Y402246D01*
X920634Y402300D01*
X920634Y415000D01*
X920623Y415065D01*
X920621Y415131D01*
X920603Y415174D01*
X920595Y415221D01*
X920561Y415278D01*
X920536Y415338D01*
X920505Y415373D01*
X920480Y415414D01*
X920429Y415456D01*
X920385Y415504D01*
X920343Y415526D01*
X920306Y415555D01*
X920244Y415576D01*
X920185Y415607D01*
X920131Y415615D01*
X920094Y415627D01*
X920054Y415626D01*
X920000Y415634D01*
X907300Y415634D01*
X907235Y415623D01*
X907169Y415621D01*
X907126Y415603D01*
X907079Y415595D01*
X907022Y415561D01*
X906962Y415536D01*
X906927Y415505D01*
X906886Y415480D01*
X906845Y415429D01*
X906796Y415385D01*
X906774Y415343D01*
X906745Y415306D01*
X906724Y415244D01*
X906693Y415185D01*
X906685Y415131D01*
X906673Y415094D01*
X906673Y415080D01*
X906673Y415079D01*
X906674Y415052D01*
X906666Y415000D01*
X906666Y402300D01*
X906677Y402235D01*
X906679Y402169D01*
X906697Y402126D01*
X906705Y402079D01*
X906739Y402022D01*
X906764Y401962D01*
X906795Y401927D01*
X906820Y401886D01*
X906871Y401845D01*
X906915Y401796D01*
X906957Y401774D01*
X906994Y401745D01*
X907056Y401724D01*
X907115Y401693D01*
X907169Y401685D01*
X907206Y401673D01*
X907246Y401674D01*
X907300Y401666D01*
X920000Y401666D01*
X920065Y401677D01*
G37*
G36*
X937765Y401677D02*
X937765Y401677D01*
X937831Y401679D01*
X937874Y401697D01*
X937921Y401705D01*
X937978Y401739D01*
X938038Y401764D01*
X938073Y401795D01*
X938114Y401820D01*
X938156Y401871D01*
X938204Y401915D01*
X938226Y401957D01*
X938255Y401994D01*
X938276Y402056D01*
X938307Y402115D01*
X938315Y402169D01*
X938327Y402206D01*
X938326Y402246D01*
X938334Y402300D01*
X938334Y415000D01*
X938323Y415065D01*
X938321Y415131D01*
X938303Y415174D01*
X938295Y415221D01*
X938261Y415278D01*
X938236Y415338D01*
X938205Y415373D01*
X938180Y415414D01*
X938129Y415456D01*
X938085Y415504D01*
X938043Y415526D01*
X938006Y415555D01*
X937944Y415576D01*
X937885Y415607D01*
X937831Y415615D01*
X937794Y415627D01*
X937754Y415626D01*
X937700Y415634D01*
X925000Y415634D01*
X924935Y415623D01*
X924869Y415621D01*
X924826Y415603D01*
X924779Y415595D01*
X924722Y415561D01*
X924662Y415536D01*
X924627Y415505D01*
X924586Y415480D01*
X924545Y415429D01*
X924496Y415385D01*
X924474Y415343D01*
X924445Y415306D01*
X924424Y415244D01*
X924393Y415185D01*
X924385Y415131D01*
X924373Y415094D01*
X924373Y415080D01*
X924373Y415079D01*
X924374Y415052D01*
X924366Y415000D01*
X924366Y402300D01*
X924377Y402235D01*
X924379Y402169D01*
X924397Y402126D01*
X924405Y402079D01*
X924439Y402022D01*
X924464Y401962D01*
X924495Y401927D01*
X924520Y401886D01*
X924571Y401845D01*
X924615Y401796D01*
X924657Y401774D01*
X924694Y401745D01*
X924756Y401724D01*
X924815Y401693D01*
X924869Y401685D01*
X924906Y401673D01*
X924946Y401674D01*
X925000Y401666D01*
X937700Y401666D01*
X937765Y401677D01*
G37*
G36*
X1645065Y401677D02*
X1645065Y401677D01*
X1645131Y401679D01*
X1645174Y401697D01*
X1645221Y401705D01*
X1645278Y401739D01*
X1645338Y401764D01*
X1645373Y401795D01*
X1645414Y401820D01*
X1645456Y401871D01*
X1645504Y401915D01*
X1645526Y401957D01*
X1645555Y401994D01*
X1645576Y402056D01*
X1645607Y402115D01*
X1645615Y402169D01*
X1645627Y402206D01*
X1645626Y402246D01*
X1645634Y402300D01*
X1645634Y415000D01*
X1645623Y415065D01*
X1645621Y415131D01*
X1645603Y415174D01*
X1645595Y415221D01*
X1645561Y415278D01*
X1645536Y415338D01*
X1645505Y415373D01*
X1645480Y415414D01*
X1645429Y415456D01*
X1645385Y415504D01*
X1645343Y415526D01*
X1645306Y415555D01*
X1645244Y415576D01*
X1645185Y415607D01*
X1645131Y415615D01*
X1645094Y415627D01*
X1645054Y415626D01*
X1645000Y415634D01*
X1632300Y415634D01*
X1632235Y415623D01*
X1632169Y415621D01*
X1632126Y415603D01*
X1632079Y415595D01*
X1632022Y415561D01*
X1631962Y415536D01*
X1631927Y415505D01*
X1631886Y415480D01*
X1631845Y415429D01*
X1631796Y415385D01*
X1631774Y415343D01*
X1631745Y415306D01*
X1631724Y415244D01*
X1631693Y415185D01*
X1631685Y415131D01*
X1631673Y415094D01*
X1631673Y415080D01*
X1631673Y415079D01*
X1631674Y415052D01*
X1631666Y415000D01*
X1631666Y402300D01*
X1631677Y402235D01*
X1631679Y402169D01*
X1631697Y402126D01*
X1631705Y402079D01*
X1631739Y402022D01*
X1631764Y401962D01*
X1631795Y401927D01*
X1631820Y401886D01*
X1631871Y401845D01*
X1631915Y401796D01*
X1631957Y401774D01*
X1631994Y401745D01*
X1632056Y401724D01*
X1632115Y401693D01*
X1632169Y401685D01*
X1632206Y401673D01*
X1632246Y401674D01*
X1632300Y401666D01*
X1645000Y401666D01*
X1645065Y401677D01*
G37*
G36*
X2364565Y401477D02*
X2364565Y401477D01*
X2364631Y401479D01*
X2364674Y401497D01*
X2364721Y401505D01*
X2364778Y401539D01*
X2364838Y401564D01*
X2364873Y401595D01*
X2364914Y401620D01*
X2364956Y401671D01*
X2365004Y401715D01*
X2365026Y401757D01*
X2365055Y401794D01*
X2365076Y401856D01*
X2365107Y401915D01*
X2365115Y401969D01*
X2365127Y402006D01*
X2365126Y402046D01*
X2365134Y402100D01*
X2365134Y414800D01*
X2365123Y414865D01*
X2365121Y414931D01*
X2365103Y414974D01*
X2365095Y415021D01*
X2365061Y415078D01*
X2365036Y415138D01*
X2365005Y415173D01*
X2364980Y415214D01*
X2364929Y415256D01*
X2364885Y415304D01*
X2364843Y415326D01*
X2364806Y415355D01*
X2364744Y415376D01*
X2364685Y415407D01*
X2364631Y415415D01*
X2364594Y415427D01*
X2364554Y415426D01*
X2364500Y415434D01*
X2351800Y415434D01*
X2351735Y415423D01*
X2351669Y415421D01*
X2351626Y415403D01*
X2351579Y415395D01*
X2351522Y415361D01*
X2351462Y415336D01*
X2351427Y415305D01*
X2351386Y415280D01*
X2351345Y415229D01*
X2351296Y415185D01*
X2351274Y415143D01*
X2351245Y415106D01*
X2351224Y415044D01*
X2351193Y414985D01*
X2351185Y414931D01*
X2351173Y414894D01*
X2351173Y414880D01*
X2351173Y414879D01*
X2351174Y414852D01*
X2351166Y414800D01*
X2351166Y402100D01*
X2351177Y402035D01*
X2351179Y401969D01*
X2351197Y401926D01*
X2351205Y401879D01*
X2351239Y401822D01*
X2351264Y401762D01*
X2351295Y401727D01*
X2351320Y401686D01*
X2351371Y401645D01*
X2351415Y401596D01*
X2351457Y401574D01*
X2351494Y401545D01*
X2351556Y401524D01*
X2351615Y401493D01*
X2351669Y401485D01*
X2351706Y401473D01*
X2351746Y401474D01*
X2351800Y401466D01*
X2364500Y401466D01*
X2364565Y401477D01*
G37*
G36*
X2382265Y401477D02*
X2382265Y401477D01*
X2382331Y401479D01*
X2382374Y401497D01*
X2382421Y401505D01*
X2382478Y401539D01*
X2382538Y401564D01*
X2382573Y401595D01*
X2382614Y401620D01*
X2382656Y401671D01*
X2382704Y401715D01*
X2382726Y401757D01*
X2382755Y401794D01*
X2382776Y401856D01*
X2382807Y401915D01*
X2382815Y401969D01*
X2382827Y402006D01*
X2382826Y402046D01*
X2382834Y402100D01*
X2382834Y414800D01*
X2382823Y414865D01*
X2382821Y414931D01*
X2382803Y414974D01*
X2382795Y415021D01*
X2382761Y415078D01*
X2382736Y415138D01*
X2382705Y415173D01*
X2382680Y415214D01*
X2382629Y415256D01*
X2382585Y415304D01*
X2382543Y415326D01*
X2382506Y415355D01*
X2382444Y415376D01*
X2382385Y415407D01*
X2382331Y415415D01*
X2382294Y415427D01*
X2382254Y415426D01*
X2382200Y415434D01*
X2369500Y415434D01*
X2369435Y415423D01*
X2369369Y415421D01*
X2369326Y415403D01*
X2369279Y415395D01*
X2369222Y415361D01*
X2369162Y415336D01*
X2369127Y415305D01*
X2369086Y415280D01*
X2369045Y415229D01*
X2368996Y415185D01*
X2368974Y415143D01*
X2368945Y415106D01*
X2368924Y415044D01*
X2368893Y414985D01*
X2368885Y414931D01*
X2368873Y414894D01*
X2368873Y414880D01*
X2368873Y414879D01*
X2368874Y414852D01*
X2368866Y414800D01*
X2368866Y402100D01*
X2368877Y402035D01*
X2368879Y401969D01*
X2368897Y401926D01*
X2368905Y401879D01*
X2368939Y401822D01*
X2368964Y401762D01*
X2368995Y401727D01*
X2369020Y401686D01*
X2369071Y401645D01*
X2369115Y401596D01*
X2369157Y401574D01*
X2369194Y401545D01*
X2369256Y401524D01*
X2369315Y401493D01*
X2369369Y401485D01*
X2369406Y401473D01*
X2369446Y401474D01*
X2369500Y401466D01*
X2382200Y401466D01*
X2382265Y401477D01*
G37*
D10*
X228600Y76200D03*
X2768600Y50800D03*
X2463800Y1016000D03*
X228600Y1016000D03*
D11*
X448200Y1035400D03*
X389700Y1035400D03*
D12*
X836300Y395000D03*
X853300Y395000D03*
D13*
X1855200Y131200D03*
X1855200Y142800D03*
D12*
X1604300Y382500D03*
X1587300Y382500D03*
D13*
X867400Y359800D03*
X867400Y348200D03*
D14*
X2315190Y374700D03*
X2315190Y391700D03*
D13*
X1652500Y657900D03*
X1652500Y669500D03*
X1628700Y359000D03*
X1628700Y347400D03*
D15*
X313351Y923400D03*
X313351Y932900D03*
X313351Y942400D03*
X285849Y942400D03*
X285849Y932900D03*
X285849Y923400D03*
D16*
X1445212Y609712D02*
X1445212Y593288D01*
X1441588Y593288D01*
X1441588Y609712D01*
X1445212Y609712D01*
X1445212Y594495D02*
X1441588Y594495D01*
X1441588Y595702D02*
X1445212Y595702D01*
X1445212Y596909D02*
X1441588Y596909D01*
X1441588Y598116D02*
X1445212Y598116D01*
X1445212Y599323D02*
X1441588Y599323D01*
X1441588Y600530D02*
X1445212Y600530D01*
X1445212Y601737D02*
X1441588Y601737D01*
X1441588Y602944D02*
X1445212Y602944D01*
X1445212Y604151D02*
X1441588Y604151D01*
X1441588Y605358D02*
X1445212Y605358D01*
X1445212Y606565D02*
X1441588Y606565D01*
X1441588Y607772D02*
X1445212Y607772D01*
X1445212Y608979D02*
X1441588Y608979D01*
X1450212Y609712D02*
X1450212Y593288D01*
X1446588Y593288D01*
X1446588Y609712D01*
X1450212Y609712D01*
X1450212Y594495D02*
X1446588Y594495D01*
X1446588Y595702D02*
X1450212Y595702D01*
X1450212Y596909D02*
X1446588Y596909D01*
X1446588Y598116D02*
X1450212Y598116D01*
X1450212Y599323D02*
X1446588Y599323D01*
X1446588Y600530D02*
X1450212Y600530D01*
X1450212Y601737D02*
X1446588Y601737D01*
X1446588Y602944D02*
X1450212Y602944D01*
X1450212Y604151D02*
X1446588Y604151D01*
X1446588Y605358D02*
X1450212Y605358D01*
X1450212Y606565D02*
X1446588Y606565D01*
X1446588Y607772D02*
X1450212Y607772D01*
X1450212Y608979D02*
X1446588Y608979D01*
X1455212Y609712D02*
X1455212Y593288D01*
X1451588Y593288D01*
X1451588Y609712D01*
X1455212Y609712D01*
X1455212Y594495D02*
X1451588Y594495D01*
X1451588Y595702D02*
X1455212Y595702D01*
X1455212Y596909D02*
X1451588Y596909D01*
X1451588Y598116D02*
X1455212Y598116D01*
X1455212Y599323D02*
X1451588Y599323D01*
X1451588Y600530D02*
X1455212Y600530D01*
X1455212Y601737D02*
X1451588Y601737D01*
X1451588Y602944D02*
X1455212Y602944D01*
X1455212Y604151D02*
X1451588Y604151D01*
X1451588Y605358D02*
X1455212Y605358D01*
X1455212Y606565D02*
X1451588Y606565D01*
X1451588Y607772D02*
X1455212Y607772D01*
X1455212Y608979D02*
X1451588Y608979D01*
X1460212Y609712D02*
X1460212Y593288D01*
X1456588Y593288D01*
X1456588Y609712D01*
X1460212Y609712D01*
X1460212Y594495D02*
X1456588Y594495D01*
X1456588Y595702D02*
X1460212Y595702D01*
X1460212Y596909D02*
X1456588Y596909D01*
X1456588Y598116D02*
X1460212Y598116D01*
X1460212Y599323D02*
X1456588Y599323D01*
X1456588Y600530D02*
X1460212Y600530D01*
X1460212Y601737D02*
X1456588Y601737D01*
X1456588Y602944D02*
X1460212Y602944D01*
X1460212Y604151D02*
X1456588Y604151D01*
X1456588Y605358D02*
X1460212Y605358D01*
X1460212Y606565D02*
X1456588Y606565D01*
X1456588Y607772D02*
X1460212Y607772D01*
X1460212Y608979D02*
X1456588Y608979D01*
X1465212Y609712D02*
X1465212Y593288D01*
X1461588Y593288D01*
X1461588Y609712D01*
X1465212Y609712D01*
X1465212Y594495D02*
X1461588Y594495D01*
X1461588Y595702D02*
X1465212Y595702D01*
X1465212Y596909D02*
X1461588Y596909D01*
X1461588Y598116D02*
X1465212Y598116D01*
X1465212Y599323D02*
X1461588Y599323D01*
X1461588Y600530D02*
X1465212Y600530D01*
X1465212Y601737D02*
X1461588Y601737D01*
X1461588Y602944D02*
X1465212Y602944D01*
X1465212Y604151D02*
X1461588Y604151D01*
X1461588Y605358D02*
X1465212Y605358D01*
X1465212Y606565D02*
X1461588Y606565D01*
X1461588Y607772D02*
X1465212Y607772D01*
X1465212Y608979D02*
X1461588Y608979D01*
X1470212Y609712D02*
X1470212Y593288D01*
X1466588Y593288D01*
X1466588Y609712D01*
X1470212Y609712D01*
X1470212Y594495D02*
X1466588Y594495D01*
X1466588Y595702D02*
X1470212Y595702D01*
X1470212Y596909D02*
X1466588Y596909D01*
X1466588Y598116D02*
X1470212Y598116D01*
X1470212Y599323D02*
X1466588Y599323D01*
X1466588Y600530D02*
X1470212Y600530D01*
X1470212Y601737D02*
X1466588Y601737D01*
X1466588Y602944D02*
X1470212Y602944D01*
X1470212Y604151D02*
X1466588Y604151D01*
X1466588Y605358D02*
X1470212Y605358D01*
X1470212Y606565D02*
X1466588Y606565D01*
X1466588Y607772D02*
X1470212Y607772D01*
X1470212Y608979D02*
X1466588Y608979D01*
X1475212Y609712D02*
X1475212Y593288D01*
X1471588Y593288D01*
X1471588Y609712D01*
X1475212Y609712D01*
X1475212Y594495D02*
X1471588Y594495D01*
X1471588Y595702D02*
X1475212Y595702D01*
X1475212Y596909D02*
X1471588Y596909D01*
X1471588Y598116D02*
X1475212Y598116D01*
X1475212Y599323D02*
X1471588Y599323D01*
X1471588Y600530D02*
X1475212Y600530D01*
X1475212Y601737D02*
X1471588Y601737D01*
X1471588Y602944D02*
X1475212Y602944D01*
X1475212Y604151D02*
X1471588Y604151D01*
X1471588Y605358D02*
X1475212Y605358D01*
X1475212Y606565D02*
X1471588Y606565D01*
X1471588Y607772D02*
X1475212Y607772D01*
X1475212Y608979D02*
X1471588Y608979D01*
X1480212Y609712D02*
X1480212Y593288D01*
X1476588Y593288D01*
X1476588Y609712D01*
X1480212Y609712D01*
X1480212Y594495D02*
X1476588Y594495D01*
X1476588Y595702D02*
X1480212Y595702D01*
X1480212Y596909D02*
X1476588Y596909D01*
X1476588Y598116D02*
X1480212Y598116D01*
X1480212Y599323D02*
X1476588Y599323D01*
X1476588Y600530D02*
X1480212Y600530D01*
X1480212Y601737D02*
X1476588Y601737D01*
X1476588Y602944D02*
X1480212Y602944D01*
X1480212Y604151D02*
X1476588Y604151D01*
X1476588Y605358D02*
X1480212Y605358D01*
X1480212Y606565D02*
X1476588Y606565D01*
X1476588Y607772D02*
X1480212Y607772D01*
X1480212Y608979D02*
X1476588Y608979D01*
X1485212Y609712D02*
X1485212Y593288D01*
X1481588Y593288D01*
X1481588Y609712D01*
X1485212Y609712D01*
X1485212Y594495D02*
X1481588Y594495D01*
X1481588Y595702D02*
X1485212Y595702D01*
X1485212Y596909D02*
X1481588Y596909D01*
X1481588Y598116D02*
X1485212Y598116D01*
X1485212Y599323D02*
X1481588Y599323D01*
X1481588Y600530D02*
X1485212Y600530D01*
X1485212Y601737D02*
X1481588Y601737D01*
X1481588Y602944D02*
X1485212Y602944D01*
X1485212Y604151D02*
X1481588Y604151D01*
X1481588Y605358D02*
X1485212Y605358D01*
X1485212Y606565D02*
X1481588Y606565D01*
X1481588Y607772D02*
X1485212Y607772D01*
X1485212Y608979D02*
X1481588Y608979D01*
X1490212Y609712D02*
X1490212Y593288D01*
X1486588Y593288D01*
X1486588Y609712D01*
X1490212Y609712D01*
X1490212Y594495D02*
X1486588Y594495D01*
X1486588Y595702D02*
X1490212Y595702D01*
X1490212Y596909D02*
X1486588Y596909D01*
X1486588Y598116D02*
X1490212Y598116D01*
X1490212Y599323D02*
X1486588Y599323D01*
X1486588Y600530D02*
X1490212Y600530D01*
X1490212Y601737D02*
X1486588Y601737D01*
X1486588Y602944D02*
X1490212Y602944D01*
X1490212Y604151D02*
X1486588Y604151D01*
X1486588Y605358D02*
X1490212Y605358D01*
X1490212Y606565D02*
X1486588Y606565D01*
X1486588Y607772D02*
X1490212Y607772D01*
X1490212Y608979D02*
X1486588Y608979D01*
X1495212Y609712D02*
X1495212Y593288D01*
X1491588Y593288D01*
X1491588Y609712D01*
X1495212Y609712D01*
X1495212Y594495D02*
X1491588Y594495D01*
X1491588Y595702D02*
X1495212Y595702D01*
X1495212Y596909D02*
X1491588Y596909D01*
X1491588Y598116D02*
X1495212Y598116D01*
X1495212Y599323D02*
X1491588Y599323D01*
X1491588Y600530D02*
X1495212Y600530D01*
X1495212Y601737D02*
X1491588Y601737D01*
X1491588Y602944D02*
X1495212Y602944D01*
X1495212Y604151D02*
X1491588Y604151D01*
X1491588Y605358D02*
X1495212Y605358D01*
X1495212Y606565D02*
X1491588Y606565D01*
X1491588Y607772D02*
X1495212Y607772D01*
X1495212Y608979D02*
X1491588Y608979D01*
X1500212Y609712D02*
X1500212Y593288D01*
X1496588Y593288D01*
X1496588Y609712D01*
X1500212Y609712D01*
X1500212Y594495D02*
X1496588Y594495D01*
X1496588Y595702D02*
X1500212Y595702D01*
X1500212Y596909D02*
X1496588Y596909D01*
X1496588Y598116D02*
X1500212Y598116D01*
X1500212Y599323D02*
X1496588Y599323D01*
X1496588Y600530D02*
X1500212Y600530D01*
X1500212Y601737D02*
X1496588Y601737D01*
X1496588Y602944D02*
X1500212Y602944D01*
X1500212Y604151D02*
X1496588Y604151D01*
X1496588Y605358D02*
X1500212Y605358D01*
X1500212Y606565D02*
X1496588Y606565D01*
X1496588Y607772D02*
X1500212Y607772D01*
X1500212Y608979D02*
X1496588Y608979D01*
X1505212Y609712D02*
X1505212Y593288D01*
X1501588Y593288D01*
X1501588Y609712D01*
X1505212Y609712D01*
X1505212Y594495D02*
X1501588Y594495D01*
X1501588Y595702D02*
X1505212Y595702D01*
X1505212Y596909D02*
X1501588Y596909D01*
X1501588Y598116D02*
X1505212Y598116D01*
X1505212Y599323D02*
X1501588Y599323D01*
X1501588Y600530D02*
X1505212Y600530D01*
X1505212Y601737D02*
X1501588Y601737D01*
X1501588Y602944D02*
X1505212Y602944D01*
X1505212Y604151D02*
X1501588Y604151D01*
X1501588Y605358D02*
X1505212Y605358D01*
X1505212Y606565D02*
X1501588Y606565D01*
X1501588Y607772D02*
X1505212Y607772D01*
X1505212Y608979D02*
X1501588Y608979D01*
X1510212Y609712D02*
X1510212Y593288D01*
X1506588Y593288D01*
X1506588Y609712D01*
X1510212Y609712D01*
X1510212Y594495D02*
X1506588Y594495D01*
X1506588Y595702D02*
X1510212Y595702D01*
X1510212Y596909D02*
X1506588Y596909D01*
X1506588Y598116D02*
X1510212Y598116D01*
X1510212Y599323D02*
X1506588Y599323D01*
X1506588Y600530D02*
X1510212Y600530D01*
X1510212Y601737D02*
X1506588Y601737D01*
X1506588Y602944D02*
X1510212Y602944D01*
X1510212Y604151D02*
X1506588Y604151D01*
X1506588Y605358D02*
X1510212Y605358D01*
X1510212Y606565D02*
X1506588Y606565D01*
X1506588Y607772D02*
X1510212Y607772D01*
X1510212Y608979D02*
X1506588Y608979D01*
X1515212Y609712D02*
X1515212Y593288D01*
X1511588Y593288D01*
X1511588Y609712D01*
X1515212Y609712D01*
X1515212Y594495D02*
X1511588Y594495D01*
X1511588Y595702D02*
X1515212Y595702D01*
X1515212Y596909D02*
X1511588Y596909D01*
X1511588Y598116D02*
X1515212Y598116D01*
X1515212Y599323D02*
X1511588Y599323D01*
X1511588Y600530D02*
X1515212Y600530D01*
X1515212Y601737D02*
X1511588Y601737D01*
X1511588Y602944D02*
X1515212Y602944D01*
X1515212Y604151D02*
X1511588Y604151D01*
X1511588Y605358D02*
X1515212Y605358D01*
X1515212Y606565D02*
X1511588Y606565D01*
X1511588Y607772D02*
X1515212Y607772D01*
X1515212Y608979D02*
X1511588Y608979D01*
X1520212Y609712D02*
X1520212Y593288D01*
X1516588Y593288D01*
X1516588Y609712D01*
X1520212Y609712D01*
X1520212Y594495D02*
X1516588Y594495D01*
X1516588Y595702D02*
X1520212Y595702D01*
X1520212Y596909D02*
X1516588Y596909D01*
X1516588Y598116D02*
X1520212Y598116D01*
X1520212Y599323D02*
X1516588Y599323D01*
X1516588Y600530D02*
X1520212Y600530D01*
X1520212Y601737D02*
X1516588Y601737D01*
X1516588Y602944D02*
X1520212Y602944D01*
X1520212Y604151D02*
X1516588Y604151D01*
X1516588Y605358D02*
X1520212Y605358D01*
X1520212Y606565D02*
X1516588Y606565D01*
X1516588Y607772D02*
X1520212Y607772D01*
X1520212Y608979D02*
X1516588Y608979D01*
X1525212Y609712D02*
X1525212Y593288D01*
X1521588Y593288D01*
X1521588Y609712D01*
X1525212Y609712D01*
X1525212Y594495D02*
X1521588Y594495D01*
X1521588Y595702D02*
X1525212Y595702D01*
X1525212Y596909D02*
X1521588Y596909D01*
X1521588Y598116D02*
X1525212Y598116D01*
X1525212Y599323D02*
X1521588Y599323D01*
X1521588Y600530D02*
X1525212Y600530D01*
X1525212Y601737D02*
X1521588Y601737D01*
X1521588Y602944D02*
X1525212Y602944D01*
X1525212Y604151D02*
X1521588Y604151D01*
X1521588Y605358D02*
X1525212Y605358D01*
X1525212Y606565D02*
X1521588Y606565D01*
X1521588Y607772D02*
X1525212Y607772D01*
X1525212Y608979D02*
X1521588Y608979D01*
X1530212Y609712D02*
X1530212Y593288D01*
X1526588Y593288D01*
X1526588Y609712D01*
X1530212Y609712D01*
X1530212Y594495D02*
X1526588Y594495D01*
X1526588Y595702D02*
X1530212Y595702D01*
X1530212Y596909D02*
X1526588Y596909D01*
X1526588Y598116D02*
X1530212Y598116D01*
X1530212Y599323D02*
X1526588Y599323D01*
X1526588Y600530D02*
X1530212Y600530D01*
X1530212Y601737D02*
X1526588Y601737D01*
X1526588Y602944D02*
X1530212Y602944D01*
X1530212Y604151D02*
X1526588Y604151D01*
X1526588Y605358D02*
X1530212Y605358D01*
X1530212Y606565D02*
X1526588Y606565D01*
X1526588Y607772D02*
X1530212Y607772D01*
X1530212Y608979D02*
X1526588Y608979D01*
X1535212Y609712D02*
X1535212Y593288D01*
X1531588Y593288D01*
X1531588Y609712D01*
X1535212Y609712D01*
X1535212Y594495D02*
X1531588Y594495D01*
X1531588Y595702D02*
X1535212Y595702D01*
X1535212Y596909D02*
X1531588Y596909D01*
X1531588Y598116D02*
X1535212Y598116D01*
X1535212Y599323D02*
X1531588Y599323D01*
X1531588Y600530D02*
X1535212Y600530D01*
X1535212Y601737D02*
X1531588Y601737D01*
X1531588Y602944D02*
X1535212Y602944D01*
X1535212Y604151D02*
X1531588Y604151D01*
X1531588Y605358D02*
X1535212Y605358D01*
X1535212Y606565D02*
X1531588Y606565D01*
X1531588Y607772D02*
X1535212Y607772D01*
X1535212Y608979D02*
X1531588Y608979D01*
X1540212Y609712D02*
X1540212Y593288D01*
X1536588Y593288D01*
X1536588Y609712D01*
X1540212Y609712D01*
X1540212Y594495D02*
X1536588Y594495D01*
X1536588Y595702D02*
X1540212Y595702D01*
X1540212Y596909D02*
X1536588Y596909D01*
X1536588Y598116D02*
X1540212Y598116D01*
X1540212Y599323D02*
X1536588Y599323D01*
X1536588Y600530D02*
X1540212Y600530D01*
X1540212Y601737D02*
X1536588Y601737D01*
X1536588Y602944D02*
X1540212Y602944D01*
X1540212Y604151D02*
X1536588Y604151D01*
X1536588Y605358D02*
X1540212Y605358D01*
X1540212Y606565D02*
X1536588Y606565D01*
X1536588Y607772D02*
X1540212Y607772D01*
X1540212Y608979D02*
X1536588Y608979D01*
X1545212Y609712D02*
X1545212Y593288D01*
X1541588Y593288D01*
X1541588Y609712D01*
X1545212Y609712D01*
X1545212Y594495D02*
X1541588Y594495D01*
X1541588Y595702D02*
X1545212Y595702D01*
X1545212Y596909D02*
X1541588Y596909D01*
X1541588Y598116D02*
X1545212Y598116D01*
X1545212Y599323D02*
X1541588Y599323D01*
X1541588Y600530D02*
X1545212Y600530D01*
X1545212Y601737D02*
X1541588Y601737D01*
X1541588Y602944D02*
X1545212Y602944D01*
X1545212Y604151D02*
X1541588Y604151D01*
X1541588Y605358D02*
X1545212Y605358D01*
X1545212Y606565D02*
X1541588Y606565D01*
X1541588Y607772D02*
X1545212Y607772D01*
X1545212Y608979D02*
X1541588Y608979D01*
X1550212Y609712D02*
X1550212Y593288D01*
X1546588Y593288D01*
X1546588Y609712D01*
X1550212Y609712D01*
X1550212Y594495D02*
X1546588Y594495D01*
X1546588Y595702D02*
X1550212Y595702D01*
X1550212Y596909D02*
X1546588Y596909D01*
X1546588Y598116D02*
X1550212Y598116D01*
X1550212Y599323D02*
X1546588Y599323D01*
X1546588Y600530D02*
X1550212Y600530D01*
X1550212Y601737D02*
X1546588Y601737D01*
X1546588Y602944D02*
X1550212Y602944D01*
X1550212Y604151D02*
X1546588Y604151D01*
X1546588Y605358D02*
X1550212Y605358D01*
X1550212Y606565D02*
X1546588Y606565D01*
X1546588Y607772D02*
X1550212Y607772D01*
X1550212Y608979D02*
X1546588Y608979D01*
X1555212Y609712D02*
X1555212Y593288D01*
X1551588Y593288D01*
X1551588Y609712D01*
X1555212Y609712D01*
X1555212Y594495D02*
X1551588Y594495D01*
X1551588Y595702D02*
X1555212Y595702D01*
X1555212Y596909D02*
X1551588Y596909D01*
X1551588Y598116D02*
X1555212Y598116D01*
X1555212Y599323D02*
X1551588Y599323D01*
X1551588Y600530D02*
X1555212Y600530D01*
X1555212Y601737D02*
X1551588Y601737D01*
X1551588Y602944D02*
X1555212Y602944D01*
X1555212Y604151D02*
X1551588Y604151D01*
X1551588Y605358D02*
X1555212Y605358D01*
X1555212Y606565D02*
X1551588Y606565D01*
X1551588Y607772D02*
X1555212Y607772D01*
X1555212Y608979D02*
X1551588Y608979D01*
X1560212Y609712D02*
X1560212Y593288D01*
X1556588Y593288D01*
X1556588Y609712D01*
X1560212Y609712D01*
X1560212Y594495D02*
X1556588Y594495D01*
X1556588Y595702D02*
X1560212Y595702D01*
X1560212Y596909D02*
X1556588Y596909D01*
X1556588Y598116D02*
X1560212Y598116D01*
X1560212Y599323D02*
X1556588Y599323D01*
X1556588Y600530D02*
X1560212Y600530D01*
X1560212Y601737D02*
X1556588Y601737D01*
X1556588Y602944D02*
X1560212Y602944D01*
X1560212Y604151D02*
X1556588Y604151D01*
X1556588Y605358D02*
X1560212Y605358D01*
X1560212Y606565D02*
X1556588Y606565D01*
X1556588Y607772D02*
X1560212Y607772D01*
X1560212Y608979D02*
X1556588Y608979D01*
X1565212Y609712D02*
X1565212Y593288D01*
X1561588Y593288D01*
X1561588Y609712D01*
X1565212Y609712D01*
X1565212Y594495D02*
X1561588Y594495D01*
X1561588Y595702D02*
X1565212Y595702D01*
X1565212Y596909D02*
X1561588Y596909D01*
X1561588Y598116D02*
X1565212Y598116D01*
X1565212Y599323D02*
X1561588Y599323D01*
X1561588Y600530D02*
X1565212Y600530D01*
X1565212Y601737D02*
X1561588Y601737D01*
X1561588Y602944D02*
X1565212Y602944D01*
X1565212Y604151D02*
X1561588Y604151D01*
X1561588Y605358D02*
X1565212Y605358D01*
X1565212Y606565D02*
X1561588Y606565D01*
X1561588Y607772D02*
X1565212Y607772D01*
X1565212Y608979D02*
X1561588Y608979D01*
X1565212Y746888D02*
X1565212Y763312D01*
X1565212Y746888D02*
X1561588Y746888D01*
X1561588Y763312D01*
X1565212Y763312D01*
X1565212Y748095D02*
X1561588Y748095D01*
X1561588Y749302D02*
X1565212Y749302D01*
X1565212Y750509D02*
X1561588Y750509D01*
X1561588Y751716D02*
X1565212Y751716D01*
X1565212Y752923D02*
X1561588Y752923D01*
X1561588Y754130D02*
X1565212Y754130D01*
X1565212Y755337D02*
X1561588Y755337D01*
X1561588Y756544D02*
X1565212Y756544D01*
X1565212Y757751D02*
X1561588Y757751D01*
X1561588Y758958D02*
X1565212Y758958D01*
X1565212Y760165D02*
X1561588Y760165D01*
X1561588Y761372D02*
X1565212Y761372D01*
X1565212Y762579D02*
X1561588Y762579D01*
X1560212Y763312D02*
X1560212Y746888D01*
X1556588Y746888D01*
X1556588Y763312D01*
X1560212Y763312D01*
X1560212Y748095D02*
X1556588Y748095D01*
X1556588Y749302D02*
X1560212Y749302D01*
X1560212Y750509D02*
X1556588Y750509D01*
X1556588Y751716D02*
X1560212Y751716D01*
X1560212Y752923D02*
X1556588Y752923D01*
X1556588Y754130D02*
X1560212Y754130D01*
X1560212Y755337D02*
X1556588Y755337D01*
X1556588Y756544D02*
X1560212Y756544D01*
X1560212Y757751D02*
X1556588Y757751D01*
X1556588Y758958D02*
X1560212Y758958D01*
X1560212Y760165D02*
X1556588Y760165D01*
X1556588Y761372D02*
X1560212Y761372D01*
X1560212Y762579D02*
X1556588Y762579D01*
X1555212Y763312D02*
X1555212Y746888D01*
X1551588Y746888D01*
X1551588Y763312D01*
X1555212Y763312D01*
X1555212Y748095D02*
X1551588Y748095D01*
X1551588Y749302D02*
X1555212Y749302D01*
X1555212Y750509D02*
X1551588Y750509D01*
X1551588Y751716D02*
X1555212Y751716D01*
X1555212Y752923D02*
X1551588Y752923D01*
X1551588Y754130D02*
X1555212Y754130D01*
X1555212Y755337D02*
X1551588Y755337D01*
X1551588Y756544D02*
X1555212Y756544D01*
X1555212Y757751D02*
X1551588Y757751D01*
X1551588Y758958D02*
X1555212Y758958D01*
X1555212Y760165D02*
X1551588Y760165D01*
X1551588Y761372D02*
X1555212Y761372D01*
X1555212Y762579D02*
X1551588Y762579D01*
X1550212Y763312D02*
X1550212Y746888D01*
X1546588Y746888D01*
X1546588Y763312D01*
X1550212Y763312D01*
X1550212Y748095D02*
X1546588Y748095D01*
X1546588Y749302D02*
X1550212Y749302D01*
X1550212Y750509D02*
X1546588Y750509D01*
X1546588Y751716D02*
X1550212Y751716D01*
X1550212Y752923D02*
X1546588Y752923D01*
X1546588Y754130D02*
X1550212Y754130D01*
X1550212Y755337D02*
X1546588Y755337D01*
X1546588Y756544D02*
X1550212Y756544D01*
X1550212Y757751D02*
X1546588Y757751D01*
X1546588Y758958D02*
X1550212Y758958D01*
X1550212Y760165D02*
X1546588Y760165D01*
X1546588Y761372D02*
X1550212Y761372D01*
X1550212Y762579D02*
X1546588Y762579D01*
X1545212Y763312D02*
X1545212Y746888D01*
X1541588Y746888D01*
X1541588Y763312D01*
X1545212Y763312D01*
X1545212Y748095D02*
X1541588Y748095D01*
X1541588Y749302D02*
X1545212Y749302D01*
X1545212Y750509D02*
X1541588Y750509D01*
X1541588Y751716D02*
X1545212Y751716D01*
X1545212Y752923D02*
X1541588Y752923D01*
X1541588Y754130D02*
X1545212Y754130D01*
X1545212Y755337D02*
X1541588Y755337D01*
X1541588Y756544D02*
X1545212Y756544D01*
X1545212Y757751D02*
X1541588Y757751D01*
X1541588Y758958D02*
X1545212Y758958D01*
X1545212Y760165D02*
X1541588Y760165D01*
X1541588Y761372D02*
X1545212Y761372D01*
X1545212Y762579D02*
X1541588Y762579D01*
X1540212Y763312D02*
X1540212Y746888D01*
X1536588Y746888D01*
X1536588Y763312D01*
X1540212Y763312D01*
X1540212Y748095D02*
X1536588Y748095D01*
X1536588Y749302D02*
X1540212Y749302D01*
X1540212Y750509D02*
X1536588Y750509D01*
X1536588Y751716D02*
X1540212Y751716D01*
X1540212Y752923D02*
X1536588Y752923D01*
X1536588Y754130D02*
X1540212Y754130D01*
X1540212Y755337D02*
X1536588Y755337D01*
X1536588Y756544D02*
X1540212Y756544D01*
X1540212Y757751D02*
X1536588Y757751D01*
X1536588Y758958D02*
X1540212Y758958D01*
X1540212Y760165D02*
X1536588Y760165D01*
X1536588Y761372D02*
X1540212Y761372D01*
X1540212Y762579D02*
X1536588Y762579D01*
X1535212Y763312D02*
X1535212Y746888D01*
X1531588Y746888D01*
X1531588Y763312D01*
X1535212Y763312D01*
X1535212Y748095D02*
X1531588Y748095D01*
X1531588Y749302D02*
X1535212Y749302D01*
X1535212Y750509D02*
X1531588Y750509D01*
X1531588Y751716D02*
X1535212Y751716D01*
X1535212Y752923D02*
X1531588Y752923D01*
X1531588Y754130D02*
X1535212Y754130D01*
X1535212Y755337D02*
X1531588Y755337D01*
X1531588Y756544D02*
X1535212Y756544D01*
X1535212Y757751D02*
X1531588Y757751D01*
X1531588Y758958D02*
X1535212Y758958D01*
X1535212Y760165D02*
X1531588Y760165D01*
X1531588Y761372D02*
X1535212Y761372D01*
X1535212Y762579D02*
X1531588Y762579D01*
X1530212Y763312D02*
X1530212Y746888D01*
X1526588Y746888D01*
X1526588Y763312D01*
X1530212Y763312D01*
X1530212Y748095D02*
X1526588Y748095D01*
X1526588Y749302D02*
X1530212Y749302D01*
X1530212Y750509D02*
X1526588Y750509D01*
X1526588Y751716D02*
X1530212Y751716D01*
X1530212Y752923D02*
X1526588Y752923D01*
X1526588Y754130D02*
X1530212Y754130D01*
X1530212Y755337D02*
X1526588Y755337D01*
X1526588Y756544D02*
X1530212Y756544D01*
X1530212Y757751D02*
X1526588Y757751D01*
X1526588Y758958D02*
X1530212Y758958D01*
X1530212Y760165D02*
X1526588Y760165D01*
X1526588Y761372D02*
X1530212Y761372D01*
X1530212Y762579D02*
X1526588Y762579D01*
X1525212Y763312D02*
X1525212Y746888D01*
X1521588Y746888D01*
X1521588Y763312D01*
X1525212Y763312D01*
X1525212Y748095D02*
X1521588Y748095D01*
X1521588Y749302D02*
X1525212Y749302D01*
X1525212Y750509D02*
X1521588Y750509D01*
X1521588Y751716D02*
X1525212Y751716D01*
X1525212Y752923D02*
X1521588Y752923D01*
X1521588Y754130D02*
X1525212Y754130D01*
X1525212Y755337D02*
X1521588Y755337D01*
X1521588Y756544D02*
X1525212Y756544D01*
X1525212Y757751D02*
X1521588Y757751D01*
X1521588Y758958D02*
X1525212Y758958D01*
X1525212Y760165D02*
X1521588Y760165D01*
X1521588Y761372D02*
X1525212Y761372D01*
X1525212Y762579D02*
X1521588Y762579D01*
X1520212Y763312D02*
X1520212Y746888D01*
X1516588Y746888D01*
X1516588Y763312D01*
X1520212Y763312D01*
X1520212Y748095D02*
X1516588Y748095D01*
X1516588Y749302D02*
X1520212Y749302D01*
X1520212Y750509D02*
X1516588Y750509D01*
X1516588Y751716D02*
X1520212Y751716D01*
X1520212Y752923D02*
X1516588Y752923D01*
X1516588Y754130D02*
X1520212Y754130D01*
X1520212Y755337D02*
X1516588Y755337D01*
X1516588Y756544D02*
X1520212Y756544D01*
X1520212Y757751D02*
X1516588Y757751D01*
X1516588Y758958D02*
X1520212Y758958D01*
X1520212Y760165D02*
X1516588Y760165D01*
X1516588Y761372D02*
X1520212Y761372D01*
X1520212Y762579D02*
X1516588Y762579D01*
X1515212Y763312D02*
X1515212Y746888D01*
X1511588Y746888D01*
X1511588Y763312D01*
X1515212Y763312D01*
X1515212Y748095D02*
X1511588Y748095D01*
X1511588Y749302D02*
X1515212Y749302D01*
X1515212Y750509D02*
X1511588Y750509D01*
X1511588Y751716D02*
X1515212Y751716D01*
X1515212Y752923D02*
X1511588Y752923D01*
X1511588Y754130D02*
X1515212Y754130D01*
X1515212Y755337D02*
X1511588Y755337D01*
X1511588Y756544D02*
X1515212Y756544D01*
X1515212Y757751D02*
X1511588Y757751D01*
X1511588Y758958D02*
X1515212Y758958D01*
X1515212Y760165D02*
X1511588Y760165D01*
X1511588Y761372D02*
X1515212Y761372D01*
X1515212Y762579D02*
X1511588Y762579D01*
X1510212Y763312D02*
X1510212Y746888D01*
X1506588Y746888D01*
X1506588Y763312D01*
X1510212Y763312D01*
X1510212Y748095D02*
X1506588Y748095D01*
X1506588Y749302D02*
X1510212Y749302D01*
X1510212Y750509D02*
X1506588Y750509D01*
X1506588Y751716D02*
X1510212Y751716D01*
X1510212Y752923D02*
X1506588Y752923D01*
X1506588Y754130D02*
X1510212Y754130D01*
X1510212Y755337D02*
X1506588Y755337D01*
X1506588Y756544D02*
X1510212Y756544D01*
X1510212Y757751D02*
X1506588Y757751D01*
X1506588Y758958D02*
X1510212Y758958D01*
X1510212Y760165D02*
X1506588Y760165D01*
X1506588Y761372D02*
X1510212Y761372D01*
X1510212Y762579D02*
X1506588Y762579D01*
X1505212Y763312D02*
X1505212Y746888D01*
X1501588Y746888D01*
X1501588Y763312D01*
X1505212Y763312D01*
X1505212Y748095D02*
X1501588Y748095D01*
X1501588Y749302D02*
X1505212Y749302D01*
X1505212Y750509D02*
X1501588Y750509D01*
X1501588Y751716D02*
X1505212Y751716D01*
X1505212Y752923D02*
X1501588Y752923D01*
X1501588Y754130D02*
X1505212Y754130D01*
X1505212Y755337D02*
X1501588Y755337D01*
X1501588Y756544D02*
X1505212Y756544D01*
X1505212Y757751D02*
X1501588Y757751D01*
X1501588Y758958D02*
X1505212Y758958D01*
X1505212Y760165D02*
X1501588Y760165D01*
X1501588Y761372D02*
X1505212Y761372D01*
X1505212Y762579D02*
X1501588Y762579D01*
X1500212Y763312D02*
X1500212Y746888D01*
X1496588Y746888D01*
X1496588Y763312D01*
X1500212Y763312D01*
X1500212Y748095D02*
X1496588Y748095D01*
X1496588Y749302D02*
X1500212Y749302D01*
X1500212Y750509D02*
X1496588Y750509D01*
X1496588Y751716D02*
X1500212Y751716D01*
X1500212Y752923D02*
X1496588Y752923D01*
X1496588Y754130D02*
X1500212Y754130D01*
X1500212Y755337D02*
X1496588Y755337D01*
X1496588Y756544D02*
X1500212Y756544D01*
X1500212Y757751D02*
X1496588Y757751D01*
X1496588Y758958D02*
X1500212Y758958D01*
X1500212Y760165D02*
X1496588Y760165D01*
X1496588Y761372D02*
X1500212Y761372D01*
X1500212Y762579D02*
X1496588Y762579D01*
X1495212Y763312D02*
X1495212Y746888D01*
X1491588Y746888D01*
X1491588Y763312D01*
X1495212Y763312D01*
X1495212Y748095D02*
X1491588Y748095D01*
X1491588Y749302D02*
X1495212Y749302D01*
X1495212Y750509D02*
X1491588Y750509D01*
X1491588Y751716D02*
X1495212Y751716D01*
X1495212Y752923D02*
X1491588Y752923D01*
X1491588Y754130D02*
X1495212Y754130D01*
X1495212Y755337D02*
X1491588Y755337D01*
X1491588Y756544D02*
X1495212Y756544D01*
X1495212Y757751D02*
X1491588Y757751D01*
X1491588Y758958D02*
X1495212Y758958D01*
X1495212Y760165D02*
X1491588Y760165D01*
X1491588Y761372D02*
X1495212Y761372D01*
X1495212Y762579D02*
X1491588Y762579D01*
X1490212Y763312D02*
X1490212Y746888D01*
X1486588Y746888D01*
X1486588Y763312D01*
X1490212Y763312D01*
X1490212Y748095D02*
X1486588Y748095D01*
X1486588Y749302D02*
X1490212Y749302D01*
X1490212Y750509D02*
X1486588Y750509D01*
X1486588Y751716D02*
X1490212Y751716D01*
X1490212Y752923D02*
X1486588Y752923D01*
X1486588Y754130D02*
X1490212Y754130D01*
X1490212Y755337D02*
X1486588Y755337D01*
X1486588Y756544D02*
X1490212Y756544D01*
X1490212Y757751D02*
X1486588Y757751D01*
X1486588Y758958D02*
X1490212Y758958D01*
X1490212Y760165D02*
X1486588Y760165D01*
X1486588Y761372D02*
X1490212Y761372D01*
X1490212Y762579D02*
X1486588Y762579D01*
X1485212Y763312D02*
X1485212Y746888D01*
X1481588Y746888D01*
X1481588Y763312D01*
X1485212Y763312D01*
X1485212Y748095D02*
X1481588Y748095D01*
X1481588Y749302D02*
X1485212Y749302D01*
X1485212Y750509D02*
X1481588Y750509D01*
X1481588Y751716D02*
X1485212Y751716D01*
X1485212Y752923D02*
X1481588Y752923D01*
X1481588Y754130D02*
X1485212Y754130D01*
X1485212Y755337D02*
X1481588Y755337D01*
X1481588Y756544D02*
X1485212Y756544D01*
X1485212Y757751D02*
X1481588Y757751D01*
X1481588Y758958D02*
X1485212Y758958D01*
X1485212Y760165D02*
X1481588Y760165D01*
X1481588Y761372D02*
X1485212Y761372D01*
X1485212Y762579D02*
X1481588Y762579D01*
X1480212Y763312D02*
X1480212Y746888D01*
X1476588Y746888D01*
X1476588Y763312D01*
X1480212Y763312D01*
X1480212Y748095D02*
X1476588Y748095D01*
X1476588Y749302D02*
X1480212Y749302D01*
X1480212Y750509D02*
X1476588Y750509D01*
X1476588Y751716D02*
X1480212Y751716D01*
X1480212Y752923D02*
X1476588Y752923D01*
X1476588Y754130D02*
X1480212Y754130D01*
X1480212Y755337D02*
X1476588Y755337D01*
X1476588Y756544D02*
X1480212Y756544D01*
X1480212Y757751D02*
X1476588Y757751D01*
X1476588Y758958D02*
X1480212Y758958D01*
X1480212Y760165D02*
X1476588Y760165D01*
X1476588Y761372D02*
X1480212Y761372D01*
X1480212Y762579D02*
X1476588Y762579D01*
X1475212Y763312D02*
X1475212Y746888D01*
X1471588Y746888D01*
X1471588Y763312D01*
X1475212Y763312D01*
X1475212Y748095D02*
X1471588Y748095D01*
X1471588Y749302D02*
X1475212Y749302D01*
X1475212Y750509D02*
X1471588Y750509D01*
X1471588Y751716D02*
X1475212Y751716D01*
X1475212Y752923D02*
X1471588Y752923D01*
X1471588Y754130D02*
X1475212Y754130D01*
X1475212Y755337D02*
X1471588Y755337D01*
X1471588Y756544D02*
X1475212Y756544D01*
X1475212Y757751D02*
X1471588Y757751D01*
X1471588Y758958D02*
X1475212Y758958D01*
X1475212Y760165D02*
X1471588Y760165D01*
X1471588Y761372D02*
X1475212Y761372D01*
X1475212Y762579D02*
X1471588Y762579D01*
X1470212Y763312D02*
X1470212Y746888D01*
X1466588Y746888D01*
X1466588Y763312D01*
X1470212Y763312D01*
X1470212Y748095D02*
X1466588Y748095D01*
X1466588Y749302D02*
X1470212Y749302D01*
X1470212Y750509D02*
X1466588Y750509D01*
X1466588Y751716D02*
X1470212Y751716D01*
X1470212Y752923D02*
X1466588Y752923D01*
X1466588Y754130D02*
X1470212Y754130D01*
X1470212Y755337D02*
X1466588Y755337D01*
X1466588Y756544D02*
X1470212Y756544D01*
X1470212Y757751D02*
X1466588Y757751D01*
X1466588Y758958D02*
X1470212Y758958D01*
X1470212Y760165D02*
X1466588Y760165D01*
X1466588Y761372D02*
X1470212Y761372D01*
X1470212Y762579D02*
X1466588Y762579D01*
X1465212Y763312D02*
X1465212Y746888D01*
X1461588Y746888D01*
X1461588Y763312D01*
X1465212Y763312D01*
X1465212Y748095D02*
X1461588Y748095D01*
X1461588Y749302D02*
X1465212Y749302D01*
X1465212Y750509D02*
X1461588Y750509D01*
X1461588Y751716D02*
X1465212Y751716D01*
X1465212Y752923D02*
X1461588Y752923D01*
X1461588Y754130D02*
X1465212Y754130D01*
X1465212Y755337D02*
X1461588Y755337D01*
X1461588Y756544D02*
X1465212Y756544D01*
X1465212Y757751D02*
X1461588Y757751D01*
X1461588Y758958D02*
X1465212Y758958D01*
X1465212Y760165D02*
X1461588Y760165D01*
X1461588Y761372D02*
X1465212Y761372D01*
X1465212Y762579D02*
X1461588Y762579D01*
X1460212Y763312D02*
X1460212Y746888D01*
X1456588Y746888D01*
X1456588Y763312D01*
X1460212Y763312D01*
X1460212Y748095D02*
X1456588Y748095D01*
X1456588Y749302D02*
X1460212Y749302D01*
X1460212Y750509D02*
X1456588Y750509D01*
X1456588Y751716D02*
X1460212Y751716D01*
X1460212Y752923D02*
X1456588Y752923D01*
X1456588Y754130D02*
X1460212Y754130D01*
X1460212Y755337D02*
X1456588Y755337D01*
X1456588Y756544D02*
X1460212Y756544D01*
X1460212Y757751D02*
X1456588Y757751D01*
X1456588Y758958D02*
X1460212Y758958D01*
X1460212Y760165D02*
X1456588Y760165D01*
X1456588Y761372D02*
X1460212Y761372D01*
X1460212Y762579D02*
X1456588Y762579D01*
X1455212Y763312D02*
X1455212Y746888D01*
X1451588Y746888D01*
X1451588Y763312D01*
X1455212Y763312D01*
X1455212Y748095D02*
X1451588Y748095D01*
X1451588Y749302D02*
X1455212Y749302D01*
X1455212Y750509D02*
X1451588Y750509D01*
X1451588Y751716D02*
X1455212Y751716D01*
X1455212Y752923D02*
X1451588Y752923D01*
X1451588Y754130D02*
X1455212Y754130D01*
X1455212Y755337D02*
X1451588Y755337D01*
X1451588Y756544D02*
X1455212Y756544D01*
X1455212Y757751D02*
X1451588Y757751D01*
X1451588Y758958D02*
X1455212Y758958D01*
X1455212Y760165D02*
X1451588Y760165D01*
X1451588Y761372D02*
X1455212Y761372D01*
X1455212Y762579D02*
X1451588Y762579D01*
X1450212Y763312D02*
X1450212Y746888D01*
X1446588Y746888D01*
X1446588Y763312D01*
X1450212Y763312D01*
X1450212Y748095D02*
X1446588Y748095D01*
X1446588Y749302D02*
X1450212Y749302D01*
X1450212Y750509D02*
X1446588Y750509D01*
X1446588Y751716D02*
X1450212Y751716D01*
X1450212Y752923D02*
X1446588Y752923D01*
X1446588Y754130D02*
X1450212Y754130D01*
X1450212Y755337D02*
X1446588Y755337D01*
X1446588Y756544D02*
X1450212Y756544D01*
X1450212Y757751D02*
X1446588Y757751D01*
X1446588Y758958D02*
X1450212Y758958D01*
X1450212Y760165D02*
X1446588Y760165D01*
X1446588Y761372D02*
X1450212Y761372D01*
X1450212Y762579D02*
X1446588Y762579D01*
X1445212Y763312D02*
X1445212Y746888D01*
X1441588Y746888D01*
X1441588Y763312D01*
X1445212Y763312D01*
X1445212Y748095D02*
X1441588Y748095D01*
X1441588Y749302D02*
X1445212Y749302D01*
X1445212Y750509D02*
X1441588Y750509D01*
X1441588Y751716D02*
X1445212Y751716D01*
X1445212Y752923D02*
X1441588Y752923D01*
X1441588Y754130D02*
X1445212Y754130D01*
X1445212Y755337D02*
X1441588Y755337D01*
X1441588Y756544D02*
X1445212Y756544D01*
X1445212Y757751D02*
X1441588Y757751D01*
X1441588Y758958D02*
X1445212Y758958D01*
X1445212Y760165D02*
X1441588Y760165D01*
X1441588Y761372D02*
X1445212Y761372D01*
X1445212Y762579D02*
X1441588Y762579D01*
X1434812Y736488D02*
X1418388Y736488D01*
X1418388Y740112D01*
X1434812Y740112D01*
X1434812Y736488D01*
X1434812Y737695D02*
X1418388Y737695D01*
X1418388Y738902D02*
X1434812Y738902D01*
X1434812Y740109D02*
X1418388Y740109D01*
X1418388Y731488D02*
X1434812Y731488D01*
X1418388Y731488D02*
X1418388Y735112D01*
X1434812Y735112D01*
X1434812Y731488D01*
X1434812Y732695D02*
X1418388Y732695D01*
X1418388Y733902D02*
X1434812Y733902D01*
X1434812Y735109D02*
X1418388Y735109D01*
X1418388Y726488D02*
X1434812Y726488D01*
X1418388Y726488D02*
X1418388Y730112D01*
X1434812Y730112D01*
X1434812Y726488D01*
X1434812Y727695D02*
X1418388Y727695D01*
X1418388Y728902D02*
X1434812Y728902D01*
X1434812Y730109D02*
X1418388Y730109D01*
X1418388Y721488D02*
X1434812Y721488D01*
X1418388Y721488D02*
X1418388Y725112D01*
X1434812Y725112D01*
X1434812Y721488D01*
X1434812Y722695D02*
X1418388Y722695D01*
X1418388Y723902D02*
X1434812Y723902D01*
X1434812Y725109D02*
X1418388Y725109D01*
X1418388Y716488D02*
X1434812Y716488D01*
X1418388Y716488D02*
X1418388Y720112D01*
X1434812Y720112D01*
X1434812Y716488D01*
X1434812Y717695D02*
X1418388Y717695D01*
X1418388Y718902D02*
X1434812Y718902D01*
X1434812Y720109D02*
X1418388Y720109D01*
X1418388Y711488D02*
X1434812Y711488D01*
X1418388Y711488D02*
X1418388Y715112D01*
X1434812Y715112D01*
X1434812Y711488D01*
X1434812Y712695D02*
X1418388Y712695D01*
X1418388Y713902D02*
X1434812Y713902D01*
X1434812Y715109D02*
X1418388Y715109D01*
X1418388Y706488D02*
X1434812Y706488D01*
X1418388Y706488D02*
X1418388Y710112D01*
X1434812Y710112D01*
X1434812Y706488D01*
X1434812Y707695D02*
X1418388Y707695D01*
X1418388Y708902D02*
X1434812Y708902D01*
X1434812Y710109D02*
X1418388Y710109D01*
X1418388Y701488D02*
X1434812Y701488D01*
X1418388Y701488D02*
X1418388Y705112D01*
X1434812Y705112D01*
X1434812Y701488D01*
X1434812Y702695D02*
X1418388Y702695D01*
X1418388Y703902D02*
X1434812Y703902D01*
X1434812Y705109D02*
X1418388Y705109D01*
X1418388Y696488D02*
X1434812Y696488D01*
X1418388Y696488D02*
X1418388Y700112D01*
X1434812Y700112D01*
X1434812Y696488D01*
X1434812Y697695D02*
X1418388Y697695D01*
X1418388Y698902D02*
X1434812Y698902D01*
X1434812Y700109D02*
X1418388Y700109D01*
X1418388Y691488D02*
X1434812Y691488D01*
X1418388Y691488D02*
X1418388Y695112D01*
X1434812Y695112D01*
X1434812Y691488D01*
X1434812Y692695D02*
X1418388Y692695D01*
X1418388Y693902D02*
X1434812Y693902D01*
X1434812Y695109D02*
X1418388Y695109D01*
X1418388Y686488D02*
X1434812Y686488D01*
X1418388Y686488D02*
X1418388Y690112D01*
X1434812Y690112D01*
X1434812Y686488D01*
X1434812Y687695D02*
X1418388Y687695D01*
X1418388Y688902D02*
X1434812Y688902D01*
X1434812Y690109D02*
X1418388Y690109D01*
X1418388Y681488D02*
X1434812Y681488D01*
X1418388Y681488D02*
X1418388Y685112D01*
X1434812Y685112D01*
X1434812Y681488D01*
X1434812Y682695D02*
X1418388Y682695D01*
X1418388Y683902D02*
X1434812Y683902D01*
X1434812Y685109D02*
X1418388Y685109D01*
X1418388Y676488D02*
X1434812Y676488D01*
X1418388Y676488D02*
X1418388Y680112D01*
X1434812Y680112D01*
X1434812Y676488D01*
X1434812Y677695D02*
X1418388Y677695D01*
X1418388Y678902D02*
X1434812Y678902D01*
X1434812Y680109D02*
X1418388Y680109D01*
X1418388Y671488D02*
X1434812Y671488D01*
X1418388Y671488D02*
X1418388Y675112D01*
X1434812Y675112D01*
X1434812Y671488D01*
X1434812Y672695D02*
X1418388Y672695D01*
X1418388Y673902D02*
X1434812Y673902D01*
X1434812Y675109D02*
X1418388Y675109D01*
X1418388Y666488D02*
X1434812Y666488D01*
X1418388Y666488D02*
X1418388Y670112D01*
X1434812Y670112D01*
X1434812Y666488D01*
X1434812Y667695D02*
X1418388Y667695D01*
X1418388Y668902D02*
X1434812Y668902D01*
X1434812Y670109D02*
X1418388Y670109D01*
X1418388Y661488D02*
X1434812Y661488D01*
X1418388Y661488D02*
X1418388Y665112D01*
X1434812Y665112D01*
X1434812Y661488D01*
X1434812Y662695D02*
X1418388Y662695D01*
X1418388Y663902D02*
X1434812Y663902D01*
X1434812Y665109D02*
X1418388Y665109D01*
X1418388Y656488D02*
X1434812Y656488D01*
X1418388Y656488D02*
X1418388Y660112D01*
X1434812Y660112D01*
X1434812Y656488D01*
X1434812Y657695D02*
X1418388Y657695D01*
X1418388Y658902D02*
X1434812Y658902D01*
X1434812Y660109D02*
X1418388Y660109D01*
X1418388Y651488D02*
X1434812Y651488D01*
X1418388Y651488D02*
X1418388Y655112D01*
X1434812Y655112D01*
X1434812Y651488D01*
X1434812Y652695D02*
X1418388Y652695D01*
X1418388Y653902D02*
X1434812Y653902D01*
X1434812Y655109D02*
X1418388Y655109D01*
X1418388Y646488D02*
X1434812Y646488D01*
X1418388Y646488D02*
X1418388Y650112D01*
X1434812Y650112D01*
X1434812Y646488D01*
X1434812Y647695D02*
X1418388Y647695D01*
X1418388Y648902D02*
X1434812Y648902D01*
X1434812Y650109D02*
X1418388Y650109D01*
X1418388Y641488D02*
X1434812Y641488D01*
X1418388Y641488D02*
X1418388Y645112D01*
X1434812Y645112D01*
X1434812Y641488D01*
X1434812Y642695D02*
X1418388Y642695D01*
X1418388Y643902D02*
X1434812Y643902D01*
X1434812Y645109D02*
X1418388Y645109D01*
X1418388Y636488D02*
X1434812Y636488D01*
X1418388Y636488D02*
X1418388Y640112D01*
X1434812Y640112D01*
X1434812Y636488D01*
X1434812Y637695D02*
X1418388Y637695D01*
X1418388Y638902D02*
X1434812Y638902D01*
X1434812Y640109D02*
X1418388Y640109D01*
X1418388Y631488D02*
X1434812Y631488D01*
X1418388Y631488D02*
X1418388Y635112D01*
X1434812Y635112D01*
X1434812Y631488D01*
X1434812Y632695D02*
X1418388Y632695D01*
X1418388Y633902D02*
X1434812Y633902D01*
X1434812Y635109D02*
X1418388Y635109D01*
X1418388Y626488D02*
X1434812Y626488D01*
X1418388Y626488D02*
X1418388Y630112D01*
X1434812Y630112D01*
X1434812Y626488D01*
X1434812Y627695D02*
X1418388Y627695D01*
X1418388Y628902D02*
X1434812Y628902D01*
X1434812Y630109D02*
X1418388Y630109D01*
X1418388Y621488D02*
X1434812Y621488D01*
X1418388Y621488D02*
X1418388Y625112D01*
X1434812Y625112D01*
X1434812Y621488D01*
X1434812Y622695D02*
X1418388Y622695D01*
X1418388Y623902D02*
X1434812Y623902D01*
X1434812Y625109D02*
X1418388Y625109D01*
X1418388Y616488D02*
X1434812Y616488D01*
X1418388Y616488D02*
X1418388Y620112D01*
X1434812Y620112D01*
X1434812Y616488D01*
X1434812Y617695D02*
X1418388Y617695D01*
X1418388Y618902D02*
X1434812Y618902D01*
X1434812Y620109D02*
X1418388Y620109D01*
X1571988Y616488D02*
X1588412Y616488D01*
X1571988Y616488D02*
X1571988Y620112D01*
X1588412Y620112D01*
X1588412Y616488D01*
X1588412Y617695D02*
X1571988Y617695D01*
X1571988Y618902D02*
X1588412Y618902D01*
X1588412Y620109D02*
X1571988Y620109D01*
X1571988Y621488D02*
X1588412Y621488D01*
X1571988Y621488D02*
X1571988Y625112D01*
X1588412Y625112D01*
X1588412Y621488D01*
X1588412Y622695D02*
X1571988Y622695D01*
X1571988Y623902D02*
X1588412Y623902D01*
X1588412Y625109D02*
X1571988Y625109D01*
X1571988Y626488D02*
X1588412Y626488D01*
X1571988Y626488D02*
X1571988Y630112D01*
X1588412Y630112D01*
X1588412Y626488D01*
X1588412Y627695D02*
X1571988Y627695D01*
X1571988Y628902D02*
X1588412Y628902D01*
X1588412Y630109D02*
X1571988Y630109D01*
X1571988Y631488D02*
X1588412Y631488D01*
X1571988Y631488D02*
X1571988Y635112D01*
X1588412Y635112D01*
X1588412Y631488D01*
X1588412Y632695D02*
X1571988Y632695D01*
X1571988Y633902D02*
X1588412Y633902D01*
X1588412Y635109D02*
X1571988Y635109D01*
X1571988Y636488D02*
X1588412Y636488D01*
X1571988Y636488D02*
X1571988Y640112D01*
X1588412Y640112D01*
X1588412Y636488D01*
X1588412Y637695D02*
X1571988Y637695D01*
X1571988Y638902D02*
X1588412Y638902D01*
X1588412Y640109D02*
X1571988Y640109D01*
X1571988Y641488D02*
X1588412Y641488D01*
X1571988Y641488D02*
X1571988Y645112D01*
X1588412Y645112D01*
X1588412Y641488D01*
X1588412Y642695D02*
X1571988Y642695D01*
X1571988Y643902D02*
X1588412Y643902D01*
X1588412Y645109D02*
X1571988Y645109D01*
X1571988Y646488D02*
X1588412Y646488D01*
X1571988Y646488D02*
X1571988Y650112D01*
X1588412Y650112D01*
X1588412Y646488D01*
X1588412Y647695D02*
X1571988Y647695D01*
X1571988Y648902D02*
X1588412Y648902D01*
X1588412Y650109D02*
X1571988Y650109D01*
X1571988Y651488D02*
X1588412Y651488D01*
X1571988Y651488D02*
X1571988Y655112D01*
X1588412Y655112D01*
X1588412Y651488D01*
X1588412Y652695D02*
X1571988Y652695D01*
X1571988Y653902D02*
X1588412Y653902D01*
X1588412Y655109D02*
X1571988Y655109D01*
X1571988Y656488D02*
X1588412Y656488D01*
X1571988Y656488D02*
X1571988Y660112D01*
X1588412Y660112D01*
X1588412Y656488D01*
X1588412Y657695D02*
X1571988Y657695D01*
X1571988Y658902D02*
X1588412Y658902D01*
X1588412Y660109D02*
X1571988Y660109D01*
X1571988Y661488D02*
X1588412Y661488D01*
X1571988Y661488D02*
X1571988Y665112D01*
X1588412Y665112D01*
X1588412Y661488D01*
X1588412Y662695D02*
X1571988Y662695D01*
X1571988Y663902D02*
X1588412Y663902D01*
X1588412Y665109D02*
X1571988Y665109D01*
X1571988Y666488D02*
X1588412Y666488D01*
X1571988Y666488D02*
X1571988Y670112D01*
X1588412Y670112D01*
X1588412Y666488D01*
X1588412Y667695D02*
X1571988Y667695D01*
X1571988Y668902D02*
X1588412Y668902D01*
X1588412Y670109D02*
X1571988Y670109D01*
X1571988Y671488D02*
X1588412Y671488D01*
X1571988Y671488D02*
X1571988Y675112D01*
X1588412Y675112D01*
X1588412Y671488D01*
X1588412Y672695D02*
X1571988Y672695D01*
X1571988Y673902D02*
X1588412Y673902D01*
X1588412Y675109D02*
X1571988Y675109D01*
X1571988Y676488D02*
X1588412Y676488D01*
X1571988Y676488D02*
X1571988Y680112D01*
X1588412Y680112D01*
X1588412Y676488D01*
X1588412Y677695D02*
X1571988Y677695D01*
X1571988Y678902D02*
X1588412Y678902D01*
X1588412Y680109D02*
X1571988Y680109D01*
X1571988Y681488D02*
X1588412Y681488D01*
X1571988Y681488D02*
X1571988Y685112D01*
X1588412Y685112D01*
X1588412Y681488D01*
X1588412Y682695D02*
X1571988Y682695D01*
X1571988Y683902D02*
X1588412Y683902D01*
X1588412Y685109D02*
X1571988Y685109D01*
X1571988Y686488D02*
X1588412Y686488D01*
X1571988Y686488D02*
X1571988Y690112D01*
X1588412Y690112D01*
X1588412Y686488D01*
X1588412Y687695D02*
X1571988Y687695D01*
X1571988Y688902D02*
X1588412Y688902D01*
X1588412Y690109D02*
X1571988Y690109D01*
X1571988Y691488D02*
X1588412Y691488D01*
X1571988Y691488D02*
X1571988Y695112D01*
X1588412Y695112D01*
X1588412Y691488D01*
X1588412Y692695D02*
X1571988Y692695D01*
X1571988Y693902D02*
X1588412Y693902D01*
X1588412Y695109D02*
X1571988Y695109D01*
X1571988Y696488D02*
X1588412Y696488D01*
X1571988Y696488D02*
X1571988Y700112D01*
X1588412Y700112D01*
X1588412Y696488D01*
X1588412Y697695D02*
X1571988Y697695D01*
X1571988Y698902D02*
X1588412Y698902D01*
X1588412Y700109D02*
X1571988Y700109D01*
X1571988Y701488D02*
X1588412Y701488D01*
X1571988Y701488D02*
X1571988Y705112D01*
X1588412Y705112D01*
X1588412Y701488D01*
X1588412Y702695D02*
X1571988Y702695D01*
X1571988Y703902D02*
X1588412Y703902D01*
X1588412Y705109D02*
X1571988Y705109D01*
X1571988Y706488D02*
X1588412Y706488D01*
X1571988Y706488D02*
X1571988Y710112D01*
X1588412Y710112D01*
X1588412Y706488D01*
X1588412Y707695D02*
X1571988Y707695D01*
X1571988Y708902D02*
X1588412Y708902D01*
X1588412Y710109D02*
X1571988Y710109D01*
X1571988Y711488D02*
X1588412Y711488D01*
X1571988Y711488D02*
X1571988Y715112D01*
X1588412Y715112D01*
X1588412Y711488D01*
X1588412Y712695D02*
X1571988Y712695D01*
X1571988Y713902D02*
X1588412Y713902D01*
X1588412Y715109D02*
X1571988Y715109D01*
X1571988Y716488D02*
X1588412Y716488D01*
X1571988Y716488D02*
X1571988Y720112D01*
X1588412Y720112D01*
X1588412Y716488D01*
X1588412Y717695D02*
X1571988Y717695D01*
X1571988Y718902D02*
X1588412Y718902D01*
X1588412Y720109D02*
X1571988Y720109D01*
X1571988Y721488D02*
X1588412Y721488D01*
X1571988Y721488D02*
X1571988Y725112D01*
X1588412Y725112D01*
X1588412Y721488D01*
X1588412Y722695D02*
X1571988Y722695D01*
X1571988Y723902D02*
X1588412Y723902D01*
X1588412Y725109D02*
X1571988Y725109D01*
X1571988Y726488D02*
X1588412Y726488D01*
X1571988Y726488D02*
X1571988Y730112D01*
X1588412Y730112D01*
X1588412Y726488D01*
X1588412Y727695D02*
X1571988Y727695D01*
X1571988Y728902D02*
X1588412Y728902D01*
X1588412Y730109D02*
X1571988Y730109D01*
X1571988Y731488D02*
X1588412Y731488D01*
X1571988Y731488D02*
X1571988Y735112D01*
X1588412Y735112D01*
X1588412Y731488D01*
X1588412Y732695D02*
X1571988Y732695D01*
X1571988Y733902D02*
X1588412Y733902D01*
X1588412Y735109D02*
X1571988Y735109D01*
X1571988Y736488D02*
X1588412Y736488D01*
X1571988Y736488D02*
X1571988Y740112D01*
X1588412Y740112D01*
X1588412Y736488D01*
X1588412Y737695D02*
X1571988Y737695D01*
X1571988Y738902D02*
X1588412Y738902D01*
X1588412Y740109D02*
X1571988Y740109D01*
D17*
X2390850Y399800D03*
X2390850Y404800D03*
X2390850Y409800D03*
X2390850Y414800D03*
X2390850Y419800D03*
X2390850Y424800D03*
X2390850Y429800D03*
X2390850Y434800D03*
D18*
X2384500Y441150D03*
X2379500Y441150D03*
X2374500Y441150D03*
X2369500Y441150D03*
X2364500Y441150D03*
X2359500Y441150D03*
X2354500Y441150D03*
X2349500Y441150D03*
D17*
X2343150Y434800D03*
X2343150Y429800D03*
X2343150Y424800D03*
X2343150Y419800D03*
X2343150Y414800D03*
X2343150Y409800D03*
X2343150Y404800D03*
X2343150Y399800D03*
D18*
X2349500Y393450D03*
X2354500Y393450D03*
X2359500Y393450D03*
X2364500Y393450D03*
X2369500Y393450D03*
X2374500Y393450D03*
X2379500Y393450D03*
X2384500Y393450D03*
D19*
X2367000Y417300D03*
D17*
X1671350Y400000D03*
X1671350Y405000D03*
X1671350Y410000D03*
X1671350Y415000D03*
X1671350Y420000D03*
X1671350Y425000D03*
X1671350Y430000D03*
X1671350Y435000D03*
D18*
X1665000Y441350D03*
X1660000Y441350D03*
X1655000Y441350D03*
X1650000Y441350D03*
X1645000Y441350D03*
X1640000Y441350D03*
X1635000Y441350D03*
X1630000Y441350D03*
D17*
X1623650Y435000D03*
X1623650Y430000D03*
X1623650Y425000D03*
X1623650Y420000D03*
X1623650Y415000D03*
X1623650Y410000D03*
X1623650Y405000D03*
X1623650Y400000D03*
D18*
X1630000Y393650D03*
X1635000Y393650D03*
X1640000Y393650D03*
X1645000Y393650D03*
X1650000Y393650D03*
X1655000Y393650D03*
X1660000Y393650D03*
X1665000Y393650D03*
D19*
X1647500Y417500D03*
D17*
X946350Y400000D03*
X946350Y405000D03*
X946350Y410000D03*
X946350Y415000D03*
X946350Y420000D03*
X946350Y425000D03*
X946350Y430000D03*
X946350Y435000D03*
D18*
X940000Y441350D03*
X935000Y441350D03*
X930000Y441350D03*
X925000Y441350D03*
X920000Y441350D03*
X915000Y441350D03*
X910000Y441350D03*
X905000Y441350D03*
D17*
X898650Y435000D03*
X898650Y430000D03*
X898650Y425000D03*
X898650Y420000D03*
X898650Y415000D03*
X898650Y410000D03*
X898650Y405000D03*
X898650Y400000D03*
D18*
X905000Y393650D03*
X910000Y393650D03*
X915000Y393650D03*
X920000Y393650D03*
X925000Y393650D03*
X930000Y393650D03*
X935000Y393650D03*
X940000Y393650D03*
D19*
X922500Y417500D03*
D20*
X2592300Y459270D03*
X2597300Y459270D03*
X2602300Y459270D03*
X2607300Y459270D03*
X2612300Y459270D03*
X2617300Y459270D03*
X2622300Y459270D03*
X2627300Y459270D03*
X2632300Y459270D03*
X2637300Y459270D03*
X2642300Y459270D03*
X2647300Y459270D03*
X2652300Y459270D03*
X2657300Y459270D03*
X2662300Y459270D03*
X2667300Y459270D03*
X2672300Y459270D03*
X2677300Y459270D03*
X2682300Y459270D03*
X2687300Y459270D03*
X2692300Y459270D03*
X2697300Y459270D03*
X2702300Y459270D03*
X2707300Y459270D03*
X2712300Y459270D03*
D21*
X2730030Y477000D03*
X2730030Y482000D03*
X2730030Y487000D03*
X2730030Y492000D03*
X2730030Y497000D03*
X2730030Y502000D03*
X2730030Y507000D03*
X2730030Y512000D03*
X2730030Y517000D03*
X2730030Y522000D03*
X2730030Y527000D03*
X2730030Y532000D03*
X2730030Y537000D03*
X2730030Y542000D03*
X2730030Y547000D03*
X2730030Y552000D03*
X2730030Y557000D03*
X2730030Y562000D03*
X2730030Y567000D03*
X2730030Y572000D03*
X2730030Y577000D03*
X2730030Y582000D03*
X2730030Y587000D03*
X2730030Y592000D03*
X2730030Y597000D03*
D20*
X2712300Y614730D03*
X2707300Y614730D03*
X2702300Y614730D03*
X2697300Y614730D03*
X2692300Y614730D03*
X2687300Y614730D03*
X2682300Y614730D03*
X2677300Y614730D03*
X2672300Y614730D03*
X2667300Y614730D03*
X2662300Y614730D03*
X2657300Y614730D03*
X2652300Y614730D03*
X2647300Y614730D03*
X2642300Y614730D03*
X2637300Y614730D03*
X2632300Y614730D03*
X2627300Y614730D03*
X2622300Y614730D03*
X2617300Y614730D03*
X2612300Y614730D03*
X2607300Y614730D03*
X2602300Y614730D03*
X2597300Y614730D03*
X2592300Y614730D03*
D21*
X2574570Y597000D03*
X2574570Y592000D03*
X2574570Y587000D03*
X2574570Y582000D03*
X2574570Y577000D03*
X2574570Y572000D03*
X2574570Y567000D03*
X2574570Y562000D03*
X2574570Y557000D03*
X2574570Y552000D03*
X2574570Y547000D03*
X2574570Y542000D03*
X2574570Y537000D03*
X2574570Y532000D03*
X2574570Y527000D03*
X2574570Y522000D03*
X2574570Y517000D03*
X2574570Y512000D03*
X2574570Y507000D03*
X2574570Y502000D03*
X2574570Y497000D03*
X2574570Y492000D03*
X2574570Y487000D03*
X2574570Y482000D03*
X2574570Y477000D03*
D22*
X2468350Y627825D03*
X2455650Y627825D03*
X2442950Y627825D03*
X2430250Y627825D03*
X2417550Y627825D03*
X2404850Y627825D03*
X2392150Y627825D03*
X2379450Y627825D03*
X2366750Y627825D03*
X2354050Y627825D03*
X2341350Y627825D03*
X2328650Y627825D03*
X2328650Y529575D03*
X2341350Y529575D03*
X2354050Y529575D03*
X2366750Y529575D03*
X2379450Y529575D03*
X2392150Y529575D03*
X2404850Y529575D03*
X2417550Y529575D03*
X2430250Y529575D03*
X2442950Y529575D03*
X2455650Y529575D03*
X2468350Y529575D03*
D23*
X666600Y950700D03*
X666600Y1008700D03*
X618600Y980700D03*
D24*
X1803800Y38100D03*
D25*
X1853800Y38100D03*
D24*
X733400Y38100D03*
D25*
X783400Y38100D03*
D24*
X1089000Y38100D03*
D25*
X1139000Y38100D03*
D26*
X1706600Y957770D03*
X1706600Y929830D03*
X1681200Y957770D03*
X1681200Y929830D03*
X1655800Y957770D03*
X1655800Y929830D03*
X1630400Y957770D03*
X1630400Y929830D03*
X1605000Y957770D03*
X1605000Y929830D03*
D24*
X2163100Y38100D03*
D25*
X2213100Y38100D03*
D24*
X2518700Y38100D03*
D25*
X2568700Y38100D03*
D24*
X1448200Y38100D03*
D25*
X1498200Y38100D03*
D12*
X379200Y930000D03*
X362200Y930000D03*
D27*
X2436600Y349300D03*
X2408600Y349300D03*
X2076600Y346200D03*
X2048600Y346200D03*
D28*
X1687550Y308200D03*
X1722650Y308200D03*
X1365350Y307600D03*
X1330250Y307600D03*
X970250Y307100D03*
X1005350Y307100D03*
X647850Y309000D03*
X612750Y309000D03*
D27*
X1001800Y348400D03*
X973800Y348400D03*
X646800Y342800D03*
X618800Y342800D03*
D12*
X2755500Y625000D03*
X2738500Y625000D03*
D28*
X2405050Y310600D03*
X2440150Y310600D03*
X2080150Y310000D03*
X2045050Y310000D03*
D12*
X378600Y892500D03*
X361600Y892500D03*
D29*
X869800Y1043500D02*
X869800Y1052500D01*
X882300Y1052500D02*
X882300Y1043500D01*
X894800Y1043500D02*
X894800Y1052500D01*
X907300Y1052500D02*
X907300Y1043500D01*
X919800Y1043500D02*
X919800Y1052500D01*
X933300Y1052500D02*
X933300Y1043500D01*
X945800Y1043500D02*
X945800Y1052500D01*
X958300Y1052500D02*
X958300Y1043500D01*
X970800Y1043500D02*
X970800Y1052500D01*
X983300Y1052500D02*
X983300Y1043500D01*
X996800Y1043500D02*
X996800Y1052500D01*
X1009300Y1052500D02*
X1009300Y1043500D01*
X1021800Y1043500D02*
X1021800Y1052500D01*
X1034300Y1052500D02*
X1034300Y1043500D01*
X1046800Y1043500D02*
X1046800Y1052500D01*
X1060300Y1052500D02*
X1060300Y1043500D01*
X1072800Y1043500D02*
X1072800Y1052500D01*
X1085300Y1052500D02*
X1085300Y1043500D01*
X1097800Y1043500D02*
X1097800Y1052500D01*
X1110300Y1052500D02*
X1110300Y1043500D01*
D15*
X311651Y888400D03*
X311651Y897900D03*
X311651Y907400D03*
X284149Y907400D03*
X284149Y897900D03*
X284149Y888400D03*
D30*
X2404400Y228600D03*
D31*
X2477400Y205800D03*
X2477400Y251400D03*
D30*
X1689500Y228600D03*
D31*
X1762500Y205800D03*
X1762500Y251400D03*
D30*
X1968100Y228600D03*
D31*
X1895100Y251400D03*
X1895100Y205800D03*
D30*
X1689500Y127000D03*
D31*
X1762500Y104200D03*
X1762500Y149800D03*
D30*
X1968100Y127000D03*
D31*
X1895100Y149800D03*
X1895100Y104200D03*
D30*
X974700Y228600D03*
D31*
X1047700Y205800D03*
X1047700Y251400D03*
D30*
X2683000Y228600D03*
D31*
X2610000Y251400D03*
X2610000Y205800D03*
D30*
X1253300Y228600D03*
D31*
X1180300Y251400D03*
X1180300Y205800D03*
D30*
X974700Y127000D03*
D31*
X1047700Y104200D03*
X1047700Y149800D03*
D30*
X1253300Y127000D03*
D31*
X1180300Y149800D03*
X1180300Y104200D03*
D30*
X2404400Y127000D03*
D31*
X2477400Y104200D03*
X2477400Y149800D03*
D30*
X2683000Y127000D03*
D31*
X2610000Y149800D03*
X2610000Y104200D03*
D32*
X379800Y746200D03*
X373300Y746200D03*
X366800Y746200D03*
X360300Y746200D03*
X353800Y746200D03*
X347300Y746200D03*
X340800Y746200D03*
X334300Y746200D03*
X327800Y746200D03*
X321300Y746200D03*
X314800Y746200D03*
X308300Y746200D03*
X301800Y746200D03*
X295300Y746200D03*
X295300Y673700D03*
X301800Y673700D03*
X308300Y673700D03*
X314800Y673700D03*
X321300Y673700D03*
X327800Y673700D03*
X334300Y673700D03*
X340800Y673700D03*
X347300Y673700D03*
X353800Y673700D03*
X360300Y673700D03*
X366800Y673700D03*
X373300Y673700D03*
X379800Y673700D03*
D33*
X2658352Y730860D03*
X2652002Y730860D03*
X2645398Y730860D03*
X2639048Y730860D03*
X2639048Y672440D03*
X2645398Y672440D03*
X2652002Y672440D03*
X2658352Y672440D03*
D34*
X172200Y890900D03*
D35*
X222200Y914900D03*
X222200Y866900D03*
X222200Y839900D03*
X222200Y941900D03*
D36*
X172200Y940900D03*
X172200Y840900D03*
X222200Y890900D03*
D37*
X2693050Y685500D03*
X2693050Y722500D03*
X2715050Y722500D03*
X2715050Y685500D03*
D12*
X1704800Y723900D03*
X1721800Y723900D03*
X1704700Y753600D03*
X1721700Y753600D03*
X1484100Y940800D03*
X1501100Y940800D03*
X1484800Y968600D03*
X1501800Y968600D03*
X1501700Y909900D03*
X1484700Y909900D03*
X1483300Y1001100D03*
X1500300Y1001100D03*
X1500600Y1055200D03*
X1483600Y1055200D03*
X1646300Y730800D03*
X1663300Y730800D03*
X1485300Y1027300D03*
X1502300Y1027300D03*
D38*
X1344300Y911500D03*
X1369300Y911500D03*
X1394300Y911500D03*
X1344300Y1061500D03*
X1394300Y1061500D03*
D39*
X1322800Y986500D03*
X1415800Y986500D03*
D40*
X2431300Y755500D03*
X2408300Y755500D03*
X2385300Y755500D03*
D41*
X2408300Y692500D03*
D42*
X2468600Y744600D03*
X2468600Y725600D03*
D43*
X2388000Y905400D03*
X2464200Y905400D03*
D44*
X2479300Y684100D03*
X2544300Y684100D03*
X2520000Y738900D03*
X2585000Y738900D03*
D45*
X2474800Y800800D03*
X2373200Y800800D03*
X2474800Y843000D03*
X2373200Y843000D03*
D42*
X2501600Y880900D03*
X2501600Y861900D03*
D46*
X1053000Y605500D03*
X1116000Y605500D03*
X1053000Y567500D03*
X1116000Y567500D03*
D14*
X1053200Y633200D03*
X1053200Y650200D03*
D12*
X1077800Y651600D03*
X1094800Y651600D03*
X1542600Y927900D03*
X1525600Y927900D03*
D47*
X1380100Y798658D02*
X1380100Y784942D01*
X1354700Y784942D02*
X1354700Y798658D01*
D14*
X1472900Y806700D03*
X1472900Y789700D03*
D13*
X1297700Y666000D03*
X1297700Y677600D03*
X1383300Y666000D03*
X1383300Y677600D03*
X1326400Y666000D03*
X1326400Y677600D03*
X1354500Y666000D03*
X1354500Y677600D03*
D14*
X1268600Y632300D03*
X1268600Y649300D03*
X1296800Y649200D03*
X1296800Y632200D03*
X1326200Y649200D03*
X1326200Y632200D03*
X1383100Y649200D03*
X1383100Y632200D03*
X1355000Y649200D03*
X1355000Y632200D03*
D30*
X1333900Y228600D03*
D31*
X1406900Y205800D03*
X1406900Y251400D03*
D30*
X1612500Y228600D03*
D31*
X1539500Y251400D03*
X1539500Y205800D03*
D30*
X1333900Y127000D03*
D31*
X1406900Y104200D03*
X1406900Y149800D03*
D30*
X1612500Y127000D03*
D31*
X1539500Y149800D03*
X1539500Y104200D03*
D30*
X2048800Y228600D03*
D31*
X2121800Y205800D03*
X2121800Y251400D03*
D30*
X2327400Y228600D03*
D31*
X2254400Y251400D03*
X2254400Y205800D03*
D30*
X2048800Y127000D03*
D31*
X2121800Y104200D03*
X2121800Y149800D03*
D30*
X2327400Y127000D03*
D31*
X2254400Y149800D03*
X2254400Y104200D03*
D30*
X619100Y228600D03*
D31*
X692100Y205800D03*
X692100Y251400D03*
D30*
X897700Y228600D03*
D31*
X824700Y251400D03*
X824700Y205800D03*
D30*
X619100Y127000D03*
D31*
X692100Y104200D03*
X692100Y149800D03*
D30*
X897700Y127000D03*
D31*
X824700Y149800D03*
X824700Y104200D03*
D27*
X1691000Y347500D03*
X1719000Y347500D03*
X1333500Y347500D03*
X1361500Y347500D03*
D48*
X174986Y597075D03*
D49*
X174980Y477911D03*
D50*
X217543Y583071D03*
D51*
X212776Y573782D03*
D52*
X217551Y491937D03*
D53*
X213046Y501201D03*
D54*
X221950Y583000D03*
D55*
X212950Y577500D03*
D54*
X221950Y492000D03*
D55*
X212950Y497500D03*
D54*
X175000Y597200D03*
X175000Y477800D03*
D56*
X221300Y565000D03*
X221300Y560000D03*
X221300Y555000D03*
X221300Y550000D03*
X221300Y545000D03*
X221300Y540000D03*
X221300Y535000D03*
X221300Y530000D03*
X221300Y525000D03*
X221300Y520000D03*
X221300Y515000D03*
X221300Y510000D03*
X209300Y507500D03*
X209300Y512500D03*
X209300Y517500D03*
X209300Y522500D03*
X209300Y527500D03*
X209300Y532500D03*
X209300Y542500D03*
X209300Y547500D03*
X209300Y552500D03*
X209300Y557500D03*
X209300Y562500D03*
X209300Y567500D03*
D14*
X251250Y656000D03*
X251250Y639000D03*
D12*
X433500Y603750D03*
X416500Y603750D03*
D14*
X351250Y623500D03*
X351250Y606500D03*
X323750Y623500D03*
X323750Y606500D03*
D12*
X351000Y476250D03*
X334000Y476250D03*
D28*
X488700Y427500D03*
X523800Y427500D03*
D57*
X447750Y513750D03*
X429750Y513750D03*
D58*
X512250Y517750D03*
X505750Y517750D03*
X499250Y517750D03*
X492750Y517750D03*
X492750Y487250D03*
X499250Y487250D03*
X505750Y487250D03*
X512250Y487250D03*
D59*
X502500Y496000D03*
D54*
X512250Y500240D03*
D58*
X557250Y517750D03*
X550750Y517750D03*
X544250Y517750D03*
X537750Y517750D03*
X537750Y487250D03*
X544250Y487250D03*
X550750Y487250D03*
X557250Y487250D03*
D59*
X547500Y496000D03*
D54*
X557250Y500240D03*
D60*
X276250Y486500D03*
X276250Y458500D03*
D14*
X222500Y451000D03*
X222500Y434000D03*
D61*
X245500Y401250D03*
X319500Y401250D03*
D12*
X242750Y340000D03*
X259750Y340000D03*
X242750Y310000D03*
X259750Y310000D03*
X292750Y310000D03*
X309750Y310000D03*
X292750Y340000D03*
X309750Y340000D03*
D62*
X643500Y798750D03*
X643500Y793750D03*
X643500Y788750D03*
X643500Y783750D03*
X643500Y778750D03*
X671500Y778750D03*
X671500Y783750D03*
X671500Y788750D03*
X671500Y793750D03*
X671500Y798750D03*
D63*
X657500Y788750D03*
D54*
X657500Y779250D03*
D64*
X453750Y341500D03*
X448750Y341500D03*
X443750Y341500D03*
X438750Y341500D03*
X433750Y341500D03*
X433750Y313500D03*
X438750Y313500D03*
X443750Y313500D03*
X448750Y313500D03*
X453750Y313500D03*
D65*
X443750Y327500D03*
D54*
X434250Y327500D03*
D62*
X631000Y636250D03*
X631000Y631250D03*
X631000Y626250D03*
X631000Y621250D03*
X631000Y616250D03*
X659000Y616250D03*
X659000Y621250D03*
X659000Y626250D03*
X659000Y631250D03*
X659000Y636250D03*
D63*
X645000Y626250D03*
D54*
X645000Y616750D03*
D28*
X675050Y826250D03*
X639950Y826250D03*
D12*
X664750Y861250D03*
X647750Y861250D03*
D66*
X482500Y309950D03*
X482500Y345050D03*
D14*
X516250Y320250D03*
X516250Y337250D03*
D28*
X670050Y690000D03*
X634950Y690000D03*
D12*
X652250Y656250D03*
X635250Y656250D03*
D14*
X461250Y267750D03*
X461250Y284750D03*
D12*
X712250Y636250D03*
X695250Y636250D03*
X739750Y806250D03*
X722750Y806250D03*
X755250Y633750D03*
X772250Y633750D03*
D14*
X461250Y222750D03*
X461250Y239750D03*
D12*
X762750Y806250D03*
X779750Y806250D03*
D14*
X433750Y267750D03*
X433750Y284750D03*
X411250Y284750D03*
X411250Y267750D03*
D12*
X709750Y761250D03*
X692750Y761250D03*
X722750Y778750D03*
X739750Y778750D03*
X654750Y568750D03*
X637750Y568750D03*
X702250Y596250D03*
X685250Y596250D03*
D28*
X587450Y751250D03*
X622550Y751250D03*
X321200Y273750D03*
X356300Y273750D03*
D66*
X408750Y412550D03*
X408750Y377450D03*
X371250Y411300D03*
X371250Y376200D03*
D28*
X558700Y553750D03*
X593800Y553750D03*
X559950Y593750D03*
X595050Y593750D03*
D67*
X442950Y572500D03*
X454550Y572500D03*
D13*
X380000Y332050D03*
X380000Y320450D03*
D67*
X652950Y727500D03*
X664550Y727500D03*
D68*
X453362Y390682D02*
X453362Y381538D01*
X439138Y381538D01*
X439138Y390682D01*
X453362Y390682D01*
X453362Y384585D02*
X439138Y384585D01*
X439138Y387632D02*
X453362Y387632D01*
X453362Y390679D02*
X439138Y390679D01*
X453362Y399318D02*
X453362Y408462D01*
X453362Y399318D02*
X439138Y399318D01*
X439138Y408462D01*
X453362Y408462D01*
X453362Y402365D02*
X439138Y402365D01*
X439138Y405412D02*
X453362Y405412D01*
X453362Y408459D02*
X439138Y408459D01*
X584318Y637112D02*
X593462Y637112D01*
X593462Y622888D01*
X584318Y622888D01*
X584318Y637112D01*
X584318Y625935D02*
X593462Y625935D01*
X593462Y628982D02*
X584318Y628982D01*
X584318Y632029D02*
X593462Y632029D01*
X593462Y635076D02*
X584318Y635076D01*
X575682Y637112D02*
X566538Y637112D01*
X575682Y637112D02*
X575682Y622888D01*
X566538Y622888D01*
X566538Y637112D01*
X566538Y625935D02*
X575682Y625935D01*
X575682Y628982D02*
X566538Y628982D01*
X566538Y632029D02*
X575682Y632029D01*
X575682Y635076D02*
X566538Y635076D01*
X601818Y800862D02*
X610962Y800862D01*
X610962Y786638D01*
X601818Y786638D01*
X601818Y800862D01*
X601818Y789685D02*
X610962Y789685D01*
X610962Y792732D02*
X601818Y792732D01*
X601818Y795779D02*
X610962Y795779D01*
X610962Y798826D02*
X601818Y798826D01*
X593182Y800862D02*
X584038Y800862D01*
X593182Y800862D02*
X593182Y786638D01*
X584038Y786638D01*
X584038Y800862D01*
X584038Y789685D02*
X593182Y789685D01*
X593182Y792732D02*
X584038Y792732D01*
X584038Y795779D02*
X593182Y795779D01*
X593182Y798826D02*
X584038Y798826D01*
D69*
X770250Y598750D03*
X757250Y598750D03*
D70*
X798750Y607250D03*
X798750Y620250D03*
D69*
X452750Y196250D03*
X439750Y196250D03*
D70*
X433750Y237750D03*
X433750Y224750D03*
D69*
X764750Y776250D03*
X777750Y776250D03*
D70*
X801250Y797750D03*
X801250Y784750D03*
D12*
X668500Y756250D03*
X651500Y756250D03*
D14*
X408750Y319000D03*
X408750Y336000D03*
D12*
X653500Y596250D03*
X636500Y596250D03*
D14*
X406250Y661000D03*
X406250Y644000D03*
D70*
X267500Y617750D03*
X267500Y604750D03*
D69*
X332750Y500000D03*
X319750Y500000D03*
D60*
X536250Y721500D03*
X536250Y693500D03*
D66*
X428750Y691200D03*
X428750Y726300D03*
D27*
X458500Y603750D03*
X486500Y603750D03*
D60*
X461250Y694750D03*
X461250Y722750D03*
X498750Y693500D03*
X498750Y721500D03*
D28*
X388700Y456250D03*
X423800Y456250D03*
X484950Y556250D03*
X520050Y556250D03*
D12*
X442750Y543750D03*
X459750Y543750D03*
X397750Y491250D03*
X414750Y491250D03*
D14*
X298750Y605250D03*
X298750Y622250D03*
D71*
X333384Y585012D03*
X333384Y579932D03*
X333384Y575106D03*
X333384Y570026D03*
X333384Y564946D03*
X333384Y560120D03*
X333384Y555040D03*
X333384Y549960D03*
X333384Y544880D03*
X333384Y540054D03*
X333384Y534974D03*
X333384Y529894D03*
X333384Y525068D03*
X333384Y519988D03*
D72*
X339988Y513384D03*
X345068Y513384D03*
X349894Y513384D03*
X354974Y513384D03*
X360054Y513384D03*
X364880Y513384D03*
X369960Y513384D03*
X375040Y513384D03*
X380120Y513384D03*
X384946Y513384D03*
X390026Y513384D03*
X395106Y513384D03*
X399932Y513384D03*
X405012Y513384D03*
D71*
X411616Y519988D03*
X411616Y525068D03*
X411616Y529894D03*
X411616Y534974D03*
X411616Y540054D03*
X411616Y544880D03*
X411616Y549960D03*
X411616Y555040D03*
X411616Y560120D03*
X411616Y564946D03*
X411616Y570026D03*
X411616Y575106D03*
X411616Y579932D03*
X411616Y585012D03*
D72*
X405012Y591616D03*
X399932Y591616D03*
X395106Y591616D03*
X390026Y591616D03*
X384946Y591616D03*
X380120Y591616D03*
X375040Y591616D03*
X369960Y591616D03*
X364880Y591616D03*
X360054Y591616D03*
X354974Y591616D03*
X349894Y591616D03*
X345068Y591616D03*
X339988Y591616D03*
D73*
X372500Y552500D03*
D74*
X263500Y545500D03*
X263500Y541500D03*
X263500Y537500D03*
X263500Y533500D03*
X263500Y529500D03*
D75*
X269500Y523500D03*
X273500Y523500D03*
X277500Y523500D03*
X281500Y523500D03*
X285500Y523500D03*
D74*
X291500Y529500D03*
X291500Y533500D03*
X291500Y537500D03*
X291500Y541500D03*
X291500Y545500D03*
D75*
X285500Y551500D03*
X281500Y551500D03*
X277500Y551500D03*
X273500Y551500D03*
X269500Y551500D03*
D76*
X277500Y537500D03*
D14*
X245000Y466500D03*
X245000Y483500D03*
D67*
X291700Y505000D03*
X303300Y505000D03*
D14*
X305000Y459000D03*
X305000Y476000D03*
D77*
X2759000Y888000D03*
D78*
X2759000Y869000D03*
X2759000Y857000D03*
X2759000Y845000D03*
X2759000Y833000D03*
X2759000Y821000D03*
D79*
X2740000Y811000D03*
X2728000Y811000D03*
X2716000Y811000D03*
D80*
X2696000Y813520D03*
D79*
X2676000Y811000D03*
X2664000Y811000D03*
X2652000Y811000D03*
D77*
X2633000Y888000D03*
D78*
X2633000Y869000D03*
X2633000Y857000D03*
X2633000Y845000D03*
X2633000Y833000D03*
X2633000Y821000D03*
X2759000Y907000D03*
X2759000Y919000D03*
X2759000Y931000D03*
X2759000Y943000D03*
X2759000Y955000D03*
D79*
X2740000Y965000D03*
X2728000Y965000D03*
X2716000Y965000D03*
X2664000Y965000D03*
D80*
X2696000Y962250D03*
D79*
X2676000Y965000D03*
X2652000Y965000D03*
D78*
X2633000Y955000D03*
X2633000Y907000D03*
X2633000Y919000D03*
X2633000Y931000D03*
X2633000Y943000D03*
D81*
X1755238Y806392D03*
D82*
X1761045Y806688D03*
D83*
X1779785Y806375D03*
D84*
X1761044Y836137D03*
D85*
X1755239Y810699D03*
D86*
X1755232Y814998D03*
D87*
X1755236Y819308D03*
D88*
X1755231Y827924D03*
D89*
X1755235Y823615D03*
D90*
X1755234Y836537D03*
D91*
X1755234Y832230D03*
D92*
X1765352Y836138D03*
D93*
X1769656Y836130D03*
D94*
X1773968Y836138D03*
D95*
X1765351Y806692D03*
D96*
X1769658Y806690D03*
D97*
X1773967Y806684D03*
D98*
X1779774Y810695D03*
D99*
X1779761Y815009D03*
D100*
X1779765Y819310D03*
D101*
X1779764Y827919D03*
D102*
X1779760Y823615D03*
D103*
X1779758Y836521D03*
D104*
X1779770Y832226D03*
D12*
X1731000Y825000D03*
X1714000Y825000D03*
D67*
X1725800Y802500D03*
X1714200Y802500D03*
D13*
X1750000Y865800D03*
X1750000Y854200D03*
D14*
X1742500Y666000D03*
X1742500Y649000D03*
D13*
X1682500Y668300D03*
X1682500Y656700D03*
X1712500Y668300D03*
X1712500Y656700D03*
D14*
X1770000Y666000D03*
X1770000Y649000D03*
D105*
X2632500Y1037500D03*
X2657900Y1062900D03*
X2657900Y1012100D03*
X2607100Y1012100D03*
X2607100Y1062900D03*
D26*
X2692500Y405000D03*
X2667100Y405000D03*
X2641700Y405000D03*
X2616300Y405000D03*
X2590900Y405000D03*
X2692500Y357500D03*
X2667100Y357500D03*
X2641700Y357500D03*
X2616300Y357500D03*
X2590900Y357500D03*
X2692500Y305000D03*
X2667100Y305000D03*
X2641700Y305000D03*
X2616300Y305000D03*
X2590900Y305000D03*
D106*
X1612500Y442500D03*
X1710000Y442500D03*
X2332500Y442500D03*
X2427152Y436934D03*
X195000Y572500D03*
X195000Y492500D03*
X260000Y455000D03*
X2390000Y310000D03*
X955000Y307500D03*
X1315000Y305000D03*
X1672500Y307500D03*
X600000Y307500D03*
X1680000Y395000D03*
X1670000Y385000D03*
X1640000Y380000D03*
X272500Y512500D03*
X307500Y690000D03*
X340000Y730000D03*
X325689Y940000D03*
X325000Y907500D03*
X537500Y432500D03*
X297500Y635000D03*
X322500Y635000D03*
X350000Y635000D03*
X472500Y542500D03*
X532500Y552500D03*
X415000Y505000D03*
X307500Y430000D03*
X272500Y340000D03*
X322500Y340000D03*
X437500Y457500D03*
X430000Y740000D03*
X462500Y740000D03*
X500000Y737500D03*
X537500Y737500D03*
X502500Y605000D03*
X317500Y462500D03*
X277500Y625000D03*
X255000Y667500D03*
X607500Y572500D03*
X645000Y608662D03*
X426162Y327500D03*
X657500Y771162D03*
X467500Y577500D03*
X694951Y607451D03*
X417500Y665896D03*
X635000Y755000D03*
X677500Y727500D03*
X707500Y772146D03*
X727500Y637500D03*
X790250Y598750D03*
X410000Y365000D03*
X462500Y255000D03*
X435000Y255000D03*
X380000Y310000D03*
X433750Y212500D03*
X392500Y1005000D03*
X690000Y827500D03*
X380000Y577500D03*
X375000Y275000D03*
X1595000Y740000D03*
X1462500Y772500D03*
X1470000Y825000D03*
X1405000Y652500D03*
X1400000Y677500D03*
X1250000Y650000D03*
X1547500Y582500D03*
X1855000Y155000D03*
X945000Y382500D03*
X2352500Y377500D03*
X2387500Y382500D03*
X2397500Y392500D03*
X955000Y397500D03*
X905000Y377500D03*
X867500Y335000D03*
X2545000Y887500D03*
X2542500Y832500D03*
X2542500Y845000D03*
X2542500Y812500D03*
X2542500Y800000D03*
X2542500Y787500D03*
X2627500Y665000D03*
X2677500Y685000D03*
X2732500Y722500D03*
X2645000Y747500D03*
X2762500Y540000D03*
X2745000Y577500D03*
X2755000Y582500D03*
X2720000Y632500D03*
X2622500Y645000D03*
X2722500Y440000D03*
X2561000Y539000D03*
X2582500Y620000D03*
X2437500Y512500D03*
X2377500Y645000D03*
X2402500Y645000D03*
X2570100Y709900D03*
X1448500Y723000D03*
X1458500Y723000D03*
X1468500Y723000D03*
X1478500Y723000D03*
X1488500Y723000D03*
X1498500Y723000D03*
X1508500Y723000D03*
X1518500Y723000D03*
X1528500Y723000D03*
X1538500Y723000D03*
X1548500Y723000D03*
X1558500Y723000D03*
X1448500Y733000D03*
X1458500Y733000D03*
X1468500Y733000D03*
X1478500Y733000D03*
X1488500Y733000D03*
X1498500Y733000D03*
X1508500Y733000D03*
X1518500Y733000D03*
X1528500Y733000D03*
X1538500Y733000D03*
X1548500Y733000D03*
X1558500Y733000D03*
X1448500Y713000D03*
X1458500Y713000D03*
X1468500Y713000D03*
X1478500Y713000D03*
X1488500Y713000D03*
X1498500Y713000D03*
X1508500Y713000D03*
X1518500Y713000D03*
X1528500Y713000D03*
X1538500Y713000D03*
X1548500Y713000D03*
X1558500Y713000D03*
X1448500Y703000D03*
X1458500Y703000D03*
X1468500Y703000D03*
X1478500Y703000D03*
X1488500Y703000D03*
X1498500Y703000D03*
X1508500Y703000D03*
X1518500Y703000D03*
X1528500Y703000D03*
X1538500Y703000D03*
X1548500Y703000D03*
X1558500Y703000D03*
X1448500Y693000D03*
X1458500Y693000D03*
X1468500Y693000D03*
X1478500Y693000D03*
X1488500Y693000D03*
X1498500Y693000D03*
X1508500Y693000D03*
X1518500Y693000D03*
X1528500Y693000D03*
X1538500Y693000D03*
X1548500Y693000D03*
X1558500Y693000D03*
X1448500Y683000D03*
X1458500Y683000D03*
X1468500Y683000D03*
X1478500Y683000D03*
X1488500Y683000D03*
X1498500Y683000D03*
X1508500Y683000D03*
X1518500Y683000D03*
X1528500Y683000D03*
X1538500Y683000D03*
X1548500Y683000D03*
X1558500Y683000D03*
X1448500Y623000D03*
X1458500Y623000D03*
X1468500Y623000D03*
X1478500Y623000D03*
X1488500Y623000D03*
X1498500Y623000D03*
X1508500Y623000D03*
X1518500Y623000D03*
X1528500Y623000D03*
X1538500Y623000D03*
X1548500Y623000D03*
X1558500Y623000D03*
X1448500Y633000D03*
X1458500Y633000D03*
X1468500Y633000D03*
X1478500Y633000D03*
X1488500Y633000D03*
X1498500Y633000D03*
X1508500Y633000D03*
X1518500Y633000D03*
X1528500Y633000D03*
X1538500Y633000D03*
X1548500Y633000D03*
X1558500Y633000D03*
X1448500Y643000D03*
X1458500Y643000D03*
X1468500Y643000D03*
X1478500Y643000D03*
X1488500Y643000D03*
X1498500Y643000D03*
X1508500Y643000D03*
X1518500Y643000D03*
X1528500Y643000D03*
X1538500Y643000D03*
X1548500Y643000D03*
X1558500Y643000D03*
X1448500Y653000D03*
X1458500Y653000D03*
X1468500Y653000D03*
X1478500Y653000D03*
X1488500Y653000D03*
X1498500Y653000D03*
X1508500Y653000D03*
X1518500Y653000D03*
X1528500Y653000D03*
X1538500Y653000D03*
X1548500Y653000D03*
X1558500Y653000D03*
X1448500Y663000D03*
X1458500Y663000D03*
X1468500Y663000D03*
X1478500Y663000D03*
X1488500Y663000D03*
X1498500Y663000D03*
X1508500Y663000D03*
X1518500Y663000D03*
X1528500Y663000D03*
X1538500Y663000D03*
X1548500Y663000D03*
X1558500Y663000D03*
X1448500Y673000D03*
X1458500Y673000D03*
X1468500Y673000D03*
X1478500Y673000D03*
X1488500Y673000D03*
X1498500Y673000D03*
X1508500Y673000D03*
X1518500Y673000D03*
X1528500Y673000D03*
X1538500Y673000D03*
X1548500Y673000D03*
X1558500Y673000D03*
X2598500Y583000D03*
X2608500Y583000D03*
X2618500Y583000D03*
X2628500Y583000D03*
X2638500Y583000D03*
X2648500Y583000D03*
X2658500Y583000D03*
X2668500Y583000D03*
X2678500Y583000D03*
X2688500Y583000D03*
X2698500Y583000D03*
X2708500Y583000D03*
X2598500Y593000D03*
X2608500Y593000D03*
X2618500Y593000D03*
X2628500Y593000D03*
X2638500Y593000D03*
X2648500Y593000D03*
X2658500Y593000D03*
X2668500Y593000D03*
X2678500Y593000D03*
X2688500Y593000D03*
X2698500Y593000D03*
X2708500Y593000D03*
X2598500Y573000D03*
X2608500Y573000D03*
X2618500Y573000D03*
X2628500Y573000D03*
X2638500Y573000D03*
X2648500Y573000D03*
X2658500Y573000D03*
X2668500Y573000D03*
X2678500Y573000D03*
X2688500Y573000D03*
X2698500Y573000D03*
X2708500Y573000D03*
X2598500Y563000D03*
X2608500Y563000D03*
X2618500Y563000D03*
X2628500Y563000D03*
X2638500Y563000D03*
X2648500Y563000D03*
X2658500Y563000D03*
X2668500Y563000D03*
X2678500Y563000D03*
X2688500Y563000D03*
X2698500Y563000D03*
X2708500Y563000D03*
X2598500Y553000D03*
X2608500Y553000D03*
X2618500Y553000D03*
X2628500Y553000D03*
X2638500Y553000D03*
X2658500Y553000D03*
X2668500Y553000D03*
X2678500Y553000D03*
X2688500Y553000D03*
X2698500Y553000D03*
X2708500Y553000D03*
X2598500Y543000D03*
X2608500Y543000D03*
X2618500Y543000D03*
X2628500Y543000D03*
X2638500Y543000D03*
X2648500Y543000D03*
X2658500Y543000D03*
X2668500Y543000D03*
X2678500Y543000D03*
X2688500Y543000D03*
X2698500Y543000D03*
X2708500Y543000D03*
X2598500Y483000D03*
X2608500Y483000D03*
X2618500Y483000D03*
X2628500Y483000D03*
X2638500Y483000D03*
X2648500Y483000D03*
X2658500Y483000D03*
X2668500Y483000D03*
X2678500Y483000D03*
X2688500Y483000D03*
X2698500Y483000D03*
X2708500Y483000D03*
X2598500Y493000D03*
X2608500Y493000D03*
X2618500Y493000D03*
X2628500Y493000D03*
X2638500Y493000D03*
X2648500Y493000D03*
X2658500Y493000D03*
X2668500Y493000D03*
X2678500Y493000D03*
X2688500Y493000D03*
X2698500Y493000D03*
X2708500Y493000D03*
X2598500Y503000D03*
X2608500Y503000D03*
X2618500Y503000D03*
X2628500Y503000D03*
X2638500Y503000D03*
X2648500Y503000D03*
X2658500Y503000D03*
X2668500Y503000D03*
X2678500Y503000D03*
X2688500Y503000D03*
X2698500Y503000D03*
X2708500Y503000D03*
X2598500Y513000D03*
X2608500Y513000D03*
X2618500Y513000D03*
X2628500Y513000D03*
X2638500Y513000D03*
X2648500Y513000D03*
X2658500Y513000D03*
X2668500Y513000D03*
X2678500Y513000D03*
X2688500Y513000D03*
X2698500Y513000D03*
X2708500Y513000D03*
X2598500Y523000D03*
X2608500Y523000D03*
X2618500Y523000D03*
X2628500Y523000D03*
X2638500Y523000D03*
X2648500Y523000D03*
X2658500Y523000D03*
X2668500Y523000D03*
X2678500Y523000D03*
X2688500Y523000D03*
X2698500Y523000D03*
X2708500Y523000D03*
X2598500Y533000D03*
X2608500Y533000D03*
X2618500Y533000D03*
X2628500Y533000D03*
X2638500Y533000D03*
X2648500Y533000D03*
X2658500Y533000D03*
X2668500Y533000D03*
X2678500Y533000D03*
X2688500Y533000D03*
X2698500Y533000D03*
X2708500Y533000D03*
X1745000Y832500D03*
X1765000Y847500D03*
X1702500Y802500D03*
X1702500Y825000D03*
X1762500Y857500D03*
X1677500Y730000D03*
X1735000Y752500D03*
X1735000Y722500D03*
X1627500Y335000D03*
X2580000Y452500D03*
X1530000Y952500D03*
X1742500Y637500D03*
X1712500Y645000D03*
X1682500Y645000D03*
X1652500Y647500D03*
X1265000Y680000D03*
X1142500Y567500D03*
X1025000Y567500D03*
X1107500Y650000D03*
X1770000Y637500D03*
X742500Y820000D03*
X793250Y776750D03*
X374670Y630330D03*
X432500Y617500D03*
X305000Y517500D03*
X305000Y660000D03*
X307500Y275000D03*
X2370000Y382500D03*
X1655000Y370000D03*
X925000Y382500D03*
X2507500Y907500D03*
X2502500Y822500D03*
X2653904Y655000D03*
X2682500Y637500D03*
X2702500Y640000D03*
X2595000Y637500D03*
X2742500Y477500D03*
X2755000Y477500D03*
X2747500Y550000D03*
X2740000Y607500D03*
X2640000Y627500D03*
X2682500Y442500D03*
X2702500Y442500D03*
X2550000Y557500D03*
X2770000Y625000D03*
X2410286Y502786D03*
X2420000Y497500D03*
X2420000Y647500D03*
X1745000Y800000D03*
X1745000Y815000D03*
X1750000Y877500D03*
X1762500Y785000D03*
X1652500Y682500D03*
X1682500Y682500D03*
X1712500Y682500D03*
X1742500Y682500D03*
X1767500Y682500D03*
X1460000Y585000D03*
X1577500Y557500D03*
X2360000Y565000D03*
X2355000Y610000D03*
X1469652Y581604D03*
X1572500Y546044D03*
X1479304Y581604D03*
X1479652Y539440D03*
X2345000Y557500D03*
X2340000Y610000D03*
X1488956Y582500D03*
X1489304Y539440D03*
X1307500Y575000D03*
X1307500Y565348D03*
X1017500Y1017500D03*
X1307500Y555696D03*
X1307500Y546044D03*
X1555004Y775348D03*
X1742500Y775000D03*
X1552500Y785000D03*
X1785000Y790000D03*
X1552500Y795000D03*
X1774652Y790000D03*
X625000Y870896D03*
X685000Y870896D03*
X787500Y927500D03*
X2400000Y588486D03*
X2399104Y557500D03*
X1230000Y705000D03*
X1307500Y535000D03*
X321050Y523290D03*
X384398Y488219D03*
X375000Y457500D03*
X327643Y657643D03*
X360000Y730000D03*
X637500Y890708D03*
X2007500Y685000D03*
X1517500Y1027300D03*
X316661Y595661D03*
X317500Y647500D03*
X1602500Y697848D03*
X2520000Y772783D03*
X2520000Y782500D03*
X1602500Y707500D03*
X625000Y884104D03*
X665000Y884104D03*
X1497500Y867500D03*
X1525000Y817500D03*
X637500Y904104D03*
X675000Y905000D03*
X1497500Y857500D03*
X1517500Y807500D03*
X625000Y897500D03*
X665000Y897500D03*
X1495000Y847500D03*
X1507500Y817500D03*
X637500Y877500D03*
X675000Y877500D03*
X1506796Y795000D03*
X1495000Y834292D03*
X625000Y910708D03*
X665000Y910708D03*
X1315000Y697500D03*
X1315000Y865000D03*
X637500Y920000D03*
X675000Y920000D03*
X1325000Y872500D03*
X1337500Y685474D03*
X2475000Y557500D03*
X2457500Y607500D03*
X2462500Y557500D03*
X2442500Y607500D03*
X2430000Y607500D03*
X2450000Y557500D03*
X1630000Y452500D03*
X1685000Y450000D03*
X905000Y455000D03*
X957500Y450000D03*
X2350000Y452500D03*
X2426500Y449236D03*
X2393227Y512719D03*
X2392500Y597500D03*
X2617500Y627500D03*
X2545000Y540000D03*
X2658904Y445000D03*
X2662500Y432500D03*
X2750000Y527500D03*
X2498469Y701853D03*
X2375000Y475000D03*
X2396500Y475000D03*
X957500Y468412D03*
X920944Y472500D03*
X1647444Y470000D03*
X1685000Y468412D03*
X2367500Y467500D03*
X2405500Y465912D03*
X915000Y462500D03*
X967500Y459324D03*
X1640000Y462500D03*
X1695000Y459324D03*
X2360000Y460000D03*
X2415000Y456824D03*
X2755000Y490000D03*
X2362500Y487500D03*
X2475000Y487500D03*
X1522500Y127500D03*
X1517500Y132500D03*
X1527500Y122500D03*
X1527500Y132500D03*
X1517500Y122500D03*
X1782500Y127500D03*
X1777500Y122500D03*
X1787500Y132500D03*
X1787500Y122500D03*
X1777500Y132500D03*
X1170000Y127500D03*
X1075000Y125000D03*
X810000Y125000D03*
X1427500Y127500D03*
X1882500Y125000D03*
X2142500Y125000D03*
X2237500Y125000D03*
D107*
X2492500Y125000D03*
X2587500Y125000D03*
X2737500Y125000D03*
D106*
X625000Y552500D03*
X607500Y650000D03*
X575000Y705000D03*
X575000Y822500D03*
X695000Y172500D03*
X2270000Y267500D03*
X547500Y337500D03*
X830000Y372500D03*
X1587500Y342500D03*
X2531000Y267700D03*
X2517500Y105000D03*
X2521944Y279400D03*
X2486344Y177800D03*
X2539264Y279400D03*
X2505600Y228600D03*
X2561400Y279400D03*
X2510600Y203200D03*
X2412500Y438856D03*
X2380000Y347500D03*
X2172000Y269800D03*
X2157000Y224800D03*
X2194444Y278400D03*
X2137300Y228600D03*
X2185080Y288064D03*
X2213500Y228600D03*
X2251600Y266700D03*
X2251600Y190500D03*
X2202000Y267300D03*
X2169500Y104800D03*
X1655000Y477500D03*
X1695000Y477500D03*
X1832500Y272500D03*
X1827500Y107500D03*
X1807500Y305000D03*
X1807500Y185000D03*
X1840364Y285364D03*
X1820000Y220000D03*
X1857500Y297500D03*
X1812500Y205000D03*
X1470910Y263090D03*
X1447500Y105000D03*
X1482500Y262500D03*
X1542500Y180000D03*
X1545000Y227500D03*
X1464000Y281008D03*
X1471500Y273952D03*
X1431556Y227500D03*
X1456500Y288564D03*
X1522500Y282500D03*
X1447500Y280000D03*
X1422500Y205000D03*
X1695000Y439056D03*
X1665000Y347500D03*
X930000Y477500D03*
X967500Y477500D03*
X762500Y262500D03*
X725000Y225000D03*
X755000Y275000D03*
X796614Y256614D03*
X770000Y250000D03*
X732500Y105000D03*
X777500Y240000D03*
X777500Y165000D03*
X740000Y280000D03*
X715000Y205000D03*
X749088Y285000D03*
X797500Y275000D03*
X967500Y439056D03*
X940000Y347500D03*
X1132500Y290000D03*
X1075000Y207500D03*
X1130000Y260000D03*
X1105000Y105000D03*
X1117500Y247500D03*
X1117500Y150000D03*
X1107500Y282500D03*
X1083556Y230000D03*
X1517500Y1000000D03*
X1660000Y822500D03*
X1635000Y768744D03*
X1643944Y714104D03*
X1547500Y897500D03*
X1650000Y822500D03*
X1624388Y768100D03*
X1625000Y714104D03*
X1530000Y1050000D03*
X1670000Y822500D03*
X1647500Y768744D03*
X1647500Y742500D03*
X422654Y574979D03*
X500000Y675000D03*
X1135000Y525000D03*
X1592500Y755000D03*
X1442500Y772500D03*
X1410000Y715000D03*
X1405000Y630000D03*
X1395000Y665000D03*
X1445000Y585000D03*
X1572500Y587500D03*
X1660000Y765000D03*
X309444Y534896D03*
X267500Y590819D03*
X245000Y565000D03*
X261500Y562500D03*
X270500Y573000D03*
X195000Y532500D03*
X280000Y562500D03*
X195000Y542500D03*
X290063Y562438D03*
X332500Y592500D03*
X388577Y502500D03*
X422908Y565327D03*
X252500Y625000D03*
X305000Y490000D03*
X345000Y490000D03*
X460000Y523290D03*
X467500Y427500D03*
X670000Y615000D03*
X670000Y597500D03*
X448750Y303897D03*
X425000Y307500D03*
X680000Y772146D03*
X680088Y797999D03*
X675000Y624646D03*
X777500Y620000D03*
X750000Y790000D03*
X777500Y790000D03*
X338075Y613075D03*
X462500Y677500D03*
X378925Y501425D03*
X362500Y487500D03*
X257500Y510000D03*
X250000Y532848D03*
X239585Y514585D03*
X195712Y522062D03*
X240348Y532860D03*
X189425Y550575D03*
X230888Y557500D03*
X230888Y521189D03*
X1552500Y805000D03*
X1800000Y800348D03*
X1552500Y815000D03*
X1800000Y810000D03*
X2613500Y1045500D03*
X2613500Y1031000D03*
X2620500Y1023500D03*
X2619000Y999000D03*
X2619000Y981000D03*
X2646000Y981000D03*
X2646000Y999000D03*
X2644500Y1023500D03*
X2652000Y1031000D03*
X2651500Y1045500D03*
X2632500Y1058000D03*
M02*
