G04 EAGLE Gerber X2 export*
%TF.Part,Single*%
%TF.FileFunction,Other,Solder side*%
%TF.FilePolarity,Positive*%
%TF.GenerationSoftware,Autodesk,EAGLE,9.0.0*%
%TF.CreationDate,2018-06-13T06:26:53Z*%
G75*
%MOMM*%
%FSLAX34Y34*%
%LPD*%
%AMOC8*
5,1,8,0,0,1.08239X$1,22.5*%
G01*
%ADD10P,4.123906X8X22.500000*%
%ADD11C,1.950000*%
%ADD12R,2.032000X2.032000*%
%ADD13C,2.032000*%
%ADD14C,1.879600*%
%ADD15C,0.900000*%
%ADD16C,2.540000*%
%ADD17C,2.250000*%
%ADD18C,1.725000*%
%ADD19C,4.743000*%
%ADD20P,1.484606X8X22.500000*%
%ADD21C,1.676400*%
%ADD22C,1.371600*%
%ADD23C,2.390000*%
%ADD24C,0.812800*%
%ADD25C,0.254000*%
%ADD26C,1.016000*%
%ADD27C,0.250000*%
%ADD28C,1.000000*%
%ADD29R,0.812800X0.812800*%
%ADD30C,0.508000*%

G36*
X2802666Y772135D02*
X2802666Y772135D01*
X2802832Y772134D01*
X2803062Y772155D01*
X2803292Y772167D01*
X2803457Y772192D01*
X2803622Y772207D01*
X2803849Y772252D01*
X2804077Y772286D01*
X2804237Y772328D01*
X2804401Y772360D01*
X2804622Y772427D01*
X2804845Y772484D01*
X2805001Y772542D01*
X2805160Y772590D01*
X2805373Y772678D01*
X2805590Y772758D01*
X2805739Y772831D01*
X2805892Y772895D01*
X2806095Y773005D01*
X2806303Y773106D01*
X2806444Y773193D01*
X2806590Y773273D01*
X2806781Y773402D01*
X2806977Y773524D01*
X2807109Y773625D01*
X2807246Y773718D01*
X2807423Y773867D01*
X2807606Y774007D01*
X2807727Y774121D01*
X2807855Y774228D01*
X2808015Y774393D01*
X2808183Y774551D01*
X2808293Y774677D01*
X2808408Y774796D01*
X2808552Y774976D01*
X2808703Y775151D01*
X2808799Y775287D01*
X2808902Y775417D01*
X2809027Y775612D01*
X2809159Y775800D01*
X2809241Y775945D01*
X2809331Y776085D01*
X2809435Y776290D01*
X2809548Y776492D01*
X2809615Y776644D01*
X2809690Y776792D01*
X2809773Y777007D01*
X2809866Y777219D01*
X2809916Y777377D01*
X2809976Y777532D01*
X2810038Y777755D01*
X2810108Y777974D01*
X2810143Y778137D01*
X2810187Y778297D01*
X2810225Y778524D01*
X2810273Y778750D01*
X2810292Y778915D01*
X2810319Y779079D01*
X2810331Y779272D01*
X2810360Y779539D01*
X2810362Y779807D01*
X2810373Y780000D01*
X2810373Y1071966D01*
X2810365Y1072132D01*
X2810366Y1072298D01*
X2810345Y1072528D01*
X2810333Y1072758D01*
X2810308Y1072923D01*
X2810293Y1073088D01*
X2810249Y1073315D01*
X2810214Y1073543D01*
X2810172Y1073703D01*
X2810140Y1073867D01*
X2810073Y1074088D01*
X2810016Y1074311D01*
X2809959Y1074467D01*
X2809910Y1074626D01*
X2809822Y1074839D01*
X2809742Y1075056D01*
X2809669Y1075205D01*
X2809605Y1075358D01*
X2809495Y1075561D01*
X2809394Y1075769D01*
X2809307Y1075910D01*
X2809227Y1076056D01*
X2809098Y1076247D01*
X2808976Y1076443D01*
X2808875Y1076575D01*
X2808782Y1076712D01*
X2808633Y1076889D01*
X2808493Y1077072D01*
X2808379Y1077193D01*
X2808272Y1077321D01*
X2808107Y1077481D01*
X2807949Y1077649D01*
X2807823Y1077759D01*
X2807704Y1077874D01*
X2807524Y1078018D01*
X2807349Y1078169D01*
X2807213Y1078265D01*
X2807083Y1078368D01*
X2806888Y1078493D01*
X2806700Y1078625D01*
X2806555Y1078707D01*
X2806415Y1078797D01*
X2806210Y1078901D01*
X2806008Y1079014D01*
X2805856Y1079081D01*
X2805708Y1079156D01*
X2805493Y1079239D01*
X2805281Y1079332D01*
X2805123Y1079382D01*
X2804968Y1079442D01*
X2804745Y1079504D01*
X2804526Y1079574D01*
X2804363Y1079609D01*
X2804203Y1079653D01*
X2803976Y1079691D01*
X2803750Y1079739D01*
X2803585Y1079758D01*
X2803421Y1079785D01*
X2803228Y1079797D01*
X2802961Y1079826D01*
X2802693Y1079828D01*
X2802500Y1079839D01*
X2678351Y1079839D01*
X2678227Y1079833D01*
X2678102Y1079835D01*
X2677831Y1079813D01*
X2677559Y1079799D01*
X2677435Y1079780D01*
X2677311Y1079770D01*
X2677044Y1079721D01*
X2676775Y1079680D01*
X2676654Y1079649D01*
X2676531Y1079626D01*
X2676270Y1079550D01*
X2676006Y1079482D01*
X2675889Y1079439D01*
X2675770Y1079404D01*
X2675517Y1079302D01*
X2675262Y1079208D01*
X2675150Y1079153D01*
X2675034Y1079106D01*
X2674793Y1078979D01*
X2674549Y1078860D01*
X2674442Y1078794D01*
X2674332Y1078736D01*
X2674106Y1078586D01*
X2673874Y1078442D01*
X2673775Y1078366D01*
X2673671Y1078297D01*
X2673461Y1078125D01*
X2673245Y1077959D01*
X2673154Y1077873D01*
X2673058Y1077794D01*
X2672866Y1077602D01*
X2672668Y1077415D01*
X2672586Y1077320D01*
X2672498Y1077232D01*
X2672327Y1077021D01*
X2672148Y1076815D01*
X2672077Y1076713D01*
X2671998Y1076616D01*
X2671848Y1076388D01*
X2671692Y1076166D01*
X2671631Y1076057D01*
X2671562Y1075953D01*
X2671436Y1075712D01*
X2671303Y1075474D01*
X2671253Y1075360D01*
X2671195Y1075250D01*
X2671094Y1074996D01*
X2670986Y1074747D01*
X2670948Y1074629D01*
X2670901Y1074513D01*
X2670826Y1074251D01*
X2670743Y1073992D01*
X2670717Y1073870D01*
X2670683Y1073750D01*
X2670635Y1073482D01*
X2670578Y1073216D01*
X2670564Y1073092D01*
X2670542Y1072969D01*
X2670521Y1072697D01*
X2670492Y1072427D01*
X2670491Y1072303D01*
X2670481Y1072178D01*
X2670487Y1071906D01*
X2670485Y1071634D01*
X2670497Y1071510D01*
X2670500Y1071385D01*
X2670533Y1071115D01*
X2670558Y1070844D01*
X2670572Y1070773D01*
X2657900Y1070773D01*
X2645228Y1070773D01*
X2645252Y1070987D01*
X2645290Y1071256D01*
X2645295Y1071381D01*
X2645308Y1071505D01*
X2645311Y1071776D01*
X2645321Y1072049D01*
X2645314Y1072173D01*
X2645315Y1072298D01*
X2645290Y1072569D01*
X2645273Y1072841D01*
X2645253Y1072964D01*
X2645242Y1073088D01*
X2645189Y1073355D01*
X2645145Y1073624D01*
X2645113Y1073744D01*
X2645089Y1073867D01*
X2645010Y1074127D01*
X2644939Y1074390D01*
X2644895Y1074507D01*
X2644859Y1074626D01*
X2644754Y1074877D01*
X2644657Y1075132D01*
X2644602Y1075243D01*
X2644554Y1075358D01*
X2644424Y1075598D01*
X2644302Y1075841D01*
X2644236Y1075946D01*
X2644176Y1076056D01*
X2644023Y1076282D01*
X2643877Y1076511D01*
X2643800Y1076609D01*
X2643730Y1076712D01*
X2643555Y1076921D01*
X2643387Y1077135D01*
X2643301Y1077225D01*
X2643221Y1077321D01*
X2643026Y1077511D01*
X2642837Y1077707D01*
X2642742Y1077787D01*
X2642653Y1077874D01*
X2642440Y1078043D01*
X2642232Y1078220D01*
X2642129Y1078290D01*
X2642032Y1078368D01*
X2641803Y1078515D01*
X2641578Y1078669D01*
X2641469Y1078729D01*
X2641364Y1078797D01*
X2641121Y1078920D01*
X2640883Y1079051D01*
X2640768Y1079100D01*
X2640657Y1079156D01*
X2640402Y1079254D01*
X2640152Y1079361D01*
X2640033Y1079397D01*
X2639917Y1079442D01*
X2639654Y1079515D01*
X2639394Y1079595D01*
X2639272Y1079620D01*
X2639152Y1079653D01*
X2638884Y1079698D01*
X2638617Y1079752D01*
X2638492Y1079764D01*
X2638369Y1079785D01*
X2638154Y1079798D01*
X2637827Y1079830D01*
X2637612Y1079830D01*
X2637449Y1079839D01*
X2627551Y1079839D01*
X2627427Y1079833D01*
X2627302Y1079835D01*
X2627031Y1079813D01*
X2626759Y1079799D01*
X2626635Y1079780D01*
X2626511Y1079770D01*
X2626244Y1079721D01*
X2625975Y1079680D01*
X2625854Y1079649D01*
X2625731Y1079626D01*
X2625470Y1079550D01*
X2625206Y1079482D01*
X2625089Y1079439D01*
X2624970Y1079404D01*
X2624717Y1079302D01*
X2624462Y1079208D01*
X2624350Y1079153D01*
X2624234Y1079106D01*
X2623993Y1078979D01*
X2623749Y1078860D01*
X2623642Y1078794D01*
X2623532Y1078736D01*
X2623306Y1078586D01*
X2623074Y1078442D01*
X2622975Y1078366D01*
X2622871Y1078297D01*
X2622661Y1078125D01*
X2622445Y1077959D01*
X2622354Y1077873D01*
X2622258Y1077794D01*
X2622066Y1077602D01*
X2621868Y1077415D01*
X2621786Y1077320D01*
X2621698Y1077232D01*
X2621527Y1077021D01*
X2621348Y1076815D01*
X2621277Y1076713D01*
X2621198Y1076616D01*
X2621048Y1076388D01*
X2620892Y1076166D01*
X2620831Y1076057D01*
X2620762Y1075953D01*
X2620636Y1075712D01*
X2620503Y1075474D01*
X2620453Y1075360D01*
X2620395Y1075250D01*
X2620294Y1074996D01*
X2620186Y1074747D01*
X2620148Y1074629D01*
X2620101Y1074513D01*
X2620026Y1074251D01*
X2619943Y1073992D01*
X2619917Y1073870D01*
X2619883Y1073750D01*
X2619835Y1073482D01*
X2619778Y1073216D01*
X2619764Y1073092D01*
X2619742Y1072969D01*
X2619721Y1072697D01*
X2619692Y1072427D01*
X2619691Y1072303D01*
X2619681Y1072178D01*
X2619687Y1071906D01*
X2619685Y1071634D01*
X2619697Y1071510D01*
X2619700Y1071385D01*
X2619733Y1071115D01*
X2619758Y1070844D01*
X2619772Y1070773D01*
X2607100Y1070773D01*
X2594428Y1070773D01*
X2594452Y1070987D01*
X2594490Y1071256D01*
X2594495Y1071381D01*
X2594508Y1071505D01*
X2594511Y1071776D01*
X2594521Y1072049D01*
X2594514Y1072173D01*
X2594515Y1072298D01*
X2594490Y1072569D01*
X2594473Y1072841D01*
X2594453Y1072964D01*
X2594442Y1073088D01*
X2594389Y1073355D01*
X2594345Y1073624D01*
X2594313Y1073744D01*
X2594289Y1073867D01*
X2594210Y1074127D01*
X2594139Y1074390D01*
X2594095Y1074507D01*
X2594059Y1074626D01*
X2593954Y1074877D01*
X2593857Y1075132D01*
X2593802Y1075243D01*
X2593754Y1075358D01*
X2593624Y1075598D01*
X2593502Y1075841D01*
X2593436Y1075946D01*
X2593376Y1076056D01*
X2593223Y1076282D01*
X2593077Y1076511D01*
X2593000Y1076609D01*
X2592930Y1076712D01*
X2592755Y1076921D01*
X2592587Y1077135D01*
X2592501Y1077225D01*
X2592421Y1077321D01*
X2592226Y1077511D01*
X2592037Y1077707D01*
X2591942Y1077787D01*
X2591853Y1077874D01*
X2591640Y1078043D01*
X2591432Y1078220D01*
X2591329Y1078290D01*
X2591232Y1078368D01*
X2591003Y1078515D01*
X2590778Y1078669D01*
X2590669Y1078729D01*
X2590564Y1078797D01*
X2590321Y1078920D01*
X2590083Y1079051D01*
X2589968Y1079100D01*
X2589857Y1079156D01*
X2589602Y1079254D01*
X2589352Y1079361D01*
X2589233Y1079397D01*
X2589117Y1079442D01*
X2588854Y1079515D01*
X2588594Y1079595D01*
X2588472Y1079620D01*
X2588352Y1079653D01*
X2588084Y1079698D01*
X2587817Y1079752D01*
X2587692Y1079764D01*
X2587569Y1079785D01*
X2587354Y1079798D01*
X2587027Y1079830D01*
X2586812Y1079830D01*
X2586649Y1079839D01*
X2577500Y1079839D01*
X2577334Y1079831D01*
X2577168Y1079832D01*
X2576938Y1079811D01*
X2576708Y1079799D01*
X2576543Y1079774D01*
X2576378Y1079759D01*
X2576151Y1079715D01*
X2575923Y1079680D01*
X2575763Y1079638D01*
X2575599Y1079606D01*
X2575378Y1079539D01*
X2575155Y1079482D01*
X2574999Y1079425D01*
X2574840Y1079376D01*
X2574627Y1079288D01*
X2574410Y1079208D01*
X2574261Y1079135D01*
X2574108Y1079071D01*
X2573905Y1078961D01*
X2573697Y1078860D01*
X2573556Y1078773D01*
X2573410Y1078693D01*
X2573219Y1078564D01*
X2573023Y1078442D01*
X2572891Y1078341D01*
X2572754Y1078248D01*
X2572577Y1078099D01*
X2572394Y1077959D01*
X2572273Y1077845D01*
X2572145Y1077738D01*
X2571985Y1077573D01*
X2571817Y1077415D01*
X2571707Y1077289D01*
X2571592Y1077170D01*
X2571448Y1076990D01*
X2571297Y1076815D01*
X2571201Y1076679D01*
X2571098Y1076549D01*
X2570973Y1076354D01*
X2570841Y1076166D01*
X2570759Y1076021D01*
X2570669Y1075881D01*
X2570565Y1075676D01*
X2570452Y1075474D01*
X2570385Y1075322D01*
X2570310Y1075174D01*
X2570227Y1074959D01*
X2570134Y1074747D01*
X2570084Y1074589D01*
X2570024Y1074434D01*
X2569962Y1074211D01*
X2569892Y1073992D01*
X2569857Y1073829D01*
X2569813Y1073669D01*
X2569775Y1073442D01*
X2569727Y1073216D01*
X2569709Y1073051D01*
X2569681Y1072887D01*
X2569669Y1072694D01*
X2569640Y1072427D01*
X2569638Y1072159D01*
X2569627Y1071966D01*
X2569627Y780000D01*
X2569635Y779834D01*
X2569634Y779668D01*
X2569655Y779438D01*
X2569667Y779208D01*
X2569692Y779043D01*
X2569707Y778878D01*
X2569752Y778651D01*
X2569786Y778423D01*
X2569828Y778263D01*
X2569860Y778099D01*
X2569927Y777878D01*
X2569984Y777655D01*
X2570042Y777499D01*
X2570090Y777340D01*
X2570178Y777127D01*
X2570258Y776910D01*
X2570331Y776761D01*
X2570395Y776608D01*
X2570505Y776405D01*
X2570606Y776197D01*
X2570693Y776056D01*
X2570773Y775910D01*
X2570902Y775719D01*
X2571024Y775523D01*
X2571125Y775391D01*
X2571218Y775254D01*
X2571367Y775077D01*
X2571507Y774894D01*
X2571621Y774773D01*
X2571728Y774645D01*
X2571893Y774485D01*
X2572051Y774317D01*
X2572177Y774207D01*
X2572296Y774092D01*
X2572476Y773948D01*
X2572651Y773797D01*
X2572787Y773701D01*
X2572917Y773598D01*
X2573112Y773473D01*
X2573300Y773341D01*
X2573445Y773259D01*
X2573585Y773169D01*
X2573790Y773065D01*
X2573992Y772952D01*
X2574144Y772885D01*
X2574292Y772810D01*
X2574507Y772727D01*
X2574719Y772634D01*
X2574877Y772584D01*
X2575032Y772524D01*
X2575255Y772462D01*
X2575474Y772392D01*
X2575637Y772357D01*
X2575797Y772313D01*
X2576024Y772275D01*
X2576250Y772227D01*
X2576415Y772209D01*
X2576579Y772181D01*
X2576772Y772169D01*
X2577039Y772140D01*
X2577307Y772138D01*
X2577500Y772127D01*
X2802500Y772127D01*
X2802666Y772135D01*
G37*
%LPC*%
G36*
X2614973Y1019973D02*
X2614973Y1019973D01*
X2614973Y1027250D01*
X2614992Y1027261D01*
X2615242Y1027396D01*
X2615335Y1027459D01*
X2615432Y1027515D01*
X2615663Y1027682D01*
X2615898Y1027842D01*
X2615985Y1027914D01*
X2616076Y1027980D01*
X2616288Y1028168D01*
X2616507Y1028351D01*
X2616585Y1028432D01*
X2616669Y1028506D01*
X2616862Y1028716D01*
X2617060Y1028920D01*
X2617130Y1029007D01*
X2617206Y1029090D01*
X2617377Y1029318D01*
X2617554Y1029541D01*
X2617615Y1029635D01*
X2617682Y1029725D01*
X2617829Y1029969D01*
X2617983Y1030208D01*
X2618034Y1030308D01*
X2618092Y1030405D01*
X2618213Y1030662D01*
X2618342Y1030916D01*
X2618383Y1031020D01*
X2618431Y1031122D01*
X2618526Y1031390D01*
X2618628Y1031655D01*
X2618658Y1031764D01*
X2618696Y1031870D01*
X2618763Y1032146D01*
X2618839Y1032420D01*
X2618858Y1032531D01*
X2618884Y1032640D01*
X2618924Y1032922D01*
X2618971Y1033203D01*
X2618977Y1033303D01*
X2618994Y1033426D01*
X2619013Y1033916D01*
X2619025Y1034123D01*
X2619025Y1040877D01*
X2619011Y1041161D01*
X2619005Y1041445D01*
X2618991Y1041557D01*
X2618985Y1041669D01*
X2618942Y1041950D01*
X2618908Y1042233D01*
X2618883Y1042342D01*
X2618866Y1042453D01*
X2618795Y1042729D01*
X2618732Y1043006D01*
X2618696Y1043113D01*
X2618668Y1043222D01*
X2618570Y1043489D01*
X2618479Y1043758D01*
X2618433Y1043861D01*
X2618394Y1043966D01*
X2618269Y1044222D01*
X2618152Y1044481D01*
X2618095Y1044578D01*
X2618046Y1044679D01*
X2617896Y1044921D01*
X2617753Y1045167D01*
X2617687Y1045258D01*
X2617628Y1045354D01*
X2617455Y1045579D01*
X2617288Y1045810D01*
X2617213Y1045894D01*
X2617145Y1045983D01*
X2616950Y1046190D01*
X2616760Y1046402D01*
X2616678Y1046478D01*
X2616601Y1046560D01*
X2616385Y1046746D01*
X2616176Y1046939D01*
X2616086Y1047006D01*
X2616001Y1047079D01*
X2615768Y1047243D01*
X2615540Y1047414D01*
X2615444Y1047471D01*
X2615352Y1047536D01*
X2615104Y1047675D01*
X2614973Y1047754D01*
X2614973Y1055027D01*
X2622250Y1055027D01*
X2622261Y1055008D01*
X2622396Y1054758D01*
X2622459Y1054665D01*
X2622515Y1054568D01*
X2622682Y1054337D01*
X2622842Y1054102D01*
X2622914Y1054015D01*
X2622980Y1053924D01*
X2623168Y1053712D01*
X2623351Y1053493D01*
X2623432Y1053415D01*
X2623506Y1053331D01*
X2623716Y1053138D01*
X2623920Y1052940D01*
X2624007Y1052870D01*
X2624090Y1052794D01*
X2624318Y1052623D01*
X2624541Y1052446D01*
X2624635Y1052385D01*
X2624725Y1052318D01*
X2624969Y1052171D01*
X2625208Y1052017D01*
X2625308Y1051966D01*
X2625405Y1051908D01*
X2625662Y1051787D01*
X2625916Y1051658D01*
X2626020Y1051617D01*
X2626122Y1051569D01*
X2626390Y1051474D01*
X2626655Y1051372D01*
X2626764Y1051342D01*
X2626870Y1051304D01*
X2627146Y1051237D01*
X2627420Y1051161D01*
X2627531Y1051142D01*
X2627640Y1051116D01*
X2627922Y1051076D01*
X2628203Y1051029D01*
X2628303Y1051023D01*
X2628426Y1051006D01*
X2628916Y1050987D01*
X2629123Y1050975D01*
X2635877Y1050975D01*
X2636161Y1050989D01*
X2636445Y1050995D01*
X2636557Y1051009D01*
X2636669Y1051015D01*
X2636950Y1051058D01*
X2637233Y1051092D01*
X2637342Y1051117D01*
X2637453Y1051134D01*
X2637729Y1051205D01*
X2638006Y1051268D01*
X2638113Y1051304D01*
X2638222Y1051332D01*
X2638489Y1051430D01*
X2638758Y1051521D01*
X2638861Y1051567D01*
X2638966Y1051606D01*
X2639222Y1051731D01*
X2639481Y1051848D01*
X2639578Y1051905D01*
X2639679Y1051954D01*
X2639921Y1052104D01*
X2640167Y1052247D01*
X2640258Y1052313D01*
X2640354Y1052372D01*
X2640579Y1052545D01*
X2640810Y1052712D01*
X2640894Y1052787D01*
X2640983Y1052855D01*
X2641190Y1053050D01*
X2641402Y1053240D01*
X2641478Y1053322D01*
X2641560Y1053399D01*
X2641746Y1053615D01*
X2641939Y1053824D01*
X2642006Y1053914D01*
X2642079Y1053999D01*
X2642243Y1054232D01*
X2642414Y1054460D01*
X2642471Y1054556D01*
X2642536Y1054648D01*
X2642675Y1054896D01*
X2642754Y1055027D01*
X2650027Y1055027D01*
X2650027Y1047750D01*
X2650008Y1047739D01*
X2649758Y1047604D01*
X2649665Y1047541D01*
X2649568Y1047485D01*
X2649337Y1047318D01*
X2649102Y1047158D01*
X2649015Y1047086D01*
X2648924Y1047020D01*
X2648712Y1046832D01*
X2648493Y1046649D01*
X2648415Y1046568D01*
X2648331Y1046494D01*
X2648138Y1046284D01*
X2647940Y1046080D01*
X2647870Y1045993D01*
X2647794Y1045910D01*
X2647623Y1045682D01*
X2647446Y1045459D01*
X2647385Y1045365D01*
X2647318Y1045275D01*
X2647171Y1045031D01*
X2647017Y1044792D01*
X2646966Y1044692D01*
X2646908Y1044595D01*
X2646787Y1044338D01*
X2646658Y1044084D01*
X2646617Y1043980D01*
X2646569Y1043878D01*
X2646474Y1043610D01*
X2646372Y1043345D01*
X2646342Y1043236D01*
X2646304Y1043130D01*
X2646237Y1042854D01*
X2646161Y1042580D01*
X2646142Y1042469D01*
X2646116Y1042360D01*
X2646076Y1042078D01*
X2646029Y1041797D01*
X2646023Y1041697D01*
X2646006Y1041574D01*
X2645987Y1041084D01*
X2645975Y1040877D01*
X2645975Y1034123D01*
X2645989Y1033839D01*
X2645995Y1033555D01*
X2646009Y1033443D01*
X2646015Y1033331D01*
X2646058Y1033050D01*
X2646092Y1032767D01*
X2646117Y1032658D01*
X2646134Y1032547D01*
X2646205Y1032271D01*
X2646268Y1031994D01*
X2646304Y1031887D01*
X2646332Y1031778D01*
X2646430Y1031511D01*
X2646521Y1031242D01*
X2646567Y1031139D01*
X2646606Y1031034D01*
X2646731Y1030778D01*
X2646848Y1030519D01*
X2646905Y1030422D01*
X2646954Y1030321D01*
X2647104Y1030079D01*
X2647247Y1029833D01*
X2647313Y1029742D01*
X2647372Y1029646D01*
X2647545Y1029421D01*
X2647712Y1029190D01*
X2647787Y1029106D01*
X2647855Y1029017D01*
X2648050Y1028810D01*
X2648240Y1028598D01*
X2648322Y1028522D01*
X2648399Y1028440D01*
X2648615Y1028254D01*
X2648824Y1028061D01*
X2648914Y1027994D01*
X2648999Y1027921D01*
X2649232Y1027757D01*
X2649460Y1027586D01*
X2649556Y1027529D01*
X2649648Y1027464D01*
X2649896Y1027325D01*
X2650027Y1027246D01*
X2650027Y1019973D01*
X2642750Y1019973D01*
X2642739Y1019992D01*
X2642604Y1020242D01*
X2642541Y1020335D01*
X2642485Y1020432D01*
X2642318Y1020663D01*
X2642158Y1020898D01*
X2642086Y1020985D01*
X2642020Y1021076D01*
X2641832Y1021288D01*
X2641649Y1021507D01*
X2641568Y1021585D01*
X2641494Y1021669D01*
X2641284Y1021862D01*
X2641080Y1022060D01*
X2640993Y1022130D01*
X2640910Y1022206D01*
X2640682Y1022377D01*
X2640459Y1022554D01*
X2640365Y1022615D01*
X2640275Y1022682D01*
X2640031Y1022829D01*
X2639792Y1022983D01*
X2639692Y1023034D01*
X2639595Y1023092D01*
X2639338Y1023213D01*
X2639084Y1023342D01*
X2638980Y1023383D01*
X2638878Y1023431D01*
X2638610Y1023526D01*
X2638345Y1023628D01*
X2638236Y1023658D01*
X2638130Y1023696D01*
X2637854Y1023763D01*
X2637580Y1023839D01*
X2637469Y1023858D01*
X2637360Y1023884D01*
X2637078Y1023924D01*
X2636797Y1023971D01*
X2636697Y1023977D01*
X2636574Y1023994D01*
X2636084Y1024013D01*
X2635877Y1024025D01*
X2629123Y1024025D01*
X2628839Y1024011D01*
X2628555Y1024005D01*
X2628443Y1023991D01*
X2628331Y1023985D01*
X2628050Y1023942D01*
X2627767Y1023908D01*
X2627658Y1023883D01*
X2627547Y1023866D01*
X2627271Y1023795D01*
X2626994Y1023732D01*
X2626887Y1023696D01*
X2626778Y1023668D01*
X2626511Y1023570D01*
X2626242Y1023479D01*
X2626139Y1023433D01*
X2626034Y1023394D01*
X2625778Y1023269D01*
X2625519Y1023152D01*
X2625422Y1023095D01*
X2625321Y1023046D01*
X2625079Y1022896D01*
X2624833Y1022753D01*
X2624742Y1022687D01*
X2624646Y1022628D01*
X2624421Y1022455D01*
X2624190Y1022288D01*
X2624106Y1022213D01*
X2624017Y1022145D01*
X2623810Y1021950D01*
X2623598Y1021760D01*
X2623522Y1021678D01*
X2623440Y1021601D01*
X2623254Y1021385D01*
X2623061Y1021176D01*
X2622994Y1021086D01*
X2622921Y1021001D01*
X2622757Y1020768D01*
X2622586Y1020540D01*
X2622529Y1020444D01*
X2622464Y1020352D01*
X2622325Y1020104D01*
X2622246Y1019973D01*
X2614973Y1019973D01*
G37*
%LPD*%
G36*
X221950Y486496D02*
X221950Y486496D01*
X223023Y486601D01*
X223024Y486602D01*
X224056Y486915D01*
X224057Y486915D01*
X225008Y487423D01*
X225008Y487424D01*
X225842Y488108D01*
X226526Y488942D01*
X226527Y488942D01*
X227035Y489893D01*
X227035Y489894D01*
X227348Y490926D01*
X227349Y490927D01*
X227349Y490928D01*
X227349Y490932D01*
X227350Y490936D01*
X227350Y490937D01*
X227350Y490945D01*
X227351Y490949D01*
X227351Y490953D01*
X227351Y490954D01*
X227352Y490958D01*
X227352Y490962D01*
X227352Y490966D01*
X227353Y490970D01*
X227353Y490971D01*
X227353Y490975D01*
X227354Y490979D01*
X227354Y490983D01*
X227355Y490987D01*
X227355Y490988D01*
X227355Y490992D01*
X227355Y490996D01*
X227356Y491000D01*
X227356Y491004D01*
X227356Y491005D01*
X227357Y491009D01*
X227357Y491013D01*
X227357Y491017D01*
X227358Y491017D01*
X227357Y491017D01*
X227358Y491021D01*
X227358Y491022D01*
X227358Y491026D01*
X227359Y491030D01*
X227359Y491034D01*
X227360Y491038D01*
X227360Y491039D01*
X227360Y491043D01*
X227360Y491047D01*
X227361Y491051D01*
X227361Y491055D01*
X227361Y491056D01*
X227362Y491064D01*
X227362Y491068D01*
X227363Y491068D01*
X227362Y491068D01*
X227363Y491072D01*
X227363Y491073D01*
X227363Y491077D01*
X227364Y491085D01*
X227365Y491089D01*
X227365Y491090D01*
X227365Y491094D01*
X227365Y491098D01*
X227366Y491106D01*
X227366Y491107D01*
X227367Y491111D01*
X227367Y491115D01*
X227368Y491119D01*
X227368Y491128D01*
X227369Y491132D01*
X227369Y491136D01*
X227370Y491140D01*
X227370Y491141D01*
X227370Y491149D01*
X227371Y491153D01*
X227371Y491157D01*
X227371Y491158D01*
X227372Y491162D01*
X227372Y491166D01*
X227373Y491170D01*
X227373Y491174D01*
X227373Y491175D01*
X227373Y491179D01*
X227374Y491183D01*
X227374Y491187D01*
X227375Y491191D01*
X227375Y491192D01*
X227375Y491196D01*
X227375Y491200D01*
X227376Y491200D01*
X227375Y491200D01*
X227376Y491204D01*
X227376Y491208D01*
X227376Y491209D01*
X227377Y491213D01*
X227377Y491217D01*
X227378Y491221D01*
X227378Y491225D01*
X227378Y491226D01*
X227378Y491230D01*
X227379Y491234D01*
X227379Y491238D01*
X227380Y491242D01*
X227380Y491243D01*
X227380Y491247D01*
X227380Y491251D01*
X227381Y491251D01*
X227380Y491251D01*
X227381Y491255D01*
X227381Y491259D01*
X227381Y491260D01*
X227382Y491268D01*
X227383Y491272D01*
X227383Y491276D01*
X227383Y491277D01*
X227383Y491281D01*
X227384Y491289D01*
X227385Y491293D01*
X227385Y491294D01*
X227385Y491298D01*
X227386Y491302D01*
X227386Y491310D01*
X227386Y491311D01*
X227387Y491315D01*
X227387Y491319D01*
X227388Y491323D01*
X227388Y491332D01*
X227389Y491336D01*
X227389Y491340D01*
X227390Y491344D01*
X227390Y491345D01*
X227391Y491353D01*
X227391Y491357D01*
X227391Y491361D01*
X227391Y491362D01*
X227392Y491366D01*
X227392Y491370D01*
X227393Y491374D01*
X227393Y491378D01*
X227393Y491379D01*
X227393Y491383D01*
X227394Y491383D01*
X227393Y491383D01*
X227394Y491387D01*
X227394Y491391D01*
X227395Y491395D01*
X227395Y491396D01*
X227395Y491400D01*
X227396Y491404D01*
X227396Y491408D01*
X227396Y491412D01*
X227396Y491413D01*
X227397Y491417D01*
X227397Y491421D01*
X227398Y491425D01*
X227398Y491429D01*
X227398Y491430D01*
X227398Y491434D01*
X227399Y491434D01*
X227398Y491434D01*
X227399Y491438D01*
X227399Y491442D01*
X227400Y491451D01*
X227401Y491455D01*
X227401Y491459D01*
X227401Y491463D01*
X227401Y491464D01*
X227402Y491472D01*
X227403Y491476D01*
X227403Y491480D01*
X227403Y491481D01*
X227404Y491485D01*
X227404Y491493D01*
X227405Y491497D01*
X227405Y491498D01*
X227405Y491502D01*
X227406Y491506D01*
X227406Y491514D01*
X227406Y491515D01*
X227407Y491519D01*
X227407Y491523D01*
X227408Y491527D01*
X227409Y491536D01*
X227409Y491540D01*
X227409Y491544D01*
X227410Y491548D01*
X227410Y491549D01*
X227410Y491553D01*
X227411Y491557D01*
X227411Y491561D01*
X227411Y491565D01*
X227412Y491565D01*
X227411Y491566D01*
X227412Y491570D01*
X227412Y491574D01*
X227413Y491578D01*
X227413Y491582D01*
X227413Y491583D01*
X227414Y491587D01*
X227414Y491591D01*
X227414Y491595D01*
X227415Y491599D01*
X227415Y491600D01*
X227415Y491604D01*
X227416Y491608D01*
X227416Y491612D01*
X227416Y491616D01*
X227417Y491616D01*
X227416Y491617D01*
X227417Y491621D01*
X227417Y491625D01*
X227418Y491629D01*
X227418Y491633D01*
X227418Y491634D01*
X227419Y491638D01*
X227419Y491642D01*
X227419Y491646D01*
X227420Y491655D01*
X227421Y491659D01*
X227421Y491663D01*
X227422Y491667D01*
X227422Y491668D01*
X227422Y491676D01*
X227423Y491680D01*
X227423Y491684D01*
X227423Y491685D01*
X227424Y491689D01*
X227424Y491697D01*
X227425Y491701D01*
X227425Y491702D01*
X227425Y491706D01*
X227426Y491710D01*
X227427Y491718D01*
X227427Y491719D01*
X227427Y491723D01*
X227427Y491727D01*
X227428Y491731D01*
X227429Y491740D01*
X227429Y491744D01*
X227429Y491748D01*
X227430Y491748D01*
X227429Y491748D01*
X227430Y491752D01*
X227430Y491753D01*
X227430Y491757D01*
X227431Y491761D01*
X227431Y491765D01*
X227432Y491769D01*
X227432Y491770D01*
X227432Y491774D01*
X227432Y491778D01*
X227433Y491782D01*
X227433Y491786D01*
X227433Y491787D01*
X227434Y491791D01*
X227434Y491795D01*
X227434Y491799D01*
X227435Y491799D01*
X227434Y491799D01*
X227435Y491803D01*
X227435Y491804D01*
X227435Y491808D01*
X227436Y491812D01*
X227436Y491816D01*
X227437Y491820D01*
X227437Y491821D01*
X227437Y491825D01*
X227437Y491829D01*
X227438Y491837D01*
X227438Y491838D01*
X227439Y491842D01*
X227439Y491846D01*
X227440Y491850D01*
X227440Y491859D01*
X227441Y491863D01*
X227441Y491867D01*
X227442Y491871D01*
X227442Y491872D01*
X227442Y491880D01*
X227443Y491884D01*
X227443Y491888D01*
X227443Y491889D01*
X227444Y491893D01*
X227445Y491901D01*
X227445Y491905D01*
X227445Y491906D01*
X227445Y491910D01*
X227446Y491914D01*
X227447Y491922D01*
X227447Y491923D01*
X227447Y491927D01*
X227447Y491931D01*
X227448Y491931D01*
X227447Y491931D01*
X227448Y491935D01*
X227448Y491939D01*
X227448Y491940D01*
X227449Y491944D01*
X227449Y491948D01*
X227450Y491952D01*
X227450Y491956D01*
X227450Y491957D01*
X227450Y491961D01*
X227451Y491965D01*
X227451Y491969D01*
X227452Y491973D01*
X227452Y491974D01*
X227452Y491978D01*
X227452Y491982D01*
X227453Y491982D01*
X227453Y491986D01*
X227453Y491990D01*
X227453Y491991D01*
X227454Y491995D01*
X227454Y491999D01*
X227454Y492000D01*
X227349Y493073D01*
X227348Y493074D01*
X227035Y494106D01*
X227035Y494107D01*
X226527Y495058D01*
X226526Y495058D01*
X225842Y495892D01*
X225008Y496576D01*
X225008Y496577D01*
X224057Y497085D01*
X224056Y497085D01*
X223024Y497398D01*
X223023Y497399D01*
X221950Y497504D01*
X220450Y497504D01*
X220134Y497563D01*
X219763Y497670D01*
X219420Y497847D01*
X218720Y498401D01*
X218322Y498902D01*
X218074Y499493D01*
X218072Y499494D01*
X218069Y499495D01*
X218035Y499606D01*
X218035Y499607D01*
X217527Y500558D01*
X217526Y500558D01*
X216842Y501392D01*
X216008Y502076D01*
X216008Y502077D01*
X215057Y502585D01*
X215056Y502585D01*
X214024Y502898D01*
X214023Y502899D01*
X212951Y503004D01*
X212950Y503004D01*
X211877Y502899D01*
X211876Y502898D01*
X210844Y502585D01*
X210843Y502585D01*
X209892Y502077D01*
X209892Y502076D01*
X209058Y501392D01*
X208374Y500558D01*
X208373Y500558D01*
X207865Y499607D01*
X207865Y499606D01*
X207552Y498574D01*
X207551Y498573D01*
X207551Y498571D01*
X207551Y498566D01*
X207550Y498562D01*
X207550Y498558D01*
X207550Y498554D01*
X207549Y498554D01*
X207550Y498554D01*
X207549Y498549D01*
X207549Y498545D01*
X207548Y498541D01*
X207548Y498537D01*
X207547Y498532D01*
X207547Y498528D01*
X207547Y498524D01*
X207546Y498520D01*
X207546Y498515D01*
X207545Y498507D01*
X207545Y498503D01*
X207544Y498503D01*
X207545Y498503D01*
X207544Y498498D01*
X207544Y498494D01*
X207543Y498486D01*
X207542Y498481D01*
X207542Y498477D01*
X207542Y498473D01*
X207541Y498464D01*
X207540Y498460D01*
X207540Y498456D01*
X207539Y498452D01*
X207539Y498443D01*
X207538Y498439D01*
X207538Y498435D01*
X207537Y498430D01*
X207537Y498422D01*
X207536Y498418D01*
X207536Y498413D01*
X207535Y498409D01*
X207535Y498405D01*
X207534Y498401D01*
X207534Y498396D01*
X207534Y498392D01*
X207533Y498388D01*
X207533Y498384D01*
X207532Y498379D01*
X207532Y498375D01*
X207532Y498371D01*
X207531Y498371D01*
X207532Y498371D01*
X207531Y498367D01*
X207531Y498362D01*
X207530Y498358D01*
X207530Y498354D01*
X207529Y498350D01*
X207529Y498345D01*
X207529Y498341D01*
X207528Y498337D01*
X207528Y498333D01*
X207527Y498328D01*
X207527Y498324D01*
X207527Y498320D01*
X207526Y498320D01*
X207527Y498320D01*
X207526Y498316D01*
X207526Y498311D01*
X207525Y498303D01*
X207524Y498299D01*
X207524Y498294D01*
X207524Y498290D01*
X207523Y498282D01*
X207522Y498277D01*
X207522Y498273D01*
X207521Y498269D01*
X207521Y498260D01*
X207520Y498256D01*
X207520Y498252D01*
X207519Y498248D01*
X207519Y498239D01*
X207518Y498235D01*
X207518Y498231D01*
X207517Y498226D01*
X207516Y498218D01*
X207516Y498214D01*
X207516Y498209D01*
X207515Y498205D01*
X207515Y498201D01*
X207514Y498197D01*
X207514Y498192D01*
X207514Y498188D01*
X207513Y498188D01*
X207514Y498188D01*
X207513Y498184D01*
X207513Y498180D01*
X207512Y498175D01*
X207512Y498171D01*
X207511Y498167D01*
X207511Y498163D01*
X207511Y498158D01*
X207510Y498154D01*
X207510Y498150D01*
X207509Y498146D01*
X207509Y498141D01*
X207509Y498137D01*
X207508Y498137D01*
X207509Y498137D01*
X207508Y498133D01*
X207508Y498129D01*
X207507Y498120D01*
X207506Y498116D01*
X207506Y498112D01*
X207506Y498107D01*
X207505Y498099D01*
X207504Y498095D01*
X207504Y498090D01*
X207503Y498086D01*
X207503Y498078D01*
X207502Y498073D01*
X207502Y498069D01*
X207501Y498065D01*
X207501Y498056D01*
X207500Y498052D01*
X207500Y498048D01*
X207499Y498044D01*
X207498Y498035D01*
X207498Y498031D01*
X207498Y498027D01*
X207497Y498022D01*
X207497Y498018D01*
X207496Y498014D01*
X207496Y498010D01*
X207496Y498005D01*
X207495Y498005D01*
X207496Y498005D01*
X207495Y498001D01*
X207495Y497997D01*
X207494Y497993D01*
X207494Y497988D01*
X207493Y497984D01*
X207493Y497980D01*
X207493Y497976D01*
X207492Y497971D01*
X207492Y497967D01*
X207491Y497963D01*
X207491Y497959D01*
X207491Y497954D01*
X207490Y497954D01*
X207491Y497954D01*
X207490Y497950D01*
X207490Y497946D01*
X207489Y497942D01*
X207489Y497937D01*
X207488Y497933D01*
X207488Y497929D01*
X207488Y497925D01*
X207487Y497916D01*
X207486Y497912D01*
X207486Y497908D01*
X207485Y497903D01*
X207485Y497895D01*
X207484Y497891D01*
X207484Y497886D01*
X207483Y497882D01*
X207483Y497874D01*
X207482Y497869D01*
X207482Y497865D01*
X207481Y497861D01*
X207480Y497852D01*
X207480Y497848D01*
X207480Y497844D01*
X207479Y497840D01*
X207478Y497831D01*
X207478Y497827D01*
X207478Y497823D01*
X207477Y497823D01*
X207478Y497823D01*
X207477Y497818D01*
X207477Y497814D01*
X207476Y497810D01*
X207476Y497806D01*
X207475Y497801D01*
X207475Y497797D01*
X207475Y497793D01*
X207474Y497789D01*
X207474Y497784D01*
X207473Y497780D01*
X207473Y497776D01*
X207473Y497772D01*
X207472Y497772D01*
X207473Y497772D01*
X207472Y497767D01*
X207472Y497763D01*
X207471Y497759D01*
X207471Y497755D01*
X207470Y497750D01*
X207470Y497746D01*
X207470Y497742D01*
X207469Y497733D01*
X207468Y497729D01*
X207468Y497725D01*
X207467Y497721D01*
X207467Y497712D01*
X207466Y497708D01*
X207466Y497704D01*
X207465Y497699D01*
X207465Y497691D01*
X207464Y497687D01*
X207464Y497682D01*
X207463Y497678D01*
X207462Y497670D01*
X207462Y497665D01*
X207462Y497661D01*
X207461Y497657D01*
X207460Y497648D01*
X207460Y497644D01*
X207460Y497640D01*
X207459Y497640D01*
X207460Y497640D01*
X207459Y497636D01*
X207459Y497631D01*
X207458Y497627D01*
X207458Y497623D01*
X207457Y497619D01*
X207457Y497614D01*
X207457Y497610D01*
X207456Y497606D01*
X207456Y497602D01*
X207455Y497597D01*
X207455Y497593D01*
X207455Y497589D01*
X207454Y497589D01*
X207454Y497585D01*
X207454Y497580D01*
X207453Y497576D01*
X207453Y497572D01*
X207452Y497568D01*
X207452Y497563D01*
X207452Y497559D01*
X207451Y497555D01*
X207451Y497551D01*
X207450Y497546D01*
X207450Y497542D01*
X207449Y497538D01*
X207449Y497529D01*
X207448Y497525D01*
X207448Y497521D01*
X207447Y497517D01*
X207447Y497508D01*
X207446Y497504D01*
X207446Y497500D01*
X207446Y491250D01*
X207565Y490193D01*
X207565Y490192D01*
X207916Y489188D01*
X207917Y489187D01*
X208483Y488286D01*
X208483Y488285D01*
X209235Y487533D01*
X209236Y487533D01*
X210137Y486967D01*
X210138Y486966D01*
X211142Y486615D01*
X211143Y486615D01*
X212200Y486496D01*
X221950Y486496D01*
X221950Y486496D01*
G37*
G36*
X212950Y571996D02*
X212950Y571996D01*
X214023Y572101D01*
X214024Y572102D01*
X215056Y572415D01*
X215057Y572415D01*
X216008Y572923D01*
X216008Y572924D01*
X216842Y573608D01*
X217526Y574442D01*
X217527Y574442D01*
X218035Y575393D01*
X218035Y575394D01*
X218069Y575506D01*
X218071Y575506D01*
X218074Y575507D01*
X218322Y576098D01*
X218720Y576599D01*
X219420Y577153D01*
X219763Y577330D01*
X220134Y577437D01*
X220450Y577496D01*
X221950Y577496D01*
X223023Y577601D01*
X223024Y577602D01*
X224056Y577915D01*
X224057Y577915D01*
X225008Y578423D01*
X225008Y578424D01*
X225842Y579108D01*
X226526Y579942D01*
X226527Y579942D01*
X227035Y580893D01*
X227035Y580894D01*
X227348Y581926D01*
X227349Y581927D01*
X227454Y583000D01*
X227349Y584073D01*
X227348Y584074D01*
X227035Y585106D01*
X227035Y585107D01*
X226527Y586058D01*
X226526Y586058D01*
X225842Y586892D01*
X225008Y587576D01*
X225008Y587577D01*
X224057Y588085D01*
X224056Y588085D01*
X223024Y588398D01*
X223023Y588399D01*
X221950Y588504D01*
X212200Y588504D01*
X211143Y588385D01*
X211142Y588385D01*
X210138Y588034D01*
X210137Y588033D01*
X209236Y587467D01*
X209235Y587467D01*
X208483Y586715D01*
X208483Y586714D01*
X207917Y585813D01*
X207916Y585812D01*
X207565Y584808D01*
X207565Y584807D01*
X207446Y583750D01*
X207446Y577500D01*
X207551Y576427D01*
X207552Y576426D01*
X207865Y575394D01*
X207865Y575393D01*
X208373Y574442D01*
X208374Y574442D01*
X209058Y573608D01*
X209892Y572924D01*
X209892Y572923D01*
X210843Y572415D01*
X210844Y572415D01*
X211876Y572102D01*
X211877Y572101D01*
X212949Y571996D01*
X212950Y571996D01*
X212950Y571996D01*
G37*
G36*
X180500Y472296D02*
X180500Y472296D01*
X181724Y472434D01*
X181725Y472434D01*
X182888Y472841D01*
X182889Y472841D01*
X183931Y473496D01*
X183932Y473497D01*
X184803Y474368D01*
X184804Y474369D01*
X185459Y475411D01*
X185459Y475412D01*
X185866Y476575D01*
X185866Y476576D01*
X186004Y477800D01*
X185866Y479024D01*
X185866Y479025D01*
X185459Y480188D01*
X185459Y480189D01*
X184804Y481231D01*
X184803Y481232D01*
X183932Y482103D01*
X183931Y482104D01*
X182889Y482759D01*
X182888Y482759D01*
X181725Y483166D01*
X181724Y483166D01*
X180500Y483304D01*
X169500Y483304D01*
X168276Y483166D01*
X168275Y483166D01*
X167112Y482759D01*
X167111Y482759D01*
X166069Y482104D01*
X166068Y482103D01*
X165197Y481232D01*
X165196Y481231D01*
X164541Y480189D01*
X164541Y480188D01*
X164134Y479025D01*
X164134Y479024D01*
X163996Y477800D01*
X164101Y476727D01*
X164102Y476726D01*
X164415Y475694D01*
X164415Y475693D01*
X164923Y474742D01*
X164924Y474742D01*
X165608Y473908D01*
X166442Y473224D01*
X166442Y473223D01*
X167393Y472715D01*
X167394Y472715D01*
X168426Y472402D01*
X168427Y472401D01*
X169500Y472296D01*
X180500Y472296D01*
X180500Y472296D01*
G37*
G36*
X180500Y591696D02*
X180500Y591696D01*
X181724Y591834D01*
X181725Y591834D01*
X182888Y592241D01*
X182889Y592241D01*
X183931Y592896D01*
X183932Y592897D01*
X184803Y593768D01*
X184804Y593769D01*
X185459Y594811D01*
X185459Y594812D01*
X185866Y595975D01*
X185866Y595976D01*
X186004Y597200D01*
X185866Y598424D01*
X185866Y598425D01*
X185459Y599588D01*
X185459Y599589D01*
X184804Y600631D01*
X184803Y600632D01*
X183932Y601503D01*
X183931Y601504D01*
X182889Y602159D01*
X182888Y602159D01*
X181725Y602566D01*
X181724Y602566D01*
X180500Y602704D01*
X169500Y602704D01*
X168276Y602566D01*
X168275Y602566D01*
X167112Y602159D01*
X167111Y602159D01*
X166069Y601504D01*
X166068Y601503D01*
X165197Y600632D01*
X165196Y600631D01*
X164541Y599589D01*
X164541Y599588D01*
X164134Y598425D01*
X164134Y598424D01*
X163996Y597200D01*
X164101Y596127D01*
X164102Y596126D01*
X164415Y595094D01*
X164415Y595093D01*
X164923Y594142D01*
X164924Y594142D01*
X165608Y593308D01*
X166442Y592624D01*
X166442Y592623D01*
X167393Y592115D01*
X167394Y592115D01*
X168426Y591802D01*
X168427Y591801D01*
X169500Y591696D01*
X180500Y591696D01*
X180500Y591696D01*
G37*
%LPC*%
G36*
X212450Y489504D02*
X212450Y489504D01*
X211804Y489589D01*
X211202Y489839D01*
X210685Y490235D01*
X210289Y490752D01*
X210039Y491354D01*
X209954Y492000D01*
X209954Y497500D01*
X209955Y497503D01*
X209955Y497507D01*
X209956Y497511D01*
X209956Y497515D01*
X209956Y497516D01*
X209957Y497520D01*
X209957Y497524D01*
X209957Y497528D01*
X209958Y497537D01*
X209959Y497541D01*
X209960Y497549D01*
X209960Y497550D01*
X209960Y497554D01*
X209961Y497562D01*
X209962Y497566D01*
X209962Y497567D01*
X209963Y497575D01*
X209963Y497579D01*
X209964Y497588D01*
X209965Y497592D01*
X209966Y497600D01*
X209966Y497601D01*
X209966Y497605D01*
X209967Y497613D01*
X209968Y497617D01*
X209968Y497618D01*
X209968Y497626D01*
X209969Y497626D01*
X209968Y497626D01*
X209969Y497630D01*
X209970Y497639D01*
X209970Y497643D01*
X209971Y497651D01*
X209971Y497652D01*
X209972Y497656D01*
X209972Y497660D01*
X209973Y497664D01*
X209973Y497668D01*
X209973Y497669D01*
X209974Y497673D01*
X209974Y497677D01*
X209975Y497681D01*
X209975Y497685D01*
X209975Y497686D01*
X209976Y497694D01*
X209977Y497698D01*
X209978Y497707D01*
X209978Y497711D01*
X209979Y497719D01*
X209979Y497720D01*
X209979Y497724D01*
X209980Y497724D01*
X209979Y497724D01*
X209980Y497732D01*
X209981Y497736D01*
X209981Y497737D01*
X209982Y497745D01*
X209982Y497749D01*
X209983Y497758D01*
X209984Y497762D01*
X209985Y497770D01*
X209985Y497771D01*
X209985Y497775D01*
X209986Y497783D01*
X209987Y497787D01*
X209987Y497788D01*
X209988Y497796D01*
X209988Y497800D01*
X209989Y497804D01*
X209989Y497805D01*
X209989Y497809D01*
X209990Y497813D01*
X209990Y497817D01*
X209991Y497821D01*
X209991Y497822D01*
X209991Y497826D01*
X209991Y497830D01*
X209992Y497838D01*
X209992Y497839D01*
X209993Y497843D01*
X209994Y497851D01*
X209994Y497855D01*
X209994Y497856D01*
X209995Y497864D01*
X209996Y497868D01*
X209997Y497877D01*
X209997Y497881D01*
X209998Y497889D01*
X209998Y497890D01*
X209999Y497894D01*
X210000Y497902D01*
X210000Y497906D01*
X210000Y497907D01*
X210001Y497915D01*
X210002Y497919D01*
X210002Y497928D01*
X210003Y497928D01*
X210002Y497928D01*
X210003Y497932D01*
X210004Y497940D01*
X210004Y497941D01*
X210004Y497945D01*
X210005Y497953D01*
X210006Y497957D01*
X210006Y497958D01*
X210006Y497962D01*
X210007Y497966D01*
X210007Y497970D01*
X210008Y497974D01*
X210008Y497975D01*
X210008Y497979D01*
X210009Y497983D01*
X210009Y497987D01*
X210010Y497996D01*
X210011Y498000D01*
X210012Y498008D01*
X210012Y498009D01*
X210012Y498013D01*
X210013Y498021D01*
X210013Y498025D01*
X210014Y498025D01*
X210013Y498026D01*
X210014Y498034D01*
X210015Y498038D01*
X210016Y498047D01*
X210016Y498051D01*
X210017Y498059D01*
X210017Y498060D01*
X210018Y498064D01*
X210019Y498072D01*
X210019Y498076D01*
X210019Y498077D01*
X210020Y498085D01*
X210021Y498089D01*
X210022Y498098D01*
X210022Y498102D01*
X210023Y498110D01*
X210023Y498111D01*
X210024Y498115D01*
X210024Y498119D01*
X210025Y498123D01*
X210025Y498127D01*
X210025Y498128D01*
X210025Y498132D01*
X210026Y498140D01*
X210027Y498144D01*
X210027Y498145D01*
X210028Y498153D01*
X210028Y498157D01*
X210029Y498166D01*
X210029Y498167D01*
X210251Y498800D01*
X210608Y499368D01*
X211082Y499842D01*
X211650Y500199D01*
X212283Y500421D01*
X212950Y500496D01*
X213617Y500421D01*
X214250Y500199D01*
X214818Y499842D01*
X215292Y499368D01*
X215649Y498800D01*
X215871Y498167D01*
X215946Y497500D01*
X215946Y496000D01*
X215946Y495999D01*
X215997Y495611D01*
X215997Y495610D01*
X216147Y495248D01*
X216148Y495248D01*
X216148Y495247D01*
X216386Y494937D01*
X216387Y494937D01*
X216387Y494936D01*
X216697Y494698D01*
X216698Y494698D01*
X216698Y494697D01*
X217060Y494547D01*
X217061Y494547D01*
X217449Y494496D01*
X217450Y494496D01*
X221950Y494496D01*
X222596Y494411D01*
X223198Y494161D01*
X223715Y493765D01*
X224111Y493248D01*
X224361Y492646D01*
X224446Y492000D01*
X224445Y491996D01*
X224441Y491966D01*
X224441Y491962D01*
X224440Y491958D01*
X224440Y491953D01*
X224435Y491919D01*
X224435Y491915D01*
X224434Y491911D01*
X224433Y491907D01*
X224430Y491877D01*
X224429Y491877D01*
X224429Y491873D01*
X224428Y491868D01*
X224428Y491864D01*
X224423Y491830D01*
X224423Y491826D01*
X224422Y491822D01*
X224422Y491817D01*
X224418Y491788D01*
X224417Y491783D01*
X224417Y491779D01*
X224416Y491775D01*
X224412Y491741D01*
X224411Y491737D01*
X224410Y491732D01*
X224410Y491728D01*
X224406Y491698D01*
X224405Y491694D01*
X224405Y491690D01*
X224404Y491686D01*
X224400Y491652D01*
X224399Y491647D01*
X224399Y491643D01*
X224398Y491639D01*
X224394Y491609D01*
X224394Y491605D01*
X224393Y491601D01*
X224393Y491596D01*
X224388Y491562D01*
X224388Y491558D01*
X224387Y491554D01*
X224386Y491550D01*
X224383Y491520D01*
X224382Y491520D01*
X224382Y491516D01*
X224381Y491511D01*
X224381Y491507D01*
X224376Y491473D01*
X224376Y491469D01*
X224375Y491465D01*
X224375Y491460D01*
X224371Y491431D01*
X224370Y491426D01*
X224370Y491422D01*
X224369Y491418D01*
X224365Y491384D01*
X224364Y491380D01*
X224363Y491375D01*
X224363Y491371D01*
X224361Y491354D01*
X224111Y490752D01*
X223715Y490235D01*
X223198Y489839D01*
X222596Y489589D01*
X221950Y489504D01*
X212450Y489504D01*
G37*
%LPD*%
%LPC*%
G36*
X212283Y574579D02*
X212283Y574579D01*
X211650Y574801D01*
X211082Y575158D01*
X210608Y575632D01*
X210251Y576200D01*
X210029Y576833D01*
X209954Y577500D01*
X209954Y583000D01*
X210039Y583646D01*
X210289Y584248D01*
X210685Y584765D01*
X211202Y585161D01*
X211804Y585411D01*
X212450Y585496D01*
X221950Y585496D01*
X222596Y585411D01*
X223198Y585161D01*
X223715Y584765D01*
X224111Y584248D01*
X224361Y583646D01*
X224446Y583000D01*
X224361Y582354D01*
X224111Y581752D01*
X223715Y581235D01*
X223198Y580839D01*
X222596Y580589D01*
X221950Y580504D01*
X217450Y580504D01*
X217449Y580504D01*
X217061Y580453D01*
X217060Y580453D01*
X216698Y580303D01*
X216698Y580302D01*
X216697Y580302D01*
X216387Y580064D01*
X216387Y580063D01*
X216386Y580063D01*
X216148Y579753D01*
X216148Y579752D01*
X216147Y579752D01*
X215997Y579390D01*
X215997Y579389D01*
X215946Y579001D01*
X215946Y579000D01*
X215946Y577500D01*
X215871Y576833D01*
X215649Y576200D01*
X215292Y575632D01*
X214818Y575158D01*
X214250Y574801D01*
X213617Y574579D01*
X212950Y574504D01*
X212283Y574579D01*
G37*
%LPD*%
%LPC*%
G36*
X169500Y475304D02*
X169500Y475304D01*
X168854Y475389D01*
X168252Y475639D01*
X167735Y476035D01*
X167339Y476552D01*
X167089Y477154D01*
X167004Y477800D01*
X167089Y478446D01*
X167339Y479048D01*
X167735Y479565D01*
X168252Y479961D01*
X168854Y480211D01*
X169500Y480296D01*
X180500Y480296D01*
X181146Y480211D01*
X181748Y479961D01*
X182265Y479565D01*
X182661Y479048D01*
X182911Y478446D01*
X182996Y477800D01*
X182911Y477154D01*
X182661Y476552D01*
X182265Y476035D01*
X181748Y475639D01*
X181146Y475389D01*
X180500Y475304D01*
X169500Y475304D01*
G37*
%LPD*%
%LPC*%
G36*
X169500Y594704D02*
X169500Y594704D01*
X168854Y594789D01*
X168252Y595039D01*
X167735Y595435D01*
X167339Y595952D01*
X167089Y596554D01*
X167004Y597200D01*
X167089Y597846D01*
X167339Y598448D01*
X167735Y598965D01*
X168252Y599361D01*
X168854Y599611D01*
X169500Y599696D01*
X180500Y599696D01*
X181146Y599611D01*
X181748Y599361D01*
X182265Y598965D01*
X182661Y598448D01*
X182911Y597846D01*
X182996Y597200D01*
X182911Y596554D01*
X182661Y595952D01*
X182265Y595435D01*
X181748Y595039D01*
X181146Y594789D01*
X180500Y594704D01*
X169500Y594704D01*
G37*
%LPD*%
%LPC*%
G36*
X2665773Y1019973D02*
X2665773Y1019973D01*
X2665773Y1024287D01*
X2665968Y1024174D01*
X2667475Y1023018D01*
X2668818Y1021675D01*
X2669974Y1020168D01*
X2670087Y1019973D01*
X2665773Y1019973D01*
G37*
%LPD*%
%LPC*%
G36*
X2614973Y1004227D02*
X2614973Y1004227D01*
X2619287Y1004227D01*
X2619174Y1004032D01*
X2618018Y1002525D01*
X2616675Y1001182D01*
X2615168Y1000026D01*
X2614973Y999913D01*
X2614973Y1004227D01*
G37*
%LPD*%
%LPC*%
G36*
X2665773Y1004227D02*
X2665773Y1004227D01*
X2670087Y1004227D01*
X2669974Y1004032D01*
X2668818Y1002525D01*
X2667475Y1001182D01*
X2665968Y1000026D01*
X2665773Y999913D01*
X2665773Y1004227D01*
G37*
%LPD*%
%LPC*%
G36*
X2594913Y1019973D02*
X2594913Y1019973D01*
X2595026Y1020168D01*
X2596182Y1021675D01*
X2597525Y1023018D01*
X2599032Y1024174D01*
X2599227Y1024287D01*
X2599227Y1019973D01*
X2594913Y1019973D01*
G37*
%LPD*%
%LPC*%
G36*
X2665773Y1055027D02*
X2665773Y1055027D01*
X2670087Y1055027D01*
X2669974Y1054832D01*
X2668818Y1053325D01*
X2667475Y1051982D01*
X2665968Y1050826D01*
X2665773Y1050713D01*
X2665773Y1055027D01*
G37*
%LPD*%
%LPC*%
G36*
X2649832Y1000026D02*
X2649832Y1000026D01*
X2648325Y1001182D01*
X2646982Y1002525D01*
X2645826Y1004032D01*
X2645713Y1004227D01*
X2650027Y1004227D01*
X2650027Y999913D01*
X2649832Y1000026D01*
G37*
%LPD*%
%LPC*%
G36*
X2599032Y1000026D02*
X2599032Y1000026D01*
X2597525Y1001182D01*
X2596182Y1002525D01*
X2595026Y1004032D01*
X2594913Y1004227D01*
X2599227Y1004227D01*
X2599227Y999913D01*
X2599032Y1000026D01*
G37*
%LPD*%
%LPC*%
G36*
X2599032Y1050826D02*
X2599032Y1050826D01*
X2597525Y1051982D01*
X2596182Y1053325D01*
X2595026Y1054832D01*
X2594913Y1055027D01*
X2599227Y1055027D01*
X2599227Y1050713D01*
X2599032Y1050826D01*
G37*
%LPD*%
D10*
X448200Y1035400D03*
X389700Y1035400D03*
D11*
X666600Y950700D03*
X666600Y1008700D03*
X618600Y980700D03*
D12*
X1803800Y38100D03*
D13*
X1853800Y38100D03*
D12*
X733400Y38100D03*
D13*
X783400Y38100D03*
D12*
X1089000Y38100D03*
D13*
X1139000Y38100D03*
D14*
X1706600Y957770D03*
X1706600Y929830D03*
X1681200Y957770D03*
X1681200Y929830D03*
X1655800Y957770D03*
X1655800Y929830D03*
X1630400Y957770D03*
X1630400Y929830D03*
X1605000Y957770D03*
X1605000Y929830D03*
D12*
X2163100Y38100D03*
D13*
X2213100Y38100D03*
D12*
X2518700Y38100D03*
D13*
X2568700Y38100D03*
D12*
X1448200Y38100D03*
D13*
X1498200Y38100D03*
D15*
X869800Y1043500D02*
X869800Y1052500D01*
X882300Y1052500D02*
X882300Y1043500D01*
X894800Y1043500D02*
X894800Y1052500D01*
X907300Y1052500D02*
X907300Y1043500D01*
X919800Y1043500D02*
X919800Y1052500D01*
X933300Y1052500D02*
X933300Y1043500D01*
X945800Y1043500D02*
X945800Y1052500D01*
X958300Y1052500D02*
X958300Y1043500D01*
X970800Y1043500D02*
X970800Y1052500D01*
X983300Y1052500D02*
X983300Y1043500D01*
X996800Y1043500D02*
X996800Y1052500D01*
X1009300Y1052500D02*
X1009300Y1043500D01*
X1021800Y1043500D02*
X1021800Y1052500D01*
X1034300Y1052500D02*
X1034300Y1043500D01*
X1046800Y1043500D02*
X1046800Y1052500D01*
X1060300Y1052500D02*
X1060300Y1043500D01*
X1072800Y1043500D02*
X1072800Y1052500D01*
X1085300Y1052500D02*
X1085300Y1043500D01*
X1097800Y1043500D02*
X1097800Y1052500D01*
X1110300Y1052500D02*
X1110300Y1043500D01*
D16*
X172200Y890900D03*
D17*
X222200Y914900D03*
X222200Y866900D03*
X222200Y839900D03*
X222200Y941900D03*
D18*
X1344300Y911500D03*
X1369300Y911500D03*
X1394300Y911500D03*
X1344300Y1061500D03*
X1394300Y1061500D03*
D19*
X1322800Y986500D03*
X1415800Y986500D03*
D20*
X2388000Y905400D03*
X2464200Y905400D03*
D21*
X2474800Y800800D03*
X2373200Y800800D03*
X2474800Y843000D03*
X2373200Y843000D03*
D22*
X1380100Y798658D02*
X1380100Y784942D01*
X1354700Y784942D02*
X1354700Y798658D01*
D23*
X2632500Y1037500D03*
X2657900Y1062900D03*
X2657900Y1012100D03*
X2607100Y1012100D03*
X2607100Y1062900D03*
D14*
X2692500Y405000D03*
X2667100Y405000D03*
X2641700Y405000D03*
X2616300Y405000D03*
X2590900Y405000D03*
X2692500Y357500D03*
X2667100Y357500D03*
X2641700Y357500D03*
X2616300Y357500D03*
X2590900Y357500D03*
X2692500Y305000D03*
X2667100Y305000D03*
X2641700Y305000D03*
X2616300Y305000D03*
X2590900Y305000D03*
D24*
X1612500Y442500D03*
X1710000Y442500D03*
D25*
X1689105Y442500D02*
X1612500Y442500D01*
X1689105Y442500D02*
X1692265Y445660D01*
X1697736Y445660D01*
X1700896Y442500D01*
X1710000Y442500D01*
D24*
X2332500Y442500D03*
X2427152Y436934D03*
D25*
X2406805Y442500D02*
X2332500Y442500D01*
X2406805Y442500D02*
X2409765Y445460D01*
X2418626Y445460D01*
X2427152Y436934D01*
D24*
X195000Y572500D03*
X195000Y492500D03*
X260000Y455000D03*
X2390000Y310000D03*
X955000Y307500D03*
X1315000Y305000D03*
X1672500Y307500D03*
X600000Y307500D03*
X1680000Y395000D03*
X1670000Y385000D03*
X1640000Y380000D03*
X272500Y512500D03*
X307500Y690000D03*
X340000Y730000D03*
X325689Y940000D03*
X325000Y907500D03*
X537500Y432500D03*
X297500Y635000D03*
X322500Y635000D03*
X350000Y635000D03*
X472500Y542500D03*
X532500Y552500D03*
X415000Y505000D03*
X307500Y430000D03*
X272500Y340000D03*
X322500Y340000D03*
X437500Y457500D03*
X430000Y740000D03*
X462500Y740000D03*
X500000Y737500D03*
X537500Y737500D03*
X502500Y605000D03*
X317500Y462500D03*
X277500Y625000D03*
X255000Y667500D03*
X607500Y572500D03*
X645000Y608662D03*
X426162Y327500D03*
X657500Y771162D03*
X467500Y577500D03*
X694951Y607451D03*
X417500Y665896D03*
X635000Y755000D03*
X677500Y727500D03*
X707500Y772146D03*
X727500Y637500D03*
X790250Y598750D03*
X410000Y365000D03*
X462500Y255000D03*
X435000Y255000D03*
X380000Y310000D03*
X433750Y212500D03*
X392500Y1005000D03*
X690000Y827500D03*
X380000Y577500D03*
X375000Y275000D03*
X1595000Y740000D03*
X1462500Y772500D03*
X1470000Y825000D03*
X1405000Y652500D03*
X1400000Y677500D03*
X1250000Y650000D03*
X1547500Y582500D03*
X1855000Y155000D03*
X945000Y382500D03*
X2352500Y377500D03*
X2387500Y382500D03*
X2397500Y392500D03*
X955000Y397500D03*
X905000Y377500D03*
X867500Y335000D03*
X2545000Y887500D03*
X2542500Y832500D03*
X2542500Y845000D03*
X2542500Y812500D03*
X2542500Y800000D03*
X2542500Y787500D03*
X2627500Y665000D03*
X2677500Y685000D03*
X2732500Y722500D03*
X2645000Y747500D03*
X2762500Y540000D03*
X2745000Y577500D03*
X2755000Y582500D03*
X2720000Y632500D03*
X2622500Y645000D03*
X2722500Y440000D03*
X2561000Y539000D03*
X2582500Y620000D03*
X2437500Y512500D03*
X2377500Y645000D03*
X2402500Y645000D03*
X2570100Y709900D03*
X1448500Y723000D03*
X1458500Y723000D03*
X1468500Y723000D03*
X1478500Y723000D03*
X1488500Y723000D03*
X1498500Y723000D03*
X1508500Y723000D03*
X1518500Y723000D03*
X1528500Y723000D03*
X1538500Y723000D03*
X1548500Y723000D03*
X1558500Y723000D03*
X1448500Y733000D03*
X1458500Y733000D03*
X1468500Y733000D03*
X1478500Y733000D03*
X1488500Y733000D03*
X1498500Y733000D03*
X1508500Y733000D03*
X1518500Y733000D03*
X1528500Y733000D03*
X1538500Y733000D03*
X1548500Y733000D03*
X1558500Y733000D03*
X1448500Y713000D03*
X1458500Y713000D03*
X1468500Y713000D03*
X1478500Y713000D03*
X1488500Y713000D03*
X1498500Y713000D03*
X1508500Y713000D03*
X1518500Y713000D03*
X1528500Y713000D03*
X1538500Y713000D03*
X1548500Y713000D03*
X1558500Y713000D03*
X1448500Y703000D03*
X1458500Y703000D03*
X1468500Y703000D03*
X1478500Y703000D03*
X1488500Y703000D03*
X1498500Y703000D03*
X1508500Y703000D03*
X1518500Y703000D03*
X1528500Y703000D03*
X1538500Y703000D03*
X1548500Y703000D03*
X1558500Y703000D03*
X1448500Y693000D03*
X1458500Y693000D03*
X1468500Y693000D03*
X1478500Y693000D03*
X1488500Y693000D03*
X1498500Y693000D03*
X1508500Y693000D03*
X1518500Y693000D03*
X1528500Y693000D03*
X1538500Y693000D03*
X1548500Y693000D03*
X1558500Y693000D03*
X1448500Y683000D03*
X1458500Y683000D03*
X1468500Y683000D03*
X1478500Y683000D03*
X1488500Y683000D03*
X1498500Y683000D03*
X1508500Y683000D03*
X1518500Y683000D03*
X1528500Y683000D03*
X1538500Y683000D03*
X1548500Y683000D03*
X1558500Y683000D03*
X1448500Y623000D03*
X1458500Y623000D03*
X1468500Y623000D03*
X1478500Y623000D03*
X1488500Y623000D03*
X1498500Y623000D03*
X1508500Y623000D03*
X1518500Y623000D03*
X1528500Y623000D03*
X1538500Y623000D03*
X1548500Y623000D03*
X1558500Y623000D03*
X1448500Y633000D03*
X1458500Y633000D03*
X1468500Y633000D03*
X1478500Y633000D03*
X1488500Y633000D03*
X1498500Y633000D03*
X1508500Y633000D03*
X1518500Y633000D03*
X1528500Y633000D03*
X1538500Y633000D03*
X1548500Y633000D03*
X1558500Y633000D03*
X1448500Y643000D03*
X1458500Y643000D03*
X1468500Y643000D03*
X1478500Y643000D03*
X1488500Y643000D03*
X1498500Y643000D03*
X1508500Y643000D03*
X1518500Y643000D03*
X1528500Y643000D03*
X1538500Y643000D03*
X1548500Y643000D03*
X1558500Y643000D03*
X1448500Y653000D03*
X1458500Y653000D03*
X1468500Y653000D03*
X1478500Y653000D03*
X1488500Y653000D03*
X1498500Y653000D03*
X1508500Y653000D03*
X1518500Y653000D03*
X1528500Y653000D03*
X1538500Y653000D03*
X1548500Y653000D03*
X1558500Y653000D03*
X1448500Y663000D03*
X1458500Y663000D03*
X1468500Y663000D03*
X1478500Y663000D03*
X1488500Y663000D03*
X1498500Y663000D03*
X1508500Y663000D03*
X1518500Y663000D03*
X1528500Y663000D03*
X1538500Y663000D03*
X1548500Y663000D03*
X1558500Y663000D03*
X1448500Y673000D03*
X1458500Y673000D03*
X1468500Y673000D03*
X1478500Y673000D03*
X1488500Y673000D03*
X1498500Y673000D03*
X1508500Y673000D03*
X1518500Y673000D03*
X1528500Y673000D03*
X1538500Y673000D03*
X1548500Y673000D03*
X1558500Y673000D03*
X2598500Y583000D03*
X2608500Y583000D03*
X2618500Y583000D03*
X2628500Y583000D03*
X2638500Y583000D03*
X2648500Y583000D03*
X2658500Y583000D03*
X2668500Y583000D03*
X2678500Y583000D03*
X2688500Y583000D03*
X2698500Y583000D03*
X2708500Y583000D03*
X2598500Y593000D03*
X2608500Y593000D03*
X2618500Y593000D03*
X2628500Y593000D03*
X2638500Y593000D03*
X2648500Y593000D03*
X2658500Y593000D03*
X2668500Y593000D03*
X2678500Y593000D03*
X2688500Y593000D03*
X2698500Y593000D03*
X2708500Y593000D03*
X2598500Y573000D03*
X2608500Y573000D03*
X2618500Y573000D03*
X2628500Y573000D03*
X2638500Y573000D03*
X2648500Y573000D03*
X2658500Y573000D03*
X2668500Y573000D03*
X2678500Y573000D03*
X2688500Y573000D03*
X2698500Y573000D03*
X2708500Y573000D03*
X2598500Y563000D03*
X2608500Y563000D03*
X2618500Y563000D03*
X2628500Y563000D03*
X2638500Y563000D03*
X2648500Y563000D03*
X2658500Y563000D03*
X2668500Y563000D03*
X2678500Y563000D03*
X2688500Y563000D03*
X2698500Y563000D03*
X2708500Y563000D03*
X2598500Y553000D03*
X2608500Y553000D03*
X2618500Y553000D03*
X2628500Y553000D03*
X2638500Y553000D03*
X2658500Y553000D03*
X2668500Y553000D03*
X2678500Y553000D03*
X2688500Y553000D03*
X2698500Y553000D03*
X2708500Y553000D03*
X2598500Y543000D03*
X2608500Y543000D03*
X2618500Y543000D03*
X2628500Y543000D03*
X2638500Y543000D03*
X2648500Y543000D03*
X2658500Y543000D03*
X2668500Y543000D03*
X2678500Y543000D03*
X2688500Y543000D03*
X2698500Y543000D03*
X2708500Y543000D03*
X2598500Y483000D03*
X2608500Y483000D03*
X2618500Y483000D03*
X2628500Y483000D03*
X2638500Y483000D03*
X2648500Y483000D03*
X2658500Y483000D03*
X2668500Y483000D03*
X2678500Y483000D03*
X2688500Y483000D03*
X2698500Y483000D03*
X2708500Y483000D03*
X2598500Y493000D03*
X2608500Y493000D03*
X2618500Y493000D03*
X2628500Y493000D03*
X2638500Y493000D03*
X2648500Y493000D03*
X2658500Y493000D03*
X2668500Y493000D03*
X2678500Y493000D03*
X2688500Y493000D03*
X2698500Y493000D03*
X2708500Y493000D03*
X2598500Y503000D03*
X2608500Y503000D03*
X2618500Y503000D03*
X2628500Y503000D03*
X2638500Y503000D03*
X2648500Y503000D03*
X2658500Y503000D03*
X2668500Y503000D03*
X2678500Y503000D03*
X2688500Y503000D03*
X2698500Y503000D03*
X2708500Y503000D03*
X2598500Y513000D03*
X2608500Y513000D03*
X2618500Y513000D03*
X2628500Y513000D03*
X2638500Y513000D03*
X2648500Y513000D03*
X2658500Y513000D03*
X2668500Y513000D03*
X2678500Y513000D03*
X2688500Y513000D03*
X2698500Y513000D03*
X2708500Y513000D03*
X2598500Y523000D03*
X2608500Y523000D03*
X2618500Y523000D03*
X2628500Y523000D03*
X2638500Y523000D03*
X2648500Y523000D03*
X2658500Y523000D03*
X2668500Y523000D03*
X2678500Y523000D03*
X2688500Y523000D03*
X2698500Y523000D03*
X2708500Y523000D03*
X2598500Y533000D03*
X2608500Y533000D03*
X2618500Y533000D03*
X2628500Y533000D03*
X2638500Y533000D03*
X2648500Y533000D03*
X2658500Y533000D03*
X2668500Y533000D03*
X2678500Y533000D03*
X2688500Y533000D03*
X2698500Y533000D03*
X2708500Y533000D03*
X1745000Y832500D03*
X1765000Y847500D03*
X1702500Y802500D03*
X1702500Y825000D03*
X1762500Y857500D03*
X1677500Y730000D03*
X1735000Y752500D03*
X1735000Y722500D03*
X1627500Y335000D03*
X2580000Y452500D03*
X1530000Y952500D03*
X1742500Y637500D03*
X1712500Y645000D03*
X1682500Y645000D03*
X1652500Y647500D03*
X1265000Y680000D03*
X1142500Y567500D03*
X1025000Y567500D03*
X1107500Y650000D03*
X1770000Y637500D03*
X742500Y820000D03*
X793250Y776750D03*
X374670Y630330D03*
D25*
X419670Y630330D01*
X432500Y617500D01*
D24*
X432500Y617500D03*
X305000Y517500D03*
D25*
X243396Y625236D02*
X249765Y631604D01*
X305000Y521113D02*
X305000Y517500D01*
X305000Y521113D02*
X316048Y532161D01*
X263727Y608396D02*
X252265Y608396D01*
X316048Y556076D02*
X316048Y532161D01*
X316048Y556076D02*
X263727Y608396D01*
X252265Y608396D02*
X243396Y617265D01*
X243396Y625236D01*
X249765Y631604D02*
X261604Y631604D01*
X262500Y632500D01*
X372500Y632500D02*
X374670Y630330D01*
X290661Y632500D02*
X262500Y632500D01*
X366840Y632500D02*
X372500Y632500D01*
X366840Y632500D02*
X340811Y606471D01*
X316690Y606471D02*
X290661Y632500D01*
X316690Y606471D02*
X340811Y606471D01*
D24*
X305000Y660000D03*
X307500Y275000D03*
X2370000Y382500D03*
X1655000Y370000D03*
X925000Y382500D03*
X2507500Y907500D03*
X2502500Y822500D03*
X2653904Y655000D03*
X2682500Y637500D03*
X2702500Y640000D03*
X2595000Y637500D03*
X2742500Y477500D03*
X2755000Y477500D03*
X2747500Y550000D03*
X2740000Y607500D03*
X2640000Y627500D03*
X2682500Y442500D03*
X2702500Y442500D03*
X2550000Y557500D03*
X2770000Y625000D03*
X2410286Y502786D03*
X2420000Y497500D03*
X2420000Y647500D03*
X1745000Y800000D03*
X1745000Y815000D03*
X1750000Y877500D03*
X1762500Y785000D03*
X1652500Y682500D03*
X1682500Y682500D03*
X1712500Y682500D03*
X1742500Y682500D03*
X1767500Y682500D03*
X1460000Y585000D03*
X1577500Y557500D03*
D25*
X1579104Y548780D02*
X1579104Y543309D01*
X1577500Y550384D02*
X1577500Y557500D01*
X1577500Y550384D02*
X1579104Y548780D01*
X1579104Y543309D02*
X1561117Y525321D01*
X1479270Y525321D01*
X1460000Y544591D02*
X1460000Y585000D01*
X1460000Y544591D02*
X1479270Y525321D01*
D24*
X2360000Y565000D03*
D25*
X2355000Y570000D01*
X2355000Y610000D01*
D24*
X2355000Y610000D03*
X1469652Y581604D03*
X1572500Y546044D03*
D25*
X1492040Y532836D02*
X1476917Y532836D01*
X1469652Y540101D01*
X1469652Y581604D01*
X1505248Y546044D02*
X1572500Y546044D01*
X1505248Y546044D02*
X1492040Y532836D01*
D24*
X1479304Y581604D03*
D25*
X1479304Y539788D01*
X1479652Y539440D01*
D24*
X1479652Y539440D03*
X2345000Y557500D03*
D25*
X2340000Y562500D01*
X2340000Y610000D01*
D24*
X2340000Y610000D03*
X1488956Y582500D03*
D25*
X1488956Y539788D01*
X1489304Y539440D01*
D24*
X1489304Y539440D03*
D25*
X1046800Y1013200D02*
X1046800Y1048000D01*
X1275000Y785000D02*
X1277500Y782500D01*
D24*
X1307500Y575000D03*
D25*
X1275000Y785000D02*
X1046800Y1013200D01*
X1277500Y782500D02*
X1307500Y752500D01*
X1311604Y680236D02*
X1311604Y674765D01*
X1307500Y670661D02*
X1307500Y575000D01*
X1307500Y684340D02*
X1307500Y752500D01*
X1311604Y674765D02*
X1307500Y670661D01*
X1311604Y680236D02*
X1307500Y684340D01*
D24*
X1307500Y565348D03*
X1017500Y1017500D03*
D25*
X1307500Y565661D02*
X1307500Y565348D01*
X1298396Y736604D02*
X1017500Y1017500D01*
X1298396Y574765D02*
X1307500Y565661D01*
X1298396Y574765D02*
X1298396Y736604D01*
X976641Y1042159D02*
X970800Y1048000D01*
X976641Y1042159D02*
X976641Y1040742D01*
D24*
X1307500Y555696D03*
D25*
X1282500Y562500D02*
X1282500Y734883D01*
X1282500Y562500D02*
X1289304Y555696D01*
X1307500Y555696D01*
X1282500Y734883D02*
X976641Y1040742D01*
X964141Y1042159D02*
X958300Y1048000D01*
X964141Y1042159D02*
X964141Y1040742D01*
D24*
X1307500Y546044D03*
D25*
X1279071Y561080D02*
X1279071Y725812D01*
X1279071Y561080D02*
X1287884Y552267D01*
X1301277Y552267D01*
X1307500Y546044D01*
X1279071Y725812D02*
X964141Y1040742D01*
D24*
X1555004Y775348D03*
D25*
X1670000Y775348D01*
X1672152Y775348D01*
D24*
X1742500Y775000D03*
D25*
X1742152Y775348D02*
X1672152Y775348D01*
X1742152Y775348D02*
X1742500Y775000D01*
D24*
X1552500Y785000D03*
X1785000Y790000D03*
D25*
X1759765Y778396D02*
X1753161Y785000D01*
X1759765Y778396D02*
X1773396Y778396D01*
X1785000Y790000D01*
X1753161Y785000D02*
X1552500Y785000D01*
D24*
X1552500Y795000D03*
X1774652Y790000D03*
D25*
X1680184Y792467D02*
X1677651Y795000D01*
X1762265Y796604D02*
X1768048Y796604D01*
X1758128Y792467D02*
X1680184Y792467D01*
X1758128Y792467D02*
X1762265Y796604D01*
X1768048Y796604D02*
X1774652Y790000D01*
X1677651Y795000D02*
X1552500Y795000D01*
D24*
X625000Y870896D03*
D25*
X685000Y870896D01*
D24*
X685000Y870896D03*
X787500Y927500D03*
D25*
X741604Y927500D01*
X685000Y870896D01*
D24*
X2400000Y588486D03*
D25*
X2400000Y558396D01*
X2399104Y557500D01*
D24*
X2399104Y557500D03*
X1230000Y705000D03*
X1307500Y535000D03*
D25*
X1275642Y659358D02*
X1230000Y705000D01*
X1275642Y659358D02*
X1275642Y559659D01*
X1286463Y548838D01*
X1293662Y548838D01*
X1307500Y535000D01*
D24*
X321050Y523290D03*
X384398Y488219D03*
D25*
X355896Y488444D02*
X321050Y523290D01*
X355896Y488444D02*
X355896Y484765D01*
X359765Y480896D01*
X365236Y480896D01*
X372559Y488219D02*
X384398Y488219D01*
X367170Y482830D02*
X365236Y480896D01*
X367170Y482830D02*
X372559Y488219D01*
X367170Y482830D02*
X375000Y475000D01*
X375000Y457500D01*
D24*
X375000Y457500D03*
X327643Y657643D03*
D25*
X327643Y697643D01*
X360000Y730000D01*
D24*
X360000Y730000D03*
X637500Y890708D03*
D25*
X675000Y890708D01*
D26*
X2590900Y405000D02*
X2590900Y372500D01*
D25*
X2590900Y357500D01*
D26*
X2590900Y305000D01*
X2590900Y372500D02*
X2439740Y372500D01*
X2027500Y685000D02*
X2007500Y685000D01*
D24*
X2007500Y685000D03*
D26*
X2027500Y685000D02*
X2359550Y352950D01*
D25*
X876459Y1055258D02*
X872558Y1059159D01*
X876459Y1055258D02*
X876459Y1053841D01*
X882300Y1048000D01*
X872558Y1059159D02*
X843451Y1059159D01*
X675000Y890708D01*
X882300Y1048000D02*
X894800Y1048000D01*
X1496800Y1048000D02*
X1517500Y1027300D01*
D24*
X1517500Y1027300D03*
D25*
X904542Y1059159D02*
X900641Y1055258D01*
X900641Y1053841D02*
X894800Y1048000D01*
X900641Y1053841D02*
X900641Y1055258D01*
X1124217Y1048000D02*
X1496800Y1048000D01*
X1124217Y1048000D02*
X1113058Y1059159D01*
X904542Y1059159D01*
X321050Y576451D02*
X321050Y523290D01*
X321050Y576451D02*
X312500Y585000D01*
X312500Y593821D01*
X316661Y595661D01*
D24*
X316661Y595661D03*
X317500Y647500D03*
D25*
X327643Y657643D01*
D26*
X2359550Y352950D02*
X2359822Y352950D01*
X2375686Y337086D01*
X2404326Y337086D01*
X2439740Y372500D01*
D24*
X1602500Y697848D03*
D25*
X2445065Y697848D01*
X2520000Y772783D01*
D24*
X2520000Y772783D03*
X2520000Y782500D03*
D25*
X2445000Y707500D01*
X1602500Y707500D01*
D24*
X1602500Y707500D03*
X625000Y884104D03*
D25*
X665000Y884104D01*
D24*
X665000Y884104D03*
X1497500Y867500D03*
D25*
X1525000Y840000D01*
X1525000Y817500D01*
D24*
X1525000Y817500D03*
X637500Y904104D03*
D25*
X674104Y904104D01*
X675000Y905000D01*
D24*
X675000Y905000D03*
X1497500Y857500D03*
D25*
X1517500Y837500D01*
X1517500Y807500D01*
D24*
X1517500Y807500D03*
X625000Y897500D03*
D25*
X665000Y897500D01*
D24*
X665000Y897500D03*
X1495000Y847500D03*
D25*
X1507500Y835000D01*
X1507500Y817500D01*
D24*
X1507500Y817500D03*
X637500Y877500D03*
D25*
X675000Y877500D01*
D24*
X675000Y877500D03*
X1506796Y795000D03*
X1495000Y834292D03*
D25*
X1506796Y808865D02*
X1506796Y795000D01*
X1506796Y808865D02*
X1500896Y814765D01*
X1500896Y828396D02*
X1495000Y834292D01*
X1500896Y828396D02*
X1500896Y814765D01*
D24*
X625000Y910708D03*
D25*
X665000Y910708D01*
D24*
X665000Y910708D03*
X1315000Y697500D03*
D25*
X1315000Y865000D01*
D24*
X1315000Y865000D03*
X637500Y920000D03*
D25*
X675000Y920000D01*
D24*
X675000Y920000D03*
X1325000Y872500D03*
D25*
X1325000Y697974D01*
X1337500Y685474D01*
D24*
X1337500Y685474D03*
X2475000Y557500D03*
D25*
X2475000Y590000D01*
X2457500Y607500D01*
D24*
X2457500Y607500D03*
X2462500Y557500D03*
D25*
X2462500Y587500D01*
X2442500Y607500D01*
D24*
X2442500Y607500D03*
X2430000Y607500D03*
D25*
X2450000Y587500D01*
X2450000Y557500D01*
D24*
X2450000Y557500D03*
X1630000Y452500D03*
D27*
X1632500Y450000D01*
X1685000Y450000D01*
D24*
X1685000Y450000D03*
X905000Y455000D03*
D27*
X910000Y450000D01*
X957500Y450000D01*
D24*
X957500Y450000D03*
X2350000Y452500D03*
D27*
X2351264Y449236D01*
X2426500Y449236D01*
D24*
X2426500Y449236D03*
X2393227Y512719D03*
X2392500Y597500D03*
D25*
X2392500Y513446D02*
X2393227Y512719D01*
X2392500Y513446D02*
X2392500Y597500D01*
D24*
X2617500Y627500D03*
X2545000Y540000D03*
X2658904Y445000D03*
D25*
X2651952Y451952D02*
X2650702Y453202D01*
D24*
X2662500Y432500D03*
X2750000Y527500D03*
D26*
X2545000Y537772D02*
X2545000Y540000D01*
X2550272Y532500D01*
X2643202Y460702D02*
X2650702Y453202D01*
X2558186Y527086D02*
X2550272Y532500D01*
X2558186Y527086D02*
X2565000Y527086D01*
X2651952Y451952D02*
X2658904Y445000D01*
X2662500Y441404D01*
X2662500Y432500D01*
X2650702Y453202D02*
X2661250Y463750D01*
X2732500Y527500D02*
X2750000Y527500D01*
D24*
X2498469Y701853D03*
D28*
X2585000Y467500D02*
X2636404Y467500D01*
X2643202Y460702D01*
X2577500Y514586D02*
X2565000Y527086D01*
X2725000Y520000D02*
X2732500Y527500D01*
X2725000Y520000D02*
X2725000Y477500D01*
X2715000Y467500D02*
X2665000Y467500D01*
X2661250Y463750D01*
X2715000Y467500D02*
X2725000Y477500D01*
X2585000Y467500D02*
X2577500Y475000D01*
X2577500Y514586D01*
X2572822Y627500D02*
X2498469Y701853D01*
X2572822Y627500D02*
X2575386Y627500D01*
X2578220Y630334D01*
X2590720Y627166D02*
X2599281Y627166D01*
X2599615Y627500D01*
X2617500Y627500D01*
X2587552Y630334D02*
X2578220Y630334D01*
X2587552Y630334D02*
X2590720Y627166D01*
X2744281Y617834D02*
X2750334Y611781D01*
X2750334Y603220D01*
X2625386Y627500D02*
X2617500Y627500D01*
X2750000Y602886D02*
X2750334Y603220D01*
X2750000Y602886D02*
X2750000Y597500D01*
X2635720Y637834D02*
X2625386Y627500D01*
X2635720Y637834D02*
X2667552Y637834D01*
X2687552Y617834D01*
X2744281Y617834D01*
X2759281Y592834D02*
X2765334Y586781D01*
X2765334Y578220D01*
X2759281Y572166D01*
X2737166Y554281D02*
X2737166Y545720D01*
X2754666Y592834D02*
X2750000Y597500D01*
X2754666Y592834D02*
X2759281Y592834D01*
X2750000Y532886D02*
X2750000Y527500D01*
X2750000Y532886D02*
X2737166Y545720D01*
X2755052Y572166D02*
X2759281Y572166D01*
X2755052Y572166D02*
X2737166Y554281D01*
D24*
X2375000Y475000D03*
D27*
X2396500Y475000D01*
D24*
X2396500Y475000D03*
X957500Y468412D03*
D27*
X925032Y468412D01*
X920944Y472500D01*
D24*
X920944Y472500D03*
X1647444Y470000D03*
D27*
X1650032Y468412D01*
X1685000Y468412D01*
D24*
X1685000Y468412D03*
X2367500Y467500D03*
D27*
X2369088Y465912D01*
X2405500Y465912D01*
D24*
X2405500Y465912D03*
X915000Y462500D03*
D27*
X918176Y459324D01*
X967500Y459324D01*
D24*
X967500Y459324D03*
X1640000Y462500D03*
D27*
X1643176Y459324D01*
X1695000Y459324D01*
D24*
X1695000Y459324D03*
X2360000Y460000D03*
D27*
X2363176Y456824D01*
X2415000Y456824D01*
D24*
X2415000Y456824D03*
X2755000Y490000D03*
D25*
X2665499Y425261D02*
X2659502Y425261D01*
X2675896Y445236D02*
X2679765Y449104D01*
X2735896Y480236D02*
X2739765Y484104D01*
X2749104Y484104D02*
X2755000Y490000D01*
X2735896Y480236D02*
X2735896Y470896D01*
X2739765Y484104D02*
X2749104Y484104D01*
X2639763Y445000D02*
X2577500Y445000D01*
X2714104Y449104D02*
X2735896Y470896D01*
X2659502Y425261D02*
X2639763Y445000D01*
X2679765Y449104D02*
X2714104Y449104D01*
X2675896Y435659D02*
X2665499Y425261D01*
X2675896Y435659D02*
X2675896Y445236D01*
X2565676Y456824D02*
X2415000Y456824D01*
X2565676Y456824D02*
X2577500Y445000D01*
D24*
X2362500Y487500D03*
D27*
X2475000Y487500D01*
D24*
X2475000Y487500D03*
X1522500Y127500D03*
X1517500Y132500D03*
X1527500Y122500D03*
X1527500Y132500D03*
X1517500Y122500D03*
D26*
X1522500Y127500D02*
X1517500Y132500D01*
X1522500Y127500D02*
X1527500Y132500D01*
X1522500Y127500D02*
X1517500Y122500D01*
X1527500Y122500D01*
X1527500Y132500D01*
X1517500Y132500D02*
X1517500Y122500D01*
X1517500Y132500D02*
X1527500Y132500D01*
D24*
X1782500Y127500D03*
X1777500Y122500D03*
X1787500Y132500D03*
X1787500Y122500D03*
X1777500Y132500D03*
D26*
X1782500Y127500D02*
X1777500Y122500D01*
X1782500Y127500D02*
X1777500Y132500D01*
X1782500Y127500D02*
X1787500Y132500D01*
X1782500Y127500D02*
X1787500Y122500D01*
X1777500Y122500D01*
X1777500Y132500D01*
X1787500Y132500D01*
X1787500Y122500D01*
X1782500Y127500D02*
X1567500Y127500D01*
D24*
X1170000Y127500D03*
D26*
X1522500Y127500D02*
X1567500Y127500D01*
D24*
X1075000Y125000D03*
D26*
X810000Y125000D01*
D24*
X810000Y125000D03*
D26*
X1170000Y127500D02*
X1312500Y127500D01*
D24*
X1427500Y127500D03*
D26*
X1312500Y127500D01*
D24*
X1882500Y125000D03*
D26*
X2142500Y125000D01*
D24*
X2142500Y125000D03*
X2237500Y125000D03*
D29*
X2492500Y125000D03*
D26*
X2270000Y125000D02*
X2237500Y125000D01*
X2270000Y125000D02*
X2492500Y125000D01*
D29*
X2587500Y125000D03*
D26*
X2737500Y125000D01*
D29*
X2737500Y125000D03*
D24*
X625000Y552500D03*
X607500Y650000D03*
X575000Y705000D03*
X575000Y822500D03*
D28*
X1312500Y127500D02*
X1317500Y132500D01*
X666600Y1008400D02*
X666600Y1008700D01*
X707500Y185000D02*
X695000Y172500D01*
D24*
X695000Y172500D03*
D28*
X704666Y209281D02*
X707500Y212115D01*
X704666Y209281D02*
X704666Y200720D01*
X707500Y197886D01*
X707500Y190000D01*
X707500Y185000D01*
D24*
X2270000Y267500D03*
D26*
X707500Y190000D02*
X625000Y272500D01*
X575000Y272500D01*
X547500Y300000D01*
X547500Y337500D01*
D24*
X547500Y337500D03*
D26*
X625000Y552500D02*
X625000Y627500D01*
X607500Y645000D02*
X607500Y650000D01*
X607500Y645000D02*
X625000Y627500D01*
X575000Y705000D02*
X575000Y822500D01*
X725000Y372500D02*
X625000Y272500D01*
X725000Y372500D02*
X830000Y372500D01*
D24*
X830000Y372500D03*
D26*
X1567500Y322500D02*
X1567500Y127500D01*
X1567500Y322500D02*
X1587500Y342500D01*
D24*
X1587500Y342500D03*
D26*
X2270000Y267500D02*
X2270000Y125000D01*
D24*
X2531000Y267700D03*
D27*
X2493400Y226600D01*
X2493400Y146600D01*
X2517500Y122500D01*
X2517500Y105000D01*
D24*
X2517500Y105000D03*
X2521944Y279400D03*
X2486344Y177800D03*
D27*
X2521944Y265835D02*
X2521944Y279400D01*
X2521944Y265835D02*
X2488876Y230267D01*
X2488876Y180332D02*
X2486344Y177800D01*
X2488876Y180332D02*
X2488876Y230267D01*
D24*
X2539264Y279400D03*
D27*
X2539264Y262264D01*
X2505600Y228600D01*
D24*
X2505600Y228600D03*
X2561400Y279400D03*
D27*
X2561400Y254000D01*
X2510600Y203200D01*
D24*
X2510600Y203200D03*
X2412500Y438856D03*
D27*
X2412500Y380000D01*
X2380000Y347500D01*
D24*
X2380000Y347500D03*
X2172000Y269800D03*
D27*
X2172000Y239800D01*
X2157000Y224800D01*
D24*
X2157000Y224800D03*
X2194444Y278400D03*
D27*
X2144644Y228600D02*
X2137300Y228600D01*
D24*
X2137300Y228600D03*
D27*
X2162944Y272516D02*
X2169284Y278856D01*
X2192400Y278856D02*
X2194444Y278400D01*
X2162944Y251900D02*
X2144644Y228600D01*
X2169284Y278856D02*
X2192400Y278856D01*
X2162944Y272516D02*
X2162944Y251900D01*
D24*
X2185080Y288064D03*
X2213500Y228600D03*
D27*
X2187188Y285956D02*
X2185080Y288064D01*
X2187188Y285956D02*
X2198160Y285956D01*
X2213500Y270616D01*
X2213500Y228600D01*
D24*
X2251600Y266700D03*
D27*
X2251600Y190500D01*
D24*
X2251600Y190500D03*
X2202000Y267300D03*
D27*
X2202000Y137300D01*
X2169500Y104800D01*
D24*
X2169500Y104800D03*
X1655000Y477500D03*
D27*
X1695000Y477500D01*
D24*
X1695000Y477500D03*
X1832500Y272500D03*
D27*
X1832500Y112500D01*
X1827500Y107500D01*
D24*
X1827500Y107500D03*
X1807500Y305000D03*
D27*
X1807500Y214272D01*
X1803444Y210216D01*
X1803444Y202284D01*
X1807500Y198228D01*
X1807500Y185000D01*
D24*
X1807500Y185000D03*
X1840364Y285364D03*
D27*
X1825364Y285364D01*
X1820000Y280000D02*
X1820000Y220000D01*
D24*
X1820000Y220000D03*
D27*
X1820000Y280000D02*
X1825364Y285364D01*
D24*
X1857500Y297500D03*
D27*
X1827500Y297500D01*
X1812500Y282500D01*
X1812500Y205000D01*
D24*
X1812500Y205000D03*
X1470910Y263090D03*
D27*
X1470910Y128410D01*
X1447500Y105000D01*
D24*
X1447500Y105000D03*
X1482500Y262500D03*
D27*
X1542500Y202500D01*
X1542500Y180000D01*
D24*
X1542500Y180000D03*
D27*
X1500000Y272500D02*
X1498492Y274008D01*
D24*
X1545000Y227500D03*
D27*
X1500000Y272500D01*
D24*
X1464000Y281008D03*
D25*
X1491492Y281008D02*
X1500000Y272500D01*
X1491492Y281008D02*
X1464000Y281008D01*
D24*
X1471500Y273952D03*
D27*
X1431556Y234008D01*
X1431556Y227500D01*
D24*
X1431556Y227500D03*
X1456500Y288564D03*
X1522500Y282500D03*
D27*
X1500802Y288564D02*
X1456500Y288564D01*
X1500802Y288564D02*
X1507390Y282976D01*
X1522024Y282976D02*
X1522500Y282500D01*
X1522024Y282976D02*
X1507390Y282976D01*
D24*
X1447500Y280000D03*
D27*
X1422500Y255000D01*
X1422500Y205000D01*
D24*
X1422500Y205000D03*
X1695000Y439056D03*
D27*
X1695000Y372500D01*
X1665000Y347500D01*
D24*
X1665000Y347500D03*
X930000Y477500D03*
D27*
X967500Y477500D01*
D24*
X967500Y477500D03*
X762500Y262500D03*
D27*
X725000Y225000D01*
D24*
X725000Y225000D03*
X755000Y275000D03*
D27*
X775728Y275000D01*
X796614Y256614D01*
D24*
X796614Y256614D03*
X770000Y250000D03*
D27*
X732500Y212500D01*
X732500Y105000D01*
D24*
X732500Y105000D03*
X777500Y240000D03*
D27*
X777500Y165000D01*
D24*
X777500Y165000D03*
X740000Y280000D03*
D27*
X715000Y257500D01*
X715000Y205000D01*
D24*
X715000Y205000D03*
X749088Y285000D03*
D27*
X787500Y285000D01*
X797500Y275000D01*
D24*
X797500Y275000D03*
X967500Y439056D03*
D27*
X967500Y375000D01*
X940000Y347500D01*
D24*
X940000Y347500D03*
X1132500Y290000D03*
D27*
X1090000Y290000D01*
X1075000Y275000D02*
X1075000Y207500D01*
D24*
X1075000Y207500D03*
D27*
X1075000Y275000D02*
X1090000Y290000D01*
D24*
X1130000Y260000D03*
D27*
X1130000Y130000D01*
X1105000Y105000D01*
D24*
X1105000Y105000D03*
X1117500Y247500D03*
D27*
X1117500Y150000D01*
D24*
X1117500Y150000D03*
X1107500Y282500D03*
D27*
X1083556Y256556D01*
X1083556Y230000D01*
D24*
X1083556Y230000D03*
X1517500Y1000000D03*
D25*
X1555000Y962500D01*
X1555000Y907500D01*
X1630000Y832500D01*
X1660000Y832500D01*
X1660000Y822500D01*
D24*
X1660000Y822500D03*
X1635000Y768744D03*
D25*
X1635000Y723048D01*
X1643944Y714104D01*
D24*
X1643944Y714104D03*
X1547500Y897500D03*
X1650000Y822500D03*
X1624388Y768100D03*
D25*
X1624388Y714717D01*
X1625000Y714104D01*
D24*
X1625000Y714104D03*
D25*
X1622500Y822500D02*
X1547500Y897500D01*
X1622500Y822500D02*
X1650000Y822500D01*
D24*
X1530000Y1050000D03*
D25*
X1558429Y1021571D01*
X1558429Y912500D01*
D24*
X1670000Y822500D03*
D25*
X1635000Y835929D02*
X1558429Y912500D01*
X1635000Y835929D02*
X1661420Y835929D01*
X1663429Y833920D01*
X1663429Y829071D01*
X1670000Y822500D01*
D24*
X1647500Y768744D03*
X1647500Y742500D03*
D25*
X1647500Y768744D01*
D24*
X422654Y574979D03*
X500000Y675000D03*
X1135000Y525000D03*
D25*
X600000Y575000D02*
X599626Y575374D01*
D24*
X1592500Y755000D03*
X1442500Y772500D03*
X1410000Y715000D03*
X1405000Y630000D03*
X1395000Y665000D03*
X1445000Y585000D03*
X1572500Y587500D03*
D30*
X1135000Y525000D02*
X838200Y525000D01*
X628161Y525000D01*
X599626Y553535D01*
X599626Y570000D01*
X599626Y575000D01*
X598750Y576250D02*
X500000Y675000D01*
X422654Y597654D02*
X422654Y574979D01*
X440374Y615374D02*
X500000Y675000D01*
X440374Y615374D02*
X440374Y614238D01*
X435762Y609626D01*
X434626Y609626D01*
X422654Y597654D01*
D25*
X598750Y576250D02*
X599626Y575374D01*
X599626Y570000D01*
D24*
X1660000Y765000D03*
D25*
X1809792Y800800D02*
X2373200Y800800D01*
X1663396Y768396D02*
X1660000Y765000D01*
X1663396Y768396D02*
X1777388Y768396D01*
X1809792Y800800D01*
D24*
X309444Y534896D03*
X267500Y590819D03*
D25*
X270675Y587644D01*
X279631Y587644D01*
X309444Y557831D01*
X309444Y534896D01*
X252500Y565000D02*
X245000Y565000D01*
X252500Y565000D02*
X252500Y567500D01*
X256500Y571500D01*
X261500Y571500D01*
D24*
X245000Y565000D03*
X261500Y562500D03*
X270500Y573000D03*
D25*
X264000Y573000D02*
X261500Y571500D01*
X264000Y573000D02*
X270500Y573000D01*
X261500Y571500D02*
X261500Y562500D01*
D24*
X195000Y532500D03*
D25*
X194925Y532500D01*
X243210Y580786D01*
X274290Y580786D01*
X281288Y573788D01*
X281288Y563788D01*
X280000Y562500D01*
D24*
X280000Y562500D03*
X195000Y542500D03*
X290063Y562438D03*
D25*
X290063Y569862D02*
X275710Y584215D01*
X290063Y569862D02*
X290063Y562438D01*
X275710Y584215D02*
X241790Y584215D01*
X200075Y542500D02*
X195000Y542500D01*
X200075Y542500D02*
X241790Y584215D01*
D24*
X332500Y592500D03*
X388577Y502500D03*
D25*
X388577Y538923D01*
X332500Y592500D01*
X388577Y538923D02*
X414980Y565327D01*
D24*
X422908Y565327D03*
X252500Y625000D03*
D25*
X255896Y621604D02*
X260896Y621604D01*
X255896Y621604D02*
X252500Y625000D01*
X260896Y621604D02*
X290000Y592500D01*
X414980Y565327D02*
X422908Y565327D01*
X319396Y602265D02*
X313925Y602265D01*
X329161Y592500D02*
X332500Y592500D01*
X329161Y592500D02*
X319396Y602265D01*
X304161Y592500D02*
X290000Y592500D01*
X304161Y592500D02*
X313925Y602265D01*
D24*
X305000Y490000D03*
D25*
X345000Y490000D01*
D24*
X345000Y490000D03*
X460000Y523290D03*
D25*
X467500Y515790D01*
X467500Y427500D01*
D24*
X467500Y427500D03*
X670000Y615000D03*
D25*
X670000Y597500D01*
D24*
X670000Y597500D03*
X448750Y303897D03*
D25*
X428603Y303897D01*
X425000Y307500D01*
D24*
X425000Y307500D03*
X680000Y772146D03*
D25*
X680000Y797911D01*
X680088Y797999D01*
D24*
X680088Y797999D03*
X675000Y624646D03*
D25*
X772854Y624646D01*
X777500Y620000D01*
D24*
X777500Y620000D03*
X750000Y790000D03*
D25*
X777500Y790000D01*
D24*
X777500Y790000D03*
X338075Y613075D03*
X462500Y677500D03*
D25*
X402500Y677500D02*
X338075Y613075D01*
X402500Y677500D02*
X462500Y677500D01*
D24*
X378925Y501425D03*
X362500Y487500D03*
D25*
X376425Y501425D01*
X378925Y501425D01*
D24*
X257500Y510000D03*
X250000Y532848D03*
D25*
X257500Y525348D01*
X257500Y510000D01*
D24*
X239585Y514585D03*
X195712Y522062D03*
D25*
X220258Y518082D02*
X228153Y514585D01*
X239585Y514585D01*
X220258Y518082D02*
X199692Y518082D01*
X195712Y522062D01*
D24*
X240348Y532860D03*
D25*
X240348Y527152D01*
X247500Y520000D01*
X247500Y512500D01*
X242500Y507500D01*
D24*
X189425Y550575D03*
D25*
X189425Y546265D02*
X188396Y545236D01*
X189425Y546265D02*
X189425Y550575D01*
X194477Y511958D02*
X220930Y511958D01*
X230388Y507500D01*
X194477Y511958D02*
X188396Y518039D01*
X188396Y545236D01*
X230388Y507500D02*
X242500Y507500D01*
D24*
X230888Y557500D03*
X230888Y521189D03*
D25*
X230888Y557500D01*
D24*
X1552500Y805000D03*
D25*
X1672500Y805000D01*
D24*
X1800000Y800348D03*
D25*
X1753992Y800348D01*
X1747736Y806604D01*
X1715944Y806604D01*
X1705236Y795896D01*
X1681604Y795896D01*
X1672500Y805000D01*
D24*
X1552500Y815000D03*
D25*
X1667500Y815000D01*
X1670000Y815000D01*
D24*
X1800000Y810000D03*
D25*
X1735661Y815000D02*
X1670000Y815000D01*
X1735661Y815000D02*
X1742265Y821604D01*
X1788396Y821604D01*
X1800000Y810000D01*
D24*
X2613500Y1045500D03*
X2613500Y1031000D03*
X2620500Y1023500D03*
X2619000Y999000D03*
X2619000Y981000D03*
X2646000Y981000D03*
X2646000Y999000D03*
X2644500Y1023500D03*
X2652000Y1031000D03*
X2651500Y1045500D03*
X2632500Y1058000D03*
M02*
