G04 EAGLE Gerber X2 export*
%TF.Part,Single*%
%TF.FileFunction,Other,Silk screen SOL*%
%TF.FilePolarity,Positive*%
%TF.GenerationSoftware,Autodesk,EAGLE,9.0.0*%
%TF.CreationDate,2018-06-13T06:26:53Z*%
G75*
%MOMM*%
%FSLAX34Y34*%
%LPD*%
%AMOC8*
5,1,8,0,0,1.08239X$1,22.5*%
G01*
%ADD10C,0.000000*%
%ADD11C,0.203200*%


D10*
X140000Y-12700D02*
X2837700Y-12700D01*
X2838200Y1090000D01*
X140000Y1090000D01*
X140000Y-12700D01*
X206100Y76200D02*
X206107Y76752D01*
X206127Y77304D01*
X206161Y77855D01*
X206208Y78405D01*
X206269Y78954D01*
X206344Y79501D01*
X206431Y80047D01*
X206532Y80590D01*
X206647Y81130D01*
X206774Y81667D01*
X206915Y82201D01*
X207069Y82731D01*
X207236Y83258D01*
X207415Y83780D01*
X207608Y84298D01*
X207813Y84810D01*
X208030Y85318D01*
X208260Y85820D01*
X208502Y86316D01*
X208757Y86806D01*
X209023Y87290D01*
X209301Y87767D01*
X209591Y88237D01*
X209892Y88700D01*
X210204Y89156D01*
X210528Y89603D01*
X210862Y90043D01*
X211207Y90474D01*
X211563Y90896D01*
X211929Y91310D01*
X212304Y91715D01*
X212690Y92110D01*
X213085Y92496D01*
X213490Y92871D01*
X213904Y93237D01*
X214326Y93593D01*
X214757Y93938D01*
X215197Y94272D01*
X215644Y94596D01*
X216100Y94908D01*
X216563Y95209D01*
X217033Y95499D01*
X217510Y95777D01*
X217994Y96043D01*
X218484Y96298D01*
X218980Y96540D01*
X219482Y96770D01*
X219990Y96987D01*
X220502Y97192D01*
X221020Y97385D01*
X221542Y97564D01*
X222069Y97731D01*
X222599Y97885D01*
X223133Y98026D01*
X223670Y98153D01*
X224210Y98268D01*
X224753Y98369D01*
X225299Y98456D01*
X225846Y98531D01*
X226395Y98592D01*
X226945Y98639D01*
X227496Y98673D01*
X228048Y98693D01*
X228600Y98700D01*
X229152Y98693D01*
X229704Y98673D01*
X230255Y98639D01*
X230805Y98592D01*
X231354Y98531D01*
X231901Y98456D01*
X232447Y98369D01*
X232990Y98268D01*
X233530Y98153D01*
X234067Y98026D01*
X234601Y97885D01*
X235131Y97731D01*
X235658Y97564D01*
X236180Y97385D01*
X236698Y97192D01*
X237210Y96987D01*
X237718Y96770D01*
X238220Y96540D01*
X238716Y96298D01*
X239206Y96043D01*
X239690Y95777D01*
X240167Y95499D01*
X240637Y95209D01*
X241100Y94908D01*
X241556Y94596D01*
X242003Y94272D01*
X242443Y93938D01*
X242874Y93593D01*
X243296Y93237D01*
X243710Y92871D01*
X244115Y92496D01*
X244510Y92110D01*
X244896Y91715D01*
X245271Y91310D01*
X245637Y90896D01*
X245993Y90474D01*
X246338Y90043D01*
X246672Y89603D01*
X246996Y89156D01*
X247308Y88700D01*
X247609Y88237D01*
X247899Y87767D01*
X248177Y87290D01*
X248443Y86806D01*
X248698Y86316D01*
X248940Y85820D01*
X249170Y85318D01*
X249387Y84810D01*
X249592Y84298D01*
X249785Y83780D01*
X249964Y83258D01*
X250131Y82731D01*
X250285Y82201D01*
X250426Y81667D01*
X250553Y81130D01*
X250668Y80590D01*
X250769Y80047D01*
X250856Y79501D01*
X250931Y78954D01*
X250992Y78405D01*
X251039Y77855D01*
X251073Y77304D01*
X251093Y76752D01*
X251100Y76200D01*
X251093Y75648D01*
X251073Y75096D01*
X251039Y74545D01*
X250992Y73995D01*
X250931Y73446D01*
X250856Y72899D01*
X250769Y72353D01*
X250668Y71810D01*
X250553Y71270D01*
X250426Y70733D01*
X250285Y70199D01*
X250131Y69669D01*
X249964Y69142D01*
X249785Y68620D01*
X249592Y68102D01*
X249387Y67590D01*
X249170Y67082D01*
X248940Y66580D01*
X248698Y66084D01*
X248443Y65594D01*
X248177Y65110D01*
X247899Y64633D01*
X247609Y64163D01*
X247308Y63700D01*
X246996Y63244D01*
X246672Y62797D01*
X246338Y62357D01*
X245993Y61926D01*
X245637Y61504D01*
X245271Y61090D01*
X244896Y60685D01*
X244510Y60290D01*
X244115Y59904D01*
X243710Y59529D01*
X243296Y59163D01*
X242874Y58807D01*
X242443Y58462D01*
X242003Y58128D01*
X241556Y57804D01*
X241100Y57492D01*
X240637Y57191D01*
X240167Y56901D01*
X239690Y56623D01*
X239206Y56357D01*
X238716Y56102D01*
X238220Y55860D01*
X237718Y55630D01*
X237210Y55413D01*
X236698Y55208D01*
X236180Y55015D01*
X235658Y54836D01*
X235131Y54669D01*
X234601Y54515D01*
X234067Y54374D01*
X233530Y54247D01*
X232990Y54132D01*
X232447Y54031D01*
X231901Y53944D01*
X231354Y53869D01*
X230805Y53808D01*
X230255Y53761D01*
X229704Y53727D01*
X229152Y53707D01*
X228600Y53700D01*
X228048Y53707D01*
X227496Y53727D01*
X226945Y53761D01*
X226395Y53808D01*
X225846Y53869D01*
X225299Y53944D01*
X224753Y54031D01*
X224210Y54132D01*
X223670Y54247D01*
X223133Y54374D01*
X222599Y54515D01*
X222069Y54669D01*
X221542Y54836D01*
X221020Y55015D01*
X220502Y55208D01*
X219990Y55413D01*
X219482Y55630D01*
X218980Y55860D01*
X218484Y56102D01*
X217994Y56357D01*
X217510Y56623D01*
X217033Y56901D01*
X216563Y57191D01*
X216100Y57492D01*
X215644Y57804D01*
X215197Y58128D01*
X214757Y58462D01*
X214326Y58807D01*
X213904Y59163D01*
X213490Y59529D01*
X213085Y59904D01*
X212690Y60290D01*
X212304Y60685D01*
X211929Y61090D01*
X211563Y61504D01*
X211207Y61926D01*
X210862Y62357D01*
X210528Y62797D01*
X210204Y63244D01*
X209892Y63700D01*
X209591Y64163D01*
X209301Y64633D01*
X209023Y65110D01*
X208757Y65594D01*
X208502Y66084D01*
X208260Y66580D01*
X208030Y67082D01*
X207813Y67590D01*
X207608Y68102D01*
X207415Y68620D01*
X207236Y69142D01*
X207069Y69669D01*
X206915Y70199D01*
X206774Y70733D01*
X206647Y71270D01*
X206532Y71810D01*
X206431Y72353D01*
X206344Y72899D01*
X206269Y73446D01*
X206208Y73995D01*
X206161Y74545D01*
X206127Y75096D01*
X206107Y75648D01*
X206100Y76200D01*
X2746100Y50800D02*
X2746107Y51352D01*
X2746127Y51904D01*
X2746161Y52455D01*
X2746208Y53005D01*
X2746269Y53554D01*
X2746344Y54101D01*
X2746431Y54647D01*
X2746532Y55190D01*
X2746647Y55730D01*
X2746774Y56267D01*
X2746915Y56801D01*
X2747069Y57331D01*
X2747236Y57858D01*
X2747415Y58380D01*
X2747608Y58898D01*
X2747813Y59410D01*
X2748030Y59918D01*
X2748260Y60420D01*
X2748502Y60916D01*
X2748757Y61406D01*
X2749023Y61890D01*
X2749301Y62367D01*
X2749591Y62837D01*
X2749892Y63300D01*
X2750204Y63756D01*
X2750528Y64203D01*
X2750862Y64643D01*
X2751207Y65074D01*
X2751563Y65496D01*
X2751929Y65910D01*
X2752304Y66315D01*
X2752690Y66710D01*
X2753085Y67096D01*
X2753490Y67471D01*
X2753904Y67837D01*
X2754326Y68193D01*
X2754757Y68538D01*
X2755197Y68872D01*
X2755644Y69196D01*
X2756100Y69508D01*
X2756563Y69809D01*
X2757033Y70099D01*
X2757510Y70377D01*
X2757994Y70643D01*
X2758484Y70898D01*
X2758980Y71140D01*
X2759482Y71370D01*
X2759990Y71587D01*
X2760502Y71792D01*
X2761020Y71985D01*
X2761542Y72164D01*
X2762069Y72331D01*
X2762599Y72485D01*
X2763133Y72626D01*
X2763670Y72753D01*
X2764210Y72868D01*
X2764753Y72969D01*
X2765299Y73056D01*
X2765846Y73131D01*
X2766395Y73192D01*
X2766945Y73239D01*
X2767496Y73273D01*
X2768048Y73293D01*
X2768600Y73300D01*
X2769152Y73293D01*
X2769704Y73273D01*
X2770255Y73239D01*
X2770805Y73192D01*
X2771354Y73131D01*
X2771901Y73056D01*
X2772447Y72969D01*
X2772990Y72868D01*
X2773530Y72753D01*
X2774067Y72626D01*
X2774601Y72485D01*
X2775131Y72331D01*
X2775658Y72164D01*
X2776180Y71985D01*
X2776698Y71792D01*
X2777210Y71587D01*
X2777718Y71370D01*
X2778220Y71140D01*
X2778716Y70898D01*
X2779206Y70643D01*
X2779690Y70377D01*
X2780167Y70099D01*
X2780637Y69809D01*
X2781100Y69508D01*
X2781556Y69196D01*
X2782003Y68872D01*
X2782443Y68538D01*
X2782874Y68193D01*
X2783296Y67837D01*
X2783710Y67471D01*
X2784115Y67096D01*
X2784510Y66710D01*
X2784896Y66315D01*
X2785271Y65910D01*
X2785637Y65496D01*
X2785993Y65074D01*
X2786338Y64643D01*
X2786672Y64203D01*
X2786996Y63756D01*
X2787308Y63300D01*
X2787609Y62837D01*
X2787899Y62367D01*
X2788177Y61890D01*
X2788443Y61406D01*
X2788698Y60916D01*
X2788940Y60420D01*
X2789170Y59918D01*
X2789387Y59410D01*
X2789592Y58898D01*
X2789785Y58380D01*
X2789964Y57858D01*
X2790131Y57331D01*
X2790285Y56801D01*
X2790426Y56267D01*
X2790553Y55730D01*
X2790668Y55190D01*
X2790769Y54647D01*
X2790856Y54101D01*
X2790931Y53554D01*
X2790992Y53005D01*
X2791039Y52455D01*
X2791073Y51904D01*
X2791093Y51352D01*
X2791100Y50800D01*
X2791093Y50248D01*
X2791073Y49696D01*
X2791039Y49145D01*
X2790992Y48595D01*
X2790931Y48046D01*
X2790856Y47499D01*
X2790769Y46953D01*
X2790668Y46410D01*
X2790553Y45870D01*
X2790426Y45333D01*
X2790285Y44799D01*
X2790131Y44269D01*
X2789964Y43742D01*
X2789785Y43220D01*
X2789592Y42702D01*
X2789387Y42190D01*
X2789170Y41682D01*
X2788940Y41180D01*
X2788698Y40684D01*
X2788443Y40194D01*
X2788177Y39710D01*
X2787899Y39233D01*
X2787609Y38763D01*
X2787308Y38300D01*
X2786996Y37844D01*
X2786672Y37397D01*
X2786338Y36957D01*
X2785993Y36526D01*
X2785637Y36104D01*
X2785271Y35690D01*
X2784896Y35285D01*
X2784510Y34890D01*
X2784115Y34504D01*
X2783710Y34129D01*
X2783296Y33763D01*
X2782874Y33407D01*
X2782443Y33062D01*
X2782003Y32728D01*
X2781556Y32404D01*
X2781100Y32092D01*
X2780637Y31791D01*
X2780167Y31501D01*
X2779690Y31223D01*
X2779206Y30957D01*
X2778716Y30702D01*
X2778220Y30460D01*
X2777718Y30230D01*
X2777210Y30013D01*
X2776698Y29808D01*
X2776180Y29615D01*
X2775658Y29436D01*
X2775131Y29269D01*
X2774601Y29115D01*
X2774067Y28974D01*
X2773530Y28847D01*
X2772990Y28732D01*
X2772447Y28631D01*
X2771901Y28544D01*
X2771354Y28469D01*
X2770805Y28408D01*
X2770255Y28361D01*
X2769704Y28327D01*
X2769152Y28307D01*
X2768600Y28300D01*
X2768048Y28307D01*
X2767496Y28327D01*
X2766945Y28361D01*
X2766395Y28408D01*
X2765846Y28469D01*
X2765299Y28544D01*
X2764753Y28631D01*
X2764210Y28732D01*
X2763670Y28847D01*
X2763133Y28974D01*
X2762599Y29115D01*
X2762069Y29269D01*
X2761542Y29436D01*
X2761020Y29615D01*
X2760502Y29808D01*
X2759990Y30013D01*
X2759482Y30230D01*
X2758980Y30460D01*
X2758484Y30702D01*
X2757994Y30957D01*
X2757510Y31223D01*
X2757033Y31501D01*
X2756563Y31791D01*
X2756100Y32092D01*
X2755644Y32404D01*
X2755197Y32728D01*
X2754757Y33062D01*
X2754326Y33407D01*
X2753904Y33763D01*
X2753490Y34129D01*
X2753085Y34504D01*
X2752690Y34890D01*
X2752304Y35285D01*
X2751929Y35690D01*
X2751563Y36104D01*
X2751207Y36526D01*
X2750862Y36957D01*
X2750528Y37397D01*
X2750204Y37844D01*
X2749892Y38300D01*
X2749591Y38763D01*
X2749301Y39233D01*
X2749023Y39710D01*
X2748757Y40194D01*
X2748502Y40684D01*
X2748260Y41180D01*
X2748030Y41682D01*
X2747813Y42190D01*
X2747608Y42702D01*
X2747415Y43220D01*
X2747236Y43742D01*
X2747069Y44269D01*
X2746915Y44799D01*
X2746774Y45333D01*
X2746647Y45870D01*
X2746532Y46410D01*
X2746431Y46953D01*
X2746344Y47499D01*
X2746269Y48046D01*
X2746208Y48595D01*
X2746161Y49145D01*
X2746127Y49696D01*
X2746107Y50248D01*
X2746100Y50800D01*
X2441300Y1016000D02*
X2441307Y1016552D01*
X2441327Y1017104D01*
X2441361Y1017655D01*
X2441408Y1018205D01*
X2441469Y1018754D01*
X2441544Y1019301D01*
X2441631Y1019847D01*
X2441732Y1020390D01*
X2441847Y1020930D01*
X2441974Y1021467D01*
X2442115Y1022001D01*
X2442269Y1022531D01*
X2442436Y1023058D01*
X2442615Y1023580D01*
X2442808Y1024098D01*
X2443013Y1024610D01*
X2443230Y1025118D01*
X2443460Y1025620D01*
X2443702Y1026116D01*
X2443957Y1026606D01*
X2444223Y1027090D01*
X2444501Y1027567D01*
X2444791Y1028037D01*
X2445092Y1028500D01*
X2445404Y1028956D01*
X2445728Y1029403D01*
X2446062Y1029843D01*
X2446407Y1030274D01*
X2446763Y1030696D01*
X2447129Y1031110D01*
X2447504Y1031515D01*
X2447890Y1031910D01*
X2448285Y1032296D01*
X2448690Y1032671D01*
X2449104Y1033037D01*
X2449526Y1033393D01*
X2449957Y1033738D01*
X2450397Y1034072D01*
X2450844Y1034396D01*
X2451300Y1034708D01*
X2451763Y1035009D01*
X2452233Y1035299D01*
X2452710Y1035577D01*
X2453194Y1035843D01*
X2453684Y1036098D01*
X2454180Y1036340D01*
X2454682Y1036570D01*
X2455190Y1036787D01*
X2455702Y1036992D01*
X2456220Y1037185D01*
X2456742Y1037364D01*
X2457269Y1037531D01*
X2457799Y1037685D01*
X2458333Y1037826D01*
X2458870Y1037953D01*
X2459410Y1038068D01*
X2459953Y1038169D01*
X2460499Y1038256D01*
X2461046Y1038331D01*
X2461595Y1038392D01*
X2462145Y1038439D01*
X2462696Y1038473D01*
X2463248Y1038493D01*
X2463800Y1038500D01*
X2464352Y1038493D01*
X2464904Y1038473D01*
X2465455Y1038439D01*
X2466005Y1038392D01*
X2466554Y1038331D01*
X2467101Y1038256D01*
X2467647Y1038169D01*
X2468190Y1038068D01*
X2468730Y1037953D01*
X2469267Y1037826D01*
X2469801Y1037685D01*
X2470331Y1037531D01*
X2470858Y1037364D01*
X2471380Y1037185D01*
X2471898Y1036992D01*
X2472410Y1036787D01*
X2472918Y1036570D01*
X2473420Y1036340D01*
X2473916Y1036098D01*
X2474406Y1035843D01*
X2474890Y1035577D01*
X2475367Y1035299D01*
X2475837Y1035009D01*
X2476300Y1034708D01*
X2476756Y1034396D01*
X2477203Y1034072D01*
X2477643Y1033738D01*
X2478074Y1033393D01*
X2478496Y1033037D01*
X2478910Y1032671D01*
X2479315Y1032296D01*
X2479710Y1031910D01*
X2480096Y1031515D01*
X2480471Y1031110D01*
X2480837Y1030696D01*
X2481193Y1030274D01*
X2481538Y1029843D01*
X2481872Y1029403D01*
X2482196Y1028956D01*
X2482508Y1028500D01*
X2482809Y1028037D01*
X2483099Y1027567D01*
X2483377Y1027090D01*
X2483643Y1026606D01*
X2483898Y1026116D01*
X2484140Y1025620D01*
X2484370Y1025118D01*
X2484587Y1024610D01*
X2484792Y1024098D01*
X2484985Y1023580D01*
X2485164Y1023058D01*
X2485331Y1022531D01*
X2485485Y1022001D01*
X2485626Y1021467D01*
X2485753Y1020930D01*
X2485868Y1020390D01*
X2485969Y1019847D01*
X2486056Y1019301D01*
X2486131Y1018754D01*
X2486192Y1018205D01*
X2486239Y1017655D01*
X2486273Y1017104D01*
X2486293Y1016552D01*
X2486300Y1016000D01*
X2486293Y1015448D01*
X2486273Y1014896D01*
X2486239Y1014345D01*
X2486192Y1013795D01*
X2486131Y1013246D01*
X2486056Y1012699D01*
X2485969Y1012153D01*
X2485868Y1011610D01*
X2485753Y1011070D01*
X2485626Y1010533D01*
X2485485Y1009999D01*
X2485331Y1009469D01*
X2485164Y1008942D01*
X2484985Y1008420D01*
X2484792Y1007902D01*
X2484587Y1007390D01*
X2484370Y1006882D01*
X2484140Y1006380D01*
X2483898Y1005884D01*
X2483643Y1005394D01*
X2483377Y1004910D01*
X2483099Y1004433D01*
X2482809Y1003963D01*
X2482508Y1003500D01*
X2482196Y1003044D01*
X2481872Y1002597D01*
X2481538Y1002157D01*
X2481193Y1001726D01*
X2480837Y1001304D01*
X2480471Y1000890D01*
X2480096Y1000485D01*
X2479710Y1000090D01*
X2479315Y999704D01*
X2478910Y999329D01*
X2478496Y998963D01*
X2478074Y998607D01*
X2477643Y998262D01*
X2477203Y997928D01*
X2476756Y997604D01*
X2476300Y997292D01*
X2475837Y996991D01*
X2475367Y996701D01*
X2474890Y996423D01*
X2474406Y996157D01*
X2473916Y995902D01*
X2473420Y995660D01*
X2472918Y995430D01*
X2472410Y995213D01*
X2471898Y995008D01*
X2471380Y994815D01*
X2470858Y994636D01*
X2470331Y994469D01*
X2469801Y994315D01*
X2469267Y994174D01*
X2468730Y994047D01*
X2468190Y993932D01*
X2467647Y993831D01*
X2467101Y993744D01*
X2466554Y993669D01*
X2466005Y993608D01*
X2465455Y993561D01*
X2464904Y993527D01*
X2464352Y993507D01*
X2463800Y993500D01*
X2463248Y993507D01*
X2462696Y993527D01*
X2462145Y993561D01*
X2461595Y993608D01*
X2461046Y993669D01*
X2460499Y993744D01*
X2459953Y993831D01*
X2459410Y993932D01*
X2458870Y994047D01*
X2458333Y994174D01*
X2457799Y994315D01*
X2457269Y994469D01*
X2456742Y994636D01*
X2456220Y994815D01*
X2455702Y995008D01*
X2455190Y995213D01*
X2454682Y995430D01*
X2454180Y995660D01*
X2453684Y995902D01*
X2453194Y996157D01*
X2452710Y996423D01*
X2452233Y996701D01*
X2451763Y996991D01*
X2451300Y997292D01*
X2450844Y997604D01*
X2450397Y997928D01*
X2449957Y998262D01*
X2449526Y998607D01*
X2449104Y998963D01*
X2448690Y999329D01*
X2448285Y999704D01*
X2447890Y1000090D01*
X2447504Y1000485D01*
X2447129Y1000890D01*
X2446763Y1001304D01*
X2446407Y1001726D01*
X2446062Y1002157D01*
X2445728Y1002597D01*
X2445404Y1003044D01*
X2445092Y1003500D01*
X2444791Y1003963D01*
X2444501Y1004433D01*
X2444223Y1004910D01*
X2443957Y1005394D01*
X2443702Y1005884D01*
X2443460Y1006380D01*
X2443230Y1006882D01*
X2443013Y1007390D01*
X2442808Y1007902D01*
X2442615Y1008420D01*
X2442436Y1008942D01*
X2442269Y1009469D01*
X2442115Y1009999D01*
X2441974Y1010533D01*
X2441847Y1011070D01*
X2441732Y1011610D01*
X2441631Y1012153D01*
X2441544Y1012699D01*
X2441469Y1013246D01*
X2441408Y1013795D01*
X2441361Y1014345D01*
X2441327Y1014896D01*
X2441307Y1015448D01*
X2441300Y1016000D01*
X206100Y1016000D02*
X206107Y1016552D01*
X206127Y1017104D01*
X206161Y1017655D01*
X206208Y1018205D01*
X206269Y1018754D01*
X206344Y1019301D01*
X206431Y1019847D01*
X206532Y1020390D01*
X206647Y1020930D01*
X206774Y1021467D01*
X206915Y1022001D01*
X207069Y1022531D01*
X207236Y1023058D01*
X207415Y1023580D01*
X207608Y1024098D01*
X207813Y1024610D01*
X208030Y1025118D01*
X208260Y1025620D01*
X208502Y1026116D01*
X208757Y1026606D01*
X209023Y1027090D01*
X209301Y1027567D01*
X209591Y1028037D01*
X209892Y1028500D01*
X210204Y1028956D01*
X210528Y1029403D01*
X210862Y1029843D01*
X211207Y1030274D01*
X211563Y1030696D01*
X211929Y1031110D01*
X212304Y1031515D01*
X212690Y1031910D01*
X213085Y1032296D01*
X213490Y1032671D01*
X213904Y1033037D01*
X214326Y1033393D01*
X214757Y1033738D01*
X215197Y1034072D01*
X215644Y1034396D01*
X216100Y1034708D01*
X216563Y1035009D01*
X217033Y1035299D01*
X217510Y1035577D01*
X217994Y1035843D01*
X218484Y1036098D01*
X218980Y1036340D01*
X219482Y1036570D01*
X219990Y1036787D01*
X220502Y1036992D01*
X221020Y1037185D01*
X221542Y1037364D01*
X222069Y1037531D01*
X222599Y1037685D01*
X223133Y1037826D01*
X223670Y1037953D01*
X224210Y1038068D01*
X224753Y1038169D01*
X225299Y1038256D01*
X225846Y1038331D01*
X226395Y1038392D01*
X226945Y1038439D01*
X227496Y1038473D01*
X228048Y1038493D01*
X228600Y1038500D01*
X229152Y1038493D01*
X229704Y1038473D01*
X230255Y1038439D01*
X230805Y1038392D01*
X231354Y1038331D01*
X231901Y1038256D01*
X232447Y1038169D01*
X232990Y1038068D01*
X233530Y1037953D01*
X234067Y1037826D01*
X234601Y1037685D01*
X235131Y1037531D01*
X235658Y1037364D01*
X236180Y1037185D01*
X236698Y1036992D01*
X237210Y1036787D01*
X237718Y1036570D01*
X238220Y1036340D01*
X238716Y1036098D01*
X239206Y1035843D01*
X239690Y1035577D01*
X240167Y1035299D01*
X240637Y1035009D01*
X241100Y1034708D01*
X241556Y1034396D01*
X242003Y1034072D01*
X242443Y1033738D01*
X242874Y1033393D01*
X243296Y1033037D01*
X243710Y1032671D01*
X244115Y1032296D01*
X244510Y1031910D01*
X244896Y1031515D01*
X245271Y1031110D01*
X245637Y1030696D01*
X245993Y1030274D01*
X246338Y1029843D01*
X246672Y1029403D01*
X246996Y1028956D01*
X247308Y1028500D01*
X247609Y1028037D01*
X247899Y1027567D01*
X248177Y1027090D01*
X248443Y1026606D01*
X248698Y1026116D01*
X248940Y1025620D01*
X249170Y1025118D01*
X249387Y1024610D01*
X249592Y1024098D01*
X249785Y1023580D01*
X249964Y1023058D01*
X250131Y1022531D01*
X250285Y1022001D01*
X250426Y1021467D01*
X250553Y1020930D01*
X250668Y1020390D01*
X250769Y1019847D01*
X250856Y1019301D01*
X250931Y1018754D01*
X250992Y1018205D01*
X251039Y1017655D01*
X251073Y1017104D01*
X251093Y1016552D01*
X251100Y1016000D01*
X251093Y1015448D01*
X251073Y1014896D01*
X251039Y1014345D01*
X250992Y1013795D01*
X250931Y1013246D01*
X250856Y1012699D01*
X250769Y1012153D01*
X250668Y1011610D01*
X250553Y1011070D01*
X250426Y1010533D01*
X250285Y1009999D01*
X250131Y1009469D01*
X249964Y1008942D01*
X249785Y1008420D01*
X249592Y1007902D01*
X249387Y1007390D01*
X249170Y1006882D01*
X248940Y1006380D01*
X248698Y1005884D01*
X248443Y1005394D01*
X248177Y1004910D01*
X247899Y1004433D01*
X247609Y1003963D01*
X247308Y1003500D01*
X246996Y1003044D01*
X246672Y1002597D01*
X246338Y1002157D01*
X245993Y1001726D01*
X245637Y1001304D01*
X245271Y1000890D01*
X244896Y1000485D01*
X244510Y1000090D01*
X244115Y999704D01*
X243710Y999329D01*
X243296Y998963D01*
X242874Y998607D01*
X242443Y998262D01*
X242003Y997928D01*
X241556Y997604D01*
X241100Y997292D01*
X240637Y996991D01*
X240167Y996701D01*
X239690Y996423D01*
X239206Y996157D01*
X238716Y995902D01*
X238220Y995660D01*
X237718Y995430D01*
X237210Y995213D01*
X236698Y995008D01*
X236180Y994815D01*
X235658Y994636D01*
X235131Y994469D01*
X234601Y994315D01*
X234067Y994174D01*
X233530Y994047D01*
X232990Y993932D01*
X232447Y993831D01*
X231901Y993744D01*
X231354Y993669D01*
X230805Y993608D01*
X230255Y993561D01*
X229704Y993527D01*
X229152Y993507D01*
X228600Y993500D01*
X228048Y993507D01*
X227496Y993527D01*
X226945Y993561D01*
X226395Y993608D01*
X225846Y993669D01*
X225299Y993744D01*
X224753Y993831D01*
X224210Y993932D01*
X223670Y994047D01*
X223133Y994174D01*
X222599Y994315D01*
X222069Y994469D01*
X221542Y994636D01*
X221020Y994815D01*
X220502Y995008D01*
X219990Y995213D01*
X219482Y995430D01*
X218980Y995660D01*
X218484Y995902D01*
X217994Y996157D01*
X217510Y996423D01*
X217033Y996701D01*
X216563Y996991D01*
X216100Y997292D01*
X215644Y997604D01*
X215197Y997928D01*
X214757Y998262D01*
X214326Y998607D01*
X213904Y998963D01*
X213490Y999329D01*
X213085Y999704D01*
X212690Y1000090D01*
X212304Y1000485D01*
X211929Y1000890D01*
X211563Y1001304D01*
X211207Y1001726D01*
X210862Y1002157D01*
X210528Y1002597D01*
X210204Y1003044D01*
X209892Y1003500D01*
X209591Y1003963D01*
X209301Y1004433D01*
X209023Y1004910D01*
X208757Y1005394D01*
X208502Y1005884D01*
X208260Y1006380D01*
X208030Y1006882D01*
X207813Y1007390D01*
X207608Y1007902D01*
X207415Y1008420D01*
X207236Y1008942D01*
X207069Y1009469D01*
X206915Y1009999D01*
X206774Y1010533D01*
X206647Y1011070D01*
X206532Y1011610D01*
X206431Y1012153D01*
X206344Y1012699D01*
X206269Y1013246D01*
X206208Y1013795D01*
X206161Y1014345D01*
X206127Y1014896D01*
X206107Y1015448D01*
X206100Y1016000D01*
D11*
X1700250Y971930D02*
X1712950Y971930D01*
D10*
X164700Y940900D02*
X164702Y941084D01*
X164709Y941268D01*
X164720Y941452D01*
X164736Y941635D01*
X164756Y941818D01*
X164781Y942000D01*
X164810Y942182D01*
X164844Y942363D01*
X164882Y942543D01*
X164925Y942722D01*
X164972Y942900D01*
X165023Y943077D01*
X165079Y943253D01*
X165138Y943427D01*
X165203Y943599D01*
X165271Y943770D01*
X165343Y943939D01*
X165420Y944107D01*
X165501Y944272D01*
X165586Y944435D01*
X165674Y944597D01*
X165767Y944756D01*
X165864Y944912D01*
X165964Y945067D01*
X166068Y945219D01*
X166176Y945368D01*
X166287Y945514D01*
X166402Y945658D01*
X166521Y945799D01*
X166643Y945937D01*
X166768Y946072D01*
X166897Y946203D01*
X167028Y946332D01*
X167163Y946457D01*
X167301Y946579D01*
X167442Y946698D01*
X167586Y946813D01*
X167732Y946924D01*
X167881Y947032D01*
X168033Y947136D01*
X168188Y947236D01*
X168344Y947333D01*
X168503Y947426D01*
X168665Y947514D01*
X168828Y947599D01*
X168993Y947680D01*
X169161Y947757D01*
X169330Y947829D01*
X169501Y947897D01*
X169673Y947962D01*
X169847Y948021D01*
X170023Y948077D01*
X170200Y948128D01*
X170378Y948175D01*
X170557Y948218D01*
X170737Y948256D01*
X170918Y948290D01*
X171100Y948319D01*
X171282Y948344D01*
X171465Y948364D01*
X171648Y948380D01*
X171832Y948391D01*
X172016Y948398D01*
X172200Y948400D01*
X172384Y948398D01*
X172568Y948391D01*
X172752Y948380D01*
X172935Y948364D01*
X173118Y948344D01*
X173300Y948319D01*
X173482Y948290D01*
X173663Y948256D01*
X173843Y948218D01*
X174022Y948175D01*
X174200Y948128D01*
X174377Y948077D01*
X174553Y948021D01*
X174727Y947962D01*
X174899Y947897D01*
X175070Y947829D01*
X175239Y947757D01*
X175407Y947680D01*
X175572Y947599D01*
X175735Y947514D01*
X175897Y947426D01*
X176056Y947333D01*
X176212Y947236D01*
X176367Y947136D01*
X176519Y947032D01*
X176668Y946924D01*
X176814Y946813D01*
X176958Y946698D01*
X177099Y946579D01*
X177237Y946457D01*
X177372Y946332D01*
X177503Y946203D01*
X177632Y946072D01*
X177757Y945937D01*
X177879Y945799D01*
X177998Y945658D01*
X178113Y945514D01*
X178224Y945368D01*
X178332Y945219D01*
X178436Y945067D01*
X178536Y944912D01*
X178633Y944756D01*
X178726Y944597D01*
X178814Y944435D01*
X178899Y944272D01*
X178980Y944107D01*
X179057Y943939D01*
X179129Y943770D01*
X179197Y943599D01*
X179262Y943427D01*
X179321Y943253D01*
X179377Y943077D01*
X179428Y942900D01*
X179475Y942722D01*
X179518Y942543D01*
X179556Y942363D01*
X179590Y942182D01*
X179619Y942000D01*
X179644Y941818D01*
X179664Y941635D01*
X179680Y941452D01*
X179691Y941268D01*
X179698Y941084D01*
X179700Y940900D01*
X179698Y940716D01*
X179691Y940532D01*
X179680Y940348D01*
X179664Y940165D01*
X179644Y939982D01*
X179619Y939800D01*
X179590Y939618D01*
X179556Y939437D01*
X179518Y939257D01*
X179475Y939078D01*
X179428Y938900D01*
X179377Y938723D01*
X179321Y938547D01*
X179262Y938373D01*
X179197Y938201D01*
X179129Y938030D01*
X179057Y937861D01*
X178980Y937693D01*
X178899Y937528D01*
X178814Y937365D01*
X178726Y937203D01*
X178633Y937044D01*
X178536Y936888D01*
X178436Y936733D01*
X178332Y936581D01*
X178224Y936432D01*
X178113Y936286D01*
X177998Y936142D01*
X177879Y936001D01*
X177757Y935863D01*
X177632Y935728D01*
X177503Y935597D01*
X177372Y935468D01*
X177237Y935343D01*
X177099Y935221D01*
X176958Y935102D01*
X176814Y934987D01*
X176668Y934876D01*
X176519Y934768D01*
X176367Y934664D01*
X176212Y934564D01*
X176056Y934467D01*
X175897Y934374D01*
X175735Y934286D01*
X175572Y934201D01*
X175407Y934120D01*
X175239Y934043D01*
X175070Y933971D01*
X174899Y933903D01*
X174727Y933838D01*
X174553Y933779D01*
X174377Y933723D01*
X174200Y933672D01*
X174022Y933625D01*
X173843Y933582D01*
X173663Y933544D01*
X173482Y933510D01*
X173300Y933481D01*
X173118Y933456D01*
X172935Y933436D01*
X172752Y933420D01*
X172568Y933409D01*
X172384Y933402D01*
X172200Y933400D01*
X172016Y933402D01*
X171832Y933409D01*
X171648Y933420D01*
X171465Y933436D01*
X171282Y933456D01*
X171100Y933481D01*
X170918Y933510D01*
X170737Y933544D01*
X170557Y933582D01*
X170378Y933625D01*
X170200Y933672D01*
X170023Y933723D01*
X169847Y933779D01*
X169673Y933838D01*
X169501Y933903D01*
X169330Y933971D01*
X169161Y934043D01*
X168993Y934120D01*
X168828Y934201D01*
X168665Y934286D01*
X168503Y934374D01*
X168344Y934467D01*
X168188Y934564D01*
X168033Y934664D01*
X167881Y934768D01*
X167732Y934876D01*
X167586Y934987D01*
X167442Y935102D01*
X167301Y935221D01*
X167163Y935343D01*
X167028Y935468D01*
X166897Y935597D01*
X166768Y935728D01*
X166643Y935863D01*
X166521Y936001D01*
X166402Y936142D01*
X166287Y936286D01*
X166176Y936432D01*
X166068Y936581D01*
X165964Y936733D01*
X165864Y936888D01*
X165767Y937044D01*
X165674Y937203D01*
X165586Y937365D01*
X165501Y937528D01*
X165420Y937693D01*
X165343Y937861D01*
X165271Y938030D01*
X165203Y938201D01*
X165138Y938373D01*
X165079Y938547D01*
X165023Y938723D01*
X164972Y938900D01*
X164925Y939078D01*
X164882Y939257D01*
X164844Y939437D01*
X164810Y939618D01*
X164781Y939800D01*
X164756Y939982D01*
X164736Y940165D01*
X164720Y940348D01*
X164709Y940532D01*
X164702Y940716D01*
X164700Y940900D01*
X164700Y840900D02*
X164702Y841084D01*
X164709Y841268D01*
X164720Y841452D01*
X164736Y841635D01*
X164756Y841818D01*
X164781Y842000D01*
X164810Y842182D01*
X164844Y842363D01*
X164882Y842543D01*
X164925Y842722D01*
X164972Y842900D01*
X165023Y843077D01*
X165079Y843253D01*
X165138Y843427D01*
X165203Y843599D01*
X165271Y843770D01*
X165343Y843939D01*
X165420Y844107D01*
X165501Y844272D01*
X165586Y844435D01*
X165674Y844597D01*
X165767Y844756D01*
X165864Y844912D01*
X165964Y845067D01*
X166068Y845219D01*
X166176Y845368D01*
X166287Y845514D01*
X166402Y845658D01*
X166521Y845799D01*
X166643Y845937D01*
X166768Y846072D01*
X166897Y846203D01*
X167028Y846332D01*
X167163Y846457D01*
X167301Y846579D01*
X167442Y846698D01*
X167586Y846813D01*
X167732Y846924D01*
X167881Y847032D01*
X168033Y847136D01*
X168188Y847236D01*
X168344Y847333D01*
X168503Y847426D01*
X168665Y847514D01*
X168828Y847599D01*
X168993Y847680D01*
X169161Y847757D01*
X169330Y847829D01*
X169501Y847897D01*
X169673Y847962D01*
X169847Y848021D01*
X170023Y848077D01*
X170200Y848128D01*
X170378Y848175D01*
X170557Y848218D01*
X170737Y848256D01*
X170918Y848290D01*
X171100Y848319D01*
X171282Y848344D01*
X171465Y848364D01*
X171648Y848380D01*
X171832Y848391D01*
X172016Y848398D01*
X172200Y848400D01*
X172384Y848398D01*
X172568Y848391D01*
X172752Y848380D01*
X172935Y848364D01*
X173118Y848344D01*
X173300Y848319D01*
X173482Y848290D01*
X173663Y848256D01*
X173843Y848218D01*
X174022Y848175D01*
X174200Y848128D01*
X174377Y848077D01*
X174553Y848021D01*
X174727Y847962D01*
X174899Y847897D01*
X175070Y847829D01*
X175239Y847757D01*
X175407Y847680D01*
X175572Y847599D01*
X175735Y847514D01*
X175897Y847426D01*
X176056Y847333D01*
X176212Y847236D01*
X176367Y847136D01*
X176519Y847032D01*
X176668Y846924D01*
X176814Y846813D01*
X176958Y846698D01*
X177099Y846579D01*
X177237Y846457D01*
X177372Y846332D01*
X177503Y846203D01*
X177632Y846072D01*
X177757Y845937D01*
X177879Y845799D01*
X177998Y845658D01*
X178113Y845514D01*
X178224Y845368D01*
X178332Y845219D01*
X178436Y845067D01*
X178536Y844912D01*
X178633Y844756D01*
X178726Y844597D01*
X178814Y844435D01*
X178899Y844272D01*
X178980Y844107D01*
X179057Y843939D01*
X179129Y843770D01*
X179197Y843599D01*
X179262Y843427D01*
X179321Y843253D01*
X179377Y843077D01*
X179428Y842900D01*
X179475Y842722D01*
X179518Y842543D01*
X179556Y842363D01*
X179590Y842182D01*
X179619Y842000D01*
X179644Y841818D01*
X179664Y841635D01*
X179680Y841452D01*
X179691Y841268D01*
X179698Y841084D01*
X179700Y840900D01*
X179698Y840716D01*
X179691Y840532D01*
X179680Y840348D01*
X179664Y840165D01*
X179644Y839982D01*
X179619Y839800D01*
X179590Y839618D01*
X179556Y839437D01*
X179518Y839257D01*
X179475Y839078D01*
X179428Y838900D01*
X179377Y838723D01*
X179321Y838547D01*
X179262Y838373D01*
X179197Y838201D01*
X179129Y838030D01*
X179057Y837861D01*
X178980Y837693D01*
X178899Y837528D01*
X178814Y837365D01*
X178726Y837203D01*
X178633Y837044D01*
X178536Y836888D01*
X178436Y836733D01*
X178332Y836581D01*
X178224Y836432D01*
X178113Y836286D01*
X177998Y836142D01*
X177879Y836001D01*
X177757Y835863D01*
X177632Y835728D01*
X177503Y835597D01*
X177372Y835468D01*
X177237Y835343D01*
X177099Y835221D01*
X176958Y835102D01*
X176814Y834987D01*
X176668Y834876D01*
X176519Y834768D01*
X176367Y834664D01*
X176212Y834564D01*
X176056Y834467D01*
X175897Y834374D01*
X175735Y834286D01*
X175572Y834201D01*
X175407Y834120D01*
X175239Y834043D01*
X175070Y833971D01*
X174899Y833903D01*
X174727Y833838D01*
X174553Y833779D01*
X174377Y833723D01*
X174200Y833672D01*
X174022Y833625D01*
X173843Y833582D01*
X173663Y833544D01*
X173482Y833510D01*
X173300Y833481D01*
X173118Y833456D01*
X172935Y833436D01*
X172752Y833420D01*
X172568Y833409D01*
X172384Y833402D01*
X172200Y833400D01*
X172016Y833402D01*
X171832Y833409D01*
X171648Y833420D01*
X171465Y833436D01*
X171282Y833456D01*
X171100Y833481D01*
X170918Y833510D01*
X170737Y833544D01*
X170557Y833582D01*
X170378Y833625D01*
X170200Y833672D01*
X170023Y833723D01*
X169847Y833779D01*
X169673Y833838D01*
X169501Y833903D01*
X169330Y833971D01*
X169161Y834043D01*
X168993Y834120D01*
X168828Y834201D01*
X168665Y834286D01*
X168503Y834374D01*
X168344Y834467D01*
X168188Y834564D01*
X168033Y834664D01*
X167881Y834768D01*
X167732Y834876D01*
X167586Y834987D01*
X167442Y835102D01*
X167301Y835221D01*
X167163Y835343D01*
X167028Y835468D01*
X166897Y835597D01*
X166768Y835728D01*
X166643Y835863D01*
X166521Y836001D01*
X166402Y836142D01*
X166287Y836286D01*
X166176Y836432D01*
X166068Y836581D01*
X165964Y836733D01*
X165864Y836888D01*
X165767Y837044D01*
X165674Y837203D01*
X165586Y837365D01*
X165501Y837528D01*
X165420Y837693D01*
X165343Y837861D01*
X165271Y838030D01*
X165203Y838201D01*
X165138Y838373D01*
X165079Y838547D01*
X165023Y838723D01*
X164972Y838900D01*
X164925Y839078D01*
X164882Y839257D01*
X164844Y839437D01*
X164810Y839618D01*
X164781Y839800D01*
X164756Y839982D01*
X164736Y840165D01*
X164720Y840348D01*
X164709Y840532D01*
X164702Y840716D01*
X164700Y840900D01*
X214700Y890900D02*
X214702Y891084D01*
X214709Y891268D01*
X214720Y891452D01*
X214736Y891635D01*
X214756Y891818D01*
X214781Y892000D01*
X214810Y892182D01*
X214844Y892363D01*
X214882Y892543D01*
X214925Y892722D01*
X214972Y892900D01*
X215023Y893077D01*
X215079Y893253D01*
X215138Y893427D01*
X215203Y893599D01*
X215271Y893770D01*
X215343Y893939D01*
X215420Y894107D01*
X215501Y894272D01*
X215586Y894435D01*
X215674Y894597D01*
X215767Y894756D01*
X215864Y894912D01*
X215964Y895067D01*
X216068Y895219D01*
X216176Y895368D01*
X216287Y895514D01*
X216402Y895658D01*
X216521Y895799D01*
X216643Y895937D01*
X216768Y896072D01*
X216897Y896203D01*
X217028Y896332D01*
X217163Y896457D01*
X217301Y896579D01*
X217442Y896698D01*
X217586Y896813D01*
X217732Y896924D01*
X217881Y897032D01*
X218033Y897136D01*
X218188Y897236D01*
X218344Y897333D01*
X218503Y897426D01*
X218665Y897514D01*
X218828Y897599D01*
X218993Y897680D01*
X219161Y897757D01*
X219330Y897829D01*
X219501Y897897D01*
X219673Y897962D01*
X219847Y898021D01*
X220023Y898077D01*
X220200Y898128D01*
X220378Y898175D01*
X220557Y898218D01*
X220737Y898256D01*
X220918Y898290D01*
X221100Y898319D01*
X221282Y898344D01*
X221465Y898364D01*
X221648Y898380D01*
X221832Y898391D01*
X222016Y898398D01*
X222200Y898400D01*
X222384Y898398D01*
X222568Y898391D01*
X222752Y898380D01*
X222935Y898364D01*
X223118Y898344D01*
X223300Y898319D01*
X223482Y898290D01*
X223663Y898256D01*
X223843Y898218D01*
X224022Y898175D01*
X224200Y898128D01*
X224377Y898077D01*
X224553Y898021D01*
X224727Y897962D01*
X224899Y897897D01*
X225070Y897829D01*
X225239Y897757D01*
X225407Y897680D01*
X225572Y897599D01*
X225735Y897514D01*
X225897Y897426D01*
X226056Y897333D01*
X226212Y897236D01*
X226367Y897136D01*
X226519Y897032D01*
X226668Y896924D01*
X226814Y896813D01*
X226958Y896698D01*
X227099Y896579D01*
X227237Y896457D01*
X227372Y896332D01*
X227503Y896203D01*
X227632Y896072D01*
X227757Y895937D01*
X227879Y895799D01*
X227998Y895658D01*
X228113Y895514D01*
X228224Y895368D01*
X228332Y895219D01*
X228436Y895067D01*
X228536Y894912D01*
X228633Y894756D01*
X228726Y894597D01*
X228814Y894435D01*
X228899Y894272D01*
X228980Y894107D01*
X229057Y893939D01*
X229129Y893770D01*
X229197Y893599D01*
X229262Y893427D01*
X229321Y893253D01*
X229377Y893077D01*
X229428Y892900D01*
X229475Y892722D01*
X229518Y892543D01*
X229556Y892363D01*
X229590Y892182D01*
X229619Y892000D01*
X229644Y891818D01*
X229664Y891635D01*
X229680Y891452D01*
X229691Y891268D01*
X229698Y891084D01*
X229700Y890900D01*
X229698Y890716D01*
X229691Y890532D01*
X229680Y890348D01*
X229664Y890165D01*
X229644Y889982D01*
X229619Y889800D01*
X229590Y889618D01*
X229556Y889437D01*
X229518Y889257D01*
X229475Y889078D01*
X229428Y888900D01*
X229377Y888723D01*
X229321Y888547D01*
X229262Y888373D01*
X229197Y888201D01*
X229129Y888030D01*
X229057Y887861D01*
X228980Y887693D01*
X228899Y887528D01*
X228814Y887365D01*
X228726Y887203D01*
X228633Y887044D01*
X228536Y886888D01*
X228436Y886733D01*
X228332Y886581D01*
X228224Y886432D01*
X228113Y886286D01*
X227998Y886142D01*
X227879Y886001D01*
X227757Y885863D01*
X227632Y885728D01*
X227503Y885597D01*
X227372Y885468D01*
X227237Y885343D01*
X227099Y885221D01*
X226958Y885102D01*
X226814Y884987D01*
X226668Y884876D01*
X226519Y884768D01*
X226367Y884664D01*
X226212Y884564D01*
X226056Y884467D01*
X225897Y884374D01*
X225735Y884286D01*
X225572Y884201D01*
X225407Y884120D01*
X225239Y884043D01*
X225070Y883971D01*
X224899Y883903D01*
X224727Y883838D01*
X224553Y883779D01*
X224377Y883723D01*
X224200Y883672D01*
X224022Y883625D01*
X223843Y883582D01*
X223663Y883544D01*
X223482Y883510D01*
X223300Y883481D01*
X223118Y883456D01*
X222935Y883436D01*
X222752Y883420D01*
X222568Y883409D01*
X222384Y883402D01*
X222200Y883400D01*
X222016Y883402D01*
X221832Y883409D01*
X221648Y883420D01*
X221465Y883436D01*
X221282Y883456D01*
X221100Y883481D01*
X220918Y883510D01*
X220737Y883544D01*
X220557Y883582D01*
X220378Y883625D01*
X220200Y883672D01*
X220023Y883723D01*
X219847Y883779D01*
X219673Y883838D01*
X219501Y883903D01*
X219330Y883971D01*
X219161Y884043D01*
X218993Y884120D01*
X218828Y884201D01*
X218665Y884286D01*
X218503Y884374D01*
X218344Y884467D01*
X218188Y884564D01*
X218033Y884664D01*
X217881Y884768D01*
X217732Y884876D01*
X217586Y884987D01*
X217442Y885102D01*
X217301Y885221D01*
X217163Y885343D01*
X217028Y885468D01*
X216897Y885597D01*
X216768Y885728D01*
X216643Y885863D01*
X216521Y886001D01*
X216402Y886142D01*
X216287Y886286D01*
X216176Y886432D01*
X216068Y886581D01*
X215964Y886733D01*
X215864Y886888D01*
X215767Y887044D01*
X215674Y887203D01*
X215586Y887365D01*
X215501Y887528D01*
X215420Y887693D01*
X215343Y887861D01*
X215271Y888030D01*
X215203Y888201D01*
X215138Y888373D01*
X215079Y888547D01*
X215023Y888723D01*
X214972Y888900D01*
X214925Y889078D01*
X214882Y889257D01*
X214844Y889437D01*
X214810Y889618D01*
X214781Y889800D01*
X214756Y889982D01*
X214736Y890165D01*
X214720Y890348D01*
X214709Y890532D01*
X214702Y890716D01*
X214700Y890900D01*
X219450Y583000D02*
X219452Y583099D01*
X219458Y583199D01*
X219468Y583298D01*
X219482Y583396D01*
X219499Y583494D01*
X219521Y583591D01*
X219546Y583687D01*
X219575Y583782D01*
X219608Y583876D01*
X219645Y583968D01*
X219685Y584059D01*
X219729Y584148D01*
X219777Y584236D01*
X219828Y584321D01*
X219882Y584404D01*
X219939Y584486D01*
X220000Y584564D01*
X220064Y584641D01*
X220130Y584714D01*
X220200Y584785D01*
X220272Y584853D01*
X220347Y584919D01*
X220425Y584981D01*
X220505Y585040D01*
X220587Y585096D01*
X220671Y585148D01*
X220758Y585197D01*
X220846Y585243D01*
X220936Y585285D01*
X221028Y585324D01*
X221121Y585359D01*
X221215Y585390D01*
X221311Y585417D01*
X221408Y585440D01*
X221505Y585460D01*
X221603Y585476D01*
X221702Y585488D01*
X221801Y585496D01*
X221900Y585500D01*
X222000Y585500D01*
X222099Y585496D01*
X222198Y585488D01*
X222297Y585476D01*
X222395Y585460D01*
X222492Y585440D01*
X222589Y585417D01*
X222685Y585390D01*
X222779Y585359D01*
X222872Y585324D01*
X222964Y585285D01*
X223054Y585243D01*
X223142Y585197D01*
X223229Y585148D01*
X223313Y585096D01*
X223395Y585040D01*
X223475Y584981D01*
X223553Y584919D01*
X223628Y584853D01*
X223700Y584785D01*
X223770Y584714D01*
X223836Y584641D01*
X223900Y584564D01*
X223961Y584486D01*
X224018Y584404D01*
X224072Y584321D01*
X224123Y584236D01*
X224171Y584148D01*
X224215Y584059D01*
X224255Y583968D01*
X224292Y583876D01*
X224325Y583782D01*
X224354Y583687D01*
X224379Y583591D01*
X224401Y583494D01*
X224418Y583396D01*
X224432Y583298D01*
X224442Y583199D01*
X224448Y583099D01*
X224450Y583000D01*
X224448Y582901D01*
X224442Y582801D01*
X224432Y582702D01*
X224418Y582604D01*
X224401Y582506D01*
X224379Y582409D01*
X224354Y582313D01*
X224325Y582218D01*
X224292Y582124D01*
X224255Y582032D01*
X224215Y581941D01*
X224171Y581852D01*
X224123Y581764D01*
X224072Y581679D01*
X224018Y581596D01*
X223961Y581514D01*
X223900Y581436D01*
X223836Y581359D01*
X223770Y581286D01*
X223700Y581215D01*
X223628Y581147D01*
X223553Y581081D01*
X223475Y581019D01*
X223395Y580960D01*
X223313Y580904D01*
X223229Y580852D01*
X223142Y580803D01*
X223054Y580757D01*
X222964Y580715D01*
X222872Y580676D01*
X222779Y580641D01*
X222685Y580610D01*
X222589Y580583D01*
X222492Y580560D01*
X222395Y580540D01*
X222297Y580524D01*
X222198Y580512D01*
X222099Y580504D01*
X222000Y580500D01*
X221900Y580500D01*
X221801Y580504D01*
X221702Y580512D01*
X221603Y580524D01*
X221505Y580540D01*
X221408Y580560D01*
X221311Y580583D01*
X221215Y580610D01*
X221121Y580641D01*
X221028Y580676D01*
X220936Y580715D01*
X220846Y580757D01*
X220758Y580803D01*
X220671Y580852D01*
X220587Y580904D01*
X220505Y580960D01*
X220425Y581019D01*
X220347Y581081D01*
X220272Y581147D01*
X220200Y581215D01*
X220130Y581286D01*
X220064Y581359D01*
X220000Y581436D01*
X219939Y581514D01*
X219882Y581596D01*
X219828Y581679D01*
X219777Y581764D01*
X219729Y581852D01*
X219685Y581941D01*
X219645Y582032D01*
X219608Y582124D01*
X219575Y582218D01*
X219546Y582313D01*
X219521Y582409D01*
X219499Y582506D01*
X219482Y582604D01*
X219468Y582702D01*
X219458Y582801D01*
X219452Y582901D01*
X219450Y583000D01*
X209950Y577500D02*
X209952Y577609D01*
X209958Y577718D01*
X209968Y577826D01*
X209982Y577934D01*
X209999Y578042D01*
X210021Y578149D01*
X210046Y578255D01*
X210076Y578359D01*
X210109Y578463D01*
X210146Y578566D01*
X210186Y578667D01*
X210230Y578766D01*
X210278Y578864D01*
X210330Y578961D01*
X210384Y579055D01*
X210442Y579147D01*
X210504Y579237D01*
X210569Y579324D01*
X210636Y579410D01*
X210707Y579493D01*
X210781Y579573D01*
X210858Y579650D01*
X210937Y579725D01*
X211019Y579796D01*
X211104Y579865D01*
X211191Y579930D01*
X211280Y579993D01*
X211372Y580051D01*
X211466Y580107D01*
X211561Y580159D01*
X211659Y580208D01*
X211758Y580253D01*
X211859Y580295D01*
X211961Y580332D01*
X212064Y580366D01*
X212169Y580397D01*
X212275Y580423D01*
X212381Y580446D01*
X212489Y580464D01*
X212597Y580479D01*
X212705Y580490D01*
X212814Y580497D01*
X212923Y580500D01*
X213032Y580499D01*
X213141Y580494D01*
X213249Y580485D01*
X213357Y580472D01*
X213465Y580455D01*
X213572Y580435D01*
X213678Y580410D01*
X213783Y580382D01*
X213887Y580350D01*
X213990Y580314D01*
X214092Y580274D01*
X214192Y580231D01*
X214290Y580184D01*
X214387Y580134D01*
X214481Y580080D01*
X214574Y580022D01*
X214665Y579962D01*
X214753Y579898D01*
X214839Y579831D01*
X214922Y579761D01*
X215003Y579688D01*
X215081Y579612D01*
X215156Y579533D01*
X215229Y579451D01*
X215298Y579367D01*
X215364Y579281D01*
X215427Y579192D01*
X215487Y579101D01*
X215544Y579008D01*
X215597Y578913D01*
X215646Y578816D01*
X215692Y578717D01*
X215734Y578617D01*
X215773Y578515D01*
X215808Y578411D01*
X215839Y578307D01*
X215867Y578202D01*
X215890Y578095D01*
X215910Y577988D01*
X215926Y577880D01*
X215938Y577772D01*
X215946Y577663D01*
X215950Y577554D01*
X215950Y577446D01*
X215946Y577337D01*
X215938Y577228D01*
X215926Y577120D01*
X215910Y577012D01*
X215890Y576905D01*
X215867Y576798D01*
X215839Y576693D01*
X215808Y576589D01*
X215773Y576485D01*
X215734Y576383D01*
X215692Y576283D01*
X215646Y576184D01*
X215597Y576087D01*
X215544Y575992D01*
X215487Y575899D01*
X215427Y575808D01*
X215364Y575719D01*
X215298Y575633D01*
X215229Y575549D01*
X215156Y575467D01*
X215081Y575388D01*
X215003Y575312D01*
X214922Y575239D01*
X214839Y575169D01*
X214753Y575102D01*
X214665Y575038D01*
X214574Y574978D01*
X214481Y574920D01*
X214387Y574866D01*
X214290Y574816D01*
X214192Y574769D01*
X214092Y574726D01*
X213990Y574686D01*
X213887Y574650D01*
X213783Y574618D01*
X213678Y574590D01*
X213572Y574565D01*
X213465Y574545D01*
X213357Y574528D01*
X213249Y574515D01*
X213141Y574506D01*
X213032Y574501D01*
X212923Y574500D01*
X212814Y574503D01*
X212705Y574510D01*
X212597Y574521D01*
X212489Y574536D01*
X212381Y574554D01*
X212275Y574577D01*
X212169Y574603D01*
X212064Y574634D01*
X211961Y574668D01*
X211859Y574705D01*
X211758Y574747D01*
X211659Y574792D01*
X211561Y574841D01*
X211466Y574893D01*
X211372Y574949D01*
X211280Y575007D01*
X211191Y575070D01*
X211104Y575135D01*
X211019Y575204D01*
X210937Y575275D01*
X210858Y575350D01*
X210781Y575427D01*
X210707Y575507D01*
X210636Y575590D01*
X210569Y575676D01*
X210504Y575763D01*
X210442Y575853D01*
X210384Y575945D01*
X210330Y576039D01*
X210278Y576136D01*
X210230Y576234D01*
X210186Y576333D01*
X210146Y576434D01*
X210109Y576537D01*
X210076Y576641D01*
X210046Y576745D01*
X210021Y576851D01*
X209999Y576958D01*
X209982Y577066D01*
X209968Y577174D01*
X209958Y577282D01*
X209952Y577391D01*
X209950Y577500D01*
X219450Y492000D02*
X219452Y492099D01*
X219458Y492199D01*
X219468Y492298D01*
X219482Y492396D01*
X219499Y492494D01*
X219521Y492591D01*
X219546Y492687D01*
X219575Y492782D01*
X219608Y492876D01*
X219645Y492968D01*
X219685Y493059D01*
X219729Y493148D01*
X219777Y493236D01*
X219828Y493321D01*
X219882Y493404D01*
X219939Y493486D01*
X220000Y493564D01*
X220064Y493641D01*
X220130Y493714D01*
X220200Y493785D01*
X220272Y493853D01*
X220347Y493919D01*
X220425Y493981D01*
X220505Y494040D01*
X220587Y494096D01*
X220671Y494148D01*
X220758Y494197D01*
X220846Y494243D01*
X220936Y494285D01*
X221028Y494324D01*
X221121Y494359D01*
X221215Y494390D01*
X221311Y494417D01*
X221408Y494440D01*
X221505Y494460D01*
X221603Y494476D01*
X221702Y494488D01*
X221801Y494496D01*
X221900Y494500D01*
X222000Y494500D01*
X222099Y494496D01*
X222198Y494488D01*
X222297Y494476D01*
X222395Y494460D01*
X222492Y494440D01*
X222589Y494417D01*
X222685Y494390D01*
X222779Y494359D01*
X222872Y494324D01*
X222964Y494285D01*
X223054Y494243D01*
X223142Y494197D01*
X223229Y494148D01*
X223313Y494096D01*
X223395Y494040D01*
X223475Y493981D01*
X223553Y493919D01*
X223628Y493853D01*
X223700Y493785D01*
X223770Y493714D01*
X223836Y493641D01*
X223900Y493564D01*
X223961Y493486D01*
X224018Y493404D01*
X224072Y493321D01*
X224123Y493236D01*
X224171Y493148D01*
X224215Y493059D01*
X224255Y492968D01*
X224292Y492876D01*
X224325Y492782D01*
X224354Y492687D01*
X224379Y492591D01*
X224401Y492494D01*
X224418Y492396D01*
X224432Y492298D01*
X224442Y492199D01*
X224448Y492099D01*
X224450Y492000D01*
X224448Y491901D01*
X224442Y491801D01*
X224432Y491702D01*
X224418Y491604D01*
X224401Y491506D01*
X224379Y491409D01*
X224354Y491313D01*
X224325Y491218D01*
X224292Y491124D01*
X224255Y491032D01*
X224215Y490941D01*
X224171Y490852D01*
X224123Y490764D01*
X224072Y490679D01*
X224018Y490596D01*
X223961Y490514D01*
X223900Y490436D01*
X223836Y490359D01*
X223770Y490286D01*
X223700Y490215D01*
X223628Y490147D01*
X223553Y490081D01*
X223475Y490019D01*
X223395Y489960D01*
X223313Y489904D01*
X223229Y489852D01*
X223142Y489803D01*
X223054Y489757D01*
X222964Y489715D01*
X222872Y489676D01*
X222779Y489641D01*
X222685Y489610D01*
X222589Y489583D01*
X222492Y489560D01*
X222395Y489540D01*
X222297Y489524D01*
X222198Y489512D01*
X222099Y489504D01*
X222000Y489500D01*
X221900Y489500D01*
X221801Y489504D01*
X221702Y489512D01*
X221603Y489524D01*
X221505Y489540D01*
X221408Y489560D01*
X221311Y489583D01*
X221215Y489610D01*
X221121Y489641D01*
X221028Y489676D01*
X220936Y489715D01*
X220846Y489757D01*
X220758Y489803D01*
X220671Y489852D01*
X220587Y489904D01*
X220505Y489960D01*
X220425Y490019D01*
X220347Y490081D01*
X220272Y490147D01*
X220200Y490215D01*
X220130Y490286D01*
X220064Y490359D01*
X220000Y490436D01*
X219939Y490514D01*
X219882Y490596D01*
X219828Y490679D01*
X219777Y490764D01*
X219729Y490852D01*
X219685Y490941D01*
X219645Y491032D01*
X219608Y491124D01*
X219575Y491218D01*
X219546Y491313D01*
X219521Y491409D01*
X219499Y491506D01*
X219482Y491604D01*
X219468Y491702D01*
X219458Y491801D01*
X219452Y491901D01*
X219450Y492000D01*
X209950Y497500D02*
X209952Y497609D01*
X209958Y497718D01*
X209968Y497826D01*
X209982Y497934D01*
X209999Y498042D01*
X210021Y498149D01*
X210046Y498255D01*
X210076Y498359D01*
X210109Y498463D01*
X210146Y498566D01*
X210186Y498667D01*
X210230Y498766D01*
X210278Y498864D01*
X210330Y498961D01*
X210384Y499055D01*
X210442Y499147D01*
X210504Y499237D01*
X210569Y499324D01*
X210636Y499410D01*
X210707Y499493D01*
X210781Y499573D01*
X210858Y499650D01*
X210937Y499725D01*
X211019Y499796D01*
X211104Y499865D01*
X211191Y499930D01*
X211280Y499993D01*
X211372Y500051D01*
X211466Y500107D01*
X211561Y500159D01*
X211659Y500208D01*
X211758Y500253D01*
X211859Y500295D01*
X211961Y500332D01*
X212064Y500366D01*
X212169Y500397D01*
X212275Y500423D01*
X212381Y500446D01*
X212489Y500464D01*
X212597Y500479D01*
X212705Y500490D01*
X212814Y500497D01*
X212923Y500500D01*
X213032Y500499D01*
X213141Y500494D01*
X213249Y500485D01*
X213357Y500472D01*
X213465Y500455D01*
X213572Y500435D01*
X213678Y500410D01*
X213783Y500382D01*
X213887Y500350D01*
X213990Y500314D01*
X214092Y500274D01*
X214192Y500231D01*
X214290Y500184D01*
X214387Y500134D01*
X214481Y500080D01*
X214574Y500022D01*
X214665Y499962D01*
X214753Y499898D01*
X214839Y499831D01*
X214922Y499761D01*
X215003Y499688D01*
X215081Y499612D01*
X215156Y499533D01*
X215229Y499451D01*
X215298Y499367D01*
X215364Y499281D01*
X215427Y499192D01*
X215487Y499101D01*
X215544Y499008D01*
X215597Y498913D01*
X215646Y498816D01*
X215692Y498717D01*
X215734Y498617D01*
X215773Y498515D01*
X215808Y498411D01*
X215839Y498307D01*
X215867Y498202D01*
X215890Y498095D01*
X215910Y497988D01*
X215926Y497880D01*
X215938Y497772D01*
X215946Y497663D01*
X215950Y497554D01*
X215950Y497446D01*
X215946Y497337D01*
X215938Y497228D01*
X215926Y497120D01*
X215910Y497012D01*
X215890Y496905D01*
X215867Y496798D01*
X215839Y496693D01*
X215808Y496589D01*
X215773Y496485D01*
X215734Y496383D01*
X215692Y496283D01*
X215646Y496184D01*
X215597Y496087D01*
X215544Y495992D01*
X215487Y495899D01*
X215427Y495808D01*
X215364Y495719D01*
X215298Y495633D01*
X215229Y495549D01*
X215156Y495467D01*
X215081Y495388D01*
X215003Y495312D01*
X214922Y495239D01*
X214839Y495169D01*
X214753Y495102D01*
X214665Y495038D01*
X214574Y494978D01*
X214481Y494920D01*
X214387Y494866D01*
X214290Y494816D01*
X214192Y494769D01*
X214092Y494726D01*
X213990Y494686D01*
X213887Y494650D01*
X213783Y494618D01*
X213678Y494590D01*
X213572Y494565D01*
X213465Y494545D01*
X213357Y494528D01*
X213249Y494515D01*
X213141Y494506D01*
X213032Y494501D01*
X212923Y494500D01*
X212814Y494503D01*
X212705Y494510D01*
X212597Y494521D01*
X212489Y494536D01*
X212381Y494554D01*
X212275Y494577D01*
X212169Y494603D01*
X212064Y494634D01*
X211961Y494668D01*
X211859Y494705D01*
X211758Y494747D01*
X211659Y494792D01*
X211561Y494841D01*
X211466Y494893D01*
X211372Y494949D01*
X211280Y495007D01*
X211191Y495070D01*
X211104Y495135D01*
X211019Y495204D01*
X210937Y495275D01*
X210858Y495350D01*
X210781Y495427D01*
X210707Y495507D01*
X210636Y495590D01*
X210569Y495676D01*
X210504Y495763D01*
X210442Y495853D01*
X210384Y495945D01*
X210330Y496039D01*
X210278Y496136D01*
X210230Y496234D01*
X210186Y496333D01*
X210146Y496434D01*
X210109Y496537D01*
X210076Y496641D01*
X210046Y496745D01*
X210021Y496851D01*
X209999Y496958D01*
X209982Y497066D01*
X209968Y497174D01*
X209958Y497282D01*
X209952Y497391D01*
X209950Y497500D01*
X172500Y597200D02*
X172502Y597299D01*
X172508Y597399D01*
X172518Y597498D01*
X172532Y597596D01*
X172549Y597694D01*
X172571Y597791D01*
X172596Y597887D01*
X172625Y597982D01*
X172658Y598076D01*
X172695Y598168D01*
X172735Y598259D01*
X172779Y598348D01*
X172827Y598436D01*
X172878Y598521D01*
X172932Y598604D01*
X172989Y598686D01*
X173050Y598764D01*
X173114Y598841D01*
X173180Y598914D01*
X173250Y598985D01*
X173322Y599053D01*
X173397Y599119D01*
X173475Y599181D01*
X173555Y599240D01*
X173637Y599296D01*
X173721Y599348D01*
X173808Y599397D01*
X173896Y599443D01*
X173986Y599485D01*
X174078Y599524D01*
X174171Y599559D01*
X174265Y599590D01*
X174361Y599617D01*
X174458Y599640D01*
X174555Y599660D01*
X174653Y599676D01*
X174752Y599688D01*
X174851Y599696D01*
X174950Y599700D01*
X175050Y599700D01*
X175149Y599696D01*
X175248Y599688D01*
X175347Y599676D01*
X175445Y599660D01*
X175542Y599640D01*
X175639Y599617D01*
X175735Y599590D01*
X175829Y599559D01*
X175922Y599524D01*
X176014Y599485D01*
X176104Y599443D01*
X176192Y599397D01*
X176279Y599348D01*
X176363Y599296D01*
X176445Y599240D01*
X176525Y599181D01*
X176603Y599119D01*
X176678Y599053D01*
X176750Y598985D01*
X176820Y598914D01*
X176886Y598841D01*
X176950Y598764D01*
X177011Y598686D01*
X177068Y598604D01*
X177122Y598521D01*
X177173Y598436D01*
X177221Y598348D01*
X177265Y598259D01*
X177305Y598168D01*
X177342Y598076D01*
X177375Y597982D01*
X177404Y597887D01*
X177429Y597791D01*
X177451Y597694D01*
X177468Y597596D01*
X177482Y597498D01*
X177492Y597399D01*
X177498Y597299D01*
X177500Y597200D01*
X177498Y597101D01*
X177492Y597001D01*
X177482Y596902D01*
X177468Y596804D01*
X177451Y596706D01*
X177429Y596609D01*
X177404Y596513D01*
X177375Y596418D01*
X177342Y596324D01*
X177305Y596232D01*
X177265Y596141D01*
X177221Y596052D01*
X177173Y595964D01*
X177122Y595879D01*
X177068Y595796D01*
X177011Y595714D01*
X176950Y595636D01*
X176886Y595559D01*
X176820Y595486D01*
X176750Y595415D01*
X176678Y595347D01*
X176603Y595281D01*
X176525Y595219D01*
X176445Y595160D01*
X176363Y595104D01*
X176279Y595052D01*
X176192Y595003D01*
X176104Y594957D01*
X176014Y594915D01*
X175922Y594876D01*
X175829Y594841D01*
X175735Y594810D01*
X175639Y594783D01*
X175542Y594760D01*
X175445Y594740D01*
X175347Y594724D01*
X175248Y594712D01*
X175149Y594704D01*
X175050Y594700D01*
X174950Y594700D01*
X174851Y594704D01*
X174752Y594712D01*
X174653Y594724D01*
X174555Y594740D01*
X174458Y594760D01*
X174361Y594783D01*
X174265Y594810D01*
X174171Y594841D01*
X174078Y594876D01*
X173986Y594915D01*
X173896Y594957D01*
X173808Y595003D01*
X173721Y595052D01*
X173637Y595104D01*
X173555Y595160D01*
X173475Y595219D01*
X173397Y595281D01*
X173322Y595347D01*
X173250Y595415D01*
X173180Y595486D01*
X173114Y595559D01*
X173050Y595636D01*
X172989Y595714D01*
X172932Y595796D01*
X172878Y595879D01*
X172827Y595964D01*
X172779Y596052D01*
X172735Y596141D01*
X172695Y596232D01*
X172658Y596324D01*
X172625Y596418D01*
X172596Y596513D01*
X172571Y596609D01*
X172549Y596706D01*
X172532Y596804D01*
X172518Y596902D01*
X172508Y597001D01*
X172502Y597101D01*
X172500Y597200D01*
X172500Y477800D02*
X172502Y477899D01*
X172508Y477999D01*
X172518Y478098D01*
X172532Y478196D01*
X172549Y478294D01*
X172571Y478391D01*
X172596Y478487D01*
X172625Y478582D01*
X172658Y478676D01*
X172695Y478768D01*
X172735Y478859D01*
X172779Y478948D01*
X172827Y479036D01*
X172878Y479121D01*
X172932Y479204D01*
X172989Y479286D01*
X173050Y479364D01*
X173114Y479441D01*
X173180Y479514D01*
X173250Y479585D01*
X173322Y479653D01*
X173397Y479719D01*
X173475Y479781D01*
X173555Y479840D01*
X173637Y479896D01*
X173721Y479948D01*
X173808Y479997D01*
X173896Y480043D01*
X173986Y480085D01*
X174078Y480124D01*
X174171Y480159D01*
X174265Y480190D01*
X174361Y480217D01*
X174458Y480240D01*
X174555Y480260D01*
X174653Y480276D01*
X174752Y480288D01*
X174851Y480296D01*
X174950Y480300D01*
X175050Y480300D01*
X175149Y480296D01*
X175248Y480288D01*
X175347Y480276D01*
X175445Y480260D01*
X175542Y480240D01*
X175639Y480217D01*
X175735Y480190D01*
X175829Y480159D01*
X175922Y480124D01*
X176014Y480085D01*
X176104Y480043D01*
X176192Y479997D01*
X176279Y479948D01*
X176363Y479896D01*
X176445Y479840D01*
X176525Y479781D01*
X176603Y479719D01*
X176678Y479653D01*
X176750Y479585D01*
X176820Y479514D01*
X176886Y479441D01*
X176950Y479364D01*
X177011Y479286D01*
X177068Y479204D01*
X177122Y479121D01*
X177173Y479036D01*
X177221Y478948D01*
X177265Y478859D01*
X177305Y478768D01*
X177342Y478676D01*
X177375Y478582D01*
X177404Y478487D01*
X177429Y478391D01*
X177451Y478294D01*
X177468Y478196D01*
X177482Y478098D01*
X177492Y477999D01*
X177498Y477899D01*
X177500Y477800D01*
X177498Y477701D01*
X177492Y477601D01*
X177482Y477502D01*
X177468Y477404D01*
X177451Y477306D01*
X177429Y477209D01*
X177404Y477113D01*
X177375Y477018D01*
X177342Y476924D01*
X177305Y476832D01*
X177265Y476741D01*
X177221Y476652D01*
X177173Y476564D01*
X177122Y476479D01*
X177068Y476396D01*
X177011Y476314D01*
X176950Y476236D01*
X176886Y476159D01*
X176820Y476086D01*
X176750Y476015D01*
X176678Y475947D01*
X176603Y475881D01*
X176525Y475819D01*
X176445Y475760D01*
X176363Y475704D01*
X176279Y475652D01*
X176192Y475603D01*
X176104Y475557D01*
X176014Y475515D01*
X175922Y475476D01*
X175829Y475441D01*
X175735Y475410D01*
X175639Y475383D01*
X175542Y475360D01*
X175445Y475340D01*
X175347Y475324D01*
X175248Y475312D01*
X175149Y475304D01*
X175050Y475300D01*
X174950Y475300D01*
X174851Y475304D01*
X174752Y475312D01*
X174653Y475324D01*
X174555Y475340D01*
X174458Y475360D01*
X174361Y475383D01*
X174265Y475410D01*
X174171Y475441D01*
X174078Y475476D01*
X173986Y475515D01*
X173896Y475557D01*
X173808Y475603D01*
X173721Y475652D01*
X173637Y475704D01*
X173555Y475760D01*
X173475Y475819D01*
X173397Y475881D01*
X173322Y475947D01*
X173250Y476015D01*
X173180Y476086D01*
X173114Y476159D01*
X173050Y476236D01*
X172989Y476314D01*
X172932Y476396D01*
X172878Y476479D01*
X172827Y476564D01*
X172779Y476652D01*
X172735Y476741D01*
X172695Y476832D01*
X172658Y476924D01*
X172625Y477018D01*
X172596Y477113D01*
X172571Y477209D01*
X172549Y477306D01*
X172532Y477404D01*
X172518Y477502D01*
X172508Y477601D01*
X172502Y477701D01*
X172500Y477800D01*
M02*
